G04 (created by PCBNEW (22-Jun-2014 BZR 4027)-stable) date Thu 17 Jul 2014 04:04:50 PM CEST*
%MOIN*%
G04 Gerber Fmt 3.4, Leading zero omitted, Abs format*
%FSLAX34Y34*%
G01*
G70*
G90*
G04 APERTURE LIST*
%ADD10C,0.00590551*%
%ADD11R,0.06X0.08*%
%ADD12R,0.045X0.02*%
%ADD13R,0.02X0.045*%
%ADD14R,0.08X0.06*%
%ADD15R,0.0472441X0.0551181*%
%ADD16R,0.0551181X0.0472441*%
%ADD17R,0.055X0.035*%
%ADD18R,0.035X0.055*%
G04 APERTURE END LIST*
G54D10*
G54D11*
X7525Y-23975D03*
X8825Y-23975D03*
G54D12*
X7475Y-9325D03*
X7475Y-8825D03*
X7475Y-8325D03*
X7475Y-7825D03*
X7475Y-7325D03*
X7475Y-6825D03*
X7475Y-6325D03*
X5375Y-6325D03*
X5375Y-6825D03*
X5375Y-7325D03*
X5375Y-7825D03*
X5375Y-8325D03*
X5375Y-8825D03*
X5375Y-9325D03*
X13325Y-26725D03*
X13325Y-27225D03*
X13325Y-27725D03*
X13325Y-28225D03*
X13325Y-28725D03*
X13325Y-29225D03*
X13325Y-29725D03*
X15425Y-29725D03*
X15425Y-29225D03*
X15425Y-28725D03*
X15425Y-28225D03*
X15425Y-27725D03*
X15425Y-27225D03*
X15425Y-26725D03*
G54D13*
X29475Y-22725D03*
X28975Y-22725D03*
X28475Y-22725D03*
X27975Y-22725D03*
X27475Y-22725D03*
X26975Y-22725D03*
X26475Y-22725D03*
X26475Y-24825D03*
X26975Y-24825D03*
X27475Y-24825D03*
X27975Y-24825D03*
X28475Y-24825D03*
X28975Y-24825D03*
X29475Y-24825D03*
G54D12*
X27525Y-10275D03*
X27525Y-9775D03*
X27525Y-9275D03*
X27525Y-8775D03*
X27525Y-8275D03*
X27525Y-7775D03*
X27525Y-7275D03*
X25425Y-7275D03*
X25425Y-7775D03*
X25425Y-8275D03*
X25425Y-8775D03*
X25425Y-9275D03*
X25425Y-9775D03*
X25425Y-10275D03*
X10075Y-23175D03*
X10075Y-23675D03*
X10075Y-24175D03*
X10075Y-24675D03*
X10075Y-25175D03*
X10075Y-25675D03*
X10075Y-26175D03*
X12175Y-26175D03*
X12175Y-25675D03*
X12175Y-25175D03*
X12175Y-24675D03*
X12175Y-24175D03*
X12175Y-23675D03*
X12175Y-23175D03*
G54D14*
X28625Y-20225D03*
X28625Y-21525D03*
G54D11*
X10075Y-6275D03*
X8775Y-6275D03*
X10075Y-5175D03*
X8775Y-5175D03*
X29725Y-9525D03*
X28425Y-9525D03*
X29725Y-7175D03*
X28425Y-7175D03*
X29725Y-8325D03*
X28425Y-8325D03*
X9725Y-9775D03*
X8425Y-9775D03*
X7525Y-25175D03*
X8825Y-25175D03*
G54D14*
X26325Y-20225D03*
X26325Y-21525D03*
X27475Y-20225D03*
X27475Y-21525D03*
G54D11*
X7525Y-26375D03*
X8825Y-26375D03*
X10575Y-28725D03*
X11875Y-28725D03*
X10575Y-29925D03*
X11875Y-29925D03*
X10575Y-27525D03*
X11875Y-27525D03*
G54D15*
X21775Y-25172D03*
X21145Y-25172D03*
X22404Y-25172D03*
X21775Y-27377D03*
X22404Y-27377D03*
X21145Y-27377D03*
G54D16*
X27872Y-11875D03*
X27872Y-12504D03*
X27872Y-11245D03*
X30077Y-11875D03*
X30077Y-11245D03*
X30077Y-12504D03*
X9122Y-8025D03*
X9122Y-8654D03*
X9122Y-7395D03*
X11327Y-8025D03*
X11327Y-7395D03*
X11327Y-8654D03*
G54D10*
G36*
X9891Y-21480D02*
X10280Y-21091D01*
X10528Y-21339D01*
X10139Y-21728D01*
X9891Y-21480D01*
X9891Y-21480D01*
G37*
G36*
X10421Y-22010D02*
X10810Y-21621D01*
X11058Y-21869D01*
X10669Y-22258D01*
X10421Y-22010D01*
X10421Y-22010D01*
G37*
G54D17*
X14975Y-25000D03*
X14975Y-25750D03*
G54D10*
G36*
X8108Y-10719D02*
X7719Y-11108D01*
X7471Y-10860D01*
X7860Y-10471D01*
X8108Y-10719D01*
X8108Y-10719D01*
G37*
G36*
X7578Y-10189D02*
X7189Y-10578D01*
X6941Y-10330D01*
X7330Y-9941D01*
X7578Y-10189D01*
X7578Y-10189D01*
G37*
G54D18*
X23800Y-9875D03*
X24550Y-9875D03*
G54D17*
X29475Y-26350D03*
X29475Y-25600D03*
M02*
