G04 (created by PCBNEW (22-Jun-2014 BZR 4027)-stable) date Thu 17 Jul 2014 04:04:50 PM CEST*
%MOIN*%
G04 Gerber Fmt 3.4, Leading zero omitted, Abs format*
%FSLAX34Y34*%
G01*
G70*
G90*
G04 APERTURE LIST*
%ADD10C,0.00590551*%
%ADD11C,0.008*%
G04 APERTURE END LIST*
G54D10*
X25632Y-29104D02*
X26026Y-29104D01*
X25789Y-29459D02*
X26183Y-29065D01*
X25632Y-28475D02*
X26104Y-28475D01*
X26104Y-27845D02*
X25632Y-27845D01*
X25317Y-29104D02*
X24845Y-29104D01*
X24845Y-28475D02*
X25317Y-28475D01*
X25317Y-27845D02*
X24845Y-27845D01*
X25632Y-28908D02*
X25632Y-29301D01*
X25632Y-29104D02*
X25337Y-28908D01*
X25337Y-29301D02*
X25632Y-29104D01*
X25337Y-28908D02*
X25337Y-29301D01*
X25337Y-28908D02*
X25337Y-29301D01*
X25337Y-29301D02*
X25632Y-29104D01*
X25632Y-29104D02*
X25337Y-28908D01*
X25632Y-28908D02*
X25632Y-29301D01*
X25632Y-28278D02*
X25632Y-28671D01*
X25632Y-28475D02*
X25337Y-28278D01*
X25337Y-28671D02*
X25632Y-28475D01*
X25337Y-28278D02*
X25337Y-28671D01*
X25337Y-28278D02*
X25337Y-28671D01*
X25337Y-28671D02*
X25632Y-28475D01*
X25632Y-28475D02*
X25337Y-28278D01*
X25632Y-28278D02*
X25632Y-28671D01*
X25632Y-27648D02*
X25632Y-28041D01*
X25632Y-27845D02*
X25337Y-27648D01*
X25337Y-28041D02*
X25632Y-27845D01*
X25337Y-27648D02*
X25337Y-28041D01*
X25337Y-27648D02*
X25337Y-28041D01*
X25337Y-28041D02*
X25632Y-27845D01*
X25632Y-27845D02*
X25337Y-27648D01*
X25632Y-27648D02*
X25632Y-28041D01*
X24490Y-27490D02*
X26459Y-27490D01*
X26459Y-29459D02*
X24490Y-29459D01*
X28918Y-19140D02*
X28639Y-19419D01*
X28556Y-19001D02*
X28556Y-19558D01*
X29363Y-19586D02*
X29029Y-19920D01*
X29475Y-20365D02*
X29809Y-20031D01*
X29140Y-18918D02*
X29475Y-18584D01*
X29920Y-19029D02*
X29586Y-19363D01*
X30031Y-19809D02*
X30365Y-19475D01*
X29057Y-19280D02*
X28779Y-19001D01*
X28918Y-19140D02*
X29266Y-19071D01*
X28987Y-18792D02*
X28918Y-19140D01*
X29266Y-19071D02*
X28987Y-18792D01*
X29266Y-19071D02*
X28987Y-18792D01*
X28987Y-18792D02*
X28918Y-19140D01*
X28918Y-19140D02*
X29266Y-19071D01*
X29057Y-19280D02*
X28779Y-19001D01*
X29502Y-19725D02*
X29224Y-19447D01*
X29363Y-19586D02*
X29711Y-19516D01*
X29433Y-19238D02*
X29363Y-19586D01*
X29711Y-19516D02*
X29433Y-19238D01*
X29711Y-19516D02*
X29433Y-19238D01*
X29433Y-19238D02*
X29363Y-19586D01*
X29363Y-19586D02*
X29711Y-19516D01*
X29502Y-19725D02*
X29224Y-19447D01*
X29948Y-20170D02*
X29669Y-19892D01*
X29809Y-20031D02*
X30157Y-19962D01*
X29878Y-19683D02*
X29809Y-20031D01*
X30157Y-19962D02*
X29878Y-19683D01*
X30157Y-19962D02*
X29878Y-19683D01*
X29878Y-19683D02*
X29809Y-20031D01*
X29809Y-20031D02*
X30157Y-19962D01*
X29948Y-20170D02*
X29669Y-19892D01*
X30866Y-19475D02*
X29475Y-20866D01*
X28083Y-19475D02*
X29475Y-18083D01*
X22568Y-21940D02*
X22289Y-22219D01*
X22206Y-21801D02*
X22206Y-22358D01*
X23013Y-22386D02*
X22679Y-22720D01*
X23125Y-23165D02*
X23459Y-22831D01*
X22790Y-21718D02*
X23125Y-21384D01*
X23570Y-21829D02*
X23236Y-22163D01*
X23681Y-22609D02*
X24015Y-22275D01*
X22707Y-22080D02*
X22429Y-21801D01*
X22568Y-21940D02*
X22916Y-21871D01*
X22637Y-21592D02*
X22568Y-21940D01*
X22916Y-21871D02*
X22637Y-21592D01*
X22916Y-21871D02*
X22637Y-21592D01*
X22637Y-21592D02*
X22568Y-21940D01*
X22568Y-21940D02*
X22916Y-21871D01*
X22707Y-22080D02*
X22429Y-21801D01*
X23152Y-22525D02*
X22874Y-22247D01*
X23013Y-22386D02*
X23361Y-22316D01*
X23083Y-22038D02*
X23013Y-22386D01*
X23361Y-22316D02*
X23083Y-22038D01*
X23361Y-22316D02*
X23083Y-22038D01*
X23083Y-22038D02*
X23013Y-22386D01*
X23013Y-22386D02*
X23361Y-22316D01*
X23152Y-22525D02*
X22874Y-22247D01*
X23598Y-22970D02*
X23319Y-22692D01*
X23459Y-22831D02*
X23807Y-22762D01*
X23528Y-22483D02*
X23459Y-22831D01*
X23807Y-22762D02*
X23528Y-22483D01*
X23807Y-22762D02*
X23528Y-22483D01*
X23528Y-22483D02*
X23459Y-22831D01*
X23459Y-22831D02*
X23807Y-22762D01*
X23598Y-22970D02*
X23319Y-22692D01*
X24516Y-22275D02*
X23125Y-23666D01*
X21733Y-22275D02*
X23125Y-20883D01*
X4967Y-3545D02*
X4573Y-3545D01*
X4810Y-3190D02*
X4416Y-3584D01*
X4967Y-4175D02*
X4495Y-4175D01*
X4495Y-4804D02*
X4967Y-4804D01*
X5282Y-3545D02*
X5754Y-3545D01*
X5754Y-4175D02*
X5282Y-4175D01*
X5282Y-4804D02*
X5754Y-4804D01*
X4967Y-3741D02*
X4967Y-3348D01*
X4967Y-3545D02*
X5262Y-3741D01*
X5262Y-3348D02*
X4967Y-3545D01*
X5262Y-3741D02*
X5262Y-3348D01*
X5262Y-3741D02*
X5262Y-3348D01*
X5262Y-3348D02*
X4967Y-3545D01*
X4967Y-3545D02*
X5262Y-3741D01*
X4967Y-3741D02*
X4967Y-3348D01*
X4967Y-4371D02*
X4967Y-3978D01*
X4967Y-4175D02*
X5262Y-4371D01*
X5262Y-3978D02*
X4967Y-4175D01*
X5262Y-4371D02*
X5262Y-3978D01*
X5262Y-4371D02*
X5262Y-3978D01*
X5262Y-3978D02*
X4967Y-4175D01*
X4967Y-4175D02*
X5262Y-4371D01*
X4967Y-4371D02*
X4967Y-3978D01*
X4967Y-5001D02*
X4967Y-4608D01*
X4967Y-4804D02*
X5262Y-5001D01*
X5262Y-4608D02*
X4967Y-4804D01*
X5262Y-5001D02*
X5262Y-4608D01*
X5262Y-5001D02*
X5262Y-4608D01*
X5262Y-4608D02*
X4967Y-4804D01*
X4967Y-4804D02*
X5262Y-5001D01*
X4967Y-5001D02*
X4967Y-4608D01*
X6109Y-5159D02*
X4140Y-5159D01*
X4140Y-3190D02*
X6109Y-3190D01*
X31617Y-9095D02*
X31223Y-9095D01*
X31460Y-8740D02*
X31066Y-9134D01*
X31617Y-9725D02*
X31145Y-9725D01*
X31145Y-10354D02*
X31617Y-10354D01*
X31932Y-9095D02*
X32404Y-9095D01*
X32404Y-9725D02*
X31932Y-9725D01*
X31932Y-10354D02*
X32404Y-10354D01*
X31617Y-9291D02*
X31617Y-8898D01*
X31617Y-9095D02*
X31912Y-9291D01*
X31912Y-8898D02*
X31617Y-9095D01*
X31912Y-9291D02*
X31912Y-8898D01*
X31912Y-9291D02*
X31912Y-8898D01*
X31912Y-8898D02*
X31617Y-9095D01*
X31617Y-9095D02*
X31912Y-9291D01*
X31617Y-9291D02*
X31617Y-8898D01*
X31617Y-9921D02*
X31617Y-9528D01*
X31617Y-9725D02*
X31912Y-9921D01*
X31912Y-9528D02*
X31617Y-9725D01*
X31912Y-9921D02*
X31912Y-9528D01*
X31912Y-9921D02*
X31912Y-9528D01*
X31912Y-9528D02*
X31617Y-9725D01*
X31617Y-9725D02*
X31912Y-9921D01*
X31617Y-9921D02*
X31617Y-9528D01*
X31617Y-10551D02*
X31617Y-10158D01*
X31617Y-10354D02*
X31912Y-10551D01*
X31912Y-10158D02*
X31617Y-10354D01*
X31912Y-10551D02*
X31912Y-10158D01*
X31912Y-10551D02*
X31912Y-10158D01*
X31912Y-10158D02*
X31617Y-10354D01*
X31617Y-10354D02*
X31912Y-10551D01*
X31617Y-10551D02*
X31617Y-10158D01*
X32759Y-10709D02*
X30790Y-10709D01*
X30790Y-8740D02*
X32759Y-8740D01*
X23617Y-10795D02*
X23223Y-10795D01*
X23460Y-10440D02*
X23066Y-10834D01*
X23617Y-11425D02*
X23145Y-11425D01*
X23145Y-12054D02*
X23617Y-12054D01*
X23932Y-10795D02*
X24404Y-10795D01*
X24404Y-11425D02*
X23932Y-11425D01*
X23932Y-12054D02*
X24404Y-12054D01*
X23617Y-10991D02*
X23617Y-10598D01*
X23617Y-10795D02*
X23912Y-10991D01*
X23912Y-10598D02*
X23617Y-10795D01*
X23912Y-10991D02*
X23912Y-10598D01*
X23912Y-10991D02*
X23912Y-10598D01*
X23912Y-10598D02*
X23617Y-10795D01*
X23617Y-10795D02*
X23912Y-10991D01*
X23617Y-10991D02*
X23617Y-10598D01*
X23617Y-11621D02*
X23617Y-11228D01*
X23617Y-11425D02*
X23912Y-11621D01*
X23912Y-11228D02*
X23617Y-11425D01*
X23912Y-11621D02*
X23912Y-11228D01*
X23912Y-11621D02*
X23912Y-11228D01*
X23912Y-11228D02*
X23617Y-11425D01*
X23617Y-11425D02*
X23912Y-11621D01*
X23617Y-11621D02*
X23617Y-11228D01*
X23617Y-12251D02*
X23617Y-11858D01*
X23617Y-12054D02*
X23912Y-12251D01*
X23912Y-11858D02*
X23617Y-12054D01*
X23912Y-12251D02*
X23912Y-11858D01*
X23912Y-12251D02*
X23912Y-11858D01*
X23912Y-11858D02*
X23617Y-12054D01*
X23617Y-12054D02*
X23912Y-12251D01*
X23617Y-12251D02*
X23617Y-11858D01*
X24759Y-12409D02*
X22790Y-12409D01*
X22790Y-10440D02*
X24759Y-10440D01*
X8254Y-23917D02*
X8254Y-23523D01*
X8609Y-23760D02*
X8215Y-23366D01*
X7625Y-23917D02*
X7625Y-23445D01*
X6995Y-23445D02*
X6995Y-23917D01*
X8254Y-24232D02*
X8254Y-24704D01*
X7625Y-24704D02*
X7625Y-24232D01*
X6995Y-24232D02*
X6995Y-24704D01*
X8058Y-23917D02*
X8451Y-23917D01*
X8254Y-23917D02*
X8058Y-24212D01*
X8451Y-24212D02*
X8254Y-23917D01*
X8058Y-24212D02*
X8451Y-24212D01*
X8058Y-24212D02*
X8451Y-24212D01*
X8451Y-24212D02*
X8254Y-23917D01*
X8254Y-23917D02*
X8058Y-24212D01*
X8058Y-23917D02*
X8451Y-23917D01*
X7428Y-23917D02*
X7821Y-23917D01*
X7625Y-23917D02*
X7428Y-24212D01*
X7821Y-24212D02*
X7625Y-23917D01*
X7428Y-24212D02*
X7821Y-24212D01*
X7428Y-24212D02*
X7821Y-24212D01*
X7821Y-24212D02*
X7625Y-23917D01*
X7625Y-23917D02*
X7428Y-24212D01*
X7428Y-23917D02*
X7821Y-23917D01*
X6798Y-23917D02*
X7191Y-23917D01*
X6995Y-23917D02*
X6798Y-24212D01*
X7191Y-24212D02*
X6995Y-23917D01*
X6798Y-24212D02*
X7191Y-24212D01*
X6798Y-24212D02*
X7191Y-24212D01*
X7191Y-24212D02*
X6995Y-23917D01*
X6995Y-23917D02*
X6798Y-24212D01*
X6798Y-23917D02*
X7191Y-23917D01*
X6640Y-25059D02*
X6640Y-23090D01*
X8609Y-23090D02*
X8609Y-25059D01*
X12417Y-31195D02*
X12023Y-31195D01*
X12260Y-30840D02*
X11866Y-31234D01*
X12417Y-31825D02*
X11945Y-31825D01*
X11945Y-32454D02*
X12417Y-32454D01*
X12732Y-31195D02*
X13204Y-31195D01*
X13204Y-31825D02*
X12732Y-31825D01*
X12732Y-32454D02*
X13204Y-32454D01*
X12417Y-31391D02*
X12417Y-30998D01*
X12417Y-31195D02*
X12712Y-31391D01*
X12712Y-30998D02*
X12417Y-31195D01*
X12712Y-31391D02*
X12712Y-30998D01*
X12712Y-31391D02*
X12712Y-30998D01*
X12712Y-30998D02*
X12417Y-31195D01*
X12417Y-31195D02*
X12712Y-31391D01*
X12417Y-31391D02*
X12417Y-30998D01*
X12417Y-32021D02*
X12417Y-31628D01*
X12417Y-31825D02*
X12712Y-32021D01*
X12712Y-31628D02*
X12417Y-31825D01*
X12712Y-32021D02*
X12712Y-31628D01*
X12712Y-32021D02*
X12712Y-31628D01*
X12712Y-31628D02*
X12417Y-31825D01*
X12417Y-31825D02*
X12712Y-32021D01*
X12417Y-32021D02*
X12417Y-31628D01*
X12417Y-32651D02*
X12417Y-32258D01*
X12417Y-32454D02*
X12712Y-32651D01*
X12712Y-32258D02*
X12417Y-32454D01*
X12712Y-32651D02*
X12712Y-32258D01*
X12712Y-32651D02*
X12712Y-32258D01*
X12712Y-32258D02*
X12417Y-32454D01*
X12417Y-32454D02*
X12712Y-32651D01*
X12417Y-32651D02*
X12417Y-32258D01*
X13559Y-32809D02*
X11590Y-32809D01*
X11590Y-30840D02*
X13559Y-30840D01*
X17867Y-27045D02*
X17473Y-27045D01*
X17710Y-26690D02*
X17316Y-27084D01*
X17867Y-27675D02*
X17395Y-27675D01*
X17395Y-28304D02*
X17867Y-28304D01*
X18182Y-27045D02*
X18654Y-27045D01*
X18654Y-27675D02*
X18182Y-27675D01*
X18182Y-28304D02*
X18654Y-28304D01*
X17867Y-27241D02*
X17867Y-26848D01*
X17867Y-27045D02*
X18162Y-27241D01*
X18162Y-26848D02*
X17867Y-27045D01*
X18162Y-27241D02*
X18162Y-26848D01*
X18162Y-27241D02*
X18162Y-26848D01*
X18162Y-26848D02*
X17867Y-27045D01*
X17867Y-27045D02*
X18162Y-27241D01*
X17867Y-27241D02*
X17867Y-26848D01*
X17867Y-27871D02*
X17867Y-27478D01*
X17867Y-27675D02*
X18162Y-27871D01*
X18162Y-27478D02*
X17867Y-27675D01*
X18162Y-27871D02*
X18162Y-27478D01*
X18162Y-27871D02*
X18162Y-27478D01*
X18162Y-27478D02*
X17867Y-27675D01*
X17867Y-27675D02*
X18162Y-27871D01*
X17867Y-27871D02*
X17867Y-27478D01*
X17867Y-28501D02*
X17867Y-28108D01*
X17867Y-28304D02*
X18162Y-28501D01*
X18162Y-28108D02*
X17867Y-28304D01*
X18162Y-28501D02*
X18162Y-28108D01*
X18162Y-28501D02*
X18162Y-28108D01*
X18162Y-28108D02*
X17867Y-28304D01*
X17867Y-28304D02*
X18162Y-28501D01*
X17867Y-28501D02*
X17867Y-28108D01*
X19009Y-28659D02*
X17040Y-28659D01*
X17040Y-26690D02*
X19009Y-26690D01*
X19067Y-5995D02*
X18673Y-5995D01*
X18910Y-5640D02*
X18516Y-6034D01*
X19067Y-6625D02*
X18595Y-6625D01*
X18595Y-7254D02*
X19067Y-7254D01*
X19382Y-5995D02*
X19854Y-5995D01*
X19854Y-6625D02*
X19382Y-6625D01*
X19382Y-7254D02*
X19854Y-7254D01*
X19067Y-6191D02*
X19067Y-5798D01*
X19067Y-5995D02*
X19362Y-6191D01*
X19362Y-5798D02*
X19067Y-5995D01*
X19362Y-6191D02*
X19362Y-5798D01*
X19362Y-6191D02*
X19362Y-5798D01*
X19362Y-5798D02*
X19067Y-5995D01*
X19067Y-5995D02*
X19362Y-6191D01*
X19067Y-6191D02*
X19067Y-5798D01*
X19067Y-6821D02*
X19067Y-6428D01*
X19067Y-6625D02*
X19362Y-6821D01*
X19362Y-6428D02*
X19067Y-6625D01*
X19362Y-6821D02*
X19362Y-6428D01*
X19362Y-6821D02*
X19362Y-6428D01*
X19362Y-6428D02*
X19067Y-6625D01*
X19067Y-6625D02*
X19362Y-6821D01*
X19067Y-6821D02*
X19067Y-6428D01*
X19067Y-7451D02*
X19067Y-7058D01*
X19067Y-7254D02*
X19362Y-7451D01*
X19362Y-7058D02*
X19067Y-7254D01*
X19362Y-7451D02*
X19362Y-7058D01*
X19362Y-7451D02*
X19362Y-7058D01*
X19362Y-7058D02*
X19067Y-7254D01*
X19067Y-7254D02*
X19362Y-7451D01*
X19067Y-7451D02*
X19067Y-7058D01*
X20209Y-7609D02*
X18240Y-7609D01*
X18240Y-5640D02*
X20209Y-5640D01*
X5332Y-12904D02*
X5726Y-12904D01*
X5489Y-13259D02*
X5883Y-12865D01*
X5332Y-12275D02*
X5804Y-12275D01*
X5804Y-11645D02*
X5332Y-11645D01*
X5017Y-12904D02*
X4545Y-12904D01*
X4545Y-12275D02*
X5017Y-12275D01*
X5017Y-11645D02*
X4545Y-11645D01*
X5332Y-12708D02*
X5332Y-13101D01*
X5332Y-12904D02*
X5037Y-12708D01*
X5037Y-13101D02*
X5332Y-12904D01*
X5037Y-12708D02*
X5037Y-13101D01*
X5037Y-12708D02*
X5037Y-13101D01*
X5037Y-13101D02*
X5332Y-12904D01*
X5332Y-12904D02*
X5037Y-12708D01*
X5332Y-12708D02*
X5332Y-13101D01*
X5332Y-12078D02*
X5332Y-12471D01*
X5332Y-12275D02*
X5037Y-12078D01*
X5037Y-12471D02*
X5332Y-12275D01*
X5037Y-12078D02*
X5037Y-12471D01*
X5037Y-12078D02*
X5037Y-12471D01*
X5037Y-12471D02*
X5332Y-12275D01*
X5332Y-12275D02*
X5037Y-12078D01*
X5332Y-12078D02*
X5332Y-12471D01*
X5332Y-11448D02*
X5332Y-11841D01*
X5332Y-11645D02*
X5037Y-11448D01*
X5037Y-11841D02*
X5332Y-11645D01*
X5037Y-11448D02*
X5037Y-11841D01*
X5037Y-11448D02*
X5037Y-11841D01*
X5037Y-11841D02*
X5332Y-11645D01*
X5332Y-11645D02*
X5037Y-11448D01*
X5332Y-11448D02*
X5332Y-11841D01*
X4190Y-11290D02*
X6159Y-11290D01*
X6159Y-13259D02*
X4190Y-13259D01*
X12004Y-8717D02*
X12004Y-8323D01*
X12359Y-8560D02*
X11965Y-8166D01*
X11375Y-8717D02*
X11375Y-8245D01*
X10745Y-8245D02*
X10745Y-8717D01*
X12004Y-9032D02*
X12004Y-9504D01*
X11375Y-9504D02*
X11375Y-9032D01*
X10745Y-9032D02*
X10745Y-9504D01*
X11808Y-8717D02*
X12201Y-8717D01*
X12004Y-8717D02*
X11808Y-9012D01*
X12201Y-9012D02*
X12004Y-8717D01*
X11808Y-9012D02*
X12201Y-9012D01*
X11808Y-9012D02*
X12201Y-9012D01*
X12201Y-9012D02*
X12004Y-8717D01*
X12004Y-8717D02*
X11808Y-9012D01*
X11808Y-8717D02*
X12201Y-8717D01*
X11178Y-8717D02*
X11571Y-8717D01*
X11375Y-8717D02*
X11178Y-9012D01*
X11571Y-9012D02*
X11375Y-8717D01*
X11178Y-9012D02*
X11571Y-9012D01*
X11178Y-9012D02*
X11571Y-9012D01*
X11571Y-9012D02*
X11375Y-8717D01*
X11375Y-8717D02*
X11178Y-9012D01*
X11178Y-8717D02*
X11571Y-8717D01*
X10548Y-8717D02*
X10941Y-8717D01*
X10745Y-8717D02*
X10548Y-9012D01*
X10941Y-9012D02*
X10745Y-8717D01*
X10548Y-9012D02*
X10941Y-9012D01*
X10548Y-9012D02*
X10941Y-9012D01*
X10941Y-9012D02*
X10745Y-8717D01*
X10745Y-8717D02*
X10548Y-9012D01*
X10548Y-8717D02*
X10941Y-8717D01*
X10390Y-9859D02*
X10390Y-7890D01*
X12359Y-7890D02*
X12359Y-9859D01*
G54D11*
X28725Y-13025D02*
X28725Y-11825D01*
X28725Y-11825D02*
X31525Y-11825D01*
X31525Y-11825D02*
X31525Y-13025D01*
X28725Y-14225D02*
X28725Y-14525D01*
X28725Y-14525D02*
X29325Y-15425D01*
X29325Y-15425D02*
X30925Y-15425D01*
X30925Y-15425D02*
X31525Y-14525D01*
X31525Y-14525D02*
X31525Y-14225D01*
X30429Y-13686D02*
X30429Y-14010D01*
X30410Y-14048D01*
X30391Y-14067D01*
X30353Y-14086D01*
X30277Y-14086D01*
X30239Y-14067D01*
X30220Y-14048D01*
X30201Y-14010D01*
X30201Y-13686D01*
X29801Y-14086D02*
X30029Y-14086D01*
X29915Y-14086D02*
X29915Y-13686D01*
X29953Y-13744D01*
X29991Y-13782D01*
X30029Y-13801D01*
X32125Y-13372D02*
X31934Y-13372D01*
X32163Y-13486D02*
X32029Y-13086D01*
X31896Y-13486D01*
X31763Y-13486D02*
X31763Y-13086D01*
X31629Y-13372D01*
X31496Y-13086D01*
X31496Y-13486D01*
X31325Y-13467D02*
X31267Y-13486D01*
X31172Y-13486D01*
X31134Y-13467D01*
X31115Y-13448D01*
X31096Y-13410D01*
X31096Y-13372D01*
X31115Y-13334D01*
X31134Y-13315D01*
X31172Y-13296D01*
X31248Y-13277D01*
X31286Y-13258D01*
X31305Y-13239D01*
X31325Y-13201D01*
X31325Y-13163D01*
X31305Y-13125D01*
X31286Y-13105D01*
X31248Y-13086D01*
X31153Y-13086D01*
X31096Y-13105D01*
X30715Y-13486D02*
X30944Y-13486D01*
X30829Y-13486D02*
X30829Y-13086D01*
X30867Y-13144D01*
X30905Y-13182D01*
X30944Y-13201D01*
X30334Y-13486D02*
X30563Y-13486D01*
X30448Y-13486D02*
X30448Y-13086D01*
X30486Y-13144D01*
X30525Y-13182D01*
X30563Y-13201D01*
X29953Y-13486D02*
X30182Y-13486D01*
X30067Y-13486D02*
X30067Y-13086D01*
X30105Y-13144D01*
X30144Y-13182D01*
X30182Y-13201D01*
X29820Y-13086D02*
X29553Y-13086D01*
X29725Y-13486D01*
X29401Y-13334D02*
X29096Y-13334D01*
X28944Y-13086D02*
X28696Y-13086D01*
X28829Y-13239D01*
X28772Y-13239D01*
X28734Y-13258D01*
X28715Y-13277D01*
X28696Y-13315D01*
X28696Y-13410D01*
X28715Y-13448D01*
X28734Y-13467D01*
X28772Y-13486D01*
X28886Y-13486D01*
X28925Y-13467D01*
X28944Y-13448D01*
X28525Y-13448D02*
X28505Y-13467D01*
X28525Y-13486D01*
X28544Y-13467D01*
X28525Y-13448D01*
X28525Y-13486D01*
X28372Y-13086D02*
X28125Y-13086D01*
X28258Y-13239D01*
X28201Y-13239D01*
X28163Y-13258D01*
X28144Y-13277D01*
X28125Y-13315D01*
X28125Y-13410D01*
X28144Y-13448D01*
X28163Y-13467D01*
X28201Y-13486D01*
X28315Y-13486D01*
X28353Y-13467D01*
X28372Y-13448D01*
M02*
