G04 (created by PCBNEW (22-Jun-2014 BZR 4027)-stable) date Thu 17 Jul 2014 04:04:50 PM CEST*
%MOIN*%
G04 Gerber Fmt 3.4, Leading zero omitted, Abs format*
%FSLAX34Y34*%
G01*
G70*
G90*
G04 APERTURE LIST*
%ADD10C,0.00590551*%
%ADD11R,0.0551181X0.0472441*%
%ADD12R,0.0472441X0.0551181*%
%ADD13R,0.144X0.08*%
%ADD14R,0.04X0.08*%
G04 APERTURE END LIST*
G54D10*
G54D11*
X24372Y-28475D03*
X24372Y-27845D03*
X24372Y-29104D03*
X26577Y-28475D03*
X26577Y-29104D03*
X26577Y-27845D03*
G54D10*
G36*
X30616Y-18667D02*
X30226Y-19057D01*
X29892Y-18723D01*
X30282Y-18333D01*
X30616Y-18667D01*
X30616Y-18667D01*
G37*
G36*
X31061Y-19113D02*
X30672Y-19502D01*
X30338Y-19168D01*
X30727Y-18779D01*
X31061Y-19113D01*
X31061Y-19113D01*
G37*
G36*
X30170Y-18222D02*
X29781Y-18611D01*
X29447Y-18277D01*
X29836Y-17888D01*
X30170Y-18222D01*
X30170Y-18222D01*
G37*
G36*
X29057Y-20226D02*
X28667Y-20616D01*
X28333Y-20282D01*
X28723Y-19892D01*
X29057Y-20226D01*
X29057Y-20226D01*
G37*
G36*
X28611Y-19781D02*
X28222Y-20170D01*
X27888Y-19836D01*
X28277Y-19447D01*
X28611Y-19781D01*
X28611Y-19781D01*
G37*
G36*
X29502Y-20672D02*
X29113Y-21061D01*
X28779Y-20727D01*
X29168Y-20338D01*
X29502Y-20672D01*
X29502Y-20672D01*
G37*
G36*
X24266Y-21467D02*
X23876Y-21857D01*
X23542Y-21523D01*
X23932Y-21133D01*
X24266Y-21467D01*
X24266Y-21467D01*
G37*
G36*
X24711Y-21913D02*
X24322Y-22302D01*
X23988Y-21968D01*
X24377Y-21579D01*
X24711Y-21913D01*
X24711Y-21913D01*
G37*
G36*
X23820Y-21022D02*
X23431Y-21411D01*
X23097Y-21077D01*
X23486Y-20688D01*
X23820Y-21022D01*
X23820Y-21022D01*
G37*
G36*
X22707Y-23026D02*
X22317Y-23416D01*
X21983Y-23082D01*
X22373Y-22692D01*
X22707Y-23026D01*
X22707Y-23026D01*
G37*
G36*
X22261Y-22581D02*
X21872Y-22970D01*
X21538Y-22636D01*
X21927Y-22247D01*
X22261Y-22581D01*
X22261Y-22581D01*
G37*
G36*
X23152Y-23472D02*
X22763Y-23861D01*
X22429Y-23527D01*
X22818Y-23138D01*
X23152Y-23472D01*
X23152Y-23472D01*
G37*
G54D11*
X6227Y-4175D03*
X6227Y-4804D03*
X6227Y-3545D03*
X4022Y-4175D03*
X4022Y-3545D03*
X4022Y-4804D03*
X32877Y-9725D03*
X32877Y-10354D03*
X32877Y-9095D03*
X30672Y-9725D03*
X30672Y-9095D03*
X30672Y-10354D03*
X24877Y-11425D03*
X24877Y-12054D03*
X24877Y-10795D03*
X22672Y-11425D03*
X22672Y-10795D03*
X22672Y-12054D03*
G54D12*
X7625Y-25177D03*
X6995Y-25177D03*
X8254Y-25177D03*
X7625Y-22972D03*
X8254Y-22972D03*
X6995Y-22972D03*
G54D11*
X13677Y-31825D03*
X13677Y-32454D03*
X13677Y-31195D03*
X11472Y-31825D03*
X11472Y-31195D03*
X11472Y-32454D03*
X19127Y-27675D03*
X19127Y-28304D03*
X19127Y-27045D03*
X16922Y-27675D03*
X16922Y-27045D03*
X16922Y-28304D03*
X20327Y-6625D03*
X20327Y-7254D03*
X20327Y-5995D03*
X18122Y-6625D03*
X18122Y-5995D03*
X18122Y-7254D03*
X4072Y-12275D03*
X4072Y-11645D03*
X4072Y-12904D03*
X6277Y-12275D03*
X6277Y-12904D03*
X6277Y-11645D03*
G54D12*
X11375Y-9977D03*
X10745Y-9977D03*
X12004Y-9977D03*
X11375Y-7772D03*
X12004Y-7772D03*
X10745Y-7772D03*
G54D13*
X30125Y-14925D03*
G54D14*
X30125Y-12325D03*
X31025Y-12325D03*
X29225Y-12325D03*
M02*
