G04 (created by PCBNEW (22-Jun-2014 BZR 4027)-stable) date Thu 17 Jul 2014 04:04:50 PM CEST*
%MOIN*%
G04 Gerber Fmt 3.4, Leading zero omitted, Abs format*
%FSLAX34Y34*%
G01*
G70*
G90*
G04 APERTURE LIST*
%ADD10C,0.00590551*%
%ADD11C,0.00787402*%
%ADD12C,0.011811*%
%ADD13C,0.00984252*%
%ADD14C,0.012*%
%ADD15C,0.005*%
%ADD16C,0.008*%
%ADD17C,0.0039*%
%ADD18C,0.0001*%
%ADD19C,0.01*%
%ADD20C,0.0043*%
G04 APERTURE END LIST*
G54D10*
G54D11*
X2382Y-3902D02*
X2679Y-4050D01*
X2531Y-3753D01*
X2934Y-3753D02*
X2934Y-3774D01*
X2912Y-3817D01*
X2891Y-3838D01*
X2849Y-3859D01*
X2806Y-3859D01*
X2775Y-3849D01*
X2722Y-3817D01*
X2690Y-3785D01*
X2658Y-3732D01*
X2647Y-3700D01*
X2647Y-3658D01*
X2668Y-3615D01*
X2690Y-3594D01*
X2732Y-3573D01*
X2753Y-3573D01*
X3156Y-3531D02*
X3156Y-3552D01*
X3135Y-3594D01*
X3114Y-3615D01*
X3071Y-3637D01*
X3029Y-3637D01*
X2997Y-3626D01*
X2944Y-3594D01*
X2912Y-3562D01*
X2881Y-3509D01*
X2870Y-3478D01*
X2870Y-3435D01*
X2891Y-3393D01*
X2912Y-3371D01*
X2955Y-3350D01*
X2976Y-3350D01*
X3358Y-2926D02*
X3655Y-3075D01*
X3506Y-2778D01*
X3909Y-2778D02*
X3909Y-2799D01*
X3888Y-2841D01*
X3867Y-2862D01*
X3824Y-2884D01*
X3782Y-2884D01*
X3750Y-2873D01*
X3697Y-2841D01*
X3665Y-2809D01*
X3634Y-2756D01*
X3623Y-2725D01*
X3623Y-2682D01*
X3644Y-2640D01*
X3665Y-2618D01*
X3708Y-2597D01*
X3729Y-2597D01*
X4132Y-2555D02*
X4132Y-2576D01*
X4111Y-2618D01*
X4090Y-2640D01*
X4047Y-2661D01*
X4005Y-2661D01*
X3973Y-2650D01*
X3920Y-2618D01*
X3888Y-2587D01*
X3856Y-2534D01*
X3846Y-2502D01*
X3846Y-2459D01*
X3867Y-2417D01*
X3888Y-2396D01*
X3931Y-2375D01*
X3952Y-2375D01*
X834Y-2021D02*
X802Y-2032D01*
X770Y-2064D01*
X749Y-2106D01*
X749Y-2149D01*
X759Y-2181D01*
X791Y-2234D01*
X823Y-2265D01*
X876Y-2297D01*
X908Y-2308D01*
X950Y-2308D01*
X993Y-2287D01*
X1014Y-2265D01*
X1035Y-2223D01*
X1035Y-2202D01*
X961Y-2127D01*
X918Y-2170D01*
X1152Y-2127D02*
X929Y-1905D01*
X1279Y-2000D01*
X1056Y-1778D01*
X1385Y-1894D02*
X1162Y-1671D01*
X1215Y-1618D01*
X1258Y-1597D01*
X1300Y-1597D01*
X1332Y-1608D01*
X1385Y-1640D01*
X1417Y-1671D01*
X1449Y-1724D01*
X1459Y-1756D01*
X1459Y-1799D01*
X1438Y-1841D01*
X1385Y-1894D01*
X1682Y-1173D02*
X1650Y-1184D01*
X1618Y-1215D01*
X1597Y-1258D01*
X1597Y-1300D01*
X1608Y-1332D01*
X1640Y-1385D01*
X1671Y-1417D01*
X1724Y-1449D01*
X1756Y-1459D01*
X1799Y-1459D01*
X1841Y-1438D01*
X1862Y-1417D01*
X1884Y-1375D01*
X1884Y-1353D01*
X1809Y-1279D01*
X1767Y-1321D01*
X2000Y-1279D02*
X1778Y-1056D01*
X2127Y-1152D01*
X1905Y-929D01*
X2234Y-1046D02*
X2011Y-823D01*
X2064Y-770D01*
X2106Y-749D01*
X2149Y-749D01*
X2181Y-759D01*
X2234Y-791D01*
X2265Y-823D01*
X2297Y-876D01*
X2308Y-908D01*
X2308Y-950D01*
X2287Y-993D01*
X2234Y-1046D01*
X33159Y-17025D02*
X33490Y-17000D01*
X33210Y-16821D01*
X33556Y-16615D02*
X33567Y-16633D01*
X33571Y-16680D01*
X33563Y-16710D01*
X33538Y-16749D01*
X33501Y-16771D01*
X33469Y-16778D01*
X33407Y-16778D01*
X33363Y-16767D01*
X33309Y-16738D01*
X33283Y-16716D01*
X33262Y-16680D01*
X33258Y-16632D01*
X33265Y-16603D01*
X33291Y-16563D01*
X33309Y-16552D01*
X33634Y-16310D02*
X33644Y-16328D01*
X33648Y-16375D01*
X33641Y-16404D01*
X33615Y-16444D01*
X33579Y-16466D01*
X33546Y-16473D01*
X33484Y-16473D01*
X33440Y-16462D01*
X33386Y-16433D01*
X33361Y-16411D01*
X33339Y-16374D01*
X33335Y-16327D01*
X33343Y-16298D01*
X33368Y-16258D01*
X33386Y-16247D01*
X33622Y-15255D02*
X33600Y-15280D01*
X33589Y-15324D01*
X33593Y-15371D01*
X33614Y-15407D01*
X33640Y-15429D01*
X33694Y-15459D01*
X33738Y-15470D01*
X33800Y-15470D01*
X33832Y-15463D01*
X33869Y-15441D01*
X33895Y-15401D01*
X33902Y-15372D01*
X33898Y-15325D01*
X33887Y-15306D01*
X33786Y-15281D01*
X33771Y-15339D01*
X33950Y-15183D02*
X33644Y-15106D01*
X33994Y-15008D01*
X33689Y-14931D01*
X34031Y-14863D02*
X33725Y-14786D01*
X33744Y-14713D01*
X33769Y-14673D01*
X33806Y-14651D01*
X33838Y-14644D01*
X33900Y-14644D01*
X33944Y-14655D01*
X33998Y-14685D01*
X34024Y-14707D01*
X34046Y-14743D01*
X34049Y-14790D01*
X34031Y-14863D01*
X20182Y-32227D02*
X20361Y-32506D01*
X20386Y-32175D01*
X20732Y-32382D02*
X20721Y-32400D01*
X20681Y-32425D01*
X20652Y-32433D01*
X20605Y-32429D01*
X20568Y-32408D01*
X20546Y-32382D01*
X20517Y-32328D01*
X20506Y-32284D01*
X20506Y-32222D01*
X20513Y-32189D01*
X20535Y-32153D01*
X20575Y-32127D01*
X20604Y-32120D01*
X20651Y-32124D01*
X20669Y-32134D01*
X21037Y-32304D02*
X21026Y-32323D01*
X20986Y-32348D01*
X20957Y-32356D01*
X20910Y-32352D01*
X20874Y-32330D01*
X20852Y-32305D01*
X20822Y-32250D01*
X20811Y-32207D01*
X20811Y-32145D01*
X20818Y-32112D01*
X20840Y-32076D01*
X20880Y-32050D01*
X20909Y-32043D01*
X20956Y-32046D01*
X20975Y-32057D01*
X21960Y-31792D02*
X21927Y-31785D01*
X21883Y-31796D01*
X21843Y-31822D01*
X21822Y-31858D01*
X21814Y-31891D01*
X21815Y-31953D01*
X21826Y-31997D01*
X21855Y-32051D01*
X21877Y-32076D01*
X21913Y-32098D01*
X21961Y-32102D01*
X21990Y-32094D01*
X22030Y-32069D01*
X22040Y-32051D01*
X22015Y-31949D01*
X21957Y-31963D01*
X22179Y-32046D02*
X22101Y-31741D01*
X22353Y-32002D01*
X22276Y-31697D01*
X22499Y-31966D02*
X22421Y-31660D01*
X22494Y-31642D01*
X22541Y-31645D01*
X22578Y-31667D01*
X22600Y-31692D01*
X22629Y-31747D01*
X22640Y-31791D01*
X22640Y-31852D01*
X22633Y-31885D01*
X22611Y-31922D01*
X22571Y-31947D01*
X22499Y-31966D01*
X20387Y-24857D02*
X20053Y-24523D01*
X20531Y-24714D02*
X20356Y-24539D01*
X20308Y-24523D01*
X20260Y-24539D01*
X20212Y-24587D01*
X20197Y-24634D01*
X20197Y-24666D01*
X20419Y-24380D02*
X20547Y-24253D01*
X20356Y-24221D02*
X20642Y-24507D01*
X20690Y-24523D01*
X20737Y-24507D01*
X20769Y-24475D01*
X20610Y-24189D02*
X20737Y-24062D01*
X20547Y-24030D02*
X20833Y-24316D01*
X20881Y-24332D01*
X20928Y-24316D01*
X20960Y-24284D01*
X20849Y-23950D02*
X21183Y-24284D01*
X20865Y-23966D02*
X20881Y-23918D01*
X20944Y-23855D01*
X20992Y-23839D01*
X21024Y-23839D01*
X21071Y-23855D01*
X21167Y-23950D01*
X21183Y-23998D01*
X21183Y-24030D01*
X21167Y-24078D01*
X21103Y-24141D01*
X21056Y-24157D01*
X21342Y-23871D02*
X21390Y-23855D01*
X21453Y-23791D01*
X21469Y-23743D01*
X21453Y-23696D01*
X21437Y-23680D01*
X21390Y-23664D01*
X21342Y-23680D01*
X21294Y-23728D01*
X21246Y-23743D01*
X21199Y-23728D01*
X21183Y-23712D01*
X21167Y-23664D01*
X21183Y-23616D01*
X21231Y-23568D01*
X21278Y-23553D01*
X21612Y-23568D02*
X21644Y-23568D01*
X21644Y-23600D01*
X21612Y-23600D01*
X21612Y-23568D01*
X21644Y-23600D01*
X21437Y-23393D02*
X21469Y-23393D01*
X21469Y-23425D01*
X21437Y-23425D01*
X21437Y-23393D01*
X21469Y-23425D01*
X21692Y-22853D02*
X21835Y-23568D01*
X22042Y-22503D02*
X22185Y-23218D01*
X22249Y-22550D02*
X22535Y-22709D01*
X22440Y-22487D01*
X22662Y-22582D01*
X22503Y-22296D01*
X22853Y-22391D02*
X22630Y-22169D01*
X22519Y-22057D02*
X22519Y-22089D01*
X22551Y-22089D01*
X22551Y-22057D01*
X22519Y-22057D01*
X22551Y-22089D01*
X23012Y-22232D02*
X22678Y-21898D01*
X22917Y-22073D02*
X23139Y-22105D01*
X22917Y-21882D02*
X22917Y-22137D01*
X23283Y-21962D02*
X23060Y-21739D01*
X22949Y-21628D02*
X22949Y-21660D01*
X22980Y-21660D01*
X22980Y-21628D01*
X22949Y-21628D01*
X22980Y-21660D01*
X23410Y-21771D02*
X23442Y-21771D01*
X23442Y-21803D01*
X23410Y-21803D01*
X23410Y-21771D01*
X23442Y-21803D01*
X23330Y-21469D02*
X23458Y-21341D01*
X23267Y-21310D02*
X23553Y-21596D01*
X23601Y-21612D01*
X23649Y-21596D01*
X23680Y-21564D01*
X23903Y-21310D02*
X23887Y-21357D01*
X23824Y-21421D01*
X23776Y-21437D01*
X23728Y-21421D01*
X23601Y-21294D01*
X23585Y-21246D01*
X23601Y-21198D01*
X23664Y-21135D01*
X23712Y-21119D01*
X23760Y-21135D01*
X23792Y-21166D01*
X23664Y-21357D01*
X24205Y-21007D02*
X24189Y-21055D01*
X24126Y-21119D01*
X24078Y-21135D01*
X24046Y-21135D01*
X23999Y-21119D01*
X23903Y-21023D01*
X23887Y-20975D01*
X23887Y-20944D01*
X23903Y-20896D01*
X23967Y-20832D01*
X24014Y-20816D01*
X24364Y-20880D02*
X24030Y-20546D01*
X24508Y-20737D02*
X24333Y-20562D01*
X24285Y-20546D01*
X24237Y-20562D01*
X24189Y-20610D01*
X24174Y-20657D01*
X24174Y-20689D01*
X24667Y-20578D02*
X24444Y-20355D01*
X24333Y-20244D02*
X24333Y-20276D01*
X24364Y-20276D01*
X24364Y-20244D01*
X24333Y-20244D01*
X24364Y-20276D01*
X24603Y-20196D02*
X24826Y-20419D01*
X24635Y-20228D02*
X24635Y-20196D01*
X24651Y-20148D01*
X24698Y-20101D01*
X24746Y-20085D01*
X24794Y-20101D01*
X24969Y-20276D01*
X25255Y-19957D02*
X25239Y-20005D01*
X25176Y-20069D01*
X25128Y-20085D01*
X25096Y-20085D01*
X25048Y-20069D01*
X24953Y-19973D01*
X24937Y-19926D01*
X24937Y-19894D01*
X24953Y-19846D01*
X25017Y-19782D01*
X25064Y-19766D01*
X25383Y-19798D02*
X25414Y-19798D01*
X25414Y-19830D01*
X25383Y-19830D01*
X25383Y-19798D01*
X25414Y-19830D01*
X25351Y-19448D02*
X25573Y-19671D01*
X25383Y-19480D02*
X25383Y-19448D01*
X25398Y-19401D01*
X25446Y-19353D01*
X25494Y-19337D01*
X25542Y-19353D01*
X25717Y-19528D01*
X25923Y-19321D02*
X25876Y-19337D01*
X25828Y-19321D01*
X25542Y-19035D01*
X25939Y-18605D02*
X26082Y-19321D01*
X26401Y-18844D02*
X26178Y-18621D01*
X26067Y-18510D02*
X26067Y-18542D01*
X26098Y-18542D01*
X26098Y-18510D01*
X26067Y-18510D01*
X26098Y-18542D01*
X26337Y-18462D02*
X26560Y-18685D01*
X26369Y-18494D02*
X26369Y-18462D01*
X26385Y-18414D01*
X26432Y-18367D01*
X26480Y-18351D01*
X26528Y-18367D01*
X26703Y-18542D01*
X27005Y-18239D02*
X26671Y-17905D01*
X26989Y-18223D02*
X26973Y-18271D01*
X26910Y-18335D01*
X26862Y-18351D01*
X26830Y-18351D01*
X26782Y-18335D01*
X26687Y-18239D01*
X26671Y-18192D01*
X26671Y-18160D01*
X26687Y-18112D01*
X26751Y-18048D01*
X26798Y-18033D01*
X27276Y-17937D02*
X27260Y-17985D01*
X27196Y-18048D01*
X27148Y-18064D01*
X27101Y-18048D01*
X26973Y-17921D01*
X26957Y-17873D01*
X26973Y-17826D01*
X27037Y-17762D01*
X27085Y-17746D01*
X27132Y-17762D01*
X27164Y-17794D01*
X27037Y-17985D01*
X27419Y-17826D02*
X27371Y-17428D01*
X27196Y-17603D02*
X27594Y-17651D01*
X27689Y-17492D02*
X27721Y-17492D01*
X27721Y-17523D01*
X27689Y-17523D01*
X27689Y-17492D01*
X27721Y-17523D01*
X27657Y-17142D02*
X27991Y-17476D01*
X27673Y-17158D02*
X27689Y-17110D01*
X27753Y-17046D01*
X27801Y-17030D01*
X27832Y-17030D01*
X27880Y-17046D01*
X27975Y-17142D01*
X27991Y-17189D01*
X27991Y-17221D01*
X27975Y-17269D01*
X27912Y-17333D01*
X27864Y-17348D01*
X28182Y-17062D02*
X27848Y-16728D01*
X28325Y-16919D02*
X28150Y-16744D01*
X28103Y-16728D01*
X28055Y-16744D01*
X28007Y-16792D01*
X27991Y-16839D01*
X27991Y-16871D01*
X28262Y-16537D02*
X28596Y-16871D01*
X28278Y-16553D02*
X28294Y-16505D01*
X28357Y-16442D01*
X28405Y-16426D01*
X28437Y-16426D01*
X28485Y-16442D01*
X28580Y-16537D01*
X28596Y-16585D01*
X28596Y-16617D01*
X28580Y-16664D01*
X28516Y-16728D01*
X28469Y-16744D01*
X28675Y-15869D02*
X28819Y-16585D01*
X29137Y-16108D02*
X28803Y-15774D01*
X28930Y-15646D01*
X28978Y-15630D01*
X29010Y-15630D01*
X29057Y-15646D01*
X29105Y-15694D01*
X29121Y-15742D01*
X29121Y-15774D01*
X29105Y-15821D01*
X28978Y-15949D01*
X29519Y-15726D02*
X29471Y-15742D01*
X29439Y-15742D01*
X29391Y-15726D01*
X29296Y-15630D01*
X29280Y-15583D01*
X29280Y-15551D01*
X29296Y-15503D01*
X29344Y-15455D01*
X29391Y-15440D01*
X29423Y-15440D01*
X29471Y-15455D01*
X29566Y-15551D01*
X29582Y-15599D01*
X29582Y-15630D01*
X29566Y-15678D01*
X29519Y-15726D01*
X29821Y-15424D02*
X29773Y-15440D01*
X29725Y-15424D01*
X29439Y-15137D01*
X29694Y-15105D02*
X29996Y-15249D01*
X29853Y-14946D02*
X29996Y-15249D01*
X30044Y-15360D01*
X30044Y-15392D01*
X30028Y-15440D01*
X30203Y-15042D02*
X29869Y-14708D01*
X30346Y-14899D02*
X30171Y-14724D01*
X30123Y-14708D01*
X30075Y-14724D01*
X30028Y-14771D01*
X30012Y-14819D01*
X30012Y-14851D01*
X30616Y-14596D02*
X30600Y-14644D01*
X30537Y-14708D01*
X30489Y-14724D01*
X30441Y-14708D01*
X30314Y-14581D01*
X30298Y-14533D01*
X30314Y-14485D01*
X30378Y-14421D01*
X30425Y-14406D01*
X30473Y-14421D01*
X30505Y-14453D01*
X30378Y-14644D01*
X30934Y-14310D02*
X30600Y-13976D01*
X30918Y-14294D02*
X30903Y-14342D01*
X30839Y-14406D01*
X30791Y-14421D01*
X30759Y-14421D01*
X30712Y-14406D01*
X30616Y-14310D01*
X30600Y-14262D01*
X30600Y-14231D01*
X30616Y-14183D01*
X30680Y-14119D01*
X30728Y-14103D01*
X31093Y-14151D02*
X30871Y-13928D01*
X30934Y-13992D02*
X30918Y-13944D01*
X30918Y-13912D01*
X30934Y-13865D01*
X30966Y-13833D01*
X31348Y-13896D02*
X31300Y-13912D01*
X31268Y-13912D01*
X31221Y-13896D01*
X31125Y-13801D01*
X31109Y-13753D01*
X31109Y-13721D01*
X31125Y-13674D01*
X31173Y-13626D01*
X31221Y-13610D01*
X31253Y-13610D01*
X31300Y-13626D01*
X31396Y-13721D01*
X31412Y-13769D01*
X31412Y-13801D01*
X31396Y-13849D01*
X31348Y-13896D01*
X31380Y-13419D02*
X31603Y-13642D01*
X31412Y-13451D02*
X31412Y-13419D01*
X31428Y-13372D01*
X31475Y-13324D01*
X31523Y-13308D01*
X31571Y-13324D01*
X31746Y-13499D01*
X32016Y-13197D02*
X32000Y-13244D01*
X31937Y-13308D01*
X31889Y-13324D01*
X31841Y-13308D01*
X31714Y-13181D01*
X31698Y-13133D01*
X31714Y-13085D01*
X31777Y-13022D01*
X31825Y-13006D01*
X31873Y-13022D01*
X31905Y-13053D01*
X31777Y-13244D01*
G54D12*
X16183Y-30013D02*
X16292Y-30594D01*
X16188Y-30041D02*
X16239Y-30003D01*
X16349Y-29982D01*
X16410Y-29999D01*
X16442Y-30022D01*
X16480Y-30072D01*
X16511Y-30238D01*
X16494Y-30298D01*
X16472Y-30331D01*
X16422Y-30369D01*
X16311Y-30390D01*
X16251Y-30372D01*
X16864Y-30286D02*
X16803Y-30269D01*
X16771Y-30246D01*
X16733Y-30196D01*
X16702Y-30030D01*
X16719Y-29970D01*
X16741Y-29937D01*
X16791Y-29899D01*
X16874Y-29884D01*
X16935Y-29901D01*
X16968Y-29923D01*
X17006Y-29974D01*
X17037Y-30139D01*
X17019Y-30200D01*
X16997Y-30233D01*
X16947Y-30271D01*
X16864Y-30286D01*
X17389Y-30188D02*
X17329Y-30171D01*
X17291Y-30121D01*
X17197Y-29623D01*
X17482Y-29770D02*
X17693Y-30131D01*
X17759Y-29718D02*
X17693Y-30131D01*
X17664Y-30280D01*
X17641Y-30312D01*
X17591Y-30350D01*
X18052Y-30064D02*
X17944Y-29483D01*
X18301Y-30017D02*
X18244Y-29713D01*
X18206Y-29663D01*
X18146Y-29646D01*
X18063Y-29661D01*
X18013Y-29699D01*
X17990Y-29732D01*
X18794Y-29896D02*
X18743Y-29934D01*
X18633Y-29955D01*
X18572Y-29938D01*
X18534Y-29888D01*
X18493Y-29667D01*
X18510Y-29606D01*
X18560Y-29568D01*
X18671Y-29547D01*
X18732Y-29565D01*
X18769Y-29615D01*
X18780Y-29670D01*
X18514Y-29777D01*
X19324Y-29826D02*
X19215Y-29245D01*
X19319Y-29798D02*
X19269Y-29836D01*
X19158Y-29857D01*
X19098Y-29840D01*
X19065Y-29817D01*
X19027Y-29767D01*
X18996Y-29601D01*
X19013Y-29541D01*
X19036Y-29508D01*
X19086Y-29470D01*
X19196Y-29449D01*
X19257Y-29466D01*
X19600Y-29774D02*
X19528Y-29387D01*
X19549Y-29498D02*
X19566Y-29437D01*
X19588Y-29404D01*
X19639Y-29366D01*
X19694Y-29356D01*
X20043Y-29691D02*
X19982Y-29674D01*
X19949Y-29652D01*
X19911Y-29601D01*
X19880Y-29436D01*
X19898Y-29375D01*
X19920Y-29342D01*
X19970Y-29304D01*
X20053Y-29289D01*
X20114Y-29306D01*
X20146Y-29329D01*
X20184Y-29379D01*
X20215Y-29545D01*
X20198Y-29605D01*
X20176Y-29638D01*
X20126Y-29676D01*
X20043Y-29691D01*
X20412Y-29222D02*
X20485Y-29609D01*
X20423Y-29277D02*
X20445Y-29244D01*
X20495Y-29206D01*
X20578Y-29191D01*
X20639Y-29208D01*
X20677Y-29258D01*
X20734Y-29562D01*
X21226Y-29441D02*
X21176Y-29479D01*
X21065Y-29500D01*
X21005Y-29483D01*
X20967Y-29433D01*
X20926Y-29211D01*
X20943Y-29151D01*
X20993Y-29113D01*
X21104Y-29092D01*
X21164Y-29110D01*
X21202Y-29160D01*
X21212Y-29215D01*
X20946Y-29322D01*
G54D13*
X7353Y-35477D02*
X7342Y-35517D01*
X7352Y-35572D01*
X7381Y-35624D01*
X7424Y-35654D01*
X7465Y-35666D01*
X7542Y-35670D01*
X7597Y-35660D01*
X7668Y-35628D01*
X7701Y-35603D01*
X7731Y-35559D01*
X7739Y-35500D01*
X7732Y-35463D01*
X7703Y-35411D01*
X7681Y-35396D01*
X7552Y-35421D01*
X7566Y-35494D01*
X7687Y-35224D02*
X7300Y-35296D01*
X7646Y-35003D01*
X7259Y-35075D01*
X7611Y-34818D02*
X7224Y-34891D01*
X7207Y-34799D01*
X7215Y-34740D01*
X7245Y-34696D01*
X7279Y-34671D01*
X7349Y-34638D01*
X7404Y-34628D01*
X7481Y-34633D01*
X7522Y-34644D01*
X7565Y-34674D01*
X7594Y-34726D01*
X7611Y-34818D01*
X7484Y-34136D02*
X7097Y-34209D01*
X7080Y-34117D01*
X7088Y-34058D01*
X7118Y-34014D01*
X7151Y-33989D01*
X7221Y-33957D01*
X7277Y-33946D01*
X7354Y-33951D01*
X7394Y-33962D01*
X7438Y-33992D01*
X7467Y-34044D01*
X7484Y-34136D01*
X7304Y-33789D02*
X7270Y-33604D01*
X7422Y-33805D02*
X7011Y-33748D01*
X7373Y-33547D01*
X6973Y-33545D02*
X6931Y-33324D01*
X7339Y-33362D02*
X6952Y-33435D01*
X7187Y-33162D02*
X7152Y-32978D01*
X7304Y-33178D02*
X6893Y-33122D01*
X7256Y-32920D01*
X7099Y-32282D02*
X7120Y-32297D01*
X7149Y-32349D01*
X7156Y-32386D01*
X7148Y-32445D01*
X7118Y-32488D01*
X7085Y-32514D01*
X7014Y-32546D01*
X6959Y-32556D01*
X6882Y-32552D01*
X6842Y-32540D01*
X6798Y-32510D01*
X6769Y-32458D01*
X6762Y-32421D01*
X6770Y-32363D01*
X6785Y-32341D01*
X7070Y-31925D02*
X7104Y-32109D01*
X6717Y-32182D01*
X7046Y-31796D02*
X6659Y-31869D01*
X7004Y-31575D02*
X6814Y-31782D01*
X6617Y-31647D02*
X6880Y-31827D01*
X6538Y-31224D02*
X6493Y-30984D01*
X6665Y-31085D01*
X6654Y-31030D01*
X6666Y-30990D01*
X6681Y-30968D01*
X6714Y-30943D01*
X6807Y-30925D01*
X6847Y-30937D01*
X6869Y-30952D01*
X6894Y-30985D01*
X6915Y-31096D01*
X6903Y-31136D01*
X6888Y-31158D01*
X6473Y-30873D02*
X6835Y-30672D01*
X6424Y-30615D01*
X6407Y-30523D02*
X6362Y-30284D01*
X6534Y-30385D01*
X6523Y-30330D01*
X6535Y-30290D01*
X6550Y-30268D01*
X6583Y-30242D01*
X6675Y-30225D01*
X6716Y-30237D01*
X6738Y-30252D01*
X6763Y-30285D01*
X6784Y-30396D01*
X6772Y-30436D01*
X6757Y-30458D01*
X30265Y-6359D02*
X30505Y-6404D01*
X30348Y-6527D01*
X30404Y-6537D01*
X30437Y-6563D01*
X30452Y-6584D01*
X30463Y-6625D01*
X30446Y-6717D01*
X30421Y-6750D01*
X30399Y-6765D01*
X30359Y-6777D01*
X30248Y-6756D01*
X30215Y-6731D01*
X30200Y-6709D01*
X30615Y-6424D02*
X30672Y-6835D01*
X30873Y-6473D01*
X30966Y-6490D02*
X31205Y-6535D01*
X31049Y-6658D01*
X31104Y-6668D01*
X31137Y-6694D01*
X31152Y-6715D01*
X31164Y-6756D01*
X31146Y-6848D01*
X31121Y-6881D01*
X31099Y-6896D01*
X31059Y-6908D01*
X30948Y-6887D01*
X30915Y-6862D01*
X30900Y-6840D01*
X31821Y-7012D02*
X31800Y-7027D01*
X31741Y-7035D01*
X31704Y-7029D01*
X31652Y-7000D01*
X31622Y-6956D01*
X31611Y-6916D01*
X31606Y-6839D01*
X31616Y-6783D01*
X31649Y-6713D01*
X31674Y-6680D01*
X31718Y-6650D01*
X31776Y-6642D01*
X31813Y-6648D01*
X31865Y-6677D01*
X31880Y-6699D01*
X32165Y-7115D02*
X31980Y-7080D01*
X32053Y-6693D01*
X32294Y-7139D02*
X32366Y-6752D01*
X32515Y-7180D02*
X32390Y-6928D01*
X32587Y-6793D02*
X32325Y-6973D01*
X32975Y-7266D02*
X33048Y-6879D01*
X33140Y-6897D01*
X33192Y-6926D01*
X33222Y-6969D01*
X33233Y-7010D01*
X33238Y-7087D01*
X33228Y-7142D01*
X33195Y-7212D01*
X33170Y-7246D01*
X33126Y-7276D01*
X33068Y-7284D01*
X32975Y-7266D01*
X33365Y-7225D02*
X33549Y-7259D01*
X33307Y-7329D02*
X33509Y-6966D01*
X33565Y-7377D01*
X33711Y-7004D02*
X33932Y-7045D01*
X33749Y-7411D02*
X33822Y-7024D01*
X33991Y-7342D02*
X34176Y-7377D01*
X33934Y-7446D02*
X34135Y-7083D01*
X34192Y-7494D01*
X34887Y-7243D02*
X34854Y-7217D01*
X34799Y-7207D01*
X34740Y-7215D01*
X34696Y-7245D01*
X34671Y-7279D01*
X34638Y-7349D01*
X34628Y-7404D01*
X34633Y-7481D01*
X34644Y-7522D01*
X34674Y-7565D01*
X34726Y-7594D01*
X34763Y-7601D01*
X34822Y-7593D01*
X34844Y-7578D01*
X34868Y-7449D01*
X34794Y-7435D01*
X35003Y-7646D02*
X35075Y-7259D01*
X35224Y-7687D01*
X35296Y-7300D01*
X35408Y-7722D02*
X35480Y-7335D01*
X35572Y-7352D01*
X35624Y-7381D01*
X35654Y-7424D01*
X35666Y-7465D01*
X35670Y-7542D01*
X35660Y-7597D01*
X35628Y-7668D01*
X35603Y-7701D01*
X35559Y-7731D01*
X35500Y-7739D01*
X35408Y-7722D01*
G54D12*
X17787Y-24873D02*
X17984Y-25464D01*
X18181Y-24873D01*
X18715Y-25407D02*
X18687Y-25435D01*
X18603Y-25464D01*
X18546Y-25464D01*
X18462Y-25435D01*
X18406Y-25379D01*
X18378Y-25323D01*
X18350Y-25210D01*
X18350Y-25126D01*
X18378Y-25014D01*
X18406Y-24957D01*
X18462Y-24901D01*
X18546Y-24873D01*
X18603Y-24873D01*
X18687Y-24901D01*
X18715Y-24929D01*
X19306Y-25407D02*
X19278Y-25435D01*
X19193Y-25464D01*
X19137Y-25464D01*
X19053Y-25435D01*
X18996Y-25379D01*
X18968Y-25323D01*
X18940Y-25210D01*
X18940Y-25126D01*
X18968Y-25014D01*
X18996Y-24957D01*
X19053Y-24901D01*
X19137Y-24873D01*
X19193Y-24873D01*
X19278Y-24901D01*
X19306Y-24929D01*
X14037Y-8073D02*
X14234Y-8664D01*
X14431Y-8073D01*
X14965Y-8607D02*
X14937Y-8635D01*
X14853Y-8664D01*
X14796Y-8664D01*
X14712Y-8635D01*
X14656Y-8579D01*
X14628Y-8523D01*
X14600Y-8410D01*
X14600Y-8326D01*
X14628Y-8214D01*
X14656Y-8157D01*
X14712Y-8101D01*
X14796Y-8073D01*
X14853Y-8073D01*
X14937Y-8101D01*
X14965Y-8129D01*
X15556Y-8607D02*
X15528Y-8635D01*
X15443Y-8664D01*
X15387Y-8664D01*
X15303Y-8635D01*
X15246Y-8579D01*
X15218Y-8523D01*
X15190Y-8410D01*
X15190Y-8326D01*
X15218Y-8214D01*
X15246Y-8157D01*
X15303Y-8101D01*
X15387Y-8073D01*
X15443Y-8073D01*
X15528Y-8101D01*
X15556Y-8129D01*
X7925Y-15001D02*
X7868Y-14973D01*
X7784Y-14973D01*
X7700Y-15001D01*
X7643Y-15057D01*
X7615Y-15114D01*
X7587Y-15226D01*
X7587Y-15310D01*
X7615Y-15423D01*
X7643Y-15479D01*
X7700Y-15535D01*
X7784Y-15564D01*
X7840Y-15564D01*
X7925Y-15535D01*
X7953Y-15507D01*
X7953Y-15310D01*
X7840Y-15310D01*
X8206Y-15564D02*
X8206Y-14973D01*
X8543Y-15564D01*
X8543Y-14973D01*
X8824Y-15564D02*
X8824Y-14973D01*
X8965Y-14973D01*
X9049Y-15001D01*
X9106Y-15057D01*
X9134Y-15114D01*
X9162Y-15226D01*
X9162Y-15310D01*
X9134Y-15423D01*
X9106Y-15479D01*
X9049Y-15535D01*
X8965Y-15564D01*
X8824Y-15564D01*
X24575Y-14951D02*
X24518Y-14923D01*
X24434Y-14923D01*
X24350Y-14951D01*
X24293Y-15007D01*
X24265Y-15064D01*
X24237Y-15176D01*
X24237Y-15260D01*
X24265Y-15373D01*
X24293Y-15429D01*
X24350Y-15485D01*
X24434Y-15514D01*
X24490Y-15514D01*
X24575Y-15485D01*
X24603Y-15457D01*
X24603Y-15260D01*
X24490Y-15260D01*
X24856Y-15514D02*
X24856Y-14923D01*
X25193Y-15514D01*
X25193Y-14923D01*
X25474Y-15514D02*
X25474Y-14923D01*
X25615Y-14923D01*
X25699Y-14951D01*
X25756Y-15007D01*
X25784Y-15064D01*
X25812Y-15176D01*
X25812Y-15260D01*
X25784Y-15373D01*
X25756Y-15429D01*
X25699Y-15485D01*
X25615Y-15514D01*
X25474Y-15514D01*
G54D14*
X31092Y-7207D02*
X31092Y-7207D01*
X30908Y-8190D02*
X31092Y-7207D01*
X31092Y-7207D02*
X31092Y-7207D01*
X31092Y-7207D02*
X35024Y-7943D01*
X35024Y-7943D02*
X34840Y-8926D01*
X34840Y-8926D02*
X30908Y-8190D01*
X31891Y-8374D02*
X32075Y-7391D01*
X8190Y-30908D02*
X8190Y-30908D01*
X7207Y-31092D02*
X8190Y-30908D01*
X8190Y-30908D02*
X8190Y-30908D01*
X8190Y-30908D02*
X8926Y-34840D01*
X8926Y-34840D02*
X7943Y-35024D01*
X7943Y-35024D02*
X7207Y-31092D01*
X7391Y-32075D02*
X8374Y-31891D01*
G54D15*
X7175Y-23525D02*
X7175Y-24425D01*
X7175Y-24425D02*
X7825Y-24425D01*
X8525Y-23525D02*
X9175Y-23525D01*
X9175Y-23525D02*
X9175Y-24425D01*
X9175Y-24425D02*
X8525Y-24425D01*
X7825Y-23525D02*
X7175Y-23525D01*
G54D16*
X5675Y-9725D02*
X5675Y-5925D01*
X5675Y-5925D02*
X7175Y-5925D01*
X7175Y-5925D02*
X7175Y-9725D01*
X7175Y-9725D02*
X5675Y-9725D01*
X6175Y-9725D02*
X6175Y-9425D01*
X6175Y-9425D02*
X6575Y-9425D01*
X6575Y-9425D02*
X6575Y-9725D01*
X15125Y-26325D02*
X15125Y-30125D01*
X15125Y-30125D02*
X13625Y-30125D01*
X13625Y-30125D02*
X13625Y-26325D01*
X13625Y-26325D02*
X15125Y-26325D01*
X14625Y-26325D02*
X14625Y-26625D01*
X14625Y-26625D02*
X14225Y-26625D01*
X14225Y-26625D02*
X14225Y-26325D01*
X29875Y-24525D02*
X26075Y-24525D01*
X26075Y-24525D02*
X26075Y-23025D01*
X26075Y-23025D02*
X29875Y-23025D01*
X29875Y-23025D02*
X29875Y-24525D01*
X29875Y-24025D02*
X29575Y-24025D01*
X29575Y-24025D02*
X29575Y-23625D01*
X29575Y-23625D02*
X29875Y-23625D01*
X25725Y-10675D02*
X25725Y-6875D01*
X25725Y-6875D02*
X27225Y-6875D01*
X27225Y-6875D02*
X27225Y-10675D01*
X27225Y-10675D02*
X25725Y-10675D01*
X26225Y-10675D02*
X26225Y-10375D01*
X26225Y-10375D02*
X26625Y-10375D01*
X26625Y-10375D02*
X26625Y-10675D01*
X11875Y-22775D02*
X11875Y-26575D01*
X11875Y-26575D02*
X10375Y-26575D01*
X10375Y-26575D02*
X10375Y-22775D01*
X10375Y-22775D02*
X11875Y-22775D01*
X11375Y-22775D02*
X11375Y-23075D01*
X11375Y-23075D02*
X10975Y-23075D01*
X10975Y-23075D02*
X10975Y-22775D01*
G54D15*
X29075Y-19875D02*
X28175Y-19875D01*
X28175Y-19875D02*
X28175Y-20525D01*
X29075Y-21225D02*
X29075Y-21875D01*
X29075Y-21875D02*
X28175Y-21875D01*
X28175Y-21875D02*
X28175Y-21225D01*
X29075Y-20525D02*
X29075Y-19875D01*
X10425Y-6725D02*
X10425Y-5825D01*
X10425Y-5825D02*
X9775Y-5825D01*
X9075Y-6725D02*
X8425Y-6725D01*
X8425Y-6725D02*
X8425Y-5825D01*
X8425Y-5825D02*
X9075Y-5825D01*
X9775Y-6725D02*
X10425Y-6725D01*
X10425Y-5625D02*
X10425Y-4725D01*
X10425Y-4725D02*
X9775Y-4725D01*
X9075Y-5625D02*
X8425Y-5625D01*
X8425Y-5625D02*
X8425Y-4725D01*
X8425Y-4725D02*
X9075Y-4725D01*
X9775Y-5625D02*
X10425Y-5625D01*
X30075Y-9975D02*
X30075Y-9075D01*
X30075Y-9075D02*
X29425Y-9075D01*
X28725Y-9975D02*
X28075Y-9975D01*
X28075Y-9975D02*
X28075Y-9075D01*
X28075Y-9075D02*
X28725Y-9075D01*
X29425Y-9975D02*
X30075Y-9975D01*
X30075Y-7625D02*
X30075Y-6725D01*
X30075Y-6725D02*
X29425Y-6725D01*
X28725Y-7625D02*
X28075Y-7625D01*
X28075Y-7625D02*
X28075Y-6725D01*
X28075Y-6725D02*
X28725Y-6725D01*
X29425Y-7625D02*
X30075Y-7625D01*
X30075Y-8775D02*
X30075Y-7875D01*
X30075Y-7875D02*
X29425Y-7875D01*
X28725Y-8775D02*
X28075Y-8775D01*
X28075Y-8775D02*
X28075Y-7875D01*
X28075Y-7875D02*
X28725Y-7875D01*
X29425Y-8775D02*
X30075Y-8775D01*
X10075Y-10225D02*
X10075Y-9325D01*
X10075Y-9325D02*
X9425Y-9325D01*
X8725Y-10225D02*
X8075Y-10225D01*
X8075Y-10225D02*
X8075Y-9325D01*
X8075Y-9325D02*
X8725Y-9325D01*
X9425Y-10225D02*
X10075Y-10225D01*
X7175Y-24725D02*
X7175Y-25625D01*
X7175Y-25625D02*
X7825Y-25625D01*
X8525Y-24725D02*
X9175Y-24725D01*
X9175Y-24725D02*
X9175Y-25625D01*
X9175Y-25625D02*
X8525Y-25625D01*
X7825Y-24725D02*
X7175Y-24725D01*
X26775Y-19875D02*
X25875Y-19875D01*
X25875Y-19875D02*
X25875Y-20525D01*
X26775Y-21225D02*
X26775Y-21875D01*
X26775Y-21875D02*
X25875Y-21875D01*
X25875Y-21875D02*
X25875Y-21225D01*
X26775Y-20525D02*
X26775Y-19875D01*
X27925Y-19875D02*
X27025Y-19875D01*
X27025Y-19875D02*
X27025Y-20525D01*
X27925Y-21225D02*
X27925Y-21875D01*
X27925Y-21875D02*
X27025Y-21875D01*
X27025Y-21875D02*
X27025Y-21225D01*
X27925Y-20525D02*
X27925Y-19875D01*
X7175Y-25925D02*
X7175Y-26825D01*
X7175Y-26825D02*
X7825Y-26825D01*
X8525Y-25925D02*
X9175Y-25925D01*
X9175Y-25925D02*
X9175Y-26825D01*
X9175Y-26825D02*
X8525Y-26825D01*
X7825Y-25925D02*
X7175Y-25925D01*
X10225Y-28275D02*
X10225Y-29175D01*
X10225Y-29175D02*
X10875Y-29175D01*
X11575Y-28275D02*
X12225Y-28275D01*
X12225Y-28275D02*
X12225Y-29175D01*
X12225Y-29175D02*
X11575Y-29175D01*
X10875Y-28275D02*
X10225Y-28275D01*
X10225Y-29475D02*
X10225Y-30375D01*
X10225Y-30375D02*
X10875Y-30375D01*
X11575Y-29475D02*
X12225Y-29475D01*
X12225Y-29475D02*
X12225Y-30375D01*
X12225Y-30375D02*
X11575Y-30375D01*
X10875Y-29475D02*
X10225Y-29475D01*
X10225Y-27075D02*
X10225Y-27975D01*
X10225Y-27975D02*
X10875Y-27975D01*
X11575Y-27075D02*
X12225Y-27075D01*
X12225Y-27075D02*
X12225Y-27975D01*
X12225Y-27975D02*
X11575Y-27975D01*
X10875Y-27075D02*
X10225Y-27075D01*
G54D10*
X22404Y-26432D02*
X22404Y-26826D01*
X22759Y-26589D02*
X22365Y-26983D01*
X21775Y-26432D02*
X21775Y-26904D01*
X21145Y-26904D02*
X21145Y-26432D01*
X22404Y-26117D02*
X22404Y-25645D01*
X21775Y-25645D02*
X21775Y-26117D01*
X21145Y-26117D02*
X21145Y-25645D01*
X22208Y-26432D02*
X22601Y-26432D01*
X22404Y-26432D02*
X22208Y-26137D01*
X22601Y-26137D02*
X22404Y-26432D01*
X22208Y-26137D02*
X22601Y-26137D01*
X22208Y-26137D02*
X22601Y-26137D01*
X22601Y-26137D02*
X22404Y-26432D01*
X22404Y-26432D02*
X22208Y-26137D01*
X22208Y-26432D02*
X22601Y-26432D01*
X21578Y-26432D02*
X21971Y-26432D01*
X21775Y-26432D02*
X21578Y-26137D01*
X21971Y-26137D02*
X21775Y-26432D01*
X21578Y-26137D02*
X21971Y-26137D01*
X21578Y-26137D02*
X21971Y-26137D01*
X21971Y-26137D02*
X21775Y-26432D01*
X21775Y-26432D02*
X21578Y-26137D01*
X21578Y-26432D02*
X21971Y-26432D01*
X20948Y-26432D02*
X21341Y-26432D01*
X21145Y-26432D02*
X20948Y-26137D01*
X21341Y-26137D02*
X21145Y-26432D01*
X20948Y-26137D02*
X21341Y-26137D01*
X20948Y-26137D02*
X21341Y-26137D01*
X21341Y-26137D02*
X21145Y-26432D01*
X21145Y-26432D02*
X20948Y-26137D01*
X20948Y-26432D02*
X21341Y-26432D01*
X20790Y-25290D02*
X20790Y-27259D01*
X22759Y-27259D02*
X22759Y-25290D01*
X29132Y-11245D02*
X29526Y-11245D01*
X29289Y-10890D02*
X29683Y-11284D01*
X29132Y-11875D02*
X29604Y-11875D01*
X29604Y-12504D02*
X29132Y-12504D01*
X28817Y-11245D02*
X28345Y-11245D01*
X28345Y-11875D02*
X28817Y-11875D01*
X28817Y-12504D02*
X28345Y-12504D01*
X29132Y-11441D02*
X29132Y-11048D01*
X29132Y-11245D02*
X28837Y-11441D01*
X28837Y-11048D02*
X29132Y-11245D01*
X28837Y-11441D02*
X28837Y-11048D01*
X28837Y-11441D02*
X28837Y-11048D01*
X28837Y-11048D02*
X29132Y-11245D01*
X29132Y-11245D02*
X28837Y-11441D01*
X29132Y-11441D02*
X29132Y-11048D01*
X29132Y-12071D02*
X29132Y-11678D01*
X29132Y-11875D02*
X28837Y-12071D01*
X28837Y-11678D02*
X29132Y-11875D01*
X28837Y-12071D02*
X28837Y-11678D01*
X28837Y-12071D02*
X28837Y-11678D01*
X28837Y-11678D02*
X29132Y-11875D01*
X29132Y-11875D02*
X28837Y-12071D01*
X29132Y-12071D02*
X29132Y-11678D01*
X29132Y-12701D02*
X29132Y-12308D01*
X29132Y-12504D02*
X28837Y-12701D01*
X28837Y-12308D02*
X29132Y-12504D01*
X28837Y-12701D02*
X28837Y-12308D01*
X28837Y-12701D02*
X28837Y-12308D01*
X28837Y-12308D02*
X29132Y-12504D01*
X29132Y-12504D02*
X28837Y-12701D01*
X29132Y-12701D02*
X29132Y-12308D01*
X27990Y-12859D02*
X29959Y-12859D01*
X29959Y-10890D02*
X27990Y-10890D01*
X10382Y-7395D02*
X10776Y-7395D01*
X10539Y-7040D02*
X10933Y-7434D01*
X10382Y-8025D02*
X10854Y-8025D01*
X10854Y-8654D02*
X10382Y-8654D01*
X10067Y-7395D02*
X9595Y-7395D01*
X9595Y-8025D02*
X10067Y-8025D01*
X10067Y-8654D02*
X9595Y-8654D01*
X10382Y-7591D02*
X10382Y-7198D01*
X10382Y-7395D02*
X10087Y-7591D01*
X10087Y-7198D02*
X10382Y-7395D01*
X10087Y-7591D02*
X10087Y-7198D01*
X10087Y-7591D02*
X10087Y-7198D01*
X10087Y-7198D02*
X10382Y-7395D01*
X10382Y-7395D02*
X10087Y-7591D01*
X10382Y-7591D02*
X10382Y-7198D01*
X10382Y-8221D02*
X10382Y-7828D01*
X10382Y-8025D02*
X10087Y-8221D01*
X10087Y-7828D02*
X10382Y-8025D01*
X10087Y-8221D02*
X10087Y-7828D01*
X10087Y-8221D02*
X10087Y-7828D01*
X10087Y-7828D02*
X10382Y-8025D01*
X10382Y-8025D02*
X10087Y-8221D01*
X10382Y-8221D02*
X10382Y-7828D01*
X10382Y-8851D02*
X10382Y-8458D01*
X10382Y-8654D02*
X10087Y-8851D01*
X10087Y-8458D02*
X10382Y-8654D01*
X10087Y-8851D02*
X10087Y-8458D01*
X10087Y-8851D02*
X10087Y-8458D01*
X10087Y-8458D02*
X10382Y-8654D01*
X10382Y-8654D02*
X10087Y-8851D01*
X10382Y-8851D02*
X10382Y-8458D01*
X9240Y-9009D02*
X11209Y-9009D01*
X11209Y-7040D02*
X9240Y-7040D01*
G54D17*
X9853Y-21427D02*
G75*
G03X9853Y-21427I-49J0D01*
G74*
G01*
X10121Y-21745D02*
X9838Y-21462D01*
X9838Y-21462D02*
X10262Y-21038D01*
X10262Y-21038D02*
X10545Y-21321D01*
X10828Y-21604D02*
X11111Y-21887D01*
X11111Y-21887D02*
X10687Y-22311D01*
X10687Y-22311D02*
X10404Y-22028D01*
X14725Y-24725D02*
G75*
G03X14725Y-24725I-50J0D01*
G74*
G01*
X14675Y-25175D02*
X14675Y-24775D01*
X14675Y-24775D02*
X15275Y-24775D01*
X15275Y-24775D02*
X15275Y-25175D01*
X15275Y-25575D02*
X15275Y-25975D01*
X15275Y-25975D02*
X14675Y-25975D01*
X14675Y-25975D02*
X14675Y-25575D01*
X8246Y-10772D02*
G75*
G03X8246Y-10772I-49J0D01*
G74*
G01*
X7878Y-10454D02*
X8161Y-10737D01*
X8161Y-10737D02*
X7737Y-11161D01*
X7737Y-11161D02*
X7454Y-10878D01*
X7171Y-10595D02*
X6888Y-10312D01*
X6888Y-10312D02*
X7312Y-9888D01*
X7312Y-9888D02*
X7595Y-10171D01*
X23575Y-10175D02*
G75*
G03X23575Y-10175I-50J0D01*
G74*
G01*
X23975Y-10175D02*
X23575Y-10175D01*
X23575Y-10175D02*
X23575Y-9575D01*
X23575Y-9575D02*
X23975Y-9575D01*
X24375Y-9575D02*
X24775Y-9575D01*
X24775Y-9575D02*
X24775Y-10175D01*
X24775Y-10175D02*
X24375Y-10175D01*
X29825Y-26625D02*
G75*
G03X29825Y-26625I-50J0D01*
G74*
G01*
X29775Y-26175D02*
X29775Y-26575D01*
X29775Y-26575D02*
X29175Y-26575D01*
X29175Y-26575D02*
X29175Y-26175D01*
X29175Y-25775D02*
X29175Y-25375D01*
X29175Y-25375D02*
X29775Y-25375D01*
X29775Y-25375D02*
X29775Y-25775D01*
G54D18*
G36*
X16962Y-27668D02*
X16962Y-27668D01*
X16497Y-27848D01*
X16529Y-28019D01*
X16561Y-28190D01*
X17050Y-28190D01*
X17065Y-28226D01*
X17080Y-28260D01*
X17097Y-28295D01*
X17113Y-28329D01*
X17132Y-28363D01*
X17151Y-28396D01*
X17170Y-28428D01*
X17191Y-28459D01*
X17212Y-28490D01*
X17235Y-28520D01*
X17258Y-28550D01*
X17282Y-28579D01*
X17306Y-28607D01*
X17332Y-28633D01*
X17137Y-29074D01*
X17281Y-29172D01*
X17425Y-29270D01*
X17760Y-28934D01*
X17792Y-28948D01*
X17824Y-28960D01*
X17856Y-28973D01*
X17889Y-28984D01*
X17922Y-28994D01*
X18070Y-28290D01*
X18033Y-28274D01*
X17997Y-28257D01*
X17962Y-28237D01*
X17929Y-28214D01*
X17896Y-28190D01*
X17865Y-28163D01*
X17837Y-28135D01*
X17810Y-28106D01*
X17785Y-28074D01*
X17761Y-28040D01*
X17739Y-28006D01*
X17720Y-27969D01*
X17704Y-27931D01*
X17689Y-27891D01*
X17678Y-27850D01*
X17668Y-27809D01*
X17661Y-27763D01*
X17657Y-27718D01*
X17657Y-27673D01*
X17660Y-27629D01*
X17666Y-27586D01*
X17674Y-27543D01*
X17686Y-27501D01*
X17699Y-27461D01*
X17716Y-27421D01*
X17736Y-27383D01*
X17757Y-27346D01*
X17781Y-27311D01*
X17808Y-27278D01*
X17836Y-27246D01*
X17867Y-27216D01*
X17900Y-27187D01*
X17935Y-27162D01*
X17972Y-27138D01*
X18011Y-27118D01*
X18050Y-27099D01*
X18092Y-27083D01*
X18135Y-27071D01*
X18180Y-27061D01*
X18226Y-27054D01*
X18270Y-27050D01*
X18315Y-27050D01*
X18359Y-27053D01*
X18402Y-27058D01*
X18445Y-27067D01*
X18486Y-27078D01*
X18528Y-27092D01*
X18567Y-27109D01*
X18606Y-27128D01*
X18642Y-27150D01*
X18677Y-27174D01*
X18711Y-27200D01*
X18743Y-27229D01*
X18773Y-27260D01*
X18800Y-27292D01*
X18826Y-27327D01*
X18849Y-27365D01*
X18871Y-27402D01*
X18889Y-27443D01*
X18904Y-27485D01*
X18917Y-27528D01*
X18928Y-27573D01*
X18934Y-27615D01*
X18938Y-27657D01*
X18938Y-27700D01*
X18937Y-27741D01*
X18933Y-27782D01*
X18925Y-27823D01*
X18915Y-27862D01*
X18903Y-27901D01*
X18888Y-27938D01*
X18872Y-27975D01*
X18853Y-28011D01*
X18831Y-28046D01*
X18809Y-28078D01*
X18783Y-28110D01*
X18756Y-28139D01*
X18727Y-28167D01*
X19119Y-28770D01*
X19147Y-28749D01*
X19173Y-28726D01*
X19198Y-28703D01*
X19225Y-28680D01*
X19249Y-28655D01*
X19683Y-28848D01*
X19782Y-28704D01*
X19880Y-28560D01*
X19539Y-28220D01*
X19553Y-28186D01*
X19566Y-28151D01*
X19578Y-28115D01*
X19588Y-28080D01*
X19599Y-28043D01*
X19607Y-28007D01*
X19616Y-27970D01*
X19622Y-27933D01*
X19628Y-27895D01*
X19633Y-27858D01*
X19636Y-27820D01*
X19639Y-27781D01*
X19640Y-27744D01*
X19641Y-27705D01*
X20098Y-27528D01*
X20066Y-27357D01*
X20034Y-27186D01*
X19535Y-27186D01*
X19519Y-27150D01*
X19501Y-27114D01*
X19483Y-27078D01*
X19465Y-27044D01*
X19444Y-27010D01*
X19424Y-26976D01*
X19401Y-26944D01*
X19379Y-26912D01*
X19355Y-26881D01*
X19331Y-26851D01*
X19305Y-26822D01*
X19279Y-26793D01*
X19253Y-26765D01*
X19457Y-26302D01*
X19314Y-26203D01*
X19170Y-26105D01*
X18808Y-26468D01*
X18773Y-26454D01*
X18737Y-26442D01*
X18701Y-26430D01*
X18664Y-26420D01*
X18628Y-26409D01*
X18591Y-26401D01*
X18553Y-26392D01*
X18516Y-26386D01*
X18478Y-26380D01*
X18439Y-26376D01*
X18401Y-26372D01*
X18362Y-26370D01*
X18323Y-26368D01*
X18323Y-26368D01*
X18137Y-25887D01*
X17966Y-25919D01*
X17795Y-25951D01*
X17796Y-26467D01*
X17796Y-26467D01*
X17761Y-26483D01*
X17725Y-26499D01*
X17690Y-26516D01*
X17656Y-26534D01*
X17623Y-26553D01*
X17590Y-26573D01*
X17558Y-26594D01*
X17527Y-26615D01*
X17497Y-26638D01*
X17466Y-26661D01*
X17437Y-26685D01*
X17408Y-26710D01*
X17380Y-26735D01*
X16911Y-26528D01*
X16813Y-26671D01*
X16715Y-26815D01*
X17073Y-27173D01*
X17058Y-27208D01*
X17044Y-27245D01*
X17031Y-27282D01*
X17020Y-27318D01*
X17008Y-27356D01*
X16999Y-27394D01*
X16990Y-27432D01*
X16983Y-27471D01*
X16976Y-27510D01*
X16971Y-27548D01*
X16967Y-27589D01*
X16964Y-27628D01*
X16962Y-27668D01*
X16962Y-27668D01*
G37*
G54D19*
X34537Y-9615D02*
X33948Y-9505D01*
X34572Y-9428D02*
X33983Y-9318D01*
X34614Y-9203D01*
X34025Y-9093D01*
X9092Y-33985D02*
X9167Y-33971D01*
X9209Y-33992D01*
X9257Y-34041D01*
X9297Y-34150D01*
X9334Y-34346D01*
X9336Y-34462D01*
X9309Y-34525D01*
X9277Y-34561D01*
X9202Y-34575D01*
X9160Y-34554D01*
X9112Y-34504D01*
X9072Y-34396D01*
X9035Y-34199D01*
X9033Y-34083D01*
X9060Y-34020D01*
X9092Y-33985D01*
X9429Y-33922D02*
X9518Y-34399D01*
X9547Y-34452D01*
X9571Y-34476D01*
X9614Y-34498D01*
X9689Y-34483D01*
X9721Y-34448D01*
X9735Y-34417D01*
X9743Y-34357D01*
X9654Y-33880D01*
X9785Y-33855D02*
X10009Y-33813D01*
X10007Y-34424D02*
X9897Y-33834D01*
G54D15*
X8296Y-24167D02*
X8153Y-24267D01*
X8296Y-24339D02*
X7996Y-24339D01*
X7996Y-24225D01*
X8010Y-24196D01*
X8025Y-24182D01*
X8053Y-24167D01*
X8096Y-24167D01*
X8125Y-24182D01*
X8139Y-24196D01*
X8153Y-24225D01*
X8153Y-24339D01*
X8296Y-23882D02*
X8296Y-24053D01*
X8296Y-23967D02*
X7996Y-23967D01*
X8039Y-23996D01*
X8067Y-24025D01*
X8082Y-24053D01*
X7996Y-23696D02*
X7996Y-23667D01*
X8010Y-23639D01*
X8025Y-23625D01*
X8053Y-23610D01*
X8110Y-23596D01*
X8182Y-23596D01*
X8239Y-23610D01*
X8267Y-23625D01*
X8282Y-23639D01*
X8296Y-23667D01*
X8296Y-23696D01*
X8282Y-23725D01*
X8267Y-23739D01*
X8239Y-23753D01*
X8182Y-23767D01*
X8110Y-23767D01*
X8053Y-23753D01*
X8025Y-23739D01*
X8010Y-23725D01*
X7996Y-23696D01*
X6236Y-8264D02*
X5836Y-8264D01*
X6198Y-7792D02*
X6217Y-7814D01*
X6236Y-7878D01*
X6236Y-7921D01*
X6217Y-7985D01*
X6179Y-8028D01*
X6141Y-8049D01*
X6065Y-8071D01*
X6008Y-8071D01*
X5932Y-8049D01*
X5894Y-8028D01*
X5855Y-7985D01*
X5836Y-7921D01*
X5836Y-7878D01*
X5855Y-7814D01*
X5875Y-7792D01*
X5836Y-7642D02*
X5836Y-7364D01*
X5989Y-7514D01*
X5989Y-7449D01*
X6008Y-7407D01*
X6027Y-7385D01*
X6065Y-7364D01*
X6160Y-7364D01*
X6198Y-7385D01*
X6217Y-7407D01*
X6236Y-7449D01*
X6236Y-7578D01*
X6217Y-7621D01*
X6198Y-7642D01*
X6536Y-8948D02*
X6936Y-8853D01*
X6651Y-8777D01*
X6936Y-8701D01*
X6536Y-8605D01*
X6917Y-8472D02*
X6936Y-8415D01*
X6936Y-8320D01*
X6917Y-8282D01*
X6898Y-8263D01*
X6860Y-8244D01*
X6822Y-8244D01*
X6784Y-8263D01*
X6765Y-8282D01*
X6746Y-8320D01*
X6727Y-8396D01*
X6708Y-8434D01*
X6689Y-8453D01*
X6651Y-8472D01*
X6613Y-8472D01*
X6575Y-8453D01*
X6555Y-8434D01*
X6536Y-8396D01*
X6536Y-8301D01*
X6555Y-8244D01*
X6575Y-8091D02*
X6555Y-8072D01*
X6536Y-8034D01*
X6536Y-7939D01*
X6555Y-7901D01*
X6575Y-7882D01*
X6613Y-7863D01*
X6651Y-7863D01*
X6708Y-7882D01*
X6936Y-8110D01*
X6936Y-7863D01*
X6708Y-7634D02*
X6689Y-7672D01*
X6670Y-7691D01*
X6632Y-7710D01*
X6613Y-7710D01*
X6575Y-7691D01*
X6555Y-7672D01*
X6536Y-7634D01*
X6536Y-7558D01*
X6555Y-7520D01*
X6575Y-7501D01*
X6613Y-7482D01*
X6632Y-7482D01*
X6670Y-7501D01*
X6689Y-7520D01*
X6708Y-7558D01*
X6708Y-7634D01*
X6727Y-7672D01*
X6746Y-7691D01*
X6784Y-7710D01*
X6860Y-7710D01*
X6898Y-7691D01*
X6917Y-7672D01*
X6936Y-7634D01*
X6936Y-7558D01*
X6917Y-7520D01*
X6898Y-7501D01*
X6860Y-7482D01*
X6784Y-7482D01*
X6746Y-7501D01*
X6727Y-7520D01*
X6708Y-7558D01*
X6536Y-7234D02*
X6536Y-7196D01*
X6555Y-7158D01*
X6575Y-7139D01*
X6613Y-7120D01*
X6689Y-7101D01*
X6784Y-7101D01*
X6860Y-7120D01*
X6898Y-7139D01*
X6917Y-7158D01*
X6936Y-7196D01*
X6936Y-7234D01*
X6917Y-7272D01*
X6898Y-7291D01*
X6860Y-7310D01*
X6784Y-7329D01*
X6689Y-7329D01*
X6613Y-7310D01*
X6575Y-7291D01*
X6555Y-7272D01*
X6536Y-7234D01*
X6936Y-6720D02*
X6936Y-6948D01*
X6936Y-6834D02*
X6536Y-6834D01*
X6594Y-6872D01*
X6632Y-6910D01*
X6651Y-6948D01*
X14886Y-28664D02*
X14486Y-28664D01*
X14848Y-28192D02*
X14867Y-28214D01*
X14886Y-28278D01*
X14886Y-28321D01*
X14867Y-28385D01*
X14829Y-28428D01*
X14791Y-28449D01*
X14715Y-28471D01*
X14658Y-28471D01*
X14582Y-28449D01*
X14544Y-28428D01*
X14505Y-28385D01*
X14486Y-28321D01*
X14486Y-28278D01*
X14505Y-28214D01*
X14525Y-28192D01*
X14486Y-27785D02*
X14486Y-27999D01*
X14677Y-28021D01*
X14658Y-27999D01*
X14639Y-27957D01*
X14639Y-27849D01*
X14658Y-27807D01*
X14677Y-27785D01*
X14715Y-27764D01*
X14810Y-27764D01*
X14848Y-27785D01*
X14867Y-27807D01*
X14886Y-27849D01*
X14886Y-27957D01*
X14867Y-27999D01*
X14848Y-28021D01*
X13786Y-29348D02*
X14186Y-29253D01*
X13901Y-29177D01*
X14186Y-29101D01*
X13786Y-29005D01*
X14167Y-28872D02*
X14186Y-28815D01*
X14186Y-28720D01*
X14167Y-28682D01*
X14148Y-28663D01*
X14110Y-28644D01*
X14072Y-28644D01*
X14034Y-28663D01*
X14015Y-28682D01*
X13996Y-28720D01*
X13977Y-28796D01*
X13958Y-28834D01*
X13939Y-28853D01*
X13901Y-28872D01*
X13863Y-28872D01*
X13825Y-28853D01*
X13805Y-28834D01*
X13786Y-28796D01*
X13786Y-28701D01*
X13805Y-28644D01*
X13825Y-28491D02*
X13805Y-28472D01*
X13786Y-28434D01*
X13786Y-28339D01*
X13805Y-28301D01*
X13825Y-28282D01*
X13863Y-28263D01*
X13901Y-28263D01*
X13958Y-28282D01*
X14186Y-28510D01*
X14186Y-28263D01*
X13958Y-28034D02*
X13939Y-28072D01*
X13920Y-28091D01*
X13882Y-28110D01*
X13863Y-28110D01*
X13825Y-28091D01*
X13805Y-28072D01*
X13786Y-28034D01*
X13786Y-27958D01*
X13805Y-27920D01*
X13825Y-27901D01*
X13863Y-27882D01*
X13882Y-27882D01*
X13920Y-27901D01*
X13939Y-27920D01*
X13958Y-27958D01*
X13958Y-28034D01*
X13977Y-28072D01*
X13996Y-28091D01*
X14034Y-28110D01*
X14110Y-28110D01*
X14148Y-28091D01*
X14167Y-28072D01*
X14186Y-28034D01*
X14186Y-27958D01*
X14167Y-27920D01*
X14148Y-27901D01*
X14110Y-27882D01*
X14034Y-27882D01*
X13996Y-27901D01*
X13977Y-27920D01*
X13958Y-27958D01*
X13786Y-27634D02*
X13786Y-27596D01*
X13805Y-27558D01*
X13825Y-27539D01*
X13863Y-27520D01*
X13939Y-27501D01*
X14034Y-27501D01*
X14110Y-27520D01*
X14148Y-27539D01*
X14167Y-27558D01*
X14186Y-27596D01*
X14186Y-27634D01*
X14167Y-27672D01*
X14148Y-27691D01*
X14110Y-27710D01*
X14034Y-27729D01*
X13939Y-27729D01*
X13863Y-27710D01*
X13825Y-27691D01*
X13805Y-27672D01*
X13786Y-27634D01*
X14186Y-27120D02*
X14186Y-27348D01*
X14186Y-27234D02*
X13786Y-27234D01*
X13844Y-27272D01*
X13882Y-27310D01*
X13901Y-27348D01*
X27535Y-24286D02*
X27535Y-23886D01*
X28007Y-24248D02*
X27985Y-24267D01*
X27921Y-24286D01*
X27878Y-24286D01*
X27814Y-24267D01*
X27771Y-24229D01*
X27750Y-24191D01*
X27728Y-24115D01*
X27728Y-24058D01*
X27750Y-23982D01*
X27771Y-23944D01*
X27814Y-23905D01*
X27878Y-23886D01*
X27921Y-23886D01*
X27985Y-23905D01*
X28007Y-23925D01*
X28435Y-24286D02*
X28178Y-24286D01*
X28307Y-24286D02*
X28307Y-23886D01*
X28264Y-23944D01*
X28221Y-23982D01*
X28178Y-24001D01*
X26851Y-23186D02*
X26946Y-23586D01*
X27022Y-23301D01*
X27098Y-23586D01*
X27194Y-23186D01*
X27327Y-23567D02*
X27384Y-23586D01*
X27479Y-23586D01*
X27517Y-23567D01*
X27536Y-23548D01*
X27555Y-23510D01*
X27555Y-23472D01*
X27536Y-23434D01*
X27517Y-23415D01*
X27479Y-23396D01*
X27403Y-23377D01*
X27365Y-23358D01*
X27346Y-23339D01*
X27327Y-23301D01*
X27327Y-23263D01*
X27346Y-23225D01*
X27365Y-23205D01*
X27403Y-23186D01*
X27498Y-23186D01*
X27555Y-23205D01*
X27708Y-23225D02*
X27727Y-23205D01*
X27765Y-23186D01*
X27860Y-23186D01*
X27898Y-23205D01*
X27917Y-23225D01*
X27936Y-23263D01*
X27936Y-23301D01*
X27917Y-23358D01*
X27689Y-23586D01*
X27936Y-23586D01*
X28165Y-23358D02*
X28127Y-23339D01*
X28108Y-23320D01*
X28089Y-23282D01*
X28089Y-23263D01*
X28108Y-23225D01*
X28127Y-23205D01*
X28165Y-23186D01*
X28241Y-23186D01*
X28279Y-23205D01*
X28298Y-23225D01*
X28317Y-23263D01*
X28317Y-23282D01*
X28298Y-23320D01*
X28279Y-23339D01*
X28241Y-23358D01*
X28165Y-23358D01*
X28127Y-23377D01*
X28108Y-23396D01*
X28089Y-23434D01*
X28089Y-23510D01*
X28108Y-23548D01*
X28127Y-23567D01*
X28165Y-23586D01*
X28241Y-23586D01*
X28279Y-23567D01*
X28298Y-23548D01*
X28317Y-23510D01*
X28317Y-23434D01*
X28298Y-23396D01*
X28279Y-23377D01*
X28241Y-23358D01*
X28565Y-23186D02*
X28603Y-23186D01*
X28641Y-23205D01*
X28660Y-23225D01*
X28679Y-23263D01*
X28698Y-23339D01*
X28698Y-23434D01*
X28679Y-23510D01*
X28660Y-23548D01*
X28641Y-23567D01*
X28603Y-23586D01*
X28565Y-23586D01*
X28527Y-23567D01*
X28508Y-23548D01*
X28489Y-23510D01*
X28470Y-23434D01*
X28470Y-23339D01*
X28489Y-23263D01*
X28508Y-23225D01*
X28527Y-23205D01*
X28565Y-23186D01*
X29079Y-23586D02*
X28851Y-23586D01*
X28965Y-23586D02*
X28965Y-23186D01*
X28927Y-23244D01*
X28889Y-23282D01*
X28851Y-23301D01*
X26286Y-9214D02*
X25886Y-9214D01*
X26248Y-8742D02*
X26267Y-8764D01*
X26286Y-8828D01*
X26286Y-8871D01*
X26267Y-8935D01*
X26229Y-8978D01*
X26191Y-8999D01*
X26115Y-9021D01*
X26058Y-9021D01*
X25982Y-8999D01*
X25944Y-8978D01*
X25905Y-8935D01*
X25886Y-8871D01*
X25886Y-8828D01*
X25905Y-8764D01*
X25925Y-8742D01*
X25925Y-8571D02*
X25905Y-8549D01*
X25886Y-8507D01*
X25886Y-8399D01*
X25905Y-8357D01*
X25925Y-8335D01*
X25963Y-8314D01*
X26001Y-8314D01*
X26058Y-8335D01*
X26286Y-8592D01*
X26286Y-8314D01*
X26586Y-9898D02*
X26986Y-9803D01*
X26701Y-9727D01*
X26986Y-9651D01*
X26586Y-9555D01*
X26967Y-9422D02*
X26986Y-9365D01*
X26986Y-9270D01*
X26967Y-9232D01*
X26948Y-9213D01*
X26910Y-9194D01*
X26872Y-9194D01*
X26834Y-9213D01*
X26815Y-9232D01*
X26796Y-9270D01*
X26777Y-9346D01*
X26758Y-9384D01*
X26739Y-9403D01*
X26701Y-9422D01*
X26663Y-9422D01*
X26625Y-9403D01*
X26605Y-9384D01*
X26586Y-9346D01*
X26586Y-9251D01*
X26605Y-9194D01*
X26625Y-9041D02*
X26605Y-9022D01*
X26586Y-8984D01*
X26586Y-8889D01*
X26605Y-8851D01*
X26625Y-8832D01*
X26663Y-8813D01*
X26701Y-8813D01*
X26758Y-8832D01*
X26986Y-9060D01*
X26986Y-8813D01*
X26758Y-8584D02*
X26739Y-8622D01*
X26720Y-8641D01*
X26682Y-8660D01*
X26663Y-8660D01*
X26625Y-8641D01*
X26605Y-8622D01*
X26586Y-8584D01*
X26586Y-8508D01*
X26605Y-8470D01*
X26625Y-8451D01*
X26663Y-8432D01*
X26682Y-8432D01*
X26720Y-8451D01*
X26739Y-8470D01*
X26758Y-8508D01*
X26758Y-8584D01*
X26777Y-8622D01*
X26796Y-8641D01*
X26834Y-8660D01*
X26910Y-8660D01*
X26948Y-8641D01*
X26967Y-8622D01*
X26986Y-8584D01*
X26986Y-8508D01*
X26967Y-8470D01*
X26948Y-8451D01*
X26910Y-8432D01*
X26834Y-8432D01*
X26796Y-8451D01*
X26777Y-8470D01*
X26758Y-8508D01*
X26586Y-8184D02*
X26586Y-8146D01*
X26605Y-8108D01*
X26625Y-8089D01*
X26663Y-8070D01*
X26739Y-8051D01*
X26834Y-8051D01*
X26910Y-8070D01*
X26948Y-8089D01*
X26967Y-8108D01*
X26986Y-8146D01*
X26986Y-8184D01*
X26967Y-8222D01*
X26948Y-8241D01*
X26910Y-8260D01*
X26834Y-8279D01*
X26739Y-8279D01*
X26663Y-8260D01*
X26625Y-8241D01*
X26605Y-8222D01*
X26586Y-8184D01*
X26986Y-7670D02*
X26986Y-7898D01*
X26986Y-7784D02*
X26586Y-7784D01*
X26644Y-7822D01*
X26682Y-7860D01*
X26701Y-7898D01*
X11636Y-25114D02*
X11236Y-25114D01*
X11598Y-24642D02*
X11617Y-24664D01*
X11636Y-24728D01*
X11636Y-24771D01*
X11617Y-24835D01*
X11579Y-24878D01*
X11541Y-24899D01*
X11465Y-24921D01*
X11408Y-24921D01*
X11332Y-24899D01*
X11294Y-24878D01*
X11255Y-24835D01*
X11236Y-24771D01*
X11236Y-24728D01*
X11255Y-24664D01*
X11275Y-24642D01*
X11370Y-24257D02*
X11636Y-24257D01*
X11217Y-24364D02*
X11503Y-24471D01*
X11503Y-24192D01*
X10536Y-25798D02*
X10936Y-25703D01*
X10651Y-25627D01*
X10936Y-25551D01*
X10536Y-25455D01*
X10917Y-25322D02*
X10936Y-25265D01*
X10936Y-25170D01*
X10917Y-25132D01*
X10898Y-25113D01*
X10860Y-25094D01*
X10822Y-25094D01*
X10784Y-25113D01*
X10765Y-25132D01*
X10746Y-25170D01*
X10727Y-25246D01*
X10708Y-25284D01*
X10689Y-25303D01*
X10651Y-25322D01*
X10613Y-25322D01*
X10575Y-25303D01*
X10555Y-25284D01*
X10536Y-25246D01*
X10536Y-25151D01*
X10555Y-25094D01*
X10575Y-24941D02*
X10555Y-24922D01*
X10536Y-24884D01*
X10536Y-24789D01*
X10555Y-24751D01*
X10575Y-24732D01*
X10613Y-24713D01*
X10651Y-24713D01*
X10708Y-24732D01*
X10936Y-24960D01*
X10936Y-24713D01*
X10708Y-24484D02*
X10689Y-24522D01*
X10670Y-24541D01*
X10632Y-24560D01*
X10613Y-24560D01*
X10575Y-24541D01*
X10555Y-24522D01*
X10536Y-24484D01*
X10536Y-24408D01*
X10555Y-24370D01*
X10575Y-24351D01*
X10613Y-24332D01*
X10632Y-24332D01*
X10670Y-24351D01*
X10689Y-24370D01*
X10708Y-24408D01*
X10708Y-24484D01*
X10727Y-24522D01*
X10746Y-24541D01*
X10784Y-24560D01*
X10860Y-24560D01*
X10898Y-24541D01*
X10917Y-24522D01*
X10936Y-24484D01*
X10936Y-24408D01*
X10917Y-24370D01*
X10898Y-24351D01*
X10860Y-24332D01*
X10784Y-24332D01*
X10746Y-24351D01*
X10727Y-24370D01*
X10708Y-24408D01*
X10536Y-24084D02*
X10536Y-24046D01*
X10555Y-24008D01*
X10575Y-23989D01*
X10613Y-23970D01*
X10689Y-23951D01*
X10784Y-23951D01*
X10860Y-23970D01*
X10898Y-23989D01*
X10917Y-24008D01*
X10936Y-24046D01*
X10936Y-24084D01*
X10917Y-24122D01*
X10898Y-24141D01*
X10860Y-24160D01*
X10784Y-24179D01*
X10689Y-24179D01*
X10613Y-24160D01*
X10575Y-24141D01*
X10555Y-24122D01*
X10536Y-24084D01*
X10936Y-23570D02*
X10936Y-23798D01*
X10936Y-23684D02*
X10536Y-23684D01*
X10594Y-23722D01*
X10632Y-23760D01*
X10651Y-23798D01*
X28746Y-20925D02*
X28603Y-21025D01*
X28746Y-21096D02*
X28446Y-21096D01*
X28446Y-20982D01*
X28460Y-20953D01*
X28475Y-20939D01*
X28503Y-20925D01*
X28546Y-20925D01*
X28575Y-20939D01*
X28589Y-20953D01*
X28603Y-20982D01*
X28603Y-21096D01*
X28746Y-20639D02*
X28746Y-20810D01*
X28746Y-20725D02*
X28446Y-20725D01*
X28489Y-20753D01*
X28517Y-20782D01*
X28532Y-20810D01*
X9375Y-6396D02*
X9275Y-6253D01*
X9203Y-6396D02*
X9203Y-6096D01*
X9317Y-6096D01*
X9346Y-6110D01*
X9360Y-6125D01*
X9375Y-6153D01*
X9375Y-6196D01*
X9360Y-6225D01*
X9346Y-6239D01*
X9317Y-6253D01*
X9203Y-6253D01*
X9546Y-6225D02*
X9517Y-6210D01*
X9503Y-6196D01*
X9489Y-6167D01*
X9489Y-6153D01*
X9503Y-6125D01*
X9517Y-6110D01*
X9546Y-6096D01*
X9603Y-6096D01*
X9632Y-6110D01*
X9646Y-6125D01*
X9660Y-6153D01*
X9660Y-6167D01*
X9646Y-6196D01*
X9632Y-6210D01*
X9603Y-6225D01*
X9546Y-6225D01*
X9517Y-6239D01*
X9503Y-6253D01*
X9489Y-6282D01*
X9489Y-6339D01*
X9503Y-6367D01*
X9517Y-6382D01*
X9546Y-6396D01*
X9603Y-6396D01*
X9632Y-6382D01*
X9646Y-6367D01*
X9660Y-6339D01*
X9660Y-6282D01*
X9646Y-6253D01*
X9632Y-6239D01*
X9603Y-6225D01*
X9375Y-5296D02*
X9275Y-5153D01*
X9203Y-5296D02*
X9203Y-4996D01*
X9317Y-4996D01*
X9346Y-5010D01*
X9360Y-5025D01*
X9375Y-5053D01*
X9375Y-5096D01*
X9360Y-5125D01*
X9346Y-5139D01*
X9317Y-5153D01*
X9203Y-5153D01*
X9517Y-5296D02*
X9575Y-5296D01*
X9603Y-5282D01*
X9617Y-5267D01*
X9646Y-5225D01*
X9660Y-5167D01*
X9660Y-5053D01*
X9646Y-5025D01*
X9632Y-5010D01*
X9603Y-4996D01*
X9546Y-4996D01*
X9517Y-5010D01*
X9503Y-5025D01*
X9489Y-5053D01*
X9489Y-5125D01*
X9503Y-5153D01*
X9517Y-5167D01*
X9546Y-5182D01*
X9603Y-5182D01*
X9632Y-5167D01*
X9646Y-5153D01*
X9660Y-5125D01*
X29025Y-9646D02*
X28925Y-9503D01*
X28853Y-9646D02*
X28853Y-9346D01*
X28967Y-9346D01*
X28996Y-9360D01*
X29010Y-9375D01*
X29025Y-9403D01*
X29025Y-9446D01*
X29010Y-9475D01*
X28996Y-9489D01*
X28967Y-9503D01*
X28853Y-9503D01*
X29282Y-9446D02*
X29282Y-9646D01*
X29210Y-9332D02*
X29139Y-9546D01*
X29325Y-9546D01*
X29025Y-7296D02*
X28925Y-7153D01*
X28853Y-7296D02*
X28853Y-6996D01*
X28967Y-6996D01*
X28996Y-7010D01*
X29010Y-7025D01*
X29025Y-7053D01*
X29025Y-7096D01*
X29010Y-7125D01*
X28996Y-7139D01*
X28967Y-7153D01*
X28853Y-7153D01*
X29282Y-6996D02*
X29225Y-6996D01*
X29196Y-7010D01*
X29182Y-7025D01*
X29153Y-7067D01*
X29139Y-7125D01*
X29139Y-7239D01*
X29153Y-7267D01*
X29167Y-7282D01*
X29196Y-7296D01*
X29253Y-7296D01*
X29282Y-7282D01*
X29296Y-7267D01*
X29310Y-7239D01*
X29310Y-7167D01*
X29296Y-7139D01*
X29282Y-7125D01*
X29253Y-7110D01*
X29196Y-7110D01*
X29167Y-7125D01*
X29153Y-7139D01*
X29139Y-7167D01*
X29025Y-8446D02*
X28925Y-8303D01*
X28853Y-8446D02*
X28853Y-8146D01*
X28967Y-8146D01*
X28996Y-8160D01*
X29010Y-8175D01*
X29025Y-8203D01*
X29025Y-8246D01*
X29010Y-8275D01*
X28996Y-8289D01*
X28967Y-8303D01*
X28853Y-8303D01*
X29296Y-8146D02*
X29153Y-8146D01*
X29139Y-8289D01*
X29153Y-8275D01*
X29182Y-8260D01*
X29253Y-8260D01*
X29282Y-8275D01*
X29296Y-8289D01*
X29310Y-8317D01*
X29310Y-8389D01*
X29296Y-8417D01*
X29282Y-8432D01*
X29253Y-8446D01*
X29182Y-8446D01*
X29153Y-8432D01*
X29139Y-8417D01*
X9025Y-9896D02*
X8925Y-9753D01*
X8853Y-9896D02*
X8853Y-9596D01*
X8967Y-9596D01*
X8996Y-9610D01*
X9010Y-9625D01*
X9025Y-9653D01*
X9025Y-9696D01*
X9010Y-9725D01*
X8996Y-9739D01*
X8967Y-9753D01*
X8853Y-9753D01*
X9125Y-9596D02*
X9325Y-9596D01*
X9196Y-9896D01*
X8296Y-25367D02*
X8153Y-25467D01*
X8296Y-25539D02*
X7996Y-25539D01*
X7996Y-25425D01*
X8010Y-25396D01*
X8025Y-25382D01*
X8053Y-25367D01*
X8096Y-25367D01*
X8125Y-25382D01*
X8139Y-25396D01*
X8153Y-25425D01*
X8153Y-25539D01*
X8296Y-25082D02*
X8296Y-25253D01*
X8296Y-25167D02*
X7996Y-25167D01*
X8039Y-25196D01*
X8067Y-25225D01*
X8082Y-25253D01*
X8296Y-24796D02*
X8296Y-24967D01*
X8296Y-24882D02*
X7996Y-24882D01*
X8039Y-24910D01*
X8067Y-24939D01*
X8082Y-24967D01*
X26446Y-20925D02*
X26303Y-21025D01*
X26446Y-21096D02*
X26146Y-21096D01*
X26146Y-20982D01*
X26160Y-20953D01*
X26175Y-20939D01*
X26203Y-20925D01*
X26246Y-20925D01*
X26275Y-20939D01*
X26289Y-20953D01*
X26303Y-20982D01*
X26303Y-21096D01*
X26146Y-20825D02*
X26146Y-20639D01*
X26260Y-20739D01*
X26260Y-20696D01*
X26275Y-20667D01*
X26289Y-20653D01*
X26317Y-20639D01*
X26389Y-20639D01*
X26417Y-20653D01*
X26432Y-20667D01*
X26446Y-20696D01*
X26446Y-20782D01*
X26432Y-20810D01*
X26417Y-20825D01*
X27596Y-20925D02*
X27453Y-21025D01*
X27596Y-21096D02*
X27296Y-21096D01*
X27296Y-20982D01*
X27310Y-20953D01*
X27325Y-20939D01*
X27353Y-20925D01*
X27396Y-20925D01*
X27425Y-20939D01*
X27439Y-20953D01*
X27453Y-20982D01*
X27453Y-21096D01*
X27325Y-20810D02*
X27310Y-20796D01*
X27296Y-20767D01*
X27296Y-20696D01*
X27310Y-20667D01*
X27325Y-20653D01*
X27353Y-20639D01*
X27382Y-20639D01*
X27425Y-20653D01*
X27596Y-20825D01*
X27596Y-20639D01*
X8296Y-26567D02*
X8153Y-26667D01*
X8296Y-26739D02*
X7996Y-26739D01*
X7996Y-26625D01*
X8010Y-26596D01*
X8025Y-26582D01*
X8053Y-26567D01*
X8096Y-26567D01*
X8125Y-26582D01*
X8139Y-26596D01*
X8153Y-26625D01*
X8153Y-26739D01*
X8296Y-26282D02*
X8296Y-26453D01*
X8296Y-26367D02*
X7996Y-26367D01*
X8039Y-26396D01*
X8067Y-26425D01*
X8082Y-26453D01*
X8025Y-26167D02*
X8010Y-26153D01*
X7996Y-26125D01*
X7996Y-26053D01*
X8010Y-26025D01*
X8025Y-26010D01*
X8053Y-25996D01*
X8082Y-25996D01*
X8125Y-26010D01*
X8296Y-26182D01*
X8296Y-25996D01*
X11346Y-28917D02*
X11203Y-29017D01*
X11346Y-29089D02*
X11046Y-29089D01*
X11046Y-28975D01*
X11060Y-28946D01*
X11075Y-28932D01*
X11103Y-28917D01*
X11146Y-28917D01*
X11175Y-28932D01*
X11189Y-28946D01*
X11203Y-28975D01*
X11203Y-29089D01*
X11346Y-28632D02*
X11346Y-28803D01*
X11346Y-28717D02*
X11046Y-28717D01*
X11089Y-28746D01*
X11117Y-28775D01*
X11132Y-28803D01*
X11146Y-28375D02*
X11346Y-28375D01*
X11032Y-28446D02*
X11246Y-28517D01*
X11246Y-28332D01*
X11346Y-30117D02*
X11203Y-30217D01*
X11346Y-30289D02*
X11046Y-30289D01*
X11046Y-30175D01*
X11060Y-30146D01*
X11075Y-30132D01*
X11103Y-30117D01*
X11146Y-30117D01*
X11175Y-30132D01*
X11189Y-30146D01*
X11203Y-30175D01*
X11203Y-30289D01*
X11346Y-29832D02*
X11346Y-30003D01*
X11346Y-29917D02*
X11046Y-29917D01*
X11089Y-29946D01*
X11117Y-29975D01*
X11132Y-30003D01*
X11046Y-29560D02*
X11046Y-29703D01*
X11189Y-29717D01*
X11175Y-29703D01*
X11160Y-29675D01*
X11160Y-29603D01*
X11175Y-29575D01*
X11189Y-29560D01*
X11217Y-29546D01*
X11289Y-29546D01*
X11317Y-29560D01*
X11332Y-29575D01*
X11346Y-29603D01*
X11346Y-29675D01*
X11332Y-29703D01*
X11317Y-29717D01*
X11346Y-27717D02*
X11203Y-27817D01*
X11346Y-27889D02*
X11046Y-27889D01*
X11046Y-27775D01*
X11060Y-27746D01*
X11075Y-27732D01*
X11103Y-27717D01*
X11146Y-27717D01*
X11175Y-27732D01*
X11189Y-27746D01*
X11203Y-27775D01*
X11203Y-27889D01*
X11346Y-27432D02*
X11346Y-27603D01*
X11346Y-27517D02*
X11046Y-27517D01*
X11089Y-27546D01*
X11117Y-27575D01*
X11132Y-27603D01*
X11046Y-27332D02*
X11046Y-27146D01*
X11160Y-27246D01*
X11160Y-27203D01*
X11175Y-27175D01*
X11189Y-27160D01*
X11217Y-27146D01*
X11289Y-27146D01*
X11317Y-27160D01*
X11332Y-27175D01*
X11346Y-27203D01*
X11346Y-27289D01*
X11332Y-27317D01*
X11317Y-27332D01*
G54D20*
X10770Y-21332D02*
X10757Y-21332D01*
X10730Y-21319D01*
X10717Y-21306D01*
X10704Y-21279D01*
X10704Y-21253D01*
X10710Y-21233D01*
X10730Y-21200D01*
X10750Y-21180D01*
X10783Y-21160D01*
X10803Y-21153D01*
X10830Y-21153D01*
X10856Y-21167D01*
X10870Y-21180D01*
X10883Y-21206D01*
X10883Y-21220D01*
X11022Y-21332D02*
X10956Y-21266D01*
X10883Y-21326D01*
X10896Y-21326D01*
X10916Y-21332D01*
X10949Y-21366D01*
X10956Y-21386D01*
X10956Y-21399D01*
X10949Y-21419D01*
X10916Y-21452D01*
X10896Y-21459D01*
X10883Y-21459D01*
X10863Y-21452D01*
X10830Y-21419D01*
X10823Y-21399D01*
X10823Y-21386D01*
X15547Y-25407D02*
X15557Y-25417D01*
X15566Y-25445D01*
X15566Y-25464D01*
X15557Y-25492D01*
X15538Y-25511D01*
X15519Y-25520D01*
X15482Y-25529D01*
X15453Y-25529D01*
X15416Y-25520D01*
X15397Y-25511D01*
X15378Y-25492D01*
X15369Y-25464D01*
X15369Y-25445D01*
X15378Y-25417D01*
X15388Y-25407D01*
X15435Y-25238D02*
X15566Y-25238D01*
X15360Y-25285D02*
X15500Y-25332D01*
X15500Y-25210D01*
X7096Y-10906D02*
X7083Y-10906D01*
X7056Y-10893D01*
X7043Y-10880D01*
X7030Y-10853D01*
X7030Y-10827D01*
X7037Y-10807D01*
X7056Y-10774D01*
X7076Y-10754D01*
X7110Y-10734D01*
X7129Y-10727D01*
X7156Y-10727D01*
X7182Y-10740D01*
X7196Y-10754D01*
X7209Y-10780D01*
X7209Y-10794D01*
X7269Y-10827D02*
X7355Y-10913D01*
X7255Y-10920D01*
X7275Y-10939D01*
X7282Y-10959D01*
X7282Y-10973D01*
X7275Y-10993D01*
X7242Y-11026D01*
X7222Y-11032D01*
X7209Y-11032D01*
X7189Y-11026D01*
X7149Y-10986D01*
X7143Y-10966D01*
X7143Y-10953D01*
X24142Y-9424D02*
X24132Y-9433D01*
X24104Y-9442D01*
X24085Y-9442D01*
X24057Y-9433D01*
X24038Y-9414D01*
X24029Y-9396D01*
X24020Y-9358D01*
X24020Y-9330D01*
X24029Y-9292D01*
X24038Y-9274D01*
X24057Y-9255D01*
X24085Y-9245D01*
X24104Y-9245D01*
X24132Y-9255D01*
X24142Y-9264D01*
X24217Y-9264D02*
X24226Y-9255D01*
X24245Y-9245D01*
X24292Y-9245D01*
X24311Y-9255D01*
X24320Y-9264D01*
X24329Y-9283D01*
X24329Y-9302D01*
X24320Y-9330D01*
X24207Y-9442D01*
X24329Y-9442D01*
X29024Y-26007D02*
X29033Y-26017D01*
X29042Y-26045D01*
X29042Y-26064D01*
X29033Y-26092D01*
X29014Y-26111D01*
X28996Y-26120D01*
X28958Y-26129D01*
X28930Y-26129D01*
X28892Y-26120D01*
X28874Y-26111D01*
X28855Y-26092D01*
X28845Y-26064D01*
X28845Y-26045D01*
X28855Y-26017D01*
X28864Y-26007D01*
X29042Y-25820D02*
X29042Y-25932D01*
X29042Y-25876D02*
X28845Y-25876D01*
X28874Y-25895D01*
X28892Y-25914D01*
X28902Y-25932D01*
G54D10*
M02*
