G04 (created by PCBNEW (2013-dec-23)-stable) date Sun 22 Jun 2014 10:38:52 PM CEST*
%MOIN*%
G04 Gerber Fmt 3.4, Leading zero omitted, Abs format*
%FSLAX34Y34*%
G01*
G70*
G90*
G04 APERTURE LIST*
%ADD10C,0.00590551*%
%ADD11R,0.06X0.08*%
%ADD12R,0.045X0.02*%
%ADD13R,0.02X0.045*%
%ADD14R,0.08X0.06*%
%ADD15R,0.0472441X0.0551181*%
%ADD16R,0.0551181X0.0472441*%
%ADD17C,0.055*%
%ADD18C,0.1381*%
%ADD19C,0.12*%
%ADD20R,0.055X0.035*%
%ADD21R,0.035X0.055*%
%ADD22C,0.035*%
%ADD23C,0.02*%
%ADD24C,0.01*%
G04 APERTURE END LIST*
G54D10*
G54D11*
X7050Y-23500D03*
X8350Y-23500D03*
G54D12*
X7000Y-8850D03*
X7000Y-8350D03*
X7000Y-7850D03*
X7000Y-7350D03*
X7000Y-6850D03*
X7000Y-6350D03*
X7000Y-5850D03*
X4900Y-5850D03*
X4900Y-6350D03*
X4900Y-6850D03*
X4900Y-7350D03*
X4900Y-7850D03*
X4900Y-8350D03*
X4900Y-8850D03*
X12850Y-26250D03*
X12850Y-26750D03*
X12850Y-27250D03*
X12850Y-27750D03*
X12850Y-28250D03*
X12850Y-28750D03*
X12850Y-29250D03*
X14950Y-29250D03*
X14950Y-28750D03*
X14950Y-28250D03*
X14950Y-27750D03*
X14950Y-27250D03*
X14950Y-26750D03*
X14950Y-26250D03*
G54D13*
X29000Y-22250D03*
X28500Y-22250D03*
X28000Y-22250D03*
X27500Y-22250D03*
X27000Y-22250D03*
X26500Y-22250D03*
X26000Y-22250D03*
X26000Y-24350D03*
X26500Y-24350D03*
X27000Y-24350D03*
X27500Y-24350D03*
X28000Y-24350D03*
X28500Y-24350D03*
X29000Y-24350D03*
G54D12*
X27050Y-9800D03*
X27050Y-9300D03*
X27050Y-8800D03*
X27050Y-8300D03*
X27050Y-7800D03*
X27050Y-7300D03*
X27050Y-6800D03*
X24950Y-6800D03*
X24950Y-7300D03*
X24950Y-7800D03*
X24950Y-8300D03*
X24950Y-8800D03*
X24950Y-9300D03*
X24950Y-9800D03*
X9600Y-22700D03*
X9600Y-23200D03*
X9600Y-23700D03*
X9600Y-24200D03*
X9600Y-24700D03*
X9600Y-25200D03*
X9600Y-25700D03*
X11700Y-25700D03*
X11700Y-25200D03*
X11700Y-24700D03*
X11700Y-24200D03*
X11700Y-23700D03*
X11700Y-23200D03*
X11700Y-22700D03*
G54D14*
X28150Y-19750D03*
X28150Y-21050D03*
G54D11*
X9600Y-5800D03*
X8300Y-5800D03*
X9600Y-4700D03*
X8300Y-4700D03*
X29250Y-9050D03*
X27950Y-9050D03*
X29250Y-6700D03*
X27950Y-6700D03*
X29250Y-7850D03*
X27950Y-7850D03*
X9250Y-9300D03*
X7950Y-9300D03*
X7050Y-24700D03*
X8350Y-24700D03*
G54D14*
X25850Y-19750D03*
X25850Y-21050D03*
X27000Y-19750D03*
X27000Y-21050D03*
G54D11*
X7050Y-25900D03*
X8350Y-25900D03*
X10100Y-28250D03*
X11400Y-28250D03*
X10100Y-29450D03*
X11400Y-29450D03*
X10100Y-27050D03*
X11400Y-27050D03*
G54D15*
X21300Y-24697D03*
X20670Y-24697D03*
X21929Y-24697D03*
X21300Y-26902D03*
X21929Y-26902D03*
X20670Y-26902D03*
G54D16*
X27397Y-11400D03*
X27397Y-12029D03*
X27397Y-10770D03*
X29602Y-11400D03*
X29602Y-10770D03*
X29602Y-12029D03*
X8647Y-7550D03*
X8647Y-8179D03*
X8647Y-6920D03*
X10852Y-7550D03*
X10852Y-6920D03*
X10852Y-8179D03*
G54D10*
G36*
X30696Y-7535D02*
X30797Y-6995D01*
X31337Y-7096D01*
X31236Y-7636D01*
X30696Y-7535D01*
X30696Y-7535D01*
G37*
G54D17*
X32000Y-7500D03*
X32982Y-7683D03*
G54D10*
G36*
X6995Y-30797D02*
X7535Y-30696D01*
X7636Y-31236D01*
X7096Y-31337D01*
X6995Y-30797D01*
X6995Y-30797D01*
G37*
G54D17*
X7500Y-32000D03*
X7683Y-32982D03*
G54D18*
X16176Y-7921D03*
X24528Y-16272D03*
X16176Y-24624D03*
X7824Y-16272D03*
G54D19*
X3149Y-1574D03*
X27165Y-28740D03*
X28740Y-27165D03*
X1574Y-3149D03*
G54D10*
G36*
X10166Y-21705D02*
X10555Y-21316D01*
X10803Y-21564D01*
X10414Y-21953D01*
X10166Y-21705D01*
X10166Y-21705D01*
G37*
G36*
X10696Y-22235D02*
X11085Y-21846D01*
X11333Y-22094D01*
X10944Y-22483D01*
X10696Y-22235D01*
X10696Y-22235D01*
G37*
G54D20*
X14500Y-24975D03*
X14500Y-25725D03*
G54D10*
G36*
X7633Y-10244D02*
X7244Y-10633D01*
X6996Y-10385D01*
X7385Y-9996D01*
X7633Y-10244D01*
X7633Y-10244D01*
G37*
G36*
X7103Y-9714D02*
X6714Y-10103D01*
X6466Y-9855D01*
X6855Y-9466D01*
X7103Y-9714D01*
X7103Y-9714D01*
G37*
G54D21*
X23325Y-9000D03*
X24075Y-9000D03*
G54D20*
X29000Y-25875D03*
X29000Y-25125D03*
G54D22*
X27600Y-9800D03*
X28500Y-23800D03*
X28000Y-23550D03*
X26300Y-9650D03*
X29500Y-23600D03*
X26500Y-6050D03*
X23500Y-8100D03*
X5475Y-16250D03*
X27000Y-18700D03*
X28750Y-10800D03*
X25450Y-28600D03*
X26100Y-26650D03*
X25400Y-27550D03*
X19100Y-5500D03*
X19100Y-6800D03*
X19100Y-6150D03*
X3550Y-5000D03*
X4200Y-3900D03*
X4900Y-3350D03*
X11000Y-25600D03*
X10200Y-23700D03*
X10600Y-24750D03*
X8650Y-8650D03*
G54D23*
X11700Y-23200D02*
X12050Y-23200D01*
X12850Y-24000D02*
X12850Y-26250D01*
X12050Y-23200D02*
X12850Y-24000D01*
X14950Y-26750D02*
X14600Y-26750D01*
X11300Y-32000D02*
X7500Y-32000D01*
X14000Y-29300D02*
X11300Y-32000D01*
X14000Y-27350D02*
X14000Y-29300D01*
X14600Y-26750D02*
X14000Y-27350D01*
X11700Y-23700D02*
X12000Y-23700D01*
X12600Y-26750D02*
X12850Y-26750D01*
X12350Y-26500D02*
X12600Y-26750D01*
X12350Y-24050D02*
X12350Y-26500D01*
X12000Y-23700D02*
X12350Y-24050D01*
X7683Y-32982D02*
X10867Y-32982D01*
X14700Y-27250D02*
X14950Y-27250D01*
X14400Y-27550D02*
X14700Y-27250D01*
X14400Y-29450D02*
X14400Y-27550D01*
X10867Y-32982D02*
X14400Y-29450D01*
X32000Y-7500D02*
X31169Y-13652D01*
X29000Y-21800D02*
X29000Y-22250D01*
X31169Y-13652D02*
X29000Y-21800D01*
X32000Y-7500D02*
X32000Y-7500D01*
X28500Y-22250D02*
X28500Y-22650D01*
X31890Y-13288D02*
X32982Y-7683D01*
X29450Y-22250D02*
X31890Y-13288D01*
X29450Y-22700D02*
X29450Y-22250D01*
X29250Y-22900D02*
X29450Y-22700D01*
X28750Y-22900D02*
X29250Y-22900D01*
X28500Y-22650D02*
X28750Y-22900D01*
X28500Y-24350D02*
X28500Y-23800D01*
X27600Y-9800D02*
X27050Y-9800D01*
X27050Y-9300D02*
X26650Y-9300D01*
X28000Y-23550D02*
X28000Y-24350D01*
X26650Y-9300D02*
X26300Y-9650D01*
X24950Y-9300D02*
X25400Y-9300D01*
X6600Y-8850D02*
X7000Y-8850D01*
X5450Y-7700D02*
X6600Y-8850D01*
X5450Y-5200D02*
X5450Y-7700D01*
X7679Y-2970D02*
X5450Y-5200D01*
X25556Y-5769D02*
X20250Y-4650D01*
X20250Y-4650D02*
X7679Y-2970D01*
X26250Y-6650D02*
X25556Y-5769D01*
X26250Y-8450D02*
X26250Y-6650D01*
X25400Y-9300D02*
X26250Y-8450D01*
X7000Y-8350D02*
X6700Y-8350D01*
X7850Y-3450D02*
X7850Y-3450D01*
X5900Y-5400D02*
X7850Y-3450D01*
X5900Y-7550D02*
X5900Y-5400D01*
X6700Y-8350D02*
X5900Y-7550D01*
X24950Y-8800D02*
X25300Y-8800D01*
X19400Y-5000D02*
X7850Y-3450D01*
X25650Y-6650D02*
X25318Y-6283D01*
X25318Y-6283D02*
X19400Y-5000D01*
X25650Y-8450D02*
X25650Y-6650D01*
X25300Y-8800D02*
X25650Y-8450D01*
X6350Y-11000D02*
X6350Y-19450D01*
X4900Y-8350D02*
X4650Y-8350D01*
X4400Y-8600D02*
X4650Y-8350D01*
X4400Y-9050D02*
X4400Y-8600D01*
X6350Y-11000D02*
X4400Y-9050D01*
X6350Y-19450D02*
X9600Y-22700D01*
X5900Y-11200D02*
X5900Y-19750D01*
X4500Y-7850D02*
X3950Y-8400D01*
X3950Y-8400D02*
X3950Y-9250D01*
X3950Y-9250D02*
X5900Y-11200D01*
X4900Y-7850D02*
X4500Y-7850D01*
X9350Y-23200D02*
X9600Y-23200D01*
X5900Y-19750D02*
X9350Y-23200D01*
X11700Y-22700D02*
X12150Y-22700D01*
X14500Y-25725D02*
X14500Y-25800D01*
X14500Y-25800D02*
X14950Y-26250D01*
X11015Y-22165D02*
X11165Y-22165D01*
X11165Y-22165D02*
X11700Y-22700D01*
X6784Y-9784D02*
X5834Y-9784D01*
X24950Y-9800D02*
X24400Y-9800D01*
X24075Y-9475D02*
X24075Y-9000D01*
X24400Y-9800D02*
X24075Y-9475D01*
X29000Y-25125D02*
X29000Y-24350D01*
X6800Y-10750D02*
X6800Y-18900D01*
X12150Y-22700D02*
X10600Y-22700D01*
X6800Y-18900D02*
X10600Y-22700D01*
X13550Y-27100D02*
X13550Y-24100D01*
X13550Y-24100D02*
X12150Y-22700D01*
X6825Y-10775D02*
X6800Y-10750D01*
X6800Y-10750D02*
X5834Y-9784D01*
X5834Y-9784D02*
X4900Y-8850D01*
X14950Y-26250D02*
X15150Y-26250D01*
X29000Y-23600D02*
X29500Y-23600D01*
X28550Y-23150D02*
X29000Y-23600D01*
X25950Y-23150D02*
X28550Y-23150D01*
X23175Y-25925D02*
X25950Y-23150D01*
X15475Y-25925D02*
X23175Y-25925D01*
X15150Y-26250D02*
X15475Y-25925D01*
X29000Y-24100D02*
X29000Y-24350D01*
X29500Y-23600D02*
X29000Y-24100D01*
X7316Y-31017D02*
X11732Y-31017D01*
X14400Y-26250D02*
X14950Y-26250D01*
X13550Y-27100D02*
X14400Y-26250D01*
X13550Y-29200D02*
X13550Y-27100D01*
X11732Y-31017D02*
X13550Y-29200D01*
X31017Y-7316D02*
X31017Y-7117D01*
X25850Y-9800D02*
X24950Y-9800D01*
X26300Y-10250D02*
X25850Y-9800D01*
X28200Y-10250D02*
X26300Y-10250D01*
X28600Y-9850D02*
X28200Y-10250D01*
X28600Y-6200D02*
X28600Y-9850D01*
X28850Y-5950D02*
X28600Y-6200D01*
X29850Y-5950D02*
X28850Y-5950D01*
X31017Y-7117D02*
X29850Y-5950D01*
X31017Y-7316D02*
X31017Y-7316D01*
X29000Y-25875D02*
X29000Y-26905D01*
X29000Y-26905D02*
X28740Y-27165D01*
X10484Y-21634D02*
X10484Y-21115D01*
X10635Y-20964D02*
X10635Y-20964D01*
X10484Y-21115D02*
X10635Y-20964D01*
X14500Y-24975D02*
X14500Y-24250D01*
X14500Y-24250D02*
X15127Y-23622D01*
X7315Y-10315D02*
X8234Y-10315D01*
X8234Y-10315D02*
X8450Y-10100D01*
X27050Y-6600D02*
X27050Y-6800D01*
X26500Y-6050D02*
X27050Y-6600D01*
X23325Y-8275D02*
X23500Y-8100D01*
X23325Y-9000D02*
X23325Y-8275D01*
X3149Y-1574D02*
X3149Y-1968D01*
X4724Y-15499D02*
X5475Y-16250D01*
X4724Y-13385D02*
X4724Y-15499D01*
X2755Y-11417D02*
X4724Y-13385D01*
X2755Y-2362D02*
X2755Y-11417D01*
X3149Y-1968D02*
X2755Y-2362D01*
X7824Y-18274D02*
X7824Y-16272D01*
X11300Y-21600D02*
X10635Y-20964D01*
X10635Y-20964D02*
X7824Y-18274D01*
X12074Y-22200D02*
X11300Y-21600D01*
X14325Y-23600D02*
X12074Y-22200D01*
X16975Y-23675D02*
X15127Y-23622D01*
X15127Y-23622D02*
X14325Y-23600D01*
X18725Y-25425D02*
X16975Y-23675D01*
X22625Y-25425D02*
X18725Y-25425D01*
X25800Y-22250D02*
X22625Y-25425D01*
X26000Y-22250D02*
X25800Y-22250D01*
X5475Y-16250D02*
X5400Y-16325D01*
X5400Y-16325D02*
X5400Y-21850D01*
X5400Y-21850D02*
X7050Y-23500D01*
X27000Y-18700D02*
X27000Y-19750D01*
X10100Y-27050D02*
X10100Y-28250D01*
X7050Y-23500D02*
X7050Y-24700D01*
X7050Y-24700D02*
X7050Y-25900D01*
X7824Y-16272D02*
X7824Y-10726D01*
X7824Y-10726D02*
X8450Y-10100D01*
X8450Y-10100D02*
X9250Y-9300D01*
X29250Y-9050D02*
X29250Y-7850D01*
X29250Y-7850D02*
X29250Y-6700D01*
X28750Y-10800D02*
X28750Y-12050D01*
X28750Y-12050D02*
X24528Y-16272D01*
X7050Y-25900D02*
X7050Y-26150D01*
X7950Y-27050D02*
X10100Y-27050D01*
X7050Y-26150D02*
X7950Y-27050D01*
X9600Y-25700D02*
X9600Y-26550D01*
X9600Y-26550D02*
X10100Y-27050D01*
X29250Y-9050D02*
X29250Y-9800D01*
X28750Y-10300D02*
X28750Y-10800D01*
X29250Y-9800D02*
X28750Y-10300D01*
X25850Y-19750D02*
X25650Y-19750D01*
X25350Y-22250D02*
X26000Y-22250D01*
X24850Y-21750D02*
X25350Y-22250D01*
X24850Y-20550D02*
X24850Y-21750D01*
X25650Y-19750D02*
X24850Y-20550D01*
X28150Y-19750D02*
X27000Y-19750D01*
X27000Y-19750D02*
X25850Y-19750D01*
X12850Y-29250D02*
X11850Y-30250D01*
X10900Y-30250D02*
X10100Y-29450D01*
X11850Y-30250D02*
X10900Y-30250D01*
X10100Y-29450D02*
X10100Y-27050D01*
X9250Y-9300D02*
X9250Y-6150D01*
X9250Y-6150D02*
X9600Y-5800D01*
X9600Y-5800D02*
X9600Y-4700D01*
X7000Y-5850D02*
X7000Y-4900D01*
X9318Y-4042D02*
X9600Y-4700D01*
X7925Y-3975D02*
X9318Y-4042D01*
X7000Y-4900D02*
X7925Y-3975D01*
X25850Y-21050D02*
X25850Y-21250D01*
X26500Y-21900D02*
X26500Y-22250D01*
X25850Y-21250D02*
X26500Y-21900D01*
X28150Y-21050D02*
X28150Y-21250D01*
X27500Y-21900D02*
X27500Y-22250D01*
X28150Y-21250D02*
X27500Y-21900D01*
X27000Y-21050D02*
X27000Y-22250D01*
X26000Y-24600D02*
X24900Y-25700D01*
X24900Y-25700D02*
X24900Y-28000D01*
X26000Y-24600D02*
X26000Y-24350D01*
X24900Y-28050D02*
X24900Y-28000D01*
X25450Y-28600D02*
X24900Y-28050D01*
X27000Y-25000D02*
X27000Y-24350D01*
X26100Y-25900D02*
X27000Y-25000D01*
X26100Y-26650D02*
X26100Y-25900D01*
X26500Y-24750D02*
X26500Y-24350D01*
X25400Y-25850D02*
X26500Y-24750D01*
X25400Y-27550D02*
X25400Y-25850D01*
X27050Y-7300D02*
X27300Y-7300D01*
X27900Y-6700D02*
X27950Y-6700D01*
X27300Y-7300D02*
X27900Y-6700D01*
X27050Y-8300D02*
X27300Y-8300D01*
X27950Y-8950D02*
X27950Y-9050D01*
X27300Y-8300D02*
X27950Y-8950D01*
X27050Y-7800D02*
X28000Y-7800D01*
X28000Y-7800D02*
X28050Y-7850D01*
X24700Y-6800D02*
X24950Y-6800D01*
X19100Y-5500D02*
X24700Y-6800D01*
X24700Y-7800D02*
X24950Y-7800D01*
X19100Y-6800D02*
X24700Y-7800D01*
X24700Y-7300D02*
X24950Y-7300D01*
X19100Y-6150D02*
X24700Y-7300D01*
X7000Y-6350D02*
X7250Y-6350D01*
X7950Y-4700D02*
X8300Y-4700D01*
X7550Y-5100D02*
X7950Y-4700D01*
X7550Y-6050D02*
X7550Y-5100D01*
X7250Y-6350D02*
X7550Y-6050D01*
X7950Y-9300D02*
X7950Y-7950D01*
X7350Y-7350D02*
X7000Y-7350D01*
X7950Y-7950D02*
X7350Y-7350D01*
X7000Y-6850D02*
X7450Y-6850D01*
X8300Y-6000D02*
X8300Y-5800D01*
X7450Y-6850D02*
X8300Y-6000D01*
X4250Y-6850D02*
X4900Y-6850D01*
X3550Y-6150D02*
X4250Y-6850D01*
X3550Y-5000D02*
X3550Y-6150D01*
X4600Y-6350D02*
X4900Y-6350D01*
X4250Y-6000D02*
X4600Y-6350D01*
X4250Y-3950D02*
X4250Y-6000D01*
X4200Y-3900D02*
X4250Y-3950D01*
X4900Y-3350D02*
X4900Y-5850D01*
X9600Y-25200D02*
X9050Y-25200D01*
X9050Y-25200D02*
X8350Y-25900D01*
X9600Y-24200D02*
X9050Y-24200D01*
X9050Y-24200D02*
X8350Y-23500D01*
X9600Y-24700D02*
X8350Y-24700D01*
X11100Y-25700D02*
X11700Y-25700D01*
X11000Y-25600D02*
X11100Y-25700D01*
X11200Y-24700D02*
X11700Y-24700D01*
X10200Y-23700D02*
X11200Y-24700D01*
X11050Y-25200D02*
X11700Y-25200D01*
X10600Y-24750D02*
X11050Y-25200D01*
X11400Y-29450D02*
X11550Y-29450D01*
X12250Y-28750D02*
X12850Y-28750D01*
X11550Y-29450D02*
X12250Y-28750D01*
X11400Y-27050D02*
X11600Y-27050D01*
X12300Y-27750D02*
X12850Y-27750D01*
X11600Y-27050D02*
X12300Y-27750D01*
X11400Y-28250D02*
X12850Y-28250D01*
X14950Y-29250D02*
X17150Y-29250D01*
X21929Y-27420D02*
X21929Y-26902D01*
X21050Y-28300D02*
X21929Y-27420D01*
X18100Y-28300D02*
X21050Y-28300D01*
X17150Y-29250D02*
X18100Y-28300D01*
X14950Y-28250D02*
X16900Y-28250D01*
X18247Y-26902D02*
X20670Y-26902D01*
X16900Y-28250D02*
X18247Y-26902D01*
X14950Y-28750D02*
X17000Y-28750D01*
X21300Y-27200D02*
X21300Y-26902D01*
X20850Y-27650D02*
X21300Y-27200D01*
X18100Y-27650D02*
X20850Y-27650D01*
X17000Y-28750D02*
X18100Y-27650D01*
X21300Y-24697D02*
X21300Y-22050D01*
X29850Y-11400D02*
X29602Y-11400D01*
X30150Y-11700D02*
X29850Y-11400D01*
X30150Y-13200D02*
X30150Y-11700D01*
X21300Y-22050D02*
X30150Y-13200D01*
X29602Y-10770D02*
X29970Y-10770D01*
X21929Y-22120D02*
X21929Y-24697D01*
X30650Y-13400D02*
X21929Y-22120D01*
X30650Y-11450D02*
X30650Y-13400D01*
X29970Y-10770D02*
X30650Y-11450D01*
X29602Y-12029D02*
X29602Y-13097D01*
X20670Y-22029D02*
X20670Y-24697D01*
X29602Y-13097D02*
X20670Y-22029D01*
X10852Y-6920D02*
X15806Y-6140D01*
X15806Y-6140D02*
X17200Y-6250D01*
X24309Y-10271D02*
X27397Y-10770D01*
X17200Y-6250D02*
X24309Y-10271D01*
X10852Y-7550D02*
X15600Y-6650D01*
X22650Y-10750D02*
X27397Y-11400D01*
X22650Y-10750D02*
X22650Y-10750D01*
X22650Y-10750D02*
X22650Y-10750D01*
X22656Y-10750D02*
X22650Y-10750D01*
X22656Y-10750D02*
X22656Y-10750D01*
X16968Y-6773D02*
X22656Y-10750D01*
X15600Y-6650D02*
X16968Y-6773D01*
X15600Y-6650D02*
X15600Y-6650D01*
X27397Y-12029D02*
X22150Y-11300D01*
X22150Y-11300D02*
X19550Y-9450D01*
X19550Y-9450D02*
X10852Y-8179D01*
X8647Y-6920D02*
X8647Y-7550D01*
X8647Y-7550D02*
X8647Y-8179D01*
X8647Y-8179D02*
X8650Y-8182D01*
X8650Y-8182D02*
X8650Y-8650D01*
G54D10*
G36*
X24521Y-8549D02*
X24513Y-8558D01*
X24482Y-8632D01*
X24462Y-8583D01*
X24391Y-8513D01*
X24299Y-8475D01*
X24200Y-8474D01*
X23850Y-8474D01*
X23758Y-8512D01*
X23700Y-8571D01*
X23641Y-8512D01*
X23549Y-8474D01*
X23437Y-8475D01*
X23375Y-8537D01*
X23375Y-8950D01*
X23382Y-8950D01*
X23382Y-9050D01*
X23375Y-9050D01*
X23375Y-9057D01*
X23275Y-9057D01*
X23275Y-9050D01*
X23275Y-8950D01*
X23275Y-8537D01*
X23212Y-8475D01*
X23100Y-8474D01*
X23008Y-8512D01*
X22938Y-8583D01*
X22900Y-8675D01*
X22899Y-8774D01*
X22900Y-8887D01*
X22962Y-8950D01*
X23275Y-8950D01*
X23275Y-9050D01*
X22962Y-9050D01*
X22925Y-9087D01*
X19700Y-7262D01*
X24489Y-8115D01*
X24475Y-8150D01*
X24474Y-8249D01*
X24474Y-8449D01*
X24512Y-8541D01*
X24521Y-8549D01*
X24521Y-8549D01*
G37*
G54D24*
X24521Y-8549D02*
X24513Y-8558D01*
X24482Y-8632D01*
X24462Y-8583D01*
X24391Y-8513D01*
X24299Y-8475D01*
X24200Y-8474D01*
X23850Y-8474D01*
X23758Y-8512D01*
X23700Y-8571D01*
X23641Y-8512D01*
X23549Y-8474D01*
X23437Y-8475D01*
X23375Y-8537D01*
X23375Y-8950D01*
X23382Y-8950D01*
X23382Y-9050D01*
X23375Y-9050D01*
X23375Y-9057D01*
X23275Y-9057D01*
X23275Y-9050D01*
X23275Y-8950D01*
X23275Y-8537D01*
X23212Y-8475D01*
X23100Y-8474D01*
X23008Y-8512D01*
X22938Y-8583D01*
X22900Y-8675D01*
X22899Y-8774D01*
X22900Y-8887D01*
X22962Y-8950D01*
X23275Y-8950D01*
X23275Y-9050D01*
X22962Y-9050D01*
X22925Y-9087D01*
X19700Y-7262D01*
X24489Y-8115D01*
X24475Y-8150D01*
X24474Y-8249D01*
X24474Y-8449D01*
X24512Y-8541D01*
X24521Y-8549D01*
G54D10*
G36*
X30774Y-13770D02*
X28800Y-21190D01*
X28800Y-20700D01*
X28800Y-20099D01*
X28800Y-19400D01*
X28762Y-19308D01*
X28691Y-19238D01*
X28599Y-19200D01*
X28500Y-19199D01*
X28262Y-19200D01*
X28200Y-19262D01*
X28200Y-19700D01*
X28737Y-19700D01*
X28800Y-19637D01*
X28800Y-19400D01*
X28800Y-20099D01*
X28800Y-19862D01*
X28737Y-19800D01*
X28200Y-19800D01*
X28200Y-20237D01*
X28262Y-20300D01*
X28500Y-20300D01*
X28599Y-20299D01*
X28691Y-20261D01*
X28762Y-20191D01*
X28800Y-20099D01*
X28800Y-20700D01*
X28762Y-20608D01*
X28691Y-20538D01*
X28599Y-20500D01*
X28500Y-20499D01*
X28100Y-20499D01*
X28100Y-20237D01*
X28100Y-19800D01*
X28100Y-19700D01*
X28100Y-19262D01*
X28037Y-19200D01*
X27799Y-19199D01*
X27700Y-19200D01*
X27608Y-19238D01*
X27575Y-19271D01*
X27541Y-19238D01*
X27449Y-19200D01*
X27350Y-19199D01*
X27112Y-19200D01*
X27050Y-19262D01*
X27050Y-19700D01*
X27562Y-19700D01*
X27587Y-19700D01*
X28100Y-19700D01*
X28100Y-19800D01*
X27587Y-19800D01*
X27562Y-19800D01*
X27050Y-19800D01*
X27050Y-20237D01*
X27112Y-20300D01*
X27350Y-20300D01*
X27449Y-20299D01*
X27541Y-20261D01*
X27575Y-20228D01*
X27608Y-20261D01*
X27700Y-20299D01*
X27799Y-20300D01*
X28037Y-20300D01*
X28100Y-20237D01*
X28100Y-20499D01*
X27700Y-20499D01*
X27608Y-20537D01*
X27575Y-20571D01*
X27541Y-20538D01*
X27449Y-20500D01*
X27350Y-20499D01*
X26950Y-20499D01*
X26950Y-20237D01*
X26950Y-19800D01*
X26950Y-19700D01*
X26950Y-19262D01*
X26887Y-19200D01*
X26649Y-19199D01*
X26550Y-19200D01*
X26458Y-19238D01*
X26425Y-19271D01*
X26391Y-19238D01*
X26299Y-19200D01*
X26200Y-19199D01*
X25962Y-19200D01*
X25900Y-19262D01*
X25900Y-19700D01*
X26412Y-19700D01*
X26437Y-19700D01*
X26950Y-19700D01*
X26950Y-19800D01*
X26437Y-19800D01*
X26412Y-19800D01*
X25900Y-19800D01*
X25900Y-20237D01*
X25962Y-20300D01*
X26200Y-20300D01*
X26299Y-20299D01*
X26391Y-20261D01*
X26425Y-20228D01*
X26458Y-20261D01*
X26550Y-20299D01*
X26649Y-20300D01*
X26887Y-20300D01*
X26950Y-20237D01*
X26950Y-20499D01*
X26550Y-20499D01*
X26458Y-20537D01*
X26425Y-20571D01*
X26391Y-20538D01*
X26299Y-20500D01*
X26200Y-20499D01*
X25800Y-20499D01*
X25800Y-20237D01*
X25800Y-19800D01*
X25800Y-19700D01*
X25800Y-19262D01*
X25737Y-19200D01*
X25499Y-19199D01*
X25400Y-19200D01*
X25308Y-19238D01*
X25237Y-19308D01*
X25199Y-19400D01*
X25200Y-19637D01*
X25262Y-19700D01*
X25800Y-19700D01*
X25800Y-19800D01*
X25262Y-19800D01*
X25200Y-19862D01*
X25199Y-20099D01*
X25237Y-20191D01*
X25308Y-20261D01*
X25400Y-20299D01*
X25499Y-20300D01*
X25737Y-20300D01*
X25800Y-20237D01*
X25800Y-20499D01*
X25400Y-20499D01*
X25308Y-20537D01*
X25238Y-20608D01*
X25200Y-20700D01*
X25199Y-20799D01*
X25199Y-21399D01*
X25237Y-21491D01*
X25308Y-21561D01*
X25400Y-21599D01*
X25499Y-21600D01*
X25705Y-21600D01*
X25880Y-21774D01*
X25850Y-21774D01*
X25758Y-21812D01*
X25688Y-21883D01*
X25650Y-21975D01*
X25649Y-22074D01*
X25650Y-22137D01*
X25712Y-22200D01*
X25950Y-22200D01*
X25950Y-22192D01*
X26050Y-22192D01*
X26050Y-22200D01*
X26057Y-22200D01*
X26057Y-22300D01*
X26050Y-22300D01*
X26050Y-22662D01*
X26112Y-22725D01*
X26149Y-22725D01*
X26241Y-22687D01*
X26249Y-22678D01*
X26258Y-22686D01*
X26350Y-22724D01*
X26449Y-22725D01*
X26649Y-22725D01*
X26741Y-22687D01*
X26749Y-22678D01*
X26758Y-22686D01*
X26850Y-22724D01*
X26949Y-22725D01*
X27149Y-22725D01*
X27241Y-22687D01*
X27249Y-22678D01*
X27258Y-22686D01*
X27350Y-22724D01*
X27449Y-22725D01*
X27649Y-22725D01*
X27741Y-22687D01*
X27749Y-22678D01*
X27758Y-22686D01*
X27850Y-22724D01*
X27949Y-22725D01*
X28149Y-22725D01*
X28163Y-22719D01*
X28176Y-22783D01*
X28187Y-22800D01*
X25950Y-22800D01*
X25950Y-22662D01*
X25950Y-22300D01*
X25712Y-22300D01*
X25650Y-22362D01*
X25649Y-22425D01*
X25650Y-22524D01*
X25688Y-22616D01*
X25758Y-22687D01*
X25850Y-22725D01*
X25887Y-22725D01*
X25950Y-22662D01*
X25950Y-22800D01*
X25816Y-22826D01*
X25702Y-22902D01*
X23318Y-25286D01*
X23030Y-25575D01*
X17116Y-25575D01*
X17116Y-24437D01*
X16973Y-24091D01*
X16709Y-23827D01*
X16363Y-23683D01*
X15989Y-23683D01*
X15643Y-23826D01*
X15379Y-24090D01*
X15235Y-24436D01*
X15235Y-24810D01*
X15378Y-25156D01*
X15642Y-25420D01*
X15988Y-25564D01*
X16362Y-25564D01*
X16708Y-25421D01*
X16972Y-25157D01*
X17116Y-24811D01*
X17116Y-24437D01*
X17116Y-25575D01*
X15475Y-25575D01*
X15341Y-25601D01*
X15227Y-25677D01*
X15050Y-25855D01*
X15025Y-25830D01*
X15025Y-25500D01*
X14987Y-25408D01*
X14928Y-25350D01*
X14987Y-25291D01*
X15025Y-25199D01*
X15025Y-24750D01*
X14987Y-24658D01*
X14916Y-24588D01*
X14824Y-24550D01*
X14725Y-24549D01*
X14612Y-24550D01*
X14550Y-24612D01*
X14550Y-24925D01*
X14962Y-24925D01*
X15025Y-24862D01*
X15025Y-24750D01*
X15025Y-25199D01*
X15025Y-25087D01*
X14962Y-25025D01*
X14550Y-25025D01*
X14550Y-25032D01*
X14450Y-25032D01*
X14450Y-25025D01*
X14450Y-24925D01*
X14450Y-24612D01*
X14387Y-24550D01*
X14274Y-24549D01*
X14175Y-24550D01*
X14083Y-24588D01*
X14012Y-24658D01*
X13974Y-24750D01*
X13975Y-24862D01*
X14037Y-24925D01*
X14450Y-24925D01*
X14450Y-25025D01*
X14037Y-25025D01*
X13975Y-25087D01*
X13974Y-25199D01*
X14012Y-25291D01*
X14071Y-25350D01*
X14013Y-25408D01*
X13975Y-25500D01*
X13974Y-25599D01*
X13974Y-25949D01*
X14012Y-26041D01*
X14063Y-26091D01*
X13900Y-26255D01*
X13900Y-24100D01*
X13873Y-23966D01*
X13797Y-23852D01*
X12397Y-22452D01*
X12283Y-22376D01*
X12150Y-22350D01*
X11924Y-22350D01*
X11875Y-22349D01*
X11844Y-22349D01*
X11583Y-22088D01*
X11583Y-22044D01*
X11545Y-21953D01*
X11475Y-21882D01*
X11227Y-21635D01*
X11135Y-21597D01*
X11053Y-21596D01*
X11052Y-21514D01*
X11014Y-21422D01*
X10935Y-21343D01*
X10847Y-21343D01*
X10776Y-21413D01*
X10776Y-21272D01*
X10776Y-21184D01*
X10697Y-21104D01*
X10605Y-21066D01*
X10506Y-21066D01*
X10414Y-21104D01*
X10343Y-21174D01*
X10263Y-21254D01*
X10263Y-21343D01*
X10484Y-21564D01*
X10776Y-21272D01*
X10776Y-21413D01*
X10555Y-21634D01*
X10561Y-21640D01*
X10490Y-21711D01*
X10484Y-21705D01*
X10479Y-21711D01*
X10408Y-21640D01*
X10414Y-21634D01*
X10193Y-21413D01*
X10104Y-21413D01*
X10024Y-21493D01*
X9956Y-21561D01*
X7883Y-19488D01*
X7150Y-18755D01*
X7150Y-10900D01*
X7156Y-10867D01*
X7194Y-10883D01*
X7293Y-10883D01*
X7385Y-10845D01*
X7456Y-10775D01*
X7536Y-10695D01*
X7536Y-10606D01*
X7315Y-10385D01*
X7309Y-10391D01*
X7238Y-10320D01*
X7244Y-10315D01*
X7238Y-10309D01*
X7309Y-10238D01*
X7315Y-10244D01*
X7320Y-10238D01*
X7391Y-10309D01*
X7385Y-10315D01*
X7606Y-10536D01*
X7695Y-10536D01*
X7775Y-10456D01*
X7845Y-10385D01*
X7883Y-10293D01*
X7883Y-10194D01*
X7845Y-10102D01*
X7765Y-10023D01*
X7677Y-10023D01*
X7721Y-9979D01*
X7692Y-9950D01*
X7699Y-9950D01*
X8299Y-9950D01*
X8391Y-9912D01*
X8461Y-9841D01*
X8499Y-9749D01*
X8500Y-9650D01*
X8500Y-9047D01*
X8565Y-9074D01*
X8699Y-9075D01*
X8700Y-9187D01*
X8762Y-9250D01*
X9200Y-9250D01*
X9200Y-8712D01*
X9137Y-8650D01*
X9075Y-8649D01*
X9075Y-8617D01*
X9135Y-8557D01*
X9173Y-8466D01*
X9173Y-8366D01*
X9173Y-7894D01*
X9161Y-7865D01*
X9173Y-7836D01*
X9173Y-7736D01*
X9173Y-7264D01*
X9161Y-7235D01*
X9173Y-7206D01*
X9173Y-7106D01*
X9173Y-6634D01*
X9135Y-6542D01*
X9065Y-6472D01*
X8973Y-6433D01*
X8873Y-6433D01*
X8688Y-6433D01*
X8741Y-6412D01*
X8811Y-6341D01*
X8849Y-6249D01*
X8850Y-6150D01*
X8850Y-5350D01*
X8812Y-5258D01*
X8803Y-5250D01*
X8811Y-5241D01*
X8849Y-5149D01*
X8850Y-5050D01*
X8850Y-4250D01*
X8812Y-4158D01*
X8741Y-4088D01*
X8649Y-4050D01*
X8550Y-4049D01*
X7950Y-4049D01*
X7858Y-4087D01*
X7788Y-4158D01*
X7750Y-4250D01*
X7749Y-4349D01*
X7749Y-4420D01*
X7702Y-4452D01*
X7702Y-4452D01*
X7702Y-4452D01*
X7302Y-4852D01*
X7226Y-4966D01*
X7200Y-5100D01*
X7200Y-5499D01*
X7175Y-5499D01*
X7112Y-5500D01*
X7050Y-5562D01*
X7050Y-5800D01*
X7057Y-5800D01*
X7057Y-5900D01*
X7050Y-5900D01*
X7050Y-5907D01*
X6950Y-5907D01*
X6950Y-5900D01*
X6950Y-5800D01*
X6950Y-5562D01*
X6887Y-5500D01*
X6824Y-5499D01*
X6725Y-5500D01*
X6633Y-5538D01*
X6562Y-5608D01*
X6524Y-5700D01*
X6525Y-5737D01*
X6587Y-5800D01*
X6950Y-5800D01*
X6950Y-5900D01*
X6587Y-5900D01*
X6525Y-5962D01*
X6524Y-5999D01*
X6562Y-6091D01*
X6571Y-6099D01*
X6563Y-6108D01*
X6525Y-6200D01*
X6524Y-6299D01*
X6524Y-6499D01*
X6562Y-6591D01*
X6571Y-6599D01*
X6563Y-6608D01*
X6525Y-6700D01*
X6524Y-6799D01*
X6524Y-6999D01*
X6562Y-7091D01*
X6571Y-7099D01*
X6563Y-7108D01*
X6525Y-7200D01*
X6524Y-7299D01*
X6524Y-7499D01*
X6562Y-7591D01*
X6571Y-7599D01*
X6563Y-7608D01*
X6530Y-7685D01*
X6250Y-7405D01*
X6250Y-5544D01*
X7975Y-3819D01*
X9711Y-4051D01*
X9650Y-4112D01*
X9650Y-4650D01*
X10087Y-4650D01*
X10150Y-4587D01*
X10150Y-4349D01*
X10149Y-4250D01*
X10111Y-4158D01*
X10050Y-4096D01*
X18742Y-5256D01*
X18739Y-5258D01*
X18675Y-5415D01*
X18674Y-5584D01*
X18739Y-5740D01*
X18823Y-5825D01*
X18739Y-5908D01*
X18675Y-6065D01*
X18674Y-6234D01*
X18739Y-6390D01*
X18823Y-6475D01*
X18739Y-6558D01*
X18686Y-6688D01*
X17372Y-5945D01*
X17364Y-5942D01*
X17358Y-5938D01*
X17306Y-5923D01*
X17242Y-5902D01*
X17234Y-5903D01*
X17227Y-5901D01*
X15833Y-5791D01*
X15770Y-5799D01*
X15752Y-5798D01*
X11294Y-6496D01*
X11269Y-6472D01*
X11177Y-6433D01*
X11078Y-6433D01*
X10527Y-6433D01*
X10435Y-6471D01*
X10364Y-6542D01*
X10326Y-6633D01*
X10326Y-6733D01*
X10326Y-7205D01*
X10338Y-7234D01*
X10326Y-7263D01*
X10326Y-7363D01*
X10326Y-7835D01*
X10338Y-7864D01*
X10326Y-7893D01*
X10326Y-7993D01*
X10326Y-8465D01*
X10364Y-8557D01*
X10434Y-8627D01*
X10526Y-8666D01*
X10626Y-8666D01*
X11177Y-8666D01*
X11269Y-8628D01*
X11298Y-8598D01*
X15305Y-9183D01*
X15148Y-9204D01*
X14978Y-9230D01*
X14809Y-9261D01*
X14641Y-9295D01*
X14473Y-9334D01*
X14306Y-9377D01*
X14140Y-9424D01*
X13975Y-9475D01*
X13811Y-9530D01*
X13648Y-9589D01*
X13486Y-9652D01*
X13326Y-9720D01*
X13166Y-9791D01*
X13009Y-9867D01*
X12853Y-9947D01*
X12698Y-10030D01*
X12545Y-10118D01*
X12393Y-10210D01*
X12244Y-10306D01*
X12097Y-10406D01*
X11951Y-10510D01*
X11807Y-10619D01*
X11666Y-10731D01*
X11527Y-10847D01*
X11390Y-10968D01*
X11256Y-11092D01*
X11124Y-11221D01*
X10871Y-11488D01*
X10634Y-11764D01*
X10413Y-12049D01*
X10209Y-12342D01*
X10150Y-12436D01*
X10150Y-6150D01*
X10150Y-5449D01*
X10149Y-5350D01*
X10111Y-5258D01*
X10103Y-5250D01*
X10111Y-5241D01*
X10149Y-5149D01*
X10150Y-5050D01*
X10150Y-4812D01*
X10087Y-4750D01*
X9650Y-4750D01*
X9650Y-5212D01*
X9650Y-5287D01*
X9650Y-5750D01*
X10087Y-5750D01*
X10150Y-5687D01*
X10150Y-5449D01*
X10150Y-6150D01*
X10150Y-5912D01*
X10087Y-5850D01*
X9650Y-5850D01*
X9650Y-6387D01*
X9712Y-6450D01*
X9949Y-6450D01*
X10041Y-6412D01*
X10111Y-6341D01*
X10149Y-6249D01*
X10150Y-6150D01*
X10150Y-12436D01*
X10021Y-12643D01*
X9849Y-12950D01*
X9800Y-13050D01*
X9800Y-9650D01*
X9800Y-8949D01*
X9799Y-8850D01*
X9761Y-8758D01*
X9691Y-8687D01*
X9599Y-8649D01*
X9550Y-8649D01*
X9550Y-6387D01*
X9550Y-5850D01*
X9550Y-5750D01*
X9550Y-5287D01*
X9550Y-5212D01*
X9550Y-4750D01*
X9550Y-4650D01*
X9550Y-4112D01*
X9487Y-4050D01*
X9250Y-4049D01*
X9158Y-4087D01*
X9088Y-4158D01*
X9050Y-4250D01*
X9049Y-4349D01*
X9050Y-4587D01*
X9112Y-4650D01*
X9550Y-4650D01*
X9550Y-4750D01*
X9112Y-4750D01*
X9050Y-4812D01*
X9049Y-5050D01*
X9050Y-5149D01*
X9088Y-5241D01*
X9096Y-5250D01*
X9088Y-5258D01*
X9050Y-5350D01*
X9049Y-5449D01*
X9050Y-5687D01*
X9112Y-5750D01*
X9550Y-5750D01*
X9550Y-5850D01*
X9112Y-5850D01*
X9050Y-5912D01*
X9049Y-6150D01*
X9050Y-6249D01*
X9088Y-6341D01*
X9158Y-6412D01*
X9250Y-6450D01*
X9487Y-6450D01*
X9550Y-6387D01*
X9550Y-8649D01*
X9362Y-8650D01*
X9300Y-8712D01*
X9300Y-9250D01*
X9737Y-9250D01*
X9800Y-9187D01*
X9800Y-8949D01*
X9800Y-9650D01*
X9800Y-9412D01*
X9737Y-9350D01*
X9300Y-9350D01*
X9300Y-9887D01*
X9362Y-9950D01*
X9599Y-9950D01*
X9691Y-9912D01*
X9761Y-9841D01*
X9799Y-9749D01*
X9800Y-9650D01*
X9800Y-13050D01*
X9693Y-13264D01*
X9555Y-13584D01*
X9432Y-13909D01*
X9326Y-14238D01*
X9236Y-14571D01*
X9200Y-14738D01*
X9200Y-9887D01*
X9200Y-9350D01*
X8762Y-9350D01*
X8700Y-9412D01*
X8699Y-9650D01*
X8700Y-9749D01*
X8738Y-9841D01*
X8808Y-9912D01*
X8900Y-9950D01*
X9137Y-9950D01*
X9200Y-9887D01*
X9200Y-14738D01*
X9162Y-14908D01*
X9105Y-15247D01*
X9064Y-15587D01*
X9040Y-15929D01*
X9031Y-16272D01*
X9040Y-16615D01*
X9064Y-16957D01*
X9105Y-17298D01*
X9162Y-17636D01*
X9236Y-17973D01*
X9326Y-18306D01*
X9432Y-18635D01*
X9555Y-18960D01*
X9693Y-19280D01*
X9849Y-19594D01*
X10021Y-19902D01*
X10209Y-20203D01*
X10413Y-20496D01*
X10634Y-20781D01*
X10871Y-21057D01*
X11124Y-21323D01*
X11390Y-21576D01*
X11666Y-21813D01*
X11951Y-22034D01*
X12244Y-22238D01*
X12545Y-22426D01*
X12853Y-22598D01*
X13167Y-22754D01*
X13487Y-22892D01*
X13812Y-23015D01*
X14141Y-23121D01*
X14474Y-23211D01*
X14810Y-23284D01*
X15149Y-23342D01*
X15490Y-23383D01*
X15832Y-23407D01*
X16175Y-23415D01*
X16518Y-23407D01*
X16859Y-23383D01*
X17200Y-23342D01*
X17539Y-23284D01*
X17876Y-23211D01*
X18209Y-23121D01*
X18538Y-23015D01*
X18863Y-22892D01*
X19183Y-22754D01*
X19497Y-22598D01*
X19804Y-22426D01*
X20105Y-22238D01*
X20320Y-22089D01*
X20320Y-24198D01*
X20292Y-24209D01*
X20222Y-24280D01*
X20183Y-24372D01*
X20183Y-24471D01*
X20183Y-25022D01*
X20221Y-25114D01*
X20292Y-25185D01*
X20383Y-25223D01*
X20483Y-25223D01*
X20955Y-25223D01*
X20984Y-25211D01*
X21013Y-25223D01*
X21113Y-25223D01*
X21585Y-25223D01*
X21614Y-25211D01*
X21643Y-25223D01*
X21743Y-25223D01*
X22215Y-25223D01*
X22307Y-25185D01*
X22377Y-25115D01*
X22416Y-25023D01*
X22416Y-24923D01*
X22416Y-24372D01*
X22378Y-24280D01*
X22307Y-24210D01*
X22279Y-24198D01*
X22279Y-22265D01*
X23318Y-21226D01*
X30774Y-13770D01*
X30774Y-13770D01*
G37*
G54D24*
X30774Y-13770D02*
X28800Y-21190D01*
X28800Y-20700D01*
X28800Y-20099D01*
X28800Y-19400D01*
X28762Y-19308D01*
X28691Y-19238D01*
X28599Y-19200D01*
X28500Y-19199D01*
X28262Y-19200D01*
X28200Y-19262D01*
X28200Y-19700D01*
X28737Y-19700D01*
X28800Y-19637D01*
X28800Y-19400D01*
X28800Y-20099D01*
X28800Y-19862D01*
X28737Y-19800D01*
X28200Y-19800D01*
X28200Y-20237D01*
X28262Y-20300D01*
X28500Y-20300D01*
X28599Y-20299D01*
X28691Y-20261D01*
X28762Y-20191D01*
X28800Y-20099D01*
X28800Y-20700D01*
X28762Y-20608D01*
X28691Y-20538D01*
X28599Y-20500D01*
X28500Y-20499D01*
X28100Y-20499D01*
X28100Y-20237D01*
X28100Y-19800D01*
X28100Y-19700D01*
X28100Y-19262D01*
X28037Y-19200D01*
X27799Y-19199D01*
X27700Y-19200D01*
X27608Y-19238D01*
X27575Y-19271D01*
X27541Y-19238D01*
X27449Y-19200D01*
X27350Y-19199D01*
X27112Y-19200D01*
X27050Y-19262D01*
X27050Y-19700D01*
X27562Y-19700D01*
X27587Y-19700D01*
X28100Y-19700D01*
X28100Y-19800D01*
X27587Y-19800D01*
X27562Y-19800D01*
X27050Y-19800D01*
X27050Y-20237D01*
X27112Y-20300D01*
X27350Y-20300D01*
X27449Y-20299D01*
X27541Y-20261D01*
X27575Y-20228D01*
X27608Y-20261D01*
X27700Y-20299D01*
X27799Y-20300D01*
X28037Y-20300D01*
X28100Y-20237D01*
X28100Y-20499D01*
X27700Y-20499D01*
X27608Y-20537D01*
X27575Y-20571D01*
X27541Y-20538D01*
X27449Y-20500D01*
X27350Y-20499D01*
X26950Y-20499D01*
X26950Y-20237D01*
X26950Y-19800D01*
X26950Y-19700D01*
X26950Y-19262D01*
X26887Y-19200D01*
X26649Y-19199D01*
X26550Y-19200D01*
X26458Y-19238D01*
X26425Y-19271D01*
X26391Y-19238D01*
X26299Y-19200D01*
X26200Y-19199D01*
X25962Y-19200D01*
X25900Y-19262D01*
X25900Y-19700D01*
X26412Y-19700D01*
X26437Y-19700D01*
X26950Y-19700D01*
X26950Y-19800D01*
X26437Y-19800D01*
X26412Y-19800D01*
X25900Y-19800D01*
X25900Y-20237D01*
X25962Y-20300D01*
X26200Y-20300D01*
X26299Y-20299D01*
X26391Y-20261D01*
X26425Y-20228D01*
X26458Y-20261D01*
X26550Y-20299D01*
X26649Y-20300D01*
X26887Y-20300D01*
X26950Y-20237D01*
X26950Y-20499D01*
X26550Y-20499D01*
X26458Y-20537D01*
X26425Y-20571D01*
X26391Y-20538D01*
X26299Y-20500D01*
X26200Y-20499D01*
X25800Y-20499D01*
X25800Y-20237D01*
X25800Y-19800D01*
X25800Y-19700D01*
X25800Y-19262D01*
X25737Y-19200D01*
X25499Y-19199D01*
X25400Y-19200D01*
X25308Y-19238D01*
X25237Y-19308D01*
X25199Y-19400D01*
X25200Y-19637D01*
X25262Y-19700D01*
X25800Y-19700D01*
X25800Y-19800D01*
X25262Y-19800D01*
X25200Y-19862D01*
X25199Y-20099D01*
X25237Y-20191D01*
X25308Y-20261D01*
X25400Y-20299D01*
X25499Y-20300D01*
X25737Y-20300D01*
X25800Y-20237D01*
X25800Y-20499D01*
X25400Y-20499D01*
X25308Y-20537D01*
X25238Y-20608D01*
X25200Y-20700D01*
X25199Y-20799D01*
X25199Y-21399D01*
X25237Y-21491D01*
X25308Y-21561D01*
X25400Y-21599D01*
X25499Y-21600D01*
X25705Y-21600D01*
X25880Y-21774D01*
X25850Y-21774D01*
X25758Y-21812D01*
X25688Y-21883D01*
X25650Y-21975D01*
X25649Y-22074D01*
X25650Y-22137D01*
X25712Y-22200D01*
X25950Y-22200D01*
X25950Y-22192D01*
X26050Y-22192D01*
X26050Y-22200D01*
X26057Y-22200D01*
X26057Y-22300D01*
X26050Y-22300D01*
X26050Y-22662D01*
X26112Y-22725D01*
X26149Y-22725D01*
X26241Y-22687D01*
X26249Y-22678D01*
X26258Y-22686D01*
X26350Y-22724D01*
X26449Y-22725D01*
X26649Y-22725D01*
X26741Y-22687D01*
X26749Y-22678D01*
X26758Y-22686D01*
X26850Y-22724D01*
X26949Y-22725D01*
X27149Y-22725D01*
X27241Y-22687D01*
X27249Y-22678D01*
X27258Y-22686D01*
X27350Y-22724D01*
X27449Y-22725D01*
X27649Y-22725D01*
X27741Y-22687D01*
X27749Y-22678D01*
X27758Y-22686D01*
X27850Y-22724D01*
X27949Y-22725D01*
X28149Y-22725D01*
X28163Y-22719D01*
X28176Y-22783D01*
X28187Y-22800D01*
X25950Y-22800D01*
X25950Y-22662D01*
X25950Y-22300D01*
X25712Y-22300D01*
X25650Y-22362D01*
X25649Y-22425D01*
X25650Y-22524D01*
X25688Y-22616D01*
X25758Y-22687D01*
X25850Y-22725D01*
X25887Y-22725D01*
X25950Y-22662D01*
X25950Y-22800D01*
X25816Y-22826D01*
X25702Y-22902D01*
X23318Y-25286D01*
X23030Y-25575D01*
X17116Y-25575D01*
X17116Y-24437D01*
X16973Y-24091D01*
X16709Y-23827D01*
X16363Y-23683D01*
X15989Y-23683D01*
X15643Y-23826D01*
X15379Y-24090D01*
X15235Y-24436D01*
X15235Y-24810D01*
X15378Y-25156D01*
X15642Y-25420D01*
X15988Y-25564D01*
X16362Y-25564D01*
X16708Y-25421D01*
X16972Y-25157D01*
X17116Y-24811D01*
X17116Y-24437D01*
X17116Y-25575D01*
X15475Y-25575D01*
X15341Y-25601D01*
X15227Y-25677D01*
X15050Y-25855D01*
X15025Y-25830D01*
X15025Y-25500D01*
X14987Y-25408D01*
X14928Y-25350D01*
X14987Y-25291D01*
X15025Y-25199D01*
X15025Y-24750D01*
X14987Y-24658D01*
X14916Y-24588D01*
X14824Y-24550D01*
X14725Y-24549D01*
X14612Y-24550D01*
X14550Y-24612D01*
X14550Y-24925D01*
X14962Y-24925D01*
X15025Y-24862D01*
X15025Y-24750D01*
X15025Y-25199D01*
X15025Y-25087D01*
X14962Y-25025D01*
X14550Y-25025D01*
X14550Y-25032D01*
X14450Y-25032D01*
X14450Y-25025D01*
X14450Y-24925D01*
X14450Y-24612D01*
X14387Y-24550D01*
X14274Y-24549D01*
X14175Y-24550D01*
X14083Y-24588D01*
X14012Y-24658D01*
X13974Y-24750D01*
X13975Y-24862D01*
X14037Y-24925D01*
X14450Y-24925D01*
X14450Y-25025D01*
X14037Y-25025D01*
X13975Y-25087D01*
X13974Y-25199D01*
X14012Y-25291D01*
X14071Y-25350D01*
X14013Y-25408D01*
X13975Y-25500D01*
X13974Y-25599D01*
X13974Y-25949D01*
X14012Y-26041D01*
X14063Y-26091D01*
X13900Y-26255D01*
X13900Y-24100D01*
X13873Y-23966D01*
X13797Y-23852D01*
X12397Y-22452D01*
X12283Y-22376D01*
X12150Y-22350D01*
X11924Y-22350D01*
X11875Y-22349D01*
X11844Y-22349D01*
X11583Y-22088D01*
X11583Y-22044D01*
X11545Y-21953D01*
X11475Y-21882D01*
X11227Y-21635D01*
X11135Y-21597D01*
X11053Y-21596D01*
X11052Y-21514D01*
X11014Y-21422D01*
X10935Y-21343D01*
X10847Y-21343D01*
X10776Y-21413D01*
X10776Y-21272D01*
X10776Y-21184D01*
X10697Y-21104D01*
X10605Y-21066D01*
X10506Y-21066D01*
X10414Y-21104D01*
X10343Y-21174D01*
X10263Y-21254D01*
X10263Y-21343D01*
X10484Y-21564D01*
X10776Y-21272D01*
X10776Y-21413D01*
X10555Y-21634D01*
X10561Y-21640D01*
X10490Y-21711D01*
X10484Y-21705D01*
X10479Y-21711D01*
X10408Y-21640D01*
X10414Y-21634D01*
X10193Y-21413D01*
X10104Y-21413D01*
X10024Y-21493D01*
X9956Y-21561D01*
X7883Y-19488D01*
X7150Y-18755D01*
X7150Y-10900D01*
X7156Y-10867D01*
X7194Y-10883D01*
X7293Y-10883D01*
X7385Y-10845D01*
X7456Y-10775D01*
X7536Y-10695D01*
X7536Y-10606D01*
X7315Y-10385D01*
X7309Y-10391D01*
X7238Y-10320D01*
X7244Y-10315D01*
X7238Y-10309D01*
X7309Y-10238D01*
X7315Y-10244D01*
X7320Y-10238D01*
X7391Y-10309D01*
X7385Y-10315D01*
X7606Y-10536D01*
X7695Y-10536D01*
X7775Y-10456D01*
X7845Y-10385D01*
X7883Y-10293D01*
X7883Y-10194D01*
X7845Y-10102D01*
X7765Y-10023D01*
X7677Y-10023D01*
X7721Y-9979D01*
X7692Y-9950D01*
X7699Y-9950D01*
X8299Y-9950D01*
X8391Y-9912D01*
X8461Y-9841D01*
X8499Y-9749D01*
X8500Y-9650D01*
X8500Y-9047D01*
X8565Y-9074D01*
X8699Y-9075D01*
X8700Y-9187D01*
X8762Y-9250D01*
X9200Y-9250D01*
X9200Y-8712D01*
X9137Y-8650D01*
X9075Y-8649D01*
X9075Y-8617D01*
X9135Y-8557D01*
X9173Y-8466D01*
X9173Y-8366D01*
X9173Y-7894D01*
X9161Y-7865D01*
X9173Y-7836D01*
X9173Y-7736D01*
X9173Y-7264D01*
X9161Y-7235D01*
X9173Y-7206D01*
X9173Y-7106D01*
X9173Y-6634D01*
X9135Y-6542D01*
X9065Y-6472D01*
X8973Y-6433D01*
X8873Y-6433D01*
X8688Y-6433D01*
X8741Y-6412D01*
X8811Y-6341D01*
X8849Y-6249D01*
X8850Y-6150D01*
X8850Y-5350D01*
X8812Y-5258D01*
X8803Y-5250D01*
X8811Y-5241D01*
X8849Y-5149D01*
X8850Y-5050D01*
X8850Y-4250D01*
X8812Y-4158D01*
X8741Y-4088D01*
X8649Y-4050D01*
X8550Y-4049D01*
X7950Y-4049D01*
X7858Y-4087D01*
X7788Y-4158D01*
X7750Y-4250D01*
X7749Y-4349D01*
X7749Y-4420D01*
X7702Y-4452D01*
X7702Y-4452D01*
X7702Y-4452D01*
X7302Y-4852D01*
X7226Y-4966D01*
X7200Y-5100D01*
X7200Y-5499D01*
X7175Y-5499D01*
X7112Y-5500D01*
X7050Y-5562D01*
X7050Y-5800D01*
X7057Y-5800D01*
X7057Y-5900D01*
X7050Y-5900D01*
X7050Y-5907D01*
X6950Y-5907D01*
X6950Y-5900D01*
X6950Y-5800D01*
X6950Y-5562D01*
X6887Y-5500D01*
X6824Y-5499D01*
X6725Y-5500D01*
X6633Y-5538D01*
X6562Y-5608D01*
X6524Y-5700D01*
X6525Y-5737D01*
X6587Y-5800D01*
X6950Y-5800D01*
X6950Y-5900D01*
X6587Y-5900D01*
X6525Y-5962D01*
X6524Y-5999D01*
X6562Y-6091D01*
X6571Y-6099D01*
X6563Y-6108D01*
X6525Y-6200D01*
X6524Y-6299D01*
X6524Y-6499D01*
X6562Y-6591D01*
X6571Y-6599D01*
X6563Y-6608D01*
X6525Y-6700D01*
X6524Y-6799D01*
X6524Y-6999D01*
X6562Y-7091D01*
X6571Y-7099D01*
X6563Y-7108D01*
X6525Y-7200D01*
X6524Y-7299D01*
X6524Y-7499D01*
X6562Y-7591D01*
X6571Y-7599D01*
X6563Y-7608D01*
X6530Y-7685D01*
X6250Y-7405D01*
X6250Y-5544D01*
X7975Y-3819D01*
X9711Y-4051D01*
X9650Y-4112D01*
X9650Y-4650D01*
X10087Y-4650D01*
X10150Y-4587D01*
X10150Y-4349D01*
X10149Y-4250D01*
X10111Y-4158D01*
X10050Y-4096D01*
X18742Y-5256D01*
X18739Y-5258D01*
X18675Y-5415D01*
X18674Y-5584D01*
X18739Y-5740D01*
X18823Y-5825D01*
X18739Y-5908D01*
X18675Y-6065D01*
X18674Y-6234D01*
X18739Y-6390D01*
X18823Y-6475D01*
X18739Y-6558D01*
X18686Y-6688D01*
X17372Y-5945D01*
X17364Y-5942D01*
X17358Y-5938D01*
X17306Y-5923D01*
X17242Y-5902D01*
X17234Y-5903D01*
X17227Y-5901D01*
X15833Y-5791D01*
X15770Y-5799D01*
X15752Y-5798D01*
X11294Y-6496D01*
X11269Y-6472D01*
X11177Y-6433D01*
X11078Y-6433D01*
X10527Y-6433D01*
X10435Y-6471D01*
X10364Y-6542D01*
X10326Y-6633D01*
X10326Y-6733D01*
X10326Y-7205D01*
X10338Y-7234D01*
X10326Y-7263D01*
X10326Y-7363D01*
X10326Y-7835D01*
X10338Y-7864D01*
X10326Y-7893D01*
X10326Y-7993D01*
X10326Y-8465D01*
X10364Y-8557D01*
X10434Y-8627D01*
X10526Y-8666D01*
X10626Y-8666D01*
X11177Y-8666D01*
X11269Y-8628D01*
X11298Y-8598D01*
X15305Y-9183D01*
X15148Y-9204D01*
X14978Y-9230D01*
X14809Y-9261D01*
X14641Y-9295D01*
X14473Y-9334D01*
X14306Y-9377D01*
X14140Y-9424D01*
X13975Y-9475D01*
X13811Y-9530D01*
X13648Y-9589D01*
X13486Y-9652D01*
X13326Y-9720D01*
X13166Y-9791D01*
X13009Y-9867D01*
X12853Y-9947D01*
X12698Y-10030D01*
X12545Y-10118D01*
X12393Y-10210D01*
X12244Y-10306D01*
X12097Y-10406D01*
X11951Y-10510D01*
X11807Y-10619D01*
X11666Y-10731D01*
X11527Y-10847D01*
X11390Y-10968D01*
X11256Y-11092D01*
X11124Y-11221D01*
X10871Y-11488D01*
X10634Y-11764D01*
X10413Y-12049D01*
X10209Y-12342D01*
X10150Y-12436D01*
X10150Y-6150D01*
X10150Y-5449D01*
X10149Y-5350D01*
X10111Y-5258D01*
X10103Y-5250D01*
X10111Y-5241D01*
X10149Y-5149D01*
X10150Y-5050D01*
X10150Y-4812D01*
X10087Y-4750D01*
X9650Y-4750D01*
X9650Y-5212D01*
X9650Y-5287D01*
X9650Y-5750D01*
X10087Y-5750D01*
X10150Y-5687D01*
X10150Y-5449D01*
X10150Y-6150D01*
X10150Y-5912D01*
X10087Y-5850D01*
X9650Y-5850D01*
X9650Y-6387D01*
X9712Y-6450D01*
X9949Y-6450D01*
X10041Y-6412D01*
X10111Y-6341D01*
X10149Y-6249D01*
X10150Y-6150D01*
X10150Y-12436D01*
X10021Y-12643D01*
X9849Y-12950D01*
X9800Y-13050D01*
X9800Y-9650D01*
X9800Y-8949D01*
X9799Y-8850D01*
X9761Y-8758D01*
X9691Y-8687D01*
X9599Y-8649D01*
X9550Y-8649D01*
X9550Y-6387D01*
X9550Y-5850D01*
X9550Y-5750D01*
X9550Y-5287D01*
X9550Y-5212D01*
X9550Y-4750D01*
X9550Y-4650D01*
X9550Y-4112D01*
X9487Y-4050D01*
X9250Y-4049D01*
X9158Y-4087D01*
X9088Y-4158D01*
X9050Y-4250D01*
X9049Y-4349D01*
X9050Y-4587D01*
X9112Y-4650D01*
X9550Y-4650D01*
X9550Y-4750D01*
X9112Y-4750D01*
X9050Y-4812D01*
X9049Y-5050D01*
X9050Y-5149D01*
X9088Y-5241D01*
X9096Y-5250D01*
X9088Y-5258D01*
X9050Y-5350D01*
X9049Y-5449D01*
X9050Y-5687D01*
X9112Y-5750D01*
X9550Y-5750D01*
X9550Y-5850D01*
X9112Y-5850D01*
X9050Y-5912D01*
X9049Y-6150D01*
X9050Y-6249D01*
X9088Y-6341D01*
X9158Y-6412D01*
X9250Y-6450D01*
X9487Y-6450D01*
X9550Y-6387D01*
X9550Y-8649D01*
X9362Y-8650D01*
X9300Y-8712D01*
X9300Y-9250D01*
X9737Y-9250D01*
X9800Y-9187D01*
X9800Y-8949D01*
X9800Y-9650D01*
X9800Y-9412D01*
X9737Y-9350D01*
X9300Y-9350D01*
X9300Y-9887D01*
X9362Y-9950D01*
X9599Y-9950D01*
X9691Y-9912D01*
X9761Y-9841D01*
X9799Y-9749D01*
X9800Y-9650D01*
X9800Y-13050D01*
X9693Y-13264D01*
X9555Y-13584D01*
X9432Y-13909D01*
X9326Y-14238D01*
X9236Y-14571D01*
X9200Y-14738D01*
X9200Y-9887D01*
X9200Y-9350D01*
X8762Y-9350D01*
X8700Y-9412D01*
X8699Y-9650D01*
X8700Y-9749D01*
X8738Y-9841D01*
X8808Y-9912D01*
X8900Y-9950D01*
X9137Y-9950D01*
X9200Y-9887D01*
X9200Y-14738D01*
X9162Y-14908D01*
X9105Y-15247D01*
X9064Y-15587D01*
X9040Y-15929D01*
X9031Y-16272D01*
X9040Y-16615D01*
X9064Y-16957D01*
X9105Y-17298D01*
X9162Y-17636D01*
X9236Y-17973D01*
X9326Y-18306D01*
X9432Y-18635D01*
X9555Y-18960D01*
X9693Y-19280D01*
X9849Y-19594D01*
X10021Y-19902D01*
X10209Y-20203D01*
X10413Y-20496D01*
X10634Y-20781D01*
X10871Y-21057D01*
X11124Y-21323D01*
X11390Y-21576D01*
X11666Y-21813D01*
X11951Y-22034D01*
X12244Y-22238D01*
X12545Y-22426D01*
X12853Y-22598D01*
X13167Y-22754D01*
X13487Y-22892D01*
X13812Y-23015D01*
X14141Y-23121D01*
X14474Y-23211D01*
X14810Y-23284D01*
X15149Y-23342D01*
X15490Y-23383D01*
X15832Y-23407D01*
X16175Y-23415D01*
X16518Y-23407D01*
X16859Y-23383D01*
X17200Y-23342D01*
X17539Y-23284D01*
X17876Y-23211D01*
X18209Y-23121D01*
X18538Y-23015D01*
X18863Y-22892D01*
X19183Y-22754D01*
X19497Y-22598D01*
X19804Y-22426D01*
X20105Y-22238D01*
X20320Y-22089D01*
X20320Y-24198D01*
X20292Y-24209D01*
X20222Y-24280D01*
X20183Y-24372D01*
X20183Y-24471D01*
X20183Y-25022D01*
X20221Y-25114D01*
X20292Y-25185D01*
X20383Y-25223D01*
X20483Y-25223D01*
X20955Y-25223D01*
X20984Y-25211D01*
X21013Y-25223D01*
X21113Y-25223D01*
X21585Y-25223D01*
X21614Y-25211D01*
X21643Y-25223D01*
X21743Y-25223D01*
X22215Y-25223D01*
X22307Y-25185D01*
X22377Y-25115D01*
X22416Y-25023D01*
X22416Y-24923D01*
X22416Y-24372D01*
X22378Y-24280D01*
X22307Y-24210D01*
X22279Y-24198D01*
X22279Y-22265D01*
X23318Y-21226D01*
X30774Y-13770D01*
G54D10*
G36*
X31602Y-7844D02*
X31000Y-12296D01*
X31000Y-11450D01*
X30999Y-11449D01*
X31000Y-11449D01*
X30973Y-11316D01*
X30897Y-11202D01*
X30897Y-11202D01*
X30217Y-10522D01*
X30115Y-10454D01*
X30090Y-10392D01*
X30019Y-10322D01*
X29927Y-10283D01*
X29828Y-10283D01*
X29800Y-10283D01*
X29800Y-9400D01*
X29800Y-8699D01*
X29799Y-8600D01*
X29761Y-8508D01*
X29703Y-8450D01*
X29761Y-8391D01*
X29799Y-8299D01*
X29800Y-8200D01*
X29800Y-7499D01*
X29799Y-7400D01*
X29761Y-7308D01*
X29728Y-7275D01*
X29761Y-7241D01*
X29799Y-7149D01*
X29800Y-7050D01*
X29800Y-6812D01*
X29737Y-6750D01*
X29300Y-6750D01*
X29300Y-7262D01*
X29300Y-7287D01*
X29300Y-7800D01*
X29737Y-7800D01*
X29800Y-7737D01*
X29800Y-7499D01*
X29800Y-8200D01*
X29800Y-7962D01*
X29737Y-7900D01*
X29300Y-7900D01*
X29300Y-8437D01*
X29312Y-8450D01*
X29300Y-8462D01*
X29300Y-9000D01*
X29737Y-9000D01*
X29800Y-8937D01*
X29800Y-8699D01*
X29800Y-9400D01*
X29800Y-9162D01*
X29737Y-9100D01*
X29300Y-9100D01*
X29300Y-9637D01*
X29362Y-9700D01*
X29599Y-9700D01*
X29691Y-9662D01*
X29761Y-9591D01*
X29799Y-9499D01*
X29800Y-9400D01*
X29800Y-10283D01*
X29277Y-10283D01*
X29185Y-10321D01*
X29114Y-10392D01*
X29076Y-10483D01*
X29076Y-10583D01*
X29076Y-11055D01*
X29088Y-11084D01*
X29076Y-11113D01*
X29076Y-11213D01*
X29076Y-11685D01*
X29088Y-11714D01*
X29076Y-11743D01*
X29076Y-11843D01*
X29076Y-12315D01*
X29114Y-12407D01*
X29184Y-12477D01*
X29252Y-12505D01*
X29252Y-12952D01*
X23318Y-18886D01*
X22363Y-19841D01*
X22501Y-19594D01*
X22656Y-19280D01*
X22795Y-18960D01*
X22918Y-18635D01*
X23024Y-18306D01*
X23114Y-17973D01*
X23187Y-17636D01*
X23245Y-17298D01*
X23286Y-16957D01*
X23310Y-16615D01*
X23318Y-16272D01*
X23310Y-15929D01*
X23286Y-15587D01*
X23245Y-15247D01*
X23187Y-14908D01*
X23114Y-14572D01*
X23024Y-14238D01*
X22918Y-13909D01*
X22795Y-13584D01*
X22656Y-13264D01*
X22501Y-12950D01*
X22329Y-12643D01*
X22141Y-12342D01*
X21937Y-12049D01*
X21716Y-11764D01*
X21479Y-11488D01*
X21226Y-11221D01*
X21094Y-11092D01*
X20959Y-10968D01*
X20823Y-10847D01*
X20683Y-10731D01*
X20542Y-10619D01*
X20398Y-10510D01*
X20252Y-10406D01*
X20105Y-10306D01*
X19956Y-10210D01*
X19804Y-10118D01*
X19651Y-10030D01*
X19496Y-9947D01*
X19340Y-9867D01*
X19182Y-9791D01*
X19040Y-9728D01*
X19413Y-9782D01*
X21948Y-11583D01*
X21956Y-11587D01*
X21972Y-11601D01*
X22042Y-11626D01*
X22072Y-11639D01*
X22082Y-11639D01*
X22101Y-11646D01*
X26872Y-12308D01*
X26872Y-12315D01*
X26909Y-12407D01*
X26980Y-12477D01*
X27072Y-12516D01*
X27171Y-12516D01*
X27722Y-12516D01*
X27814Y-12478D01*
X27885Y-12407D01*
X27923Y-12316D01*
X27923Y-12216D01*
X27923Y-11744D01*
X27911Y-11715D01*
X27923Y-11686D01*
X27923Y-11586D01*
X27923Y-11114D01*
X27911Y-11085D01*
X27923Y-11056D01*
X27923Y-10956D01*
X27923Y-10600D01*
X28200Y-10600D01*
X28333Y-10573D01*
X28333Y-10573D01*
X28447Y-10497D01*
X28847Y-10097D01*
X28847Y-10097D01*
X28847Y-10097D01*
X28923Y-9983D01*
X28949Y-9850D01*
X28950Y-9850D01*
X28950Y-9700D01*
X29137Y-9700D01*
X29200Y-9637D01*
X29200Y-9100D01*
X29192Y-9100D01*
X29192Y-9000D01*
X29200Y-9000D01*
X29200Y-8462D01*
X29187Y-8450D01*
X29200Y-8437D01*
X29200Y-7900D01*
X29192Y-7900D01*
X29192Y-7800D01*
X29200Y-7800D01*
X29200Y-7287D01*
X29200Y-7262D01*
X29200Y-6750D01*
X29192Y-6750D01*
X29192Y-6650D01*
X29200Y-6650D01*
X29200Y-6642D01*
X29300Y-6642D01*
X29300Y-6650D01*
X29737Y-6650D01*
X29800Y-6587D01*
X29800Y-6395D01*
X30520Y-7115D01*
X30441Y-7538D01*
X30461Y-7635D01*
X30517Y-7717D01*
X30601Y-7772D01*
X30698Y-7790D01*
X31239Y-7891D01*
X31336Y-7871D01*
X31418Y-7815D01*
X31473Y-7732D01*
X31490Y-7641D01*
X31554Y-7797D01*
X31602Y-7844D01*
X31602Y-7844D01*
G37*
G54D24*
X31602Y-7844D02*
X31000Y-12296D01*
X31000Y-11450D01*
X30999Y-11449D01*
X31000Y-11449D01*
X30973Y-11316D01*
X30897Y-11202D01*
X30897Y-11202D01*
X30217Y-10522D01*
X30115Y-10454D01*
X30090Y-10392D01*
X30019Y-10322D01*
X29927Y-10283D01*
X29828Y-10283D01*
X29800Y-10283D01*
X29800Y-9400D01*
X29800Y-8699D01*
X29799Y-8600D01*
X29761Y-8508D01*
X29703Y-8450D01*
X29761Y-8391D01*
X29799Y-8299D01*
X29800Y-8200D01*
X29800Y-7499D01*
X29799Y-7400D01*
X29761Y-7308D01*
X29728Y-7275D01*
X29761Y-7241D01*
X29799Y-7149D01*
X29800Y-7050D01*
X29800Y-6812D01*
X29737Y-6750D01*
X29300Y-6750D01*
X29300Y-7262D01*
X29300Y-7287D01*
X29300Y-7800D01*
X29737Y-7800D01*
X29800Y-7737D01*
X29800Y-7499D01*
X29800Y-8200D01*
X29800Y-7962D01*
X29737Y-7900D01*
X29300Y-7900D01*
X29300Y-8437D01*
X29312Y-8450D01*
X29300Y-8462D01*
X29300Y-9000D01*
X29737Y-9000D01*
X29800Y-8937D01*
X29800Y-8699D01*
X29800Y-9400D01*
X29800Y-9162D01*
X29737Y-9100D01*
X29300Y-9100D01*
X29300Y-9637D01*
X29362Y-9700D01*
X29599Y-9700D01*
X29691Y-9662D01*
X29761Y-9591D01*
X29799Y-9499D01*
X29800Y-9400D01*
X29800Y-10283D01*
X29277Y-10283D01*
X29185Y-10321D01*
X29114Y-10392D01*
X29076Y-10483D01*
X29076Y-10583D01*
X29076Y-11055D01*
X29088Y-11084D01*
X29076Y-11113D01*
X29076Y-11213D01*
X29076Y-11685D01*
X29088Y-11714D01*
X29076Y-11743D01*
X29076Y-11843D01*
X29076Y-12315D01*
X29114Y-12407D01*
X29184Y-12477D01*
X29252Y-12505D01*
X29252Y-12952D01*
X23318Y-18886D01*
X22363Y-19841D01*
X22501Y-19594D01*
X22656Y-19280D01*
X22795Y-18960D01*
X22918Y-18635D01*
X23024Y-18306D01*
X23114Y-17973D01*
X23187Y-17636D01*
X23245Y-17298D01*
X23286Y-16957D01*
X23310Y-16615D01*
X23318Y-16272D01*
X23310Y-15929D01*
X23286Y-15587D01*
X23245Y-15247D01*
X23187Y-14908D01*
X23114Y-14572D01*
X23024Y-14238D01*
X22918Y-13909D01*
X22795Y-13584D01*
X22656Y-13264D01*
X22501Y-12950D01*
X22329Y-12643D01*
X22141Y-12342D01*
X21937Y-12049D01*
X21716Y-11764D01*
X21479Y-11488D01*
X21226Y-11221D01*
X21094Y-11092D01*
X20959Y-10968D01*
X20823Y-10847D01*
X20683Y-10731D01*
X20542Y-10619D01*
X20398Y-10510D01*
X20252Y-10406D01*
X20105Y-10306D01*
X19956Y-10210D01*
X19804Y-10118D01*
X19651Y-10030D01*
X19496Y-9947D01*
X19340Y-9867D01*
X19182Y-9791D01*
X19040Y-9728D01*
X19413Y-9782D01*
X21948Y-11583D01*
X21956Y-11587D01*
X21972Y-11601D01*
X22042Y-11626D01*
X22072Y-11639D01*
X22082Y-11639D01*
X22101Y-11646D01*
X26872Y-12308D01*
X26872Y-12315D01*
X26909Y-12407D01*
X26980Y-12477D01*
X27072Y-12516D01*
X27171Y-12516D01*
X27722Y-12516D01*
X27814Y-12478D01*
X27885Y-12407D01*
X27923Y-12316D01*
X27923Y-12216D01*
X27923Y-11744D01*
X27911Y-11715D01*
X27923Y-11686D01*
X27923Y-11586D01*
X27923Y-11114D01*
X27911Y-11085D01*
X27923Y-11056D01*
X27923Y-10956D01*
X27923Y-10600D01*
X28200Y-10600D01*
X28333Y-10573D01*
X28333Y-10573D01*
X28447Y-10497D01*
X28847Y-10097D01*
X28847Y-10097D01*
X28847Y-10097D01*
X28923Y-9983D01*
X28949Y-9850D01*
X28950Y-9850D01*
X28950Y-9700D01*
X29137Y-9700D01*
X29200Y-9637D01*
X29200Y-9100D01*
X29192Y-9100D01*
X29192Y-9000D01*
X29200Y-9000D01*
X29200Y-8462D01*
X29187Y-8450D01*
X29200Y-8437D01*
X29200Y-7900D01*
X29192Y-7900D01*
X29192Y-7800D01*
X29200Y-7800D01*
X29200Y-7287D01*
X29200Y-7262D01*
X29200Y-6750D01*
X29192Y-6750D01*
X29192Y-6650D01*
X29200Y-6650D01*
X29200Y-6642D01*
X29300Y-6642D01*
X29300Y-6650D01*
X29737Y-6650D01*
X29800Y-6587D01*
X29800Y-6395D01*
X30520Y-7115D01*
X30441Y-7538D01*
X30461Y-7635D01*
X30517Y-7717D01*
X30601Y-7772D01*
X30698Y-7790D01*
X31239Y-7891D01*
X31336Y-7871D01*
X31418Y-7815D01*
X31473Y-7732D01*
X31490Y-7641D01*
X31554Y-7797D01*
X31602Y-7844D01*
G54D10*
G36*
X34734Y-6810D02*
X34175Y-9130D01*
X34029Y-9093D01*
X33977Y-9087D01*
X33922Y-9094D01*
X33871Y-9113D01*
X33825Y-9141D01*
X33785Y-9178D01*
X33755Y-9224D01*
X33736Y-9273D01*
X32356Y-15015D01*
X32351Y-15068D01*
X32358Y-15122D01*
X32376Y-15173D01*
X32405Y-15220D01*
X32442Y-15259D01*
X32488Y-15290D01*
X32537Y-15308D01*
X32679Y-15342D01*
X31332Y-20942D01*
X31326Y-20995D01*
X31333Y-21049D01*
X31352Y-21101D01*
X31381Y-21146D01*
X31418Y-21186D01*
X31464Y-21217D01*
X31513Y-21235D01*
X31661Y-21269D01*
X30396Y-26526D01*
X30248Y-26492D01*
X30195Y-26486D01*
X30141Y-26493D01*
X30089Y-26512D01*
X30044Y-26540D01*
X30004Y-26578D01*
X29973Y-26623D01*
X29955Y-26672D01*
X29593Y-28179D01*
X29593Y-27318D01*
X29586Y-26980D01*
X29525Y-26831D01*
X29525Y-26099D01*
X29525Y-25987D01*
X29462Y-25925D01*
X29050Y-25925D01*
X29050Y-26237D01*
X29112Y-26300D01*
X29225Y-26300D01*
X29324Y-26299D01*
X29416Y-26261D01*
X29487Y-26191D01*
X29525Y-26099D01*
X29525Y-26831D01*
X29469Y-26697D01*
X29343Y-26633D01*
X29272Y-26703D01*
X29272Y-26562D01*
X29208Y-26435D01*
X28950Y-26334D01*
X28950Y-26237D01*
X28950Y-25925D01*
X28537Y-25925D01*
X28475Y-25987D01*
X28474Y-26099D01*
X28512Y-26191D01*
X28583Y-26261D01*
X28675Y-26299D01*
X28774Y-26300D01*
X28887Y-26300D01*
X28950Y-26237D01*
X28950Y-26334D01*
X28893Y-26312D01*
X28555Y-26318D01*
X28272Y-26435D01*
X28207Y-26562D01*
X28740Y-27094D01*
X29272Y-26562D01*
X29272Y-26703D01*
X28810Y-27165D01*
X29343Y-27697D01*
X29469Y-27633D01*
X29593Y-27318D01*
X29593Y-28179D01*
X29292Y-29430D01*
X29272Y-29435D01*
X29272Y-27768D01*
X28740Y-27236D01*
X28669Y-27306D01*
X28669Y-27165D01*
X28137Y-26633D01*
X28010Y-26697D01*
X27887Y-27011D01*
X27893Y-27350D01*
X28010Y-27633D01*
X28137Y-27697D01*
X28669Y-27165D01*
X28669Y-27306D01*
X28207Y-27768D01*
X28272Y-27894D01*
X28586Y-28018D01*
X28924Y-28012D01*
X29208Y-27894D01*
X29272Y-27768D01*
X29272Y-29435D01*
X28015Y-29731D01*
X28015Y-28571D01*
X27886Y-28259D01*
X27647Y-28019D01*
X27335Y-27890D01*
X26997Y-27890D01*
X26684Y-28019D01*
X26445Y-28258D01*
X26315Y-28570D01*
X26315Y-28908D01*
X26444Y-29221D01*
X26683Y-29460D01*
X26995Y-29590D01*
X27333Y-29590D01*
X27646Y-29461D01*
X27885Y-29222D01*
X28015Y-28909D01*
X28015Y-28571D01*
X28015Y-29731D01*
X26821Y-30012D01*
X26787Y-29867D01*
X26769Y-29817D01*
X26738Y-29772D01*
X26699Y-29734D01*
X26652Y-29706D01*
X26601Y-29688D01*
X26547Y-29681D01*
X26495Y-29686D01*
X23318Y-30435D01*
X20745Y-31042D01*
X20696Y-31060D01*
X20652Y-31090D01*
X20615Y-31129D01*
X20586Y-31174D01*
X20567Y-31225D01*
X20560Y-31278D01*
X20565Y-31330D01*
X20599Y-31480D01*
X14995Y-32799D01*
X14946Y-32817D01*
X14902Y-32847D01*
X14865Y-32886D01*
X14836Y-32931D01*
X14817Y-32982D01*
X14810Y-33035D01*
X14815Y-33087D01*
X14849Y-33237D01*
X9584Y-34478D01*
X9547Y-34332D01*
X9529Y-34283D01*
X9498Y-34237D01*
X9459Y-34200D01*
X9413Y-34171D01*
X9362Y-34153D01*
X9307Y-34146D01*
X9255Y-34152D01*
X6643Y-34769D01*
X5665Y-29449D01*
X5814Y-29420D01*
X5863Y-29404D01*
X5910Y-29376D01*
X5949Y-29338D01*
X5979Y-29295D01*
X6000Y-29245D01*
X6010Y-29192D01*
X6008Y-29139D01*
X4937Y-23321D01*
X4921Y-23271D01*
X4893Y-23224D01*
X4856Y-23186D01*
X4812Y-23155D01*
X4762Y-23134D01*
X4709Y-23124D01*
X4657Y-23127D01*
X4509Y-23153D01*
X2378Y-11577D01*
X2362Y-11528D01*
X2334Y-11481D01*
X2297Y-11443D01*
X2253Y-11412D01*
X2203Y-11391D01*
X2150Y-11381D01*
X2098Y-11384D01*
X1949Y-11413D01*
X967Y-6074D01*
X1116Y-6044D01*
X1166Y-6029D01*
X1212Y-6000D01*
X1251Y-5963D01*
X1281Y-5919D01*
X1302Y-5870D01*
X1312Y-5817D01*
X1309Y-5764D01*
X931Y-3708D01*
X1092Y-3869D01*
X1404Y-3999D01*
X1743Y-3999D01*
X2055Y-3870D01*
X2294Y-3631D01*
X2424Y-3319D01*
X2424Y-2981D01*
X2295Y-2668D01*
X2056Y-2429D01*
X1744Y-2299D01*
X1406Y-2299D01*
X1093Y-2428D01*
X854Y-2667D01*
X775Y-2858D01*
X305Y-305D01*
X2832Y-783D01*
X2681Y-845D01*
X2617Y-971D01*
X3149Y-1504D01*
X3681Y-971D01*
X3665Y-940D01*
X5441Y-1276D01*
X5412Y-1431D01*
X5409Y-1483D01*
X5419Y-1537D01*
X5440Y-1586D01*
X5470Y-1630D01*
X5510Y-1667D01*
X5556Y-1695D01*
X5605Y-1711D01*
X11424Y-2809D01*
X11477Y-2812D01*
X11530Y-2802D01*
X11579Y-2781D01*
X11623Y-2751D01*
X11660Y-2712D01*
X11688Y-2666D01*
X11704Y-2616D01*
X11734Y-2461D01*
X23299Y-4650D01*
X23351Y-4652D01*
X23405Y-4643D01*
X23454Y-4621D01*
X23498Y-4591D01*
X23535Y-4552D01*
X23563Y-4506D01*
X23579Y-4456D01*
X23606Y-4304D01*
X28937Y-5314D01*
X28908Y-5462D01*
X28906Y-5515D01*
X28916Y-5568D01*
X28929Y-5600D01*
X28850Y-5600D01*
X28716Y-5626D01*
X28602Y-5702D01*
X28602Y-5702D01*
X28352Y-5952D01*
X28287Y-6050D01*
X28200Y-6049D01*
X27600Y-6049D01*
X27508Y-6087D01*
X27438Y-6158D01*
X27400Y-6250D01*
X27399Y-6349D01*
X27399Y-6481D01*
X27324Y-6450D01*
X27225Y-6449D01*
X27162Y-6450D01*
X27100Y-6512D01*
X27100Y-6750D01*
X27107Y-6750D01*
X27107Y-6850D01*
X27100Y-6850D01*
X27100Y-6857D01*
X27000Y-6857D01*
X27000Y-6850D01*
X26992Y-6850D01*
X26992Y-6750D01*
X27000Y-6750D01*
X27000Y-6512D01*
X26937Y-6450D01*
X26874Y-6449D01*
X26775Y-6450D01*
X26683Y-6488D01*
X26612Y-6558D01*
X26591Y-6609D01*
X26589Y-6598D01*
X26586Y-6555D01*
X26577Y-6539D01*
X26573Y-6516D01*
X26543Y-6471D01*
X26524Y-6433D01*
X25831Y-5553D01*
X25801Y-5527D01*
X25754Y-5479D01*
X25736Y-5471D01*
X25727Y-5464D01*
X25692Y-5452D01*
X25628Y-5425D01*
X20322Y-4307D01*
X20316Y-4307D01*
X20296Y-4300D01*
X7725Y-2623D01*
X7702Y-2624D01*
X7679Y-2620D01*
X7635Y-2629D01*
X7589Y-2632D01*
X7568Y-2642D01*
X7545Y-2646D01*
X7507Y-2672D01*
X7467Y-2692D01*
X7451Y-2709D01*
X7432Y-2722D01*
X5250Y-4905D01*
X5250Y-3601D01*
X5260Y-3591D01*
X5324Y-3434D01*
X5325Y-3265D01*
X5260Y-3109D01*
X5141Y-2989D01*
X4984Y-2925D01*
X4815Y-2924D01*
X4659Y-2989D01*
X4539Y-3108D01*
X4475Y-3265D01*
X4474Y-3434D01*
X4539Y-3590D01*
X4550Y-3600D01*
X4550Y-3649D01*
X4441Y-3539D01*
X4284Y-3475D01*
X4115Y-3474D01*
X4002Y-3521D01*
X4002Y-1728D01*
X3996Y-1390D01*
X3878Y-1106D01*
X3752Y-1042D01*
X3220Y-1574D01*
X3752Y-2106D01*
X3878Y-2042D01*
X4002Y-1728D01*
X4002Y-3521D01*
X3959Y-3539D01*
X3839Y-3658D01*
X3775Y-3815D01*
X3774Y-3984D01*
X3839Y-4140D01*
X3900Y-4201D01*
X3900Y-4749D01*
X3791Y-4639D01*
X3681Y-4594D01*
X3681Y-2177D01*
X3149Y-1645D01*
X3078Y-1716D01*
X3078Y-1574D01*
X2546Y-1042D01*
X2420Y-1106D01*
X2296Y-1421D01*
X2302Y-1759D01*
X2420Y-2042D01*
X2546Y-2106D01*
X3078Y-1574D01*
X3078Y-1716D01*
X2617Y-2177D01*
X2681Y-2304D01*
X2996Y-2427D01*
X3334Y-2421D01*
X3617Y-2304D01*
X3681Y-2177D01*
X3681Y-4594D01*
X3634Y-4575D01*
X3465Y-4574D01*
X3309Y-4639D01*
X3189Y-4758D01*
X3125Y-4915D01*
X3124Y-5084D01*
X3189Y-5240D01*
X3200Y-5250D01*
X3200Y-6150D01*
X3226Y-6283D01*
X3302Y-6397D01*
X4002Y-7097D01*
X4002Y-7097D01*
X4116Y-7173D01*
X4249Y-7200D01*
X4249Y-7199D01*
X4250Y-7200D01*
X4425Y-7200D01*
X4425Y-7200D01*
X4424Y-7299D01*
X4424Y-7499D01*
X4430Y-7513D01*
X4366Y-7526D01*
X4252Y-7602D01*
X3702Y-8152D01*
X3626Y-8266D01*
X3600Y-8400D01*
X3600Y-9250D01*
X3626Y-9383D01*
X3702Y-9497D01*
X5550Y-11344D01*
X5550Y-19750D01*
X5576Y-19883D01*
X5652Y-19997D01*
X8504Y-22849D01*
X8000Y-22849D01*
X7908Y-22887D01*
X7838Y-22958D01*
X7800Y-23050D01*
X7799Y-23149D01*
X7799Y-23949D01*
X7837Y-24041D01*
X7896Y-24100D01*
X7838Y-24158D01*
X7800Y-24250D01*
X7799Y-24349D01*
X7799Y-25149D01*
X7837Y-25241D01*
X7896Y-25300D01*
X7838Y-25358D01*
X7800Y-25450D01*
X7799Y-25549D01*
X7799Y-26349D01*
X7837Y-26441D01*
X7908Y-26511D01*
X8000Y-26549D01*
X8099Y-26550D01*
X8699Y-26550D01*
X8791Y-26512D01*
X8861Y-26441D01*
X8899Y-26349D01*
X8900Y-26250D01*
X8900Y-25844D01*
X9141Y-25603D01*
X9187Y-25650D01*
X9550Y-25650D01*
X9550Y-25642D01*
X9650Y-25642D01*
X9650Y-25650D01*
X10012Y-25650D01*
X10075Y-25587D01*
X10075Y-25550D01*
X10037Y-25458D01*
X10028Y-25450D01*
X10036Y-25441D01*
X10074Y-25349D01*
X10075Y-25250D01*
X10075Y-25050D01*
X10037Y-24958D01*
X10028Y-24950D01*
X10036Y-24941D01*
X10074Y-24849D01*
X10075Y-24750D01*
X10075Y-24550D01*
X10037Y-24458D01*
X10028Y-24450D01*
X10036Y-24441D01*
X10074Y-24349D01*
X10075Y-24250D01*
X10075Y-24108D01*
X10115Y-24124D01*
X10129Y-24124D01*
X10384Y-24379D01*
X10359Y-24389D01*
X10239Y-24508D01*
X10175Y-24665D01*
X10174Y-24834D01*
X10239Y-24990D01*
X10358Y-25110D01*
X10515Y-25174D01*
X10529Y-25174D01*
X10676Y-25321D01*
X10639Y-25358D01*
X10575Y-25515D01*
X10574Y-25684D01*
X10639Y-25840D01*
X10758Y-25960D01*
X10915Y-26024D01*
X10974Y-26024D01*
X11100Y-26050D01*
X11475Y-26050D01*
X11524Y-26050D01*
X11974Y-26050D01*
X12000Y-26039D01*
X12000Y-26500D01*
X12026Y-26633D01*
X12102Y-26747D01*
X12352Y-26997D01*
X12352Y-26997D01*
X12403Y-27031D01*
X12403Y-27031D01*
X12375Y-27100D01*
X12374Y-27199D01*
X12374Y-27329D01*
X11950Y-26905D01*
X11950Y-26600D01*
X11912Y-26508D01*
X11841Y-26438D01*
X11749Y-26400D01*
X11650Y-26399D01*
X11050Y-26399D01*
X10958Y-26437D01*
X10888Y-26508D01*
X10850Y-26600D01*
X10849Y-26699D01*
X10849Y-27499D01*
X10887Y-27591D01*
X10946Y-27650D01*
X10888Y-27708D01*
X10850Y-27800D01*
X10849Y-27899D01*
X10849Y-28699D01*
X10887Y-28791D01*
X10946Y-28850D01*
X10888Y-28908D01*
X10850Y-29000D01*
X10849Y-29099D01*
X10849Y-29899D01*
X10887Y-29991D01*
X10958Y-30061D01*
X11050Y-30099D01*
X11149Y-30100D01*
X11749Y-30100D01*
X11841Y-30062D01*
X11911Y-29991D01*
X11949Y-29899D01*
X11950Y-29800D01*
X11950Y-29544D01*
X12374Y-29119D01*
X12375Y-29137D01*
X12437Y-29200D01*
X12800Y-29200D01*
X12800Y-29192D01*
X12900Y-29192D01*
X12900Y-29200D01*
X12907Y-29200D01*
X12907Y-29300D01*
X12900Y-29300D01*
X12900Y-29307D01*
X12800Y-29307D01*
X12800Y-29300D01*
X12437Y-29300D01*
X12375Y-29362D01*
X12374Y-29399D01*
X12412Y-29491D01*
X12483Y-29561D01*
X12575Y-29599D01*
X12654Y-29600D01*
X11587Y-30667D01*
X10650Y-30667D01*
X10650Y-29800D01*
X10650Y-29099D01*
X10649Y-29000D01*
X10611Y-28908D01*
X10553Y-28850D01*
X10611Y-28791D01*
X10649Y-28699D01*
X10650Y-28600D01*
X10650Y-27899D01*
X10649Y-27800D01*
X10611Y-27708D01*
X10553Y-27650D01*
X10611Y-27591D01*
X10649Y-27499D01*
X10650Y-27400D01*
X10650Y-26699D01*
X10649Y-26600D01*
X10611Y-26508D01*
X10541Y-26437D01*
X10449Y-26399D01*
X10212Y-26400D01*
X10150Y-26462D01*
X10150Y-27000D01*
X10587Y-27000D01*
X10650Y-26937D01*
X10650Y-26699D01*
X10650Y-27400D01*
X10650Y-27162D01*
X10587Y-27100D01*
X10150Y-27100D01*
X10150Y-27637D01*
X10162Y-27650D01*
X10150Y-27662D01*
X10150Y-28200D01*
X10587Y-28200D01*
X10650Y-28137D01*
X10650Y-27899D01*
X10650Y-28600D01*
X10650Y-28362D01*
X10587Y-28300D01*
X10150Y-28300D01*
X10150Y-28837D01*
X10162Y-28850D01*
X10150Y-28862D01*
X10150Y-29400D01*
X10587Y-29400D01*
X10650Y-29337D01*
X10650Y-29099D01*
X10650Y-29800D01*
X10650Y-29562D01*
X10587Y-29500D01*
X10150Y-29500D01*
X10150Y-30037D01*
X10212Y-30100D01*
X10449Y-30100D01*
X10541Y-30062D01*
X10611Y-29991D01*
X10649Y-29899D01*
X10650Y-29800D01*
X10650Y-30667D01*
X10075Y-30667D01*
X10075Y-25849D01*
X10075Y-25812D01*
X10012Y-25750D01*
X9650Y-25750D01*
X9650Y-25987D01*
X9712Y-26050D01*
X9775Y-26050D01*
X9874Y-26049D01*
X9966Y-26011D01*
X10037Y-25941D01*
X10075Y-25849D01*
X10075Y-30667D01*
X10050Y-30667D01*
X10050Y-30037D01*
X10050Y-29500D01*
X10050Y-29400D01*
X10050Y-28862D01*
X10037Y-28850D01*
X10050Y-28837D01*
X10050Y-28300D01*
X10050Y-28200D01*
X10050Y-27662D01*
X10037Y-27650D01*
X10050Y-27637D01*
X10050Y-27100D01*
X10050Y-27000D01*
X10050Y-26462D01*
X9987Y-26400D01*
X9750Y-26399D01*
X9658Y-26437D01*
X9588Y-26508D01*
X9550Y-26600D01*
X9550Y-26650D01*
X9550Y-25987D01*
X9550Y-25750D01*
X9187Y-25750D01*
X9125Y-25812D01*
X9124Y-25849D01*
X9162Y-25941D01*
X9233Y-26011D01*
X9325Y-26049D01*
X9424Y-26050D01*
X9487Y-26050D01*
X9550Y-25987D01*
X9550Y-26650D01*
X9549Y-26699D01*
X9550Y-26937D01*
X9612Y-27000D01*
X10050Y-27000D01*
X10050Y-27100D01*
X9612Y-27100D01*
X9550Y-27162D01*
X9549Y-27400D01*
X9550Y-27499D01*
X9588Y-27591D01*
X9646Y-27650D01*
X9588Y-27708D01*
X9550Y-27800D01*
X9549Y-27899D01*
X9550Y-28137D01*
X9612Y-28200D01*
X10050Y-28200D01*
X10050Y-28300D01*
X9612Y-28300D01*
X9550Y-28362D01*
X9549Y-28600D01*
X9550Y-28699D01*
X9588Y-28791D01*
X9646Y-28850D01*
X9588Y-28908D01*
X9550Y-29000D01*
X9549Y-29099D01*
X9550Y-29337D01*
X9612Y-29400D01*
X10050Y-29400D01*
X10050Y-29500D01*
X9612Y-29500D01*
X9550Y-29562D01*
X9549Y-29800D01*
X9550Y-29899D01*
X9588Y-29991D01*
X9658Y-30062D01*
X9750Y-30100D01*
X9987Y-30100D01*
X10050Y-30037D01*
X10050Y-30667D01*
X7784Y-30667D01*
X7772Y-30601D01*
X7718Y-30518D01*
X7636Y-30461D01*
X7600Y-30454D01*
X7600Y-26250D01*
X7600Y-25549D01*
X7599Y-25450D01*
X7561Y-25358D01*
X7503Y-25300D01*
X7561Y-25241D01*
X7599Y-25149D01*
X7600Y-25050D01*
X7600Y-24349D01*
X7599Y-24250D01*
X7561Y-24158D01*
X7503Y-24100D01*
X7561Y-24041D01*
X7599Y-23949D01*
X7600Y-23850D01*
X7600Y-23149D01*
X7599Y-23050D01*
X7561Y-22958D01*
X7491Y-22887D01*
X7399Y-22849D01*
X7162Y-22850D01*
X7100Y-22912D01*
X7100Y-23450D01*
X7537Y-23450D01*
X7600Y-23387D01*
X7600Y-23149D01*
X7600Y-23850D01*
X7600Y-23612D01*
X7537Y-23550D01*
X7100Y-23550D01*
X7100Y-24087D01*
X7112Y-24100D01*
X7100Y-24112D01*
X7100Y-24650D01*
X7537Y-24650D01*
X7600Y-24587D01*
X7600Y-24349D01*
X7600Y-25050D01*
X7600Y-24812D01*
X7537Y-24750D01*
X7100Y-24750D01*
X7100Y-25287D01*
X7112Y-25300D01*
X7100Y-25312D01*
X7100Y-25850D01*
X7537Y-25850D01*
X7600Y-25787D01*
X7600Y-25549D01*
X7600Y-26250D01*
X7600Y-26012D01*
X7537Y-25950D01*
X7100Y-25950D01*
X7100Y-26487D01*
X7162Y-26550D01*
X7399Y-26550D01*
X7491Y-26512D01*
X7561Y-26441D01*
X7599Y-26349D01*
X7600Y-26250D01*
X7600Y-30454D01*
X7538Y-30441D01*
X7441Y-30459D01*
X7000Y-30542D01*
X7000Y-26487D01*
X7000Y-25950D01*
X7000Y-25850D01*
X7000Y-25312D01*
X6987Y-25300D01*
X7000Y-25287D01*
X7000Y-24750D01*
X7000Y-24650D01*
X7000Y-24112D01*
X6987Y-24100D01*
X7000Y-24087D01*
X7000Y-23550D01*
X7000Y-23450D01*
X7000Y-22912D01*
X6937Y-22850D01*
X6700Y-22849D01*
X6608Y-22887D01*
X6538Y-22958D01*
X6500Y-23050D01*
X6499Y-23149D01*
X6500Y-23387D01*
X6562Y-23450D01*
X7000Y-23450D01*
X7000Y-23550D01*
X6562Y-23550D01*
X6500Y-23612D01*
X6499Y-23850D01*
X6500Y-23949D01*
X6538Y-24041D01*
X6596Y-24100D01*
X6538Y-24158D01*
X6500Y-24250D01*
X6499Y-24349D01*
X6500Y-24587D01*
X6562Y-24650D01*
X7000Y-24650D01*
X7000Y-24750D01*
X6562Y-24750D01*
X6500Y-24812D01*
X6499Y-25050D01*
X6500Y-25149D01*
X6538Y-25241D01*
X6596Y-25300D01*
X6538Y-25358D01*
X6500Y-25450D01*
X6499Y-25549D01*
X6500Y-25787D01*
X6562Y-25850D01*
X7000Y-25850D01*
X7000Y-25950D01*
X6562Y-25950D01*
X6500Y-26012D01*
X6499Y-26250D01*
X6500Y-26349D01*
X6538Y-26441D01*
X6608Y-26512D01*
X6700Y-26550D01*
X6937Y-26550D01*
X7000Y-26487D01*
X7000Y-30542D01*
X6900Y-30560D01*
X6817Y-30614D01*
X6760Y-30696D01*
X6740Y-30794D01*
X6758Y-30892D01*
X6859Y-31432D01*
X6913Y-31515D01*
X6995Y-31572D01*
X7093Y-31592D01*
X7181Y-31576D01*
X7055Y-31702D01*
X6975Y-31895D01*
X6974Y-32103D01*
X7054Y-32297D01*
X7202Y-32444D01*
X7395Y-32524D01*
X7417Y-32524D01*
X7386Y-32537D01*
X7239Y-32685D01*
X7159Y-32878D01*
X7158Y-33086D01*
X7238Y-33279D01*
X7386Y-33427D01*
X7579Y-33507D01*
X7787Y-33508D01*
X7980Y-33428D01*
X8076Y-33332D01*
X10867Y-33332D01*
X11001Y-33306D01*
X11001Y-33306D01*
X11114Y-33230D01*
X14647Y-29697D01*
X14712Y-29599D01*
X14774Y-29600D01*
X15224Y-29600D01*
X15224Y-29600D01*
X17150Y-29600D01*
X17283Y-29573D01*
X17283Y-29573D01*
X17397Y-29497D01*
X18244Y-28650D01*
X21050Y-28650D01*
X21183Y-28623D01*
X21183Y-28623D01*
X21297Y-28547D01*
X22177Y-27667D01*
X22253Y-27554D01*
X22279Y-27420D01*
X22279Y-27401D01*
X22307Y-27390D01*
X22377Y-27319D01*
X22416Y-27227D01*
X22416Y-27128D01*
X22416Y-26577D01*
X22378Y-26485D01*
X22307Y-26414D01*
X22216Y-26376D01*
X22116Y-26376D01*
X21644Y-26376D01*
X21615Y-26388D01*
X21586Y-26376D01*
X21486Y-26376D01*
X21014Y-26376D01*
X20985Y-26388D01*
X20956Y-26376D01*
X20856Y-26376D01*
X20384Y-26376D01*
X20292Y-26414D01*
X20222Y-26484D01*
X20194Y-26552D01*
X18247Y-26552D01*
X18113Y-26579D01*
X18000Y-26654D01*
X16755Y-27900D01*
X15424Y-27900D01*
X15424Y-27899D01*
X15425Y-27800D01*
X15425Y-27600D01*
X15387Y-27508D01*
X15378Y-27500D01*
X15386Y-27491D01*
X15424Y-27399D01*
X15425Y-27300D01*
X15425Y-27100D01*
X15387Y-27008D01*
X15378Y-27000D01*
X15386Y-26991D01*
X15424Y-26899D01*
X15425Y-26800D01*
X15425Y-26600D01*
X15387Y-26508D01*
X15384Y-26506D01*
X15397Y-26497D01*
X15619Y-26275D01*
X23175Y-26275D01*
X23308Y-26248D01*
X23308Y-26248D01*
X23318Y-26241D01*
X23318Y-26241D01*
X23422Y-26172D01*
X26094Y-23500D01*
X27575Y-23500D01*
X27574Y-23634D01*
X27639Y-23790D01*
X27650Y-23800D01*
X27650Y-23875D01*
X27649Y-23875D01*
X27550Y-23874D01*
X27350Y-23874D01*
X27258Y-23912D01*
X27250Y-23921D01*
X27241Y-23913D01*
X27149Y-23875D01*
X27050Y-23874D01*
X26850Y-23874D01*
X26758Y-23912D01*
X26750Y-23921D01*
X26741Y-23913D01*
X26649Y-23875D01*
X26550Y-23874D01*
X26350Y-23874D01*
X26258Y-23912D01*
X26250Y-23921D01*
X26241Y-23913D01*
X26149Y-23875D01*
X26050Y-23874D01*
X25850Y-23874D01*
X25758Y-23912D01*
X25688Y-23983D01*
X25650Y-24075D01*
X25649Y-24174D01*
X25649Y-24455D01*
X24652Y-25452D01*
X24576Y-25566D01*
X24550Y-25700D01*
X24550Y-28000D01*
X24550Y-28050D01*
X24576Y-28183D01*
X24652Y-28297D01*
X25024Y-28669D01*
X25024Y-28684D01*
X25089Y-28840D01*
X25208Y-28960D01*
X25365Y-29024D01*
X25534Y-29025D01*
X25690Y-28960D01*
X25810Y-28841D01*
X25874Y-28684D01*
X25875Y-28515D01*
X25810Y-28359D01*
X25691Y-28239D01*
X25534Y-28175D01*
X25520Y-28175D01*
X25319Y-27974D01*
X25484Y-27975D01*
X25640Y-27910D01*
X25760Y-27791D01*
X25824Y-27634D01*
X25825Y-27465D01*
X25760Y-27309D01*
X25750Y-27299D01*
X25750Y-26900D01*
X25858Y-27010D01*
X26015Y-27074D01*
X26184Y-27075D01*
X26340Y-27010D01*
X26460Y-26891D01*
X26524Y-26734D01*
X26525Y-26565D01*
X26460Y-26409D01*
X26450Y-26399D01*
X26450Y-26044D01*
X27247Y-25247D01*
X27323Y-25133D01*
X27323Y-25133D01*
X27350Y-25000D01*
X27350Y-24824D01*
X27350Y-24824D01*
X27449Y-24825D01*
X27649Y-24825D01*
X27741Y-24787D01*
X27749Y-24778D01*
X27758Y-24786D01*
X27850Y-24824D01*
X27949Y-24825D01*
X28149Y-24825D01*
X28241Y-24787D01*
X28249Y-24778D01*
X28258Y-24786D01*
X28350Y-24824D01*
X28449Y-24825D01*
X28506Y-24825D01*
X28475Y-24900D01*
X28474Y-24999D01*
X28474Y-25349D01*
X28512Y-25441D01*
X28571Y-25500D01*
X28512Y-25558D01*
X28474Y-25650D01*
X28475Y-25762D01*
X28537Y-25825D01*
X28950Y-25825D01*
X28950Y-25817D01*
X29050Y-25817D01*
X29050Y-25825D01*
X29462Y-25825D01*
X29525Y-25762D01*
X29525Y-25650D01*
X29487Y-25558D01*
X29428Y-25499D01*
X29486Y-25441D01*
X29524Y-25349D01*
X29525Y-25250D01*
X29525Y-24900D01*
X29487Y-24808D01*
X29416Y-24738D01*
X29350Y-24710D01*
X29350Y-24574D01*
X29350Y-24525D01*
X29350Y-24244D01*
X29569Y-24025D01*
X29584Y-24025D01*
X29740Y-23960D01*
X29860Y-23841D01*
X29924Y-23684D01*
X29925Y-23515D01*
X29860Y-23359D01*
X29741Y-23239D01*
X29584Y-23175D01*
X29456Y-23174D01*
X29497Y-23147D01*
X29697Y-22947D01*
X29773Y-22833D01*
X29800Y-22700D01*
X29800Y-22296D01*
X32221Y-13385D01*
X32233Y-13355D01*
X33246Y-8143D01*
X33279Y-8129D01*
X33427Y-7981D01*
X33507Y-7788D01*
X33508Y-7579D01*
X33428Y-7386D01*
X33280Y-7239D01*
X33087Y-7159D01*
X32878Y-7158D01*
X32685Y-7238D01*
X32538Y-7386D01*
X32525Y-7417D01*
X32525Y-7396D01*
X32445Y-7203D01*
X32297Y-7055D01*
X32104Y-6975D01*
X31896Y-6974D01*
X31703Y-7054D01*
X31576Y-7180D01*
X31592Y-7093D01*
X31572Y-6996D01*
X31516Y-6914D01*
X31433Y-6859D01*
X31335Y-6841D01*
X31213Y-6818D01*
X30380Y-5985D01*
X34734Y-6810D01*
X34734Y-6810D01*
G37*
G54D24*
X34734Y-6810D02*
X34175Y-9130D01*
X34029Y-9093D01*
X33977Y-9087D01*
X33922Y-9094D01*
X33871Y-9113D01*
X33825Y-9141D01*
X33785Y-9178D01*
X33755Y-9224D01*
X33736Y-9273D01*
X32356Y-15015D01*
X32351Y-15068D01*
X32358Y-15122D01*
X32376Y-15173D01*
X32405Y-15220D01*
X32442Y-15259D01*
X32488Y-15290D01*
X32537Y-15308D01*
X32679Y-15342D01*
X31332Y-20942D01*
X31326Y-20995D01*
X31333Y-21049D01*
X31352Y-21101D01*
X31381Y-21146D01*
X31418Y-21186D01*
X31464Y-21217D01*
X31513Y-21235D01*
X31661Y-21269D01*
X30396Y-26526D01*
X30248Y-26492D01*
X30195Y-26486D01*
X30141Y-26493D01*
X30089Y-26512D01*
X30044Y-26540D01*
X30004Y-26578D01*
X29973Y-26623D01*
X29955Y-26672D01*
X29593Y-28179D01*
X29593Y-27318D01*
X29586Y-26980D01*
X29525Y-26831D01*
X29525Y-26099D01*
X29525Y-25987D01*
X29462Y-25925D01*
X29050Y-25925D01*
X29050Y-26237D01*
X29112Y-26300D01*
X29225Y-26300D01*
X29324Y-26299D01*
X29416Y-26261D01*
X29487Y-26191D01*
X29525Y-26099D01*
X29525Y-26831D01*
X29469Y-26697D01*
X29343Y-26633D01*
X29272Y-26703D01*
X29272Y-26562D01*
X29208Y-26435D01*
X28950Y-26334D01*
X28950Y-26237D01*
X28950Y-25925D01*
X28537Y-25925D01*
X28475Y-25987D01*
X28474Y-26099D01*
X28512Y-26191D01*
X28583Y-26261D01*
X28675Y-26299D01*
X28774Y-26300D01*
X28887Y-26300D01*
X28950Y-26237D01*
X28950Y-26334D01*
X28893Y-26312D01*
X28555Y-26318D01*
X28272Y-26435D01*
X28207Y-26562D01*
X28740Y-27094D01*
X29272Y-26562D01*
X29272Y-26703D01*
X28810Y-27165D01*
X29343Y-27697D01*
X29469Y-27633D01*
X29593Y-27318D01*
X29593Y-28179D01*
X29292Y-29430D01*
X29272Y-29435D01*
X29272Y-27768D01*
X28740Y-27236D01*
X28669Y-27306D01*
X28669Y-27165D01*
X28137Y-26633D01*
X28010Y-26697D01*
X27887Y-27011D01*
X27893Y-27350D01*
X28010Y-27633D01*
X28137Y-27697D01*
X28669Y-27165D01*
X28669Y-27306D01*
X28207Y-27768D01*
X28272Y-27894D01*
X28586Y-28018D01*
X28924Y-28012D01*
X29208Y-27894D01*
X29272Y-27768D01*
X29272Y-29435D01*
X28015Y-29731D01*
X28015Y-28571D01*
X27886Y-28259D01*
X27647Y-28019D01*
X27335Y-27890D01*
X26997Y-27890D01*
X26684Y-28019D01*
X26445Y-28258D01*
X26315Y-28570D01*
X26315Y-28908D01*
X26444Y-29221D01*
X26683Y-29460D01*
X26995Y-29590D01*
X27333Y-29590D01*
X27646Y-29461D01*
X27885Y-29222D01*
X28015Y-28909D01*
X28015Y-28571D01*
X28015Y-29731D01*
X26821Y-30012D01*
X26787Y-29867D01*
X26769Y-29817D01*
X26738Y-29772D01*
X26699Y-29734D01*
X26652Y-29706D01*
X26601Y-29688D01*
X26547Y-29681D01*
X26495Y-29686D01*
X23318Y-30435D01*
X20745Y-31042D01*
X20696Y-31060D01*
X20652Y-31090D01*
X20615Y-31129D01*
X20586Y-31174D01*
X20567Y-31225D01*
X20560Y-31278D01*
X20565Y-31330D01*
X20599Y-31480D01*
X14995Y-32799D01*
X14946Y-32817D01*
X14902Y-32847D01*
X14865Y-32886D01*
X14836Y-32931D01*
X14817Y-32982D01*
X14810Y-33035D01*
X14815Y-33087D01*
X14849Y-33237D01*
X9584Y-34478D01*
X9547Y-34332D01*
X9529Y-34283D01*
X9498Y-34237D01*
X9459Y-34200D01*
X9413Y-34171D01*
X9362Y-34153D01*
X9307Y-34146D01*
X9255Y-34152D01*
X6643Y-34769D01*
X5665Y-29449D01*
X5814Y-29420D01*
X5863Y-29404D01*
X5910Y-29376D01*
X5949Y-29338D01*
X5979Y-29295D01*
X6000Y-29245D01*
X6010Y-29192D01*
X6008Y-29139D01*
X4937Y-23321D01*
X4921Y-23271D01*
X4893Y-23224D01*
X4856Y-23186D01*
X4812Y-23155D01*
X4762Y-23134D01*
X4709Y-23124D01*
X4657Y-23127D01*
X4509Y-23153D01*
X2378Y-11577D01*
X2362Y-11528D01*
X2334Y-11481D01*
X2297Y-11443D01*
X2253Y-11412D01*
X2203Y-11391D01*
X2150Y-11381D01*
X2098Y-11384D01*
X1949Y-11413D01*
X967Y-6074D01*
X1116Y-6044D01*
X1166Y-6029D01*
X1212Y-6000D01*
X1251Y-5963D01*
X1281Y-5919D01*
X1302Y-5870D01*
X1312Y-5817D01*
X1309Y-5764D01*
X931Y-3708D01*
X1092Y-3869D01*
X1404Y-3999D01*
X1743Y-3999D01*
X2055Y-3870D01*
X2294Y-3631D01*
X2424Y-3319D01*
X2424Y-2981D01*
X2295Y-2668D01*
X2056Y-2429D01*
X1744Y-2299D01*
X1406Y-2299D01*
X1093Y-2428D01*
X854Y-2667D01*
X775Y-2858D01*
X305Y-305D01*
X2832Y-783D01*
X2681Y-845D01*
X2617Y-971D01*
X3149Y-1504D01*
X3681Y-971D01*
X3665Y-940D01*
X5441Y-1276D01*
X5412Y-1431D01*
X5409Y-1483D01*
X5419Y-1537D01*
X5440Y-1586D01*
X5470Y-1630D01*
X5510Y-1667D01*
X5556Y-1695D01*
X5605Y-1711D01*
X11424Y-2809D01*
X11477Y-2812D01*
X11530Y-2802D01*
X11579Y-2781D01*
X11623Y-2751D01*
X11660Y-2712D01*
X11688Y-2666D01*
X11704Y-2616D01*
X11734Y-2461D01*
X23299Y-4650D01*
X23351Y-4652D01*
X23405Y-4643D01*
X23454Y-4621D01*
X23498Y-4591D01*
X23535Y-4552D01*
X23563Y-4506D01*
X23579Y-4456D01*
X23606Y-4304D01*
X28937Y-5314D01*
X28908Y-5462D01*
X28906Y-5515D01*
X28916Y-5568D01*
X28929Y-5600D01*
X28850Y-5600D01*
X28716Y-5626D01*
X28602Y-5702D01*
X28602Y-5702D01*
X28352Y-5952D01*
X28287Y-6050D01*
X28200Y-6049D01*
X27600Y-6049D01*
X27508Y-6087D01*
X27438Y-6158D01*
X27400Y-6250D01*
X27399Y-6349D01*
X27399Y-6481D01*
X27324Y-6450D01*
X27225Y-6449D01*
X27162Y-6450D01*
X27100Y-6512D01*
X27100Y-6750D01*
X27107Y-6750D01*
X27107Y-6850D01*
X27100Y-6850D01*
X27100Y-6857D01*
X27000Y-6857D01*
X27000Y-6850D01*
X26992Y-6850D01*
X26992Y-6750D01*
X27000Y-6750D01*
X27000Y-6512D01*
X26937Y-6450D01*
X26874Y-6449D01*
X26775Y-6450D01*
X26683Y-6488D01*
X26612Y-6558D01*
X26591Y-6609D01*
X26589Y-6598D01*
X26586Y-6555D01*
X26577Y-6539D01*
X26573Y-6516D01*
X26543Y-6471D01*
X26524Y-6433D01*
X25831Y-5553D01*
X25801Y-5527D01*
X25754Y-5479D01*
X25736Y-5471D01*
X25727Y-5464D01*
X25692Y-5452D01*
X25628Y-5425D01*
X20322Y-4307D01*
X20316Y-4307D01*
X20296Y-4300D01*
X7725Y-2623D01*
X7702Y-2624D01*
X7679Y-2620D01*
X7635Y-2629D01*
X7589Y-2632D01*
X7568Y-2642D01*
X7545Y-2646D01*
X7507Y-2672D01*
X7467Y-2692D01*
X7451Y-2709D01*
X7432Y-2722D01*
X5250Y-4905D01*
X5250Y-3601D01*
X5260Y-3591D01*
X5324Y-3434D01*
X5325Y-3265D01*
X5260Y-3109D01*
X5141Y-2989D01*
X4984Y-2925D01*
X4815Y-2924D01*
X4659Y-2989D01*
X4539Y-3108D01*
X4475Y-3265D01*
X4474Y-3434D01*
X4539Y-3590D01*
X4550Y-3600D01*
X4550Y-3649D01*
X4441Y-3539D01*
X4284Y-3475D01*
X4115Y-3474D01*
X4002Y-3521D01*
X4002Y-1728D01*
X3996Y-1390D01*
X3878Y-1106D01*
X3752Y-1042D01*
X3220Y-1574D01*
X3752Y-2106D01*
X3878Y-2042D01*
X4002Y-1728D01*
X4002Y-3521D01*
X3959Y-3539D01*
X3839Y-3658D01*
X3775Y-3815D01*
X3774Y-3984D01*
X3839Y-4140D01*
X3900Y-4201D01*
X3900Y-4749D01*
X3791Y-4639D01*
X3681Y-4594D01*
X3681Y-2177D01*
X3149Y-1645D01*
X3078Y-1716D01*
X3078Y-1574D01*
X2546Y-1042D01*
X2420Y-1106D01*
X2296Y-1421D01*
X2302Y-1759D01*
X2420Y-2042D01*
X2546Y-2106D01*
X3078Y-1574D01*
X3078Y-1716D01*
X2617Y-2177D01*
X2681Y-2304D01*
X2996Y-2427D01*
X3334Y-2421D01*
X3617Y-2304D01*
X3681Y-2177D01*
X3681Y-4594D01*
X3634Y-4575D01*
X3465Y-4574D01*
X3309Y-4639D01*
X3189Y-4758D01*
X3125Y-4915D01*
X3124Y-5084D01*
X3189Y-5240D01*
X3200Y-5250D01*
X3200Y-6150D01*
X3226Y-6283D01*
X3302Y-6397D01*
X4002Y-7097D01*
X4002Y-7097D01*
X4116Y-7173D01*
X4249Y-7200D01*
X4249Y-7199D01*
X4250Y-7200D01*
X4425Y-7200D01*
X4425Y-7200D01*
X4424Y-7299D01*
X4424Y-7499D01*
X4430Y-7513D01*
X4366Y-7526D01*
X4252Y-7602D01*
X3702Y-8152D01*
X3626Y-8266D01*
X3600Y-8400D01*
X3600Y-9250D01*
X3626Y-9383D01*
X3702Y-9497D01*
X5550Y-11344D01*
X5550Y-19750D01*
X5576Y-19883D01*
X5652Y-19997D01*
X8504Y-22849D01*
X8000Y-22849D01*
X7908Y-22887D01*
X7838Y-22958D01*
X7800Y-23050D01*
X7799Y-23149D01*
X7799Y-23949D01*
X7837Y-24041D01*
X7896Y-24100D01*
X7838Y-24158D01*
X7800Y-24250D01*
X7799Y-24349D01*
X7799Y-25149D01*
X7837Y-25241D01*
X7896Y-25300D01*
X7838Y-25358D01*
X7800Y-25450D01*
X7799Y-25549D01*
X7799Y-26349D01*
X7837Y-26441D01*
X7908Y-26511D01*
X8000Y-26549D01*
X8099Y-26550D01*
X8699Y-26550D01*
X8791Y-26512D01*
X8861Y-26441D01*
X8899Y-26349D01*
X8900Y-26250D01*
X8900Y-25844D01*
X9141Y-25603D01*
X9187Y-25650D01*
X9550Y-25650D01*
X9550Y-25642D01*
X9650Y-25642D01*
X9650Y-25650D01*
X10012Y-25650D01*
X10075Y-25587D01*
X10075Y-25550D01*
X10037Y-25458D01*
X10028Y-25450D01*
X10036Y-25441D01*
X10074Y-25349D01*
X10075Y-25250D01*
X10075Y-25050D01*
X10037Y-24958D01*
X10028Y-24950D01*
X10036Y-24941D01*
X10074Y-24849D01*
X10075Y-24750D01*
X10075Y-24550D01*
X10037Y-24458D01*
X10028Y-24450D01*
X10036Y-24441D01*
X10074Y-24349D01*
X10075Y-24250D01*
X10075Y-24108D01*
X10115Y-24124D01*
X10129Y-24124D01*
X10384Y-24379D01*
X10359Y-24389D01*
X10239Y-24508D01*
X10175Y-24665D01*
X10174Y-24834D01*
X10239Y-24990D01*
X10358Y-25110D01*
X10515Y-25174D01*
X10529Y-25174D01*
X10676Y-25321D01*
X10639Y-25358D01*
X10575Y-25515D01*
X10574Y-25684D01*
X10639Y-25840D01*
X10758Y-25960D01*
X10915Y-26024D01*
X10974Y-26024D01*
X11100Y-26050D01*
X11475Y-26050D01*
X11524Y-26050D01*
X11974Y-26050D01*
X12000Y-26039D01*
X12000Y-26500D01*
X12026Y-26633D01*
X12102Y-26747D01*
X12352Y-26997D01*
X12352Y-26997D01*
X12403Y-27031D01*
X12403Y-27031D01*
X12375Y-27100D01*
X12374Y-27199D01*
X12374Y-27329D01*
X11950Y-26905D01*
X11950Y-26600D01*
X11912Y-26508D01*
X11841Y-26438D01*
X11749Y-26400D01*
X11650Y-26399D01*
X11050Y-26399D01*
X10958Y-26437D01*
X10888Y-26508D01*
X10850Y-26600D01*
X10849Y-26699D01*
X10849Y-27499D01*
X10887Y-27591D01*
X10946Y-27650D01*
X10888Y-27708D01*
X10850Y-27800D01*
X10849Y-27899D01*
X10849Y-28699D01*
X10887Y-28791D01*
X10946Y-28850D01*
X10888Y-28908D01*
X10850Y-29000D01*
X10849Y-29099D01*
X10849Y-29899D01*
X10887Y-29991D01*
X10958Y-30061D01*
X11050Y-30099D01*
X11149Y-30100D01*
X11749Y-30100D01*
X11841Y-30062D01*
X11911Y-29991D01*
X11949Y-29899D01*
X11950Y-29800D01*
X11950Y-29544D01*
X12374Y-29119D01*
X12375Y-29137D01*
X12437Y-29200D01*
X12800Y-29200D01*
X12800Y-29192D01*
X12900Y-29192D01*
X12900Y-29200D01*
X12907Y-29200D01*
X12907Y-29300D01*
X12900Y-29300D01*
X12900Y-29307D01*
X12800Y-29307D01*
X12800Y-29300D01*
X12437Y-29300D01*
X12375Y-29362D01*
X12374Y-29399D01*
X12412Y-29491D01*
X12483Y-29561D01*
X12575Y-29599D01*
X12654Y-29600D01*
X11587Y-30667D01*
X10650Y-30667D01*
X10650Y-29800D01*
X10650Y-29099D01*
X10649Y-29000D01*
X10611Y-28908D01*
X10553Y-28850D01*
X10611Y-28791D01*
X10649Y-28699D01*
X10650Y-28600D01*
X10650Y-27899D01*
X10649Y-27800D01*
X10611Y-27708D01*
X10553Y-27650D01*
X10611Y-27591D01*
X10649Y-27499D01*
X10650Y-27400D01*
X10650Y-26699D01*
X10649Y-26600D01*
X10611Y-26508D01*
X10541Y-26437D01*
X10449Y-26399D01*
X10212Y-26400D01*
X10150Y-26462D01*
X10150Y-27000D01*
X10587Y-27000D01*
X10650Y-26937D01*
X10650Y-26699D01*
X10650Y-27400D01*
X10650Y-27162D01*
X10587Y-27100D01*
X10150Y-27100D01*
X10150Y-27637D01*
X10162Y-27650D01*
X10150Y-27662D01*
X10150Y-28200D01*
X10587Y-28200D01*
X10650Y-28137D01*
X10650Y-27899D01*
X10650Y-28600D01*
X10650Y-28362D01*
X10587Y-28300D01*
X10150Y-28300D01*
X10150Y-28837D01*
X10162Y-28850D01*
X10150Y-28862D01*
X10150Y-29400D01*
X10587Y-29400D01*
X10650Y-29337D01*
X10650Y-29099D01*
X10650Y-29800D01*
X10650Y-29562D01*
X10587Y-29500D01*
X10150Y-29500D01*
X10150Y-30037D01*
X10212Y-30100D01*
X10449Y-30100D01*
X10541Y-30062D01*
X10611Y-29991D01*
X10649Y-29899D01*
X10650Y-29800D01*
X10650Y-30667D01*
X10075Y-30667D01*
X10075Y-25849D01*
X10075Y-25812D01*
X10012Y-25750D01*
X9650Y-25750D01*
X9650Y-25987D01*
X9712Y-26050D01*
X9775Y-26050D01*
X9874Y-26049D01*
X9966Y-26011D01*
X10037Y-25941D01*
X10075Y-25849D01*
X10075Y-30667D01*
X10050Y-30667D01*
X10050Y-30037D01*
X10050Y-29500D01*
X10050Y-29400D01*
X10050Y-28862D01*
X10037Y-28850D01*
X10050Y-28837D01*
X10050Y-28300D01*
X10050Y-28200D01*
X10050Y-27662D01*
X10037Y-27650D01*
X10050Y-27637D01*
X10050Y-27100D01*
X10050Y-27000D01*
X10050Y-26462D01*
X9987Y-26400D01*
X9750Y-26399D01*
X9658Y-26437D01*
X9588Y-26508D01*
X9550Y-26600D01*
X9550Y-26650D01*
X9550Y-25987D01*
X9550Y-25750D01*
X9187Y-25750D01*
X9125Y-25812D01*
X9124Y-25849D01*
X9162Y-25941D01*
X9233Y-26011D01*
X9325Y-26049D01*
X9424Y-26050D01*
X9487Y-26050D01*
X9550Y-25987D01*
X9550Y-26650D01*
X9549Y-26699D01*
X9550Y-26937D01*
X9612Y-27000D01*
X10050Y-27000D01*
X10050Y-27100D01*
X9612Y-27100D01*
X9550Y-27162D01*
X9549Y-27400D01*
X9550Y-27499D01*
X9588Y-27591D01*
X9646Y-27650D01*
X9588Y-27708D01*
X9550Y-27800D01*
X9549Y-27899D01*
X9550Y-28137D01*
X9612Y-28200D01*
X10050Y-28200D01*
X10050Y-28300D01*
X9612Y-28300D01*
X9550Y-28362D01*
X9549Y-28600D01*
X9550Y-28699D01*
X9588Y-28791D01*
X9646Y-28850D01*
X9588Y-28908D01*
X9550Y-29000D01*
X9549Y-29099D01*
X9550Y-29337D01*
X9612Y-29400D01*
X10050Y-29400D01*
X10050Y-29500D01*
X9612Y-29500D01*
X9550Y-29562D01*
X9549Y-29800D01*
X9550Y-29899D01*
X9588Y-29991D01*
X9658Y-30062D01*
X9750Y-30100D01*
X9987Y-30100D01*
X10050Y-30037D01*
X10050Y-30667D01*
X7784Y-30667D01*
X7772Y-30601D01*
X7718Y-30518D01*
X7636Y-30461D01*
X7600Y-30454D01*
X7600Y-26250D01*
X7600Y-25549D01*
X7599Y-25450D01*
X7561Y-25358D01*
X7503Y-25300D01*
X7561Y-25241D01*
X7599Y-25149D01*
X7600Y-25050D01*
X7600Y-24349D01*
X7599Y-24250D01*
X7561Y-24158D01*
X7503Y-24100D01*
X7561Y-24041D01*
X7599Y-23949D01*
X7600Y-23850D01*
X7600Y-23149D01*
X7599Y-23050D01*
X7561Y-22958D01*
X7491Y-22887D01*
X7399Y-22849D01*
X7162Y-22850D01*
X7100Y-22912D01*
X7100Y-23450D01*
X7537Y-23450D01*
X7600Y-23387D01*
X7600Y-23149D01*
X7600Y-23850D01*
X7600Y-23612D01*
X7537Y-23550D01*
X7100Y-23550D01*
X7100Y-24087D01*
X7112Y-24100D01*
X7100Y-24112D01*
X7100Y-24650D01*
X7537Y-24650D01*
X7600Y-24587D01*
X7600Y-24349D01*
X7600Y-25050D01*
X7600Y-24812D01*
X7537Y-24750D01*
X7100Y-24750D01*
X7100Y-25287D01*
X7112Y-25300D01*
X7100Y-25312D01*
X7100Y-25850D01*
X7537Y-25850D01*
X7600Y-25787D01*
X7600Y-25549D01*
X7600Y-26250D01*
X7600Y-26012D01*
X7537Y-25950D01*
X7100Y-25950D01*
X7100Y-26487D01*
X7162Y-26550D01*
X7399Y-26550D01*
X7491Y-26512D01*
X7561Y-26441D01*
X7599Y-26349D01*
X7600Y-26250D01*
X7600Y-30454D01*
X7538Y-30441D01*
X7441Y-30459D01*
X7000Y-30542D01*
X7000Y-26487D01*
X7000Y-25950D01*
X7000Y-25850D01*
X7000Y-25312D01*
X6987Y-25300D01*
X7000Y-25287D01*
X7000Y-24750D01*
X7000Y-24650D01*
X7000Y-24112D01*
X6987Y-24100D01*
X7000Y-24087D01*
X7000Y-23550D01*
X7000Y-23450D01*
X7000Y-22912D01*
X6937Y-22850D01*
X6700Y-22849D01*
X6608Y-22887D01*
X6538Y-22958D01*
X6500Y-23050D01*
X6499Y-23149D01*
X6500Y-23387D01*
X6562Y-23450D01*
X7000Y-23450D01*
X7000Y-23550D01*
X6562Y-23550D01*
X6500Y-23612D01*
X6499Y-23850D01*
X6500Y-23949D01*
X6538Y-24041D01*
X6596Y-24100D01*
X6538Y-24158D01*
X6500Y-24250D01*
X6499Y-24349D01*
X6500Y-24587D01*
X6562Y-24650D01*
X7000Y-24650D01*
X7000Y-24750D01*
X6562Y-24750D01*
X6500Y-24812D01*
X6499Y-25050D01*
X6500Y-25149D01*
X6538Y-25241D01*
X6596Y-25300D01*
X6538Y-25358D01*
X6500Y-25450D01*
X6499Y-25549D01*
X6500Y-25787D01*
X6562Y-25850D01*
X7000Y-25850D01*
X7000Y-25950D01*
X6562Y-25950D01*
X6500Y-26012D01*
X6499Y-26250D01*
X6500Y-26349D01*
X6538Y-26441D01*
X6608Y-26512D01*
X6700Y-26550D01*
X6937Y-26550D01*
X7000Y-26487D01*
X7000Y-30542D01*
X6900Y-30560D01*
X6817Y-30614D01*
X6760Y-30696D01*
X6740Y-30794D01*
X6758Y-30892D01*
X6859Y-31432D01*
X6913Y-31515D01*
X6995Y-31572D01*
X7093Y-31592D01*
X7181Y-31576D01*
X7055Y-31702D01*
X6975Y-31895D01*
X6974Y-32103D01*
X7054Y-32297D01*
X7202Y-32444D01*
X7395Y-32524D01*
X7417Y-32524D01*
X7386Y-32537D01*
X7239Y-32685D01*
X7159Y-32878D01*
X7158Y-33086D01*
X7238Y-33279D01*
X7386Y-33427D01*
X7579Y-33507D01*
X7787Y-33508D01*
X7980Y-33428D01*
X8076Y-33332D01*
X10867Y-33332D01*
X11001Y-33306D01*
X11001Y-33306D01*
X11114Y-33230D01*
X14647Y-29697D01*
X14712Y-29599D01*
X14774Y-29600D01*
X15224Y-29600D01*
X15224Y-29600D01*
X17150Y-29600D01*
X17283Y-29573D01*
X17283Y-29573D01*
X17397Y-29497D01*
X18244Y-28650D01*
X21050Y-28650D01*
X21183Y-28623D01*
X21183Y-28623D01*
X21297Y-28547D01*
X22177Y-27667D01*
X22253Y-27554D01*
X22279Y-27420D01*
X22279Y-27401D01*
X22307Y-27390D01*
X22377Y-27319D01*
X22416Y-27227D01*
X22416Y-27128D01*
X22416Y-26577D01*
X22378Y-26485D01*
X22307Y-26414D01*
X22216Y-26376D01*
X22116Y-26376D01*
X21644Y-26376D01*
X21615Y-26388D01*
X21586Y-26376D01*
X21486Y-26376D01*
X21014Y-26376D01*
X20985Y-26388D01*
X20956Y-26376D01*
X20856Y-26376D01*
X20384Y-26376D01*
X20292Y-26414D01*
X20222Y-26484D01*
X20194Y-26552D01*
X18247Y-26552D01*
X18113Y-26579D01*
X18000Y-26654D01*
X16755Y-27900D01*
X15424Y-27900D01*
X15424Y-27899D01*
X15425Y-27800D01*
X15425Y-27600D01*
X15387Y-27508D01*
X15378Y-27500D01*
X15386Y-27491D01*
X15424Y-27399D01*
X15425Y-27300D01*
X15425Y-27100D01*
X15387Y-27008D01*
X15378Y-27000D01*
X15386Y-26991D01*
X15424Y-26899D01*
X15425Y-26800D01*
X15425Y-26600D01*
X15387Y-26508D01*
X15384Y-26506D01*
X15397Y-26497D01*
X15619Y-26275D01*
X23175Y-26275D01*
X23308Y-26248D01*
X23308Y-26248D01*
X23318Y-26241D01*
X23318Y-26241D01*
X23422Y-26172D01*
X26094Y-23500D01*
X27575Y-23500D01*
X27574Y-23634D01*
X27639Y-23790D01*
X27650Y-23800D01*
X27650Y-23875D01*
X27649Y-23875D01*
X27550Y-23874D01*
X27350Y-23874D01*
X27258Y-23912D01*
X27250Y-23921D01*
X27241Y-23913D01*
X27149Y-23875D01*
X27050Y-23874D01*
X26850Y-23874D01*
X26758Y-23912D01*
X26750Y-23921D01*
X26741Y-23913D01*
X26649Y-23875D01*
X26550Y-23874D01*
X26350Y-23874D01*
X26258Y-23912D01*
X26250Y-23921D01*
X26241Y-23913D01*
X26149Y-23875D01*
X26050Y-23874D01*
X25850Y-23874D01*
X25758Y-23912D01*
X25688Y-23983D01*
X25650Y-24075D01*
X25649Y-24174D01*
X25649Y-24455D01*
X24652Y-25452D01*
X24576Y-25566D01*
X24550Y-25700D01*
X24550Y-28000D01*
X24550Y-28050D01*
X24576Y-28183D01*
X24652Y-28297D01*
X25024Y-28669D01*
X25024Y-28684D01*
X25089Y-28840D01*
X25208Y-28960D01*
X25365Y-29024D01*
X25534Y-29025D01*
X25690Y-28960D01*
X25810Y-28841D01*
X25874Y-28684D01*
X25875Y-28515D01*
X25810Y-28359D01*
X25691Y-28239D01*
X25534Y-28175D01*
X25520Y-28175D01*
X25319Y-27974D01*
X25484Y-27975D01*
X25640Y-27910D01*
X25760Y-27791D01*
X25824Y-27634D01*
X25825Y-27465D01*
X25760Y-27309D01*
X25750Y-27299D01*
X25750Y-26900D01*
X25858Y-27010D01*
X26015Y-27074D01*
X26184Y-27075D01*
X26340Y-27010D01*
X26460Y-26891D01*
X26524Y-26734D01*
X26525Y-26565D01*
X26460Y-26409D01*
X26450Y-26399D01*
X26450Y-26044D01*
X27247Y-25247D01*
X27323Y-25133D01*
X27323Y-25133D01*
X27350Y-25000D01*
X27350Y-24824D01*
X27350Y-24824D01*
X27449Y-24825D01*
X27649Y-24825D01*
X27741Y-24787D01*
X27749Y-24778D01*
X27758Y-24786D01*
X27850Y-24824D01*
X27949Y-24825D01*
X28149Y-24825D01*
X28241Y-24787D01*
X28249Y-24778D01*
X28258Y-24786D01*
X28350Y-24824D01*
X28449Y-24825D01*
X28506Y-24825D01*
X28475Y-24900D01*
X28474Y-24999D01*
X28474Y-25349D01*
X28512Y-25441D01*
X28571Y-25500D01*
X28512Y-25558D01*
X28474Y-25650D01*
X28475Y-25762D01*
X28537Y-25825D01*
X28950Y-25825D01*
X28950Y-25817D01*
X29050Y-25817D01*
X29050Y-25825D01*
X29462Y-25825D01*
X29525Y-25762D01*
X29525Y-25650D01*
X29487Y-25558D01*
X29428Y-25499D01*
X29486Y-25441D01*
X29524Y-25349D01*
X29525Y-25250D01*
X29525Y-24900D01*
X29487Y-24808D01*
X29416Y-24738D01*
X29350Y-24710D01*
X29350Y-24574D01*
X29350Y-24525D01*
X29350Y-24244D01*
X29569Y-24025D01*
X29584Y-24025D01*
X29740Y-23960D01*
X29860Y-23841D01*
X29924Y-23684D01*
X29925Y-23515D01*
X29860Y-23359D01*
X29741Y-23239D01*
X29584Y-23175D01*
X29456Y-23174D01*
X29497Y-23147D01*
X29697Y-22947D01*
X29773Y-22833D01*
X29800Y-22700D01*
X29800Y-22296D01*
X32221Y-13385D01*
X32233Y-13355D01*
X33246Y-8143D01*
X33279Y-8129D01*
X33427Y-7981D01*
X33507Y-7788D01*
X33508Y-7579D01*
X33428Y-7386D01*
X33280Y-7239D01*
X33087Y-7159D01*
X32878Y-7158D01*
X32685Y-7238D01*
X32538Y-7386D01*
X32525Y-7417D01*
X32525Y-7396D01*
X32445Y-7203D01*
X32297Y-7055D01*
X32104Y-6975D01*
X31896Y-6974D01*
X31703Y-7054D01*
X31576Y-7180D01*
X31592Y-7093D01*
X31572Y-6996D01*
X31516Y-6914D01*
X31433Y-6859D01*
X31335Y-6841D01*
X31213Y-6818D01*
X30380Y-5985D01*
X34734Y-6810D01*
M02*
