G04 (created by PCBNEW (22-Jun-2014 BZR 4027)-stable) date Thu 17 Jul 2014 04:04:50 PM CEST*
%MOIN*%
G04 Gerber Fmt 3.4, Leading zero omitted, Abs format*
%FSLAX34Y34*%
G01*
G70*
G90*
G04 APERTURE LIST*
%ADD10C,0.00590551*%
%ADD11C,0.11811*%
%ADD12C,0.055*%
%ADD13R,0.06X0.08*%
%ADD14R,0.045X0.02*%
%ADD15R,0.02X0.045*%
%ADD16R,0.08X0.06*%
%ADD17R,0.0472441X0.0551181*%
%ADD18R,0.0551181X0.0472441*%
%ADD19R,0.055X0.035*%
%ADD20R,0.035X0.055*%
%ADD21C,0.1381*%
%ADD22C,0.035*%
%ADD23C,0.016*%
%ADD24C,0.01*%
G04 APERTURE END LIST*
G54D10*
G54D11*
X2149Y-4904D03*
X1787Y-2969D03*
X4904Y-2149D03*
X2969Y-1787D03*
X20245Y-31291D03*
X22154Y-30808D03*
X32408Y-16654D03*
X32891Y-14745D03*
G54D10*
G36*
X31171Y-8010D02*
X31272Y-7470D01*
X31812Y-7571D01*
X31711Y-8111D01*
X31171Y-8010D01*
X31171Y-8010D01*
G37*
G54D12*
X32475Y-7975D03*
X33457Y-8158D03*
X34440Y-8342D03*
G54D10*
G36*
X7470Y-31272D02*
X8010Y-31171D01*
X8111Y-31711D01*
X7571Y-31812D01*
X7470Y-31272D01*
X7470Y-31272D01*
G37*
G54D12*
X7975Y-32475D03*
X8158Y-33457D03*
X8342Y-34440D03*
G54D13*
X7525Y-23975D03*
X8825Y-23975D03*
G54D14*
X7475Y-9325D03*
X7475Y-8825D03*
X7475Y-8325D03*
X7475Y-7825D03*
X7475Y-7325D03*
X7475Y-6825D03*
X7475Y-6325D03*
X5375Y-6325D03*
X5375Y-6825D03*
X5375Y-7325D03*
X5375Y-7825D03*
X5375Y-8325D03*
X5375Y-8825D03*
X5375Y-9325D03*
X13325Y-26725D03*
X13325Y-27225D03*
X13325Y-27725D03*
X13325Y-28225D03*
X13325Y-28725D03*
X13325Y-29225D03*
X13325Y-29725D03*
X15425Y-29725D03*
X15425Y-29225D03*
X15425Y-28725D03*
X15425Y-28225D03*
X15425Y-27725D03*
X15425Y-27225D03*
X15425Y-26725D03*
G54D15*
X29475Y-22725D03*
X28975Y-22725D03*
X28475Y-22725D03*
X27975Y-22725D03*
X27475Y-22725D03*
X26975Y-22725D03*
X26475Y-22725D03*
X26475Y-24825D03*
X26975Y-24825D03*
X27475Y-24825D03*
X27975Y-24825D03*
X28475Y-24825D03*
X28975Y-24825D03*
X29475Y-24825D03*
G54D14*
X27525Y-10275D03*
X27525Y-9775D03*
X27525Y-9275D03*
X27525Y-8775D03*
X27525Y-8275D03*
X27525Y-7775D03*
X27525Y-7275D03*
X25425Y-7275D03*
X25425Y-7775D03*
X25425Y-8275D03*
X25425Y-8775D03*
X25425Y-9275D03*
X25425Y-9775D03*
X25425Y-10275D03*
X10075Y-23175D03*
X10075Y-23675D03*
X10075Y-24175D03*
X10075Y-24675D03*
X10075Y-25175D03*
X10075Y-25675D03*
X10075Y-26175D03*
X12175Y-26175D03*
X12175Y-25675D03*
X12175Y-25175D03*
X12175Y-24675D03*
X12175Y-24175D03*
X12175Y-23675D03*
X12175Y-23175D03*
G54D16*
X28625Y-20225D03*
X28625Y-21525D03*
G54D13*
X10075Y-6275D03*
X8775Y-6275D03*
X10075Y-5175D03*
X8775Y-5175D03*
X29725Y-9525D03*
X28425Y-9525D03*
X29725Y-7175D03*
X28425Y-7175D03*
X29725Y-8325D03*
X28425Y-8325D03*
X9725Y-9775D03*
X8425Y-9775D03*
X7525Y-25175D03*
X8825Y-25175D03*
G54D16*
X26325Y-20225D03*
X26325Y-21525D03*
X27475Y-20225D03*
X27475Y-21525D03*
G54D13*
X7525Y-26375D03*
X8825Y-26375D03*
X10575Y-28725D03*
X11875Y-28725D03*
X10575Y-29925D03*
X11875Y-29925D03*
X10575Y-27525D03*
X11875Y-27525D03*
G54D17*
X21775Y-25172D03*
X21145Y-25172D03*
X22404Y-25172D03*
X21775Y-27377D03*
X22404Y-27377D03*
X21145Y-27377D03*
G54D18*
X27872Y-11875D03*
X27872Y-12504D03*
X27872Y-11245D03*
X30077Y-11875D03*
X30077Y-11245D03*
X30077Y-12504D03*
X9122Y-8025D03*
X9122Y-8654D03*
X9122Y-7395D03*
X11327Y-8025D03*
X11327Y-7395D03*
X11327Y-8654D03*
G54D10*
G36*
X9891Y-21480D02*
X10280Y-21091D01*
X10528Y-21339D01*
X10139Y-21728D01*
X9891Y-21480D01*
X9891Y-21480D01*
G37*
G36*
X10421Y-22010D02*
X10810Y-21621D01*
X11058Y-21869D01*
X10669Y-22258D01*
X10421Y-22010D01*
X10421Y-22010D01*
G37*
G54D19*
X14975Y-25000D03*
X14975Y-25750D03*
G54D10*
G36*
X8108Y-10719D02*
X7719Y-11108D01*
X7471Y-10860D01*
X7860Y-10471D01*
X8108Y-10719D01*
X8108Y-10719D01*
G37*
G36*
X7578Y-10189D02*
X7189Y-10578D01*
X6941Y-10330D01*
X7330Y-9941D01*
X7578Y-10189D01*
X7578Y-10189D01*
G37*
G54D20*
X23800Y-9875D03*
X24550Y-9875D03*
G54D19*
X29475Y-26350D03*
X29475Y-25600D03*
G54D21*
X16651Y-8396D03*
X25003Y-16747D03*
X16651Y-25099D03*
X8299Y-16747D03*
G54D22*
X28075Y-10275D03*
X28975Y-24275D03*
X28475Y-24025D03*
X26775Y-10125D03*
X29975Y-24075D03*
X5900Y-14375D03*
X23975Y-8975D03*
X27275Y-6975D03*
X27475Y-19175D03*
X29225Y-11275D03*
X25925Y-29075D03*
X26575Y-27125D03*
X25875Y-28025D03*
X19675Y-7275D03*
X18975Y-8275D03*
X19450Y-7775D03*
X4025Y-5475D03*
X4675Y-4375D03*
X5375Y-3825D03*
X11475Y-26075D03*
X10675Y-24175D03*
X11075Y-25225D03*
X9125Y-9125D03*
G54D23*
X12175Y-23675D02*
X12525Y-23675D01*
X13325Y-24475D02*
X13325Y-26725D01*
X12525Y-23675D02*
X13325Y-24475D01*
X15425Y-27225D02*
X15075Y-27225D01*
X11775Y-32475D02*
X7975Y-32475D01*
X14475Y-29775D02*
X11775Y-32475D01*
X14475Y-27825D02*
X14475Y-29775D01*
X15075Y-27225D02*
X14475Y-27825D01*
X12175Y-24175D02*
X12475Y-24175D01*
X13075Y-27225D02*
X13325Y-27225D01*
X12825Y-26975D02*
X13075Y-27225D01*
X12825Y-24525D02*
X12825Y-26975D01*
X12475Y-24175D02*
X12825Y-24525D01*
X15175Y-27725D02*
X15425Y-27725D01*
X14875Y-28025D02*
X15175Y-27725D01*
X14875Y-29925D02*
X14875Y-28025D01*
X8158Y-33457D02*
X11342Y-33457D01*
X11342Y-33457D02*
X14875Y-29925D01*
X32475Y-7975D02*
X31575Y-14050D01*
X29475Y-22275D02*
X29475Y-22725D01*
X31575Y-14050D02*
X29809Y-18250D01*
X29809Y-18250D02*
X29475Y-22275D01*
X32475Y-7975D02*
X32475Y-7975D01*
X28975Y-22725D02*
X28975Y-23125D01*
X32125Y-14225D02*
X33457Y-8158D01*
X29925Y-22725D02*
X30425Y-18325D01*
X30425Y-18325D02*
X32125Y-14225D01*
X29925Y-23175D02*
X29925Y-22725D01*
X29725Y-23375D02*
X29925Y-23175D01*
X29225Y-23375D02*
X29725Y-23375D01*
X28975Y-23125D02*
X29225Y-23375D01*
X28975Y-24825D02*
X28975Y-24275D01*
X28075Y-10275D02*
X27525Y-10275D01*
X27525Y-9775D02*
X27125Y-9775D01*
X28475Y-24025D02*
X28475Y-24825D01*
X27125Y-9775D02*
X26775Y-10125D01*
X25425Y-9775D02*
X25875Y-9775D01*
X7075Y-9325D02*
X7475Y-9325D01*
X5925Y-8175D02*
X7075Y-9325D01*
X5925Y-5675D02*
X5925Y-8175D01*
X8154Y-3445D02*
X5925Y-5675D01*
X26150Y-6700D02*
X23800Y-6625D01*
X23800Y-6625D02*
X16525Y-5450D01*
X16525Y-5450D02*
X11266Y-3979D01*
X11266Y-3979D02*
X8154Y-3445D01*
X26725Y-7125D02*
X26150Y-6700D01*
X26725Y-8925D02*
X26725Y-7125D01*
X25875Y-9775D02*
X26725Y-8925D01*
X7475Y-8825D02*
X7175Y-8825D01*
X8325Y-3925D02*
X8325Y-3925D01*
X6375Y-5875D02*
X8325Y-3925D01*
X6375Y-8025D02*
X6375Y-5875D01*
X7175Y-8825D02*
X6375Y-8025D01*
X25425Y-9275D02*
X25775Y-9275D01*
X18149Y-6224D02*
X15775Y-5775D01*
X15775Y-5775D02*
X9982Y-4152D01*
X9982Y-4152D02*
X8325Y-3925D01*
X26125Y-7250D02*
X25825Y-6975D01*
X25825Y-6975D02*
X23800Y-6925D01*
X23800Y-6925D02*
X18149Y-6224D01*
X26125Y-8925D02*
X26125Y-7250D01*
X25775Y-9275D02*
X26125Y-8925D01*
X6825Y-11475D02*
X6825Y-19925D01*
X5375Y-8825D02*
X5125Y-8825D01*
X4875Y-9075D02*
X5125Y-8825D01*
X4875Y-9525D02*
X4875Y-9075D01*
X6825Y-11475D02*
X4875Y-9525D01*
X6825Y-19925D02*
X10075Y-23175D01*
X6375Y-11675D02*
X6375Y-20225D01*
X4975Y-8325D02*
X4425Y-8875D01*
X4425Y-8875D02*
X4425Y-9725D01*
X4425Y-9725D02*
X6375Y-11675D01*
X5375Y-8325D02*
X4975Y-8325D01*
X9825Y-23675D02*
X10075Y-23675D01*
X6375Y-20225D02*
X9825Y-23675D01*
X7791Y-31492D02*
X12207Y-31492D01*
X12207Y-31492D02*
X14025Y-29675D01*
X24550Y-9875D02*
X24550Y-9950D01*
X24875Y-10275D02*
X25425Y-10275D01*
X24550Y-9950D02*
X24875Y-10275D01*
X14975Y-25750D02*
X14975Y-26200D01*
X14975Y-26275D02*
X15425Y-26725D01*
X14975Y-26200D02*
X14975Y-26275D01*
X11640Y-22640D02*
X11025Y-22025D01*
X12175Y-23175D02*
X11640Y-22640D01*
X10825Y-22025D02*
X10740Y-21940D01*
X11025Y-22025D02*
X10825Y-22025D01*
X12175Y-23175D02*
X12625Y-23175D01*
X7259Y-10259D02*
X6309Y-10259D01*
X29475Y-25600D02*
X29475Y-24825D01*
X7275Y-11225D02*
X7275Y-19375D01*
X12625Y-23175D02*
X11075Y-23175D01*
X7275Y-19375D02*
X11075Y-23175D01*
X14025Y-27575D02*
X14025Y-24575D01*
X14025Y-24575D02*
X12625Y-23175D01*
X7300Y-11250D02*
X7275Y-11225D01*
X7275Y-11225D02*
X6309Y-10259D01*
X6309Y-10259D02*
X5375Y-9325D01*
X15425Y-26725D02*
X15625Y-26725D01*
X29475Y-24075D02*
X29975Y-24075D01*
X29025Y-23625D02*
X29475Y-24075D01*
X26425Y-23625D02*
X29025Y-23625D01*
X23650Y-26400D02*
X26425Y-23625D01*
X15950Y-26400D02*
X23650Y-26400D01*
X15625Y-26725D02*
X15950Y-26400D01*
X29475Y-24575D02*
X29475Y-24825D01*
X29975Y-24075D02*
X29475Y-24575D01*
X14875Y-26725D02*
X15425Y-26725D01*
X14025Y-27575D02*
X14875Y-26725D01*
X14025Y-29675D02*
X14025Y-27575D01*
X31492Y-7791D02*
X31492Y-7592D01*
X26325Y-10275D02*
X25425Y-10275D01*
X26775Y-10725D02*
X26325Y-10275D01*
X28675Y-10725D02*
X26775Y-10725D01*
X29075Y-10325D02*
X28675Y-10725D01*
X29075Y-6675D02*
X29075Y-10325D01*
X29325Y-6425D02*
X29075Y-6675D01*
X30325Y-6425D02*
X29325Y-6425D01*
X31492Y-7592D02*
X30325Y-6425D01*
X31492Y-7791D02*
X31492Y-7791D01*
X32822Y-14974D02*
X32822Y-13947D01*
X32822Y-13947D02*
X33030Y-13739D01*
X21836Y-30957D02*
X21836Y-30813D01*
X21836Y-30813D02*
X22875Y-29775D01*
X32850Y-17625D02*
X33464Y-16535D01*
X33030Y-13739D02*
X33030Y-13739D01*
X33858Y-14566D02*
X33030Y-13739D01*
X33858Y-15354D02*
X33858Y-14566D01*
X33464Y-16535D02*
X33858Y-15354D01*
X1823Y-3163D02*
X1838Y-3163D01*
X1838Y-3163D02*
X3230Y-4555D01*
X3163Y-1823D02*
X1823Y-3163D01*
X5900Y-14375D02*
X5900Y-12650D01*
X3230Y-9700D02*
X3230Y-9980D01*
X3230Y-4555D02*
X3230Y-9700D01*
X3230Y-9980D02*
X5900Y-12650D01*
X29475Y-26350D02*
X30100Y-26075D01*
X32325Y-19550D02*
X32850Y-17625D01*
X31472Y-19761D02*
X32325Y-19550D01*
X30543Y-23454D02*
X31472Y-19761D01*
X30100Y-26075D02*
X30543Y-23454D01*
X33030Y-13739D02*
X34440Y-8342D01*
X29215Y-27640D02*
X27734Y-27640D01*
X11559Y-34440D02*
X8342Y-34440D01*
X13425Y-32575D02*
X11559Y-34440D01*
X15675Y-32575D02*
X13425Y-32575D01*
X18475Y-29775D02*
X15675Y-32575D01*
X25925Y-29775D02*
X22875Y-29775D01*
X22875Y-29775D02*
X18475Y-29775D01*
X26525Y-29175D02*
X25925Y-29775D01*
X26525Y-28850D02*
X26525Y-29175D01*
X27734Y-27640D02*
X26525Y-28850D01*
X8342Y-34440D02*
X7402Y-34591D01*
X7402Y-34591D02*
X6700Y-31200D01*
X6700Y-31200D02*
X6650Y-30625D01*
X6650Y-30625D02*
X6925Y-30100D01*
X6925Y-30100D02*
X10575Y-29925D01*
X5900Y-14375D02*
X5900Y-14975D01*
X5900Y-20525D02*
X7525Y-23975D01*
X5900Y-14975D02*
X5900Y-20525D01*
X23800Y-9875D02*
X23800Y-9150D01*
X23800Y-9150D02*
X23975Y-8975D01*
X27525Y-7225D02*
X27525Y-7275D01*
X27275Y-6975D02*
X27525Y-7225D01*
X14975Y-25000D02*
X14975Y-24725D01*
X14975Y-24725D02*
X15602Y-24097D01*
X10209Y-21409D02*
X10209Y-20577D01*
X29475Y-26350D02*
X29475Y-27380D01*
X29475Y-27380D02*
X29215Y-27640D01*
X11110Y-21439D02*
X11110Y-21439D01*
X7790Y-10790D02*
X8709Y-10790D01*
X8709Y-10790D02*
X8925Y-10575D01*
X8299Y-18749D02*
X8299Y-16747D01*
X11775Y-22075D02*
X11110Y-21439D01*
X11110Y-21439D02*
X10209Y-20577D01*
X10209Y-20577D02*
X8299Y-18749D01*
X12549Y-22675D02*
X11775Y-22075D01*
X14800Y-24075D02*
X12549Y-22675D01*
X17450Y-24150D02*
X15602Y-24097D01*
X15602Y-24097D02*
X14800Y-24075D01*
X19200Y-25900D02*
X17450Y-24150D01*
X23100Y-25900D02*
X19200Y-25900D01*
X26275Y-22725D02*
X23100Y-25900D01*
X26475Y-22725D02*
X26275Y-22725D01*
X27475Y-19175D02*
X27475Y-20225D01*
X10575Y-27525D02*
X10575Y-28725D01*
X7525Y-23975D02*
X7525Y-25175D01*
X7525Y-25175D02*
X7525Y-26375D01*
X8299Y-16747D02*
X8299Y-11201D01*
X8299Y-11201D02*
X8925Y-10575D01*
X8925Y-10575D02*
X9725Y-9775D01*
X29725Y-9525D02*
X29725Y-8325D01*
X29725Y-8325D02*
X29725Y-7175D01*
X29225Y-11275D02*
X29225Y-12525D01*
X29225Y-12525D02*
X25003Y-16747D01*
X7525Y-26375D02*
X7525Y-26625D01*
X8425Y-27525D02*
X10575Y-27525D01*
X7525Y-26625D02*
X8425Y-27525D01*
X10075Y-26175D02*
X10075Y-27025D01*
X10075Y-27025D02*
X10575Y-27525D01*
X29725Y-9525D02*
X29725Y-10275D01*
X29225Y-10775D02*
X29225Y-11275D01*
X29725Y-10275D02*
X29225Y-10775D01*
X26325Y-20225D02*
X26125Y-20225D01*
X25825Y-22725D02*
X26475Y-22725D01*
X25325Y-22225D02*
X25825Y-22725D01*
X25325Y-21025D02*
X25325Y-22225D01*
X26125Y-20225D02*
X25325Y-21025D01*
X28625Y-20225D02*
X27475Y-20225D01*
X27475Y-20225D02*
X26325Y-20225D01*
X13325Y-29725D02*
X12325Y-30725D01*
X11375Y-30725D02*
X10575Y-29925D01*
X12325Y-30725D02*
X11375Y-30725D01*
X10575Y-29925D02*
X10575Y-27525D01*
X9725Y-9775D02*
X9725Y-6625D01*
X9725Y-6625D02*
X10075Y-6275D01*
X10075Y-6275D02*
X10075Y-5175D01*
X7475Y-6325D02*
X7475Y-5375D01*
X9793Y-4517D02*
X10075Y-5175D01*
X8400Y-4450D02*
X9793Y-4517D01*
X7475Y-5375D02*
X8400Y-4450D01*
X26325Y-21525D02*
X26325Y-21725D01*
X26975Y-22375D02*
X26975Y-22725D01*
X26325Y-21725D02*
X26975Y-22375D01*
X28625Y-21525D02*
X28625Y-21725D01*
X27975Y-22375D02*
X27975Y-22725D01*
X28625Y-21725D02*
X27975Y-22375D01*
X27475Y-21525D02*
X27475Y-22725D01*
X26475Y-25075D02*
X25375Y-26175D01*
X25375Y-26175D02*
X25375Y-28475D01*
X26475Y-25075D02*
X26475Y-24825D01*
X25375Y-28525D02*
X25375Y-28475D01*
X25925Y-29075D02*
X25375Y-28525D01*
X27475Y-25475D02*
X27475Y-24825D01*
X26575Y-26375D02*
X27475Y-25475D01*
X26575Y-27125D02*
X26575Y-26375D01*
X26975Y-25225D02*
X26975Y-24825D01*
X25875Y-26325D02*
X26975Y-25225D01*
X25875Y-28025D02*
X25875Y-26325D01*
X27525Y-7775D02*
X27775Y-7775D01*
X28375Y-7175D02*
X28425Y-7175D01*
X27775Y-7775D02*
X28375Y-7175D01*
X27525Y-8775D02*
X27775Y-8775D01*
X28425Y-9425D02*
X28425Y-9525D01*
X27775Y-8775D02*
X28425Y-9425D01*
X27525Y-8275D02*
X28475Y-8275D01*
X28475Y-8275D02*
X28525Y-8325D01*
X25175Y-7275D02*
X25425Y-7275D01*
X19675Y-7275D02*
X25175Y-7275D01*
X25175Y-8275D02*
X25425Y-8275D01*
X18975Y-8275D02*
X25175Y-8275D01*
X19450Y-7775D02*
X25175Y-7775D01*
X25175Y-7775D02*
X25425Y-7775D01*
X7475Y-6825D02*
X7725Y-6825D01*
X8425Y-5175D02*
X8775Y-5175D01*
X8025Y-5575D02*
X8425Y-5175D01*
X8025Y-6525D02*
X8025Y-5575D01*
X7725Y-6825D02*
X8025Y-6525D01*
X8425Y-9775D02*
X8425Y-8425D01*
X7825Y-7825D02*
X7475Y-7825D01*
X8425Y-8425D02*
X7825Y-7825D01*
X7475Y-7325D02*
X7925Y-7325D01*
X8775Y-6475D02*
X8775Y-6275D01*
X7925Y-7325D02*
X8775Y-6475D01*
X4725Y-7325D02*
X5375Y-7325D01*
X4025Y-6625D02*
X4725Y-7325D01*
X4025Y-5475D02*
X4025Y-6625D01*
X5075Y-6825D02*
X5375Y-6825D01*
X4725Y-6475D02*
X5075Y-6825D01*
X4725Y-4425D02*
X4725Y-6475D01*
X4675Y-4375D02*
X4725Y-4425D01*
X5375Y-3825D02*
X5375Y-6325D01*
X10075Y-25675D02*
X9525Y-25675D01*
X9525Y-25675D02*
X8825Y-26375D01*
X10075Y-24675D02*
X9525Y-24675D01*
X9525Y-24675D02*
X8825Y-23975D01*
X10075Y-25175D02*
X8825Y-25175D01*
X11575Y-26175D02*
X12175Y-26175D01*
X11475Y-26075D02*
X11575Y-26175D01*
X11675Y-25175D02*
X12175Y-25175D01*
X10675Y-24175D02*
X11675Y-25175D01*
X11525Y-25675D02*
X12175Y-25675D01*
X11075Y-25225D02*
X11525Y-25675D01*
X11875Y-29925D02*
X12025Y-29925D01*
X12725Y-29225D02*
X13325Y-29225D01*
X12025Y-29925D02*
X12725Y-29225D01*
X11875Y-27525D02*
X12075Y-27525D01*
X12775Y-28225D02*
X13325Y-28225D01*
X12075Y-27525D02*
X12775Y-28225D01*
X11875Y-28725D02*
X13325Y-28725D01*
X15425Y-29725D02*
X17625Y-29725D01*
X22404Y-27895D02*
X22404Y-27377D01*
X21525Y-28775D02*
X22404Y-27895D01*
X18575Y-28775D02*
X21525Y-28775D01*
X17625Y-29725D02*
X18575Y-28775D01*
X15425Y-28725D02*
X17375Y-28725D01*
X18722Y-27377D02*
X21145Y-27377D01*
X17375Y-28725D02*
X18722Y-27377D01*
X15425Y-29225D02*
X17475Y-29225D01*
X21775Y-27675D02*
X21775Y-27377D01*
X21325Y-28125D02*
X21775Y-27675D01*
X18575Y-28125D02*
X21325Y-28125D01*
X17475Y-29225D02*
X18575Y-28125D01*
X21775Y-25172D02*
X21775Y-22525D01*
X30325Y-11875D02*
X30077Y-11875D01*
X30625Y-12175D02*
X30325Y-11875D01*
X30625Y-13675D02*
X30625Y-12175D01*
X21775Y-22525D02*
X30625Y-13675D01*
X30077Y-11245D02*
X30445Y-11245D01*
X22404Y-22595D02*
X22404Y-25172D01*
X31125Y-13875D02*
X22404Y-22595D01*
X31125Y-11925D02*
X31125Y-13875D01*
X30445Y-11245D02*
X31125Y-11925D01*
X30077Y-12504D02*
X30077Y-13572D01*
X21145Y-22504D02*
X21145Y-25172D01*
X30077Y-13572D02*
X21145Y-22504D01*
X11327Y-7395D02*
X16225Y-6800D01*
X16225Y-6800D02*
X17450Y-7050D01*
X23309Y-10671D02*
X27872Y-11245D01*
X17450Y-7050D02*
X18093Y-7561D01*
X18093Y-7561D02*
X18550Y-8575D01*
X18550Y-8575D02*
X23309Y-10671D01*
X11327Y-8025D02*
X16025Y-7375D01*
X23125Y-11225D02*
X27872Y-11875D01*
X23125Y-11225D02*
X23125Y-11225D01*
X23125Y-11225D02*
X23125Y-11225D01*
X23131Y-11225D02*
X23125Y-11225D01*
X23131Y-11225D02*
X23131Y-11225D01*
X17275Y-7525D02*
X17900Y-8275D01*
X16025Y-7375D02*
X17275Y-7525D01*
X18092Y-8897D02*
X23131Y-11225D01*
X17900Y-8275D02*
X18092Y-8897D01*
X16025Y-7375D02*
X16025Y-7375D01*
X27872Y-12504D02*
X22625Y-11775D01*
X22625Y-11775D02*
X18978Y-9786D01*
X18978Y-9786D02*
X11327Y-8654D01*
X9122Y-7395D02*
X9122Y-8025D01*
X9122Y-8025D02*
X9122Y-8654D01*
X9122Y-8654D02*
X9125Y-8657D01*
X9125Y-8657D02*
X9125Y-9125D01*
G54D10*
G36*
X24996Y-9524D02*
X24988Y-9533D01*
X24975Y-9564D01*
X24975Y-9550D01*
X24937Y-9458D01*
X24866Y-9388D01*
X24774Y-9350D01*
X24675Y-9349D01*
X24325Y-9349D01*
X24233Y-9387D01*
X24175Y-9446D01*
X24116Y-9387D01*
X24024Y-9349D01*
X23912Y-9350D01*
X23850Y-9412D01*
X23850Y-9825D01*
X23857Y-9825D01*
X23857Y-9925D01*
X23850Y-9925D01*
X23850Y-10337D01*
X23912Y-10400D01*
X24024Y-10400D01*
X24116Y-10362D01*
X24175Y-10303D01*
X24233Y-10361D01*
X24325Y-10399D01*
X24424Y-10400D01*
X24533Y-10400D01*
X24640Y-10507D01*
X23699Y-10388D01*
X23750Y-10337D01*
X23750Y-9925D01*
X23750Y-9825D01*
X23750Y-9412D01*
X23687Y-9350D01*
X23575Y-9349D01*
X23483Y-9387D01*
X23413Y-9458D01*
X23375Y-9550D01*
X23374Y-9649D01*
X23375Y-9762D01*
X23437Y-9825D01*
X23750Y-9825D01*
X23750Y-9925D01*
X23437Y-9925D01*
X23375Y-9987D01*
X23374Y-10100D01*
X23375Y-10199D01*
X23413Y-10291D01*
X23482Y-10361D01*
X23391Y-10349D01*
X19435Y-8605D01*
X24958Y-8605D01*
X24950Y-8625D01*
X24949Y-8724D01*
X24949Y-8924D01*
X24987Y-9016D01*
X24996Y-9024D01*
X24988Y-9033D01*
X24950Y-9125D01*
X24949Y-9224D01*
X24949Y-9424D01*
X24987Y-9516D01*
X24996Y-9524D01*
X24996Y-9524D01*
G37*
G54D24*
X24996Y-9524D02*
X24988Y-9533D01*
X24975Y-9564D01*
X24975Y-9550D01*
X24937Y-9458D01*
X24866Y-9388D01*
X24774Y-9350D01*
X24675Y-9349D01*
X24325Y-9349D01*
X24233Y-9387D01*
X24175Y-9446D01*
X24116Y-9387D01*
X24024Y-9349D01*
X23912Y-9350D01*
X23850Y-9412D01*
X23850Y-9825D01*
X23857Y-9825D01*
X23857Y-9925D01*
X23850Y-9925D01*
X23850Y-10337D01*
X23912Y-10400D01*
X24024Y-10400D01*
X24116Y-10362D01*
X24175Y-10303D01*
X24233Y-10361D01*
X24325Y-10399D01*
X24424Y-10400D01*
X24533Y-10400D01*
X24640Y-10507D01*
X23699Y-10388D01*
X23750Y-10337D01*
X23750Y-9925D01*
X23750Y-9825D01*
X23750Y-9412D01*
X23687Y-9350D01*
X23575Y-9349D01*
X23483Y-9387D01*
X23413Y-9458D01*
X23375Y-9550D01*
X23374Y-9649D01*
X23375Y-9762D01*
X23437Y-9825D01*
X23750Y-9825D01*
X23750Y-9925D01*
X23437Y-9925D01*
X23375Y-9987D01*
X23374Y-10100D01*
X23375Y-10199D01*
X23413Y-10291D01*
X23482Y-10361D01*
X23391Y-10349D01*
X19435Y-8605D01*
X24958Y-8605D01*
X24950Y-8625D01*
X24949Y-8724D01*
X24949Y-8924D01*
X24987Y-9016D01*
X24996Y-9024D01*
X24988Y-9033D01*
X24950Y-9125D01*
X24949Y-9224D01*
X24949Y-9424D01*
X24987Y-9516D01*
X24996Y-9524D01*
G54D10*
G36*
X31071Y-14395D02*
X29517Y-18093D01*
X29512Y-18098D01*
X29507Y-18115D01*
X29504Y-18122D01*
X29502Y-18133D01*
X29477Y-18222D01*
X29275Y-20679D01*
X29275Y-20574D01*
X29275Y-19875D01*
X29237Y-19783D01*
X29166Y-19713D01*
X29074Y-19675D01*
X28975Y-19674D01*
X28737Y-19675D01*
X28675Y-19737D01*
X28675Y-20175D01*
X29212Y-20175D01*
X29275Y-20112D01*
X29275Y-19875D01*
X29275Y-20574D01*
X29275Y-20337D01*
X29212Y-20275D01*
X28675Y-20275D01*
X28675Y-20712D01*
X28737Y-20775D01*
X28975Y-20775D01*
X29074Y-20774D01*
X29166Y-20736D01*
X29237Y-20666D01*
X29275Y-20574D01*
X29275Y-20679D01*
X29241Y-21093D01*
X29237Y-21083D01*
X29166Y-21013D01*
X29074Y-20975D01*
X28975Y-20974D01*
X28575Y-20974D01*
X28575Y-20712D01*
X28575Y-20275D01*
X28575Y-20175D01*
X28575Y-19737D01*
X28512Y-19675D01*
X28274Y-19674D01*
X28175Y-19675D01*
X28083Y-19713D01*
X28050Y-19746D01*
X28016Y-19713D01*
X27924Y-19675D01*
X27825Y-19674D01*
X27587Y-19675D01*
X27525Y-19737D01*
X27525Y-20175D01*
X28037Y-20175D01*
X28062Y-20175D01*
X28575Y-20175D01*
X28575Y-20275D01*
X28062Y-20275D01*
X28037Y-20275D01*
X27525Y-20275D01*
X27525Y-20712D01*
X27587Y-20775D01*
X27825Y-20775D01*
X27924Y-20774D01*
X28016Y-20736D01*
X28050Y-20703D01*
X28083Y-20736D01*
X28175Y-20774D01*
X28274Y-20775D01*
X28512Y-20775D01*
X28575Y-20712D01*
X28575Y-20974D01*
X28175Y-20974D01*
X28083Y-21012D01*
X28050Y-21046D01*
X28016Y-21013D01*
X27924Y-20975D01*
X27825Y-20974D01*
X27425Y-20974D01*
X27425Y-20712D01*
X27425Y-20275D01*
X27425Y-20175D01*
X27425Y-19737D01*
X27362Y-19675D01*
X27124Y-19674D01*
X27025Y-19675D01*
X26933Y-19713D01*
X26900Y-19746D01*
X26866Y-19713D01*
X26774Y-19675D01*
X26675Y-19674D01*
X26437Y-19675D01*
X26375Y-19737D01*
X26375Y-20175D01*
X26887Y-20175D01*
X26912Y-20175D01*
X27425Y-20175D01*
X27425Y-20275D01*
X26912Y-20275D01*
X26887Y-20275D01*
X26375Y-20275D01*
X26375Y-20712D01*
X26437Y-20775D01*
X26675Y-20775D01*
X26774Y-20774D01*
X26866Y-20736D01*
X26900Y-20703D01*
X26933Y-20736D01*
X27025Y-20774D01*
X27124Y-20775D01*
X27362Y-20775D01*
X27425Y-20712D01*
X27425Y-20974D01*
X27025Y-20974D01*
X26933Y-21012D01*
X26900Y-21046D01*
X26866Y-21013D01*
X26774Y-20975D01*
X26675Y-20974D01*
X26275Y-20974D01*
X26275Y-20712D01*
X26275Y-20275D01*
X26275Y-20175D01*
X26275Y-19737D01*
X26212Y-19675D01*
X25974Y-19674D01*
X25875Y-19675D01*
X25783Y-19713D01*
X25712Y-19783D01*
X25674Y-19875D01*
X25675Y-20112D01*
X25737Y-20175D01*
X26275Y-20175D01*
X26275Y-20275D01*
X25737Y-20275D01*
X25675Y-20337D01*
X25674Y-20574D01*
X25712Y-20666D01*
X25783Y-20736D01*
X25875Y-20774D01*
X25974Y-20775D01*
X26212Y-20775D01*
X26275Y-20712D01*
X26275Y-20974D01*
X25875Y-20974D01*
X25783Y-21012D01*
X25713Y-21083D01*
X25675Y-21175D01*
X25674Y-21274D01*
X25674Y-21874D01*
X25712Y-21966D01*
X25783Y-22036D01*
X25875Y-22074D01*
X25974Y-22075D01*
X26208Y-22075D01*
X26424Y-22291D01*
X26424Y-22312D01*
X26362Y-22250D01*
X26325Y-22249D01*
X26233Y-22287D01*
X26163Y-22358D01*
X26125Y-22450D01*
X26124Y-22549D01*
X26125Y-22612D01*
X26187Y-22675D01*
X26425Y-22675D01*
X26425Y-22667D01*
X26525Y-22667D01*
X26525Y-22675D01*
X26532Y-22675D01*
X26532Y-22775D01*
X26525Y-22775D01*
X26525Y-23137D01*
X26587Y-23200D01*
X26624Y-23200D01*
X26716Y-23162D01*
X26724Y-23153D01*
X26733Y-23161D01*
X26825Y-23199D01*
X26924Y-23200D01*
X27124Y-23200D01*
X27216Y-23162D01*
X27224Y-23153D01*
X27233Y-23161D01*
X27325Y-23199D01*
X27424Y-23200D01*
X27624Y-23200D01*
X27716Y-23162D01*
X27724Y-23153D01*
X27733Y-23161D01*
X27825Y-23199D01*
X27924Y-23200D01*
X28124Y-23200D01*
X28216Y-23162D01*
X28224Y-23153D01*
X28233Y-23161D01*
X28325Y-23199D01*
X28424Y-23200D01*
X28624Y-23200D01*
X28657Y-23186D01*
X28670Y-23251D01*
X28699Y-23295D01*
X26425Y-23295D01*
X26425Y-23137D01*
X26425Y-22775D01*
X26187Y-22775D01*
X26125Y-22837D01*
X26124Y-22900D01*
X26125Y-22999D01*
X26163Y-23091D01*
X26233Y-23162D01*
X26325Y-23200D01*
X26362Y-23200D01*
X26425Y-23137D01*
X26425Y-23295D01*
X26298Y-23320D01*
X26191Y-23391D01*
X23793Y-25789D01*
X23513Y-26070D01*
X17591Y-26070D01*
X17591Y-24912D01*
X17448Y-24566D01*
X17184Y-24302D01*
X16838Y-24158D01*
X16464Y-24158D01*
X16118Y-24301D01*
X15854Y-24565D01*
X15710Y-24911D01*
X15710Y-25285D01*
X15853Y-25631D01*
X16117Y-25895D01*
X16463Y-26039D01*
X16837Y-26039D01*
X17183Y-25896D01*
X17447Y-25632D01*
X17591Y-25286D01*
X17591Y-24912D01*
X17591Y-26070D01*
X15950Y-26070D01*
X15823Y-26095D01*
X15716Y-26166D01*
X15525Y-26358D01*
X15329Y-26162D01*
X15391Y-26137D01*
X15461Y-26066D01*
X15499Y-25974D01*
X15500Y-25875D01*
X15500Y-25525D01*
X15462Y-25433D01*
X15403Y-25375D01*
X15462Y-25316D01*
X15500Y-25224D01*
X15500Y-24775D01*
X15462Y-24683D01*
X15391Y-24613D01*
X15299Y-24575D01*
X15200Y-24574D01*
X15087Y-24575D01*
X15025Y-24637D01*
X15025Y-24950D01*
X15437Y-24950D01*
X15500Y-24887D01*
X15500Y-24775D01*
X15500Y-25224D01*
X15500Y-25112D01*
X15437Y-25050D01*
X15025Y-25050D01*
X15025Y-25057D01*
X14925Y-25057D01*
X14925Y-25050D01*
X14925Y-24950D01*
X14925Y-24637D01*
X14862Y-24575D01*
X14749Y-24574D01*
X14650Y-24575D01*
X14558Y-24613D01*
X14487Y-24683D01*
X14449Y-24775D01*
X14450Y-24887D01*
X14512Y-24950D01*
X14925Y-24950D01*
X14925Y-25050D01*
X14512Y-25050D01*
X14450Y-25112D01*
X14449Y-25224D01*
X14487Y-25316D01*
X14546Y-25375D01*
X14488Y-25433D01*
X14450Y-25525D01*
X14449Y-25624D01*
X14449Y-25974D01*
X14487Y-26066D01*
X14558Y-26136D01*
X14645Y-26172D01*
X14645Y-26200D01*
X14645Y-26275D01*
X14670Y-26401D01*
X14703Y-26450D01*
X14641Y-26491D01*
X14355Y-26778D01*
X14355Y-24575D01*
X14329Y-24448D01*
X14329Y-24448D01*
X14258Y-24341D01*
X12858Y-22941D01*
X12751Y-22870D01*
X12625Y-22845D01*
X12498Y-22845D01*
X12449Y-22825D01*
X12350Y-22824D01*
X12291Y-22824D01*
X11873Y-22406D01*
X11308Y-21841D01*
X11308Y-21819D01*
X11270Y-21728D01*
X11200Y-21657D01*
X10952Y-21410D01*
X10860Y-21372D01*
X10778Y-21371D01*
X10777Y-21289D01*
X10739Y-21197D01*
X10660Y-21118D01*
X10572Y-21118D01*
X10501Y-21188D01*
X10501Y-21047D01*
X10501Y-20959D01*
X10422Y-20879D01*
X10330Y-20841D01*
X10231Y-20841D01*
X10139Y-20879D01*
X10068Y-20949D01*
X9988Y-21029D01*
X9988Y-21118D01*
X10209Y-21339D01*
X10501Y-21047D01*
X10501Y-21188D01*
X10280Y-21409D01*
X10286Y-21415D01*
X10215Y-21486D01*
X10209Y-21480D01*
X10204Y-21486D01*
X10133Y-21415D01*
X10139Y-21409D01*
X9918Y-21188D01*
X9829Y-21188D01*
X9749Y-21268D01*
X9692Y-21325D01*
X8358Y-19991D01*
X7605Y-19238D01*
X7605Y-11375D01*
X7613Y-11334D01*
X7669Y-11358D01*
X7768Y-11358D01*
X7860Y-11320D01*
X7931Y-11250D01*
X8011Y-11170D01*
X8011Y-11081D01*
X7790Y-10860D01*
X7784Y-10866D01*
X7713Y-10795D01*
X7719Y-10790D01*
X7713Y-10784D01*
X7784Y-10713D01*
X7790Y-10719D01*
X7795Y-10713D01*
X7866Y-10784D01*
X7860Y-10790D01*
X8081Y-11011D01*
X8170Y-11011D01*
X8250Y-10931D01*
X8320Y-10860D01*
X8358Y-10768D01*
X8358Y-10669D01*
X8320Y-10577D01*
X8240Y-10498D01*
X8152Y-10498D01*
X8196Y-10454D01*
X8167Y-10425D01*
X8174Y-10425D01*
X8774Y-10425D01*
X8866Y-10387D01*
X8936Y-10316D01*
X8974Y-10224D01*
X8975Y-10125D01*
X8975Y-9522D01*
X9040Y-9549D01*
X9174Y-9550D01*
X9175Y-9662D01*
X9237Y-9725D01*
X9675Y-9725D01*
X9675Y-9187D01*
X9612Y-9125D01*
X9550Y-9124D01*
X9550Y-9092D01*
X9610Y-9032D01*
X9648Y-8941D01*
X9648Y-8841D01*
X9648Y-8369D01*
X9636Y-8340D01*
X9648Y-8311D01*
X9648Y-8211D01*
X9648Y-7739D01*
X9636Y-7710D01*
X9648Y-7681D01*
X9648Y-7581D01*
X9648Y-7109D01*
X9610Y-7017D01*
X9540Y-6947D01*
X9448Y-6908D01*
X9348Y-6908D01*
X9163Y-6908D01*
X9216Y-6887D01*
X9286Y-6816D01*
X9324Y-6724D01*
X9325Y-6625D01*
X9325Y-5825D01*
X9287Y-5733D01*
X9278Y-5725D01*
X9286Y-5716D01*
X9324Y-5624D01*
X9325Y-5525D01*
X9325Y-4725D01*
X9287Y-4633D01*
X9216Y-4563D01*
X9124Y-4525D01*
X9025Y-4524D01*
X8425Y-4524D01*
X8333Y-4562D01*
X8263Y-4633D01*
X8225Y-4725D01*
X8224Y-4824D01*
X8224Y-4919D01*
X8191Y-4941D01*
X8191Y-4941D01*
X8191Y-4941D01*
X7791Y-5341D01*
X7720Y-5448D01*
X7695Y-5575D01*
X7695Y-5974D01*
X7650Y-5974D01*
X7587Y-5975D01*
X7525Y-6037D01*
X7525Y-6275D01*
X7532Y-6275D01*
X7532Y-6375D01*
X7525Y-6375D01*
X7525Y-6382D01*
X7425Y-6382D01*
X7425Y-6375D01*
X7425Y-6275D01*
X7425Y-6037D01*
X7362Y-5975D01*
X7299Y-5974D01*
X7200Y-5975D01*
X7108Y-6013D01*
X7037Y-6083D01*
X6999Y-6175D01*
X7000Y-6212D01*
X7062Y-6275D01*
X7425Y-6275D01*
X7425Y-6375D01*
X7062Y-6375D01*
X7000Y-6437D01*
X6999Y-6474D01*
X7037Y-6566D01*
X7046Y-6574D01*
X7038Y-6583D01*
X7000Y-6675D01*
X6999Y-6774D01*
X6999Y-6974D01*
X7037Y-7066D01*
X7046Y-7074D01*
X7038Y-7083D01*
X7000Y-7175D01*
X6999Y-7274D01*
X6999Y-7474D01*
X7037Y-7566D01*
X7046Y-7574D01*
X7038Y-7583D01*
X7000Y-7675D01*
X6999Y-7774D01*
X6999Y-7974D01*
X7037Y-8066D01*
X7046Y-8074D01*
X7038Y-8083D01*
X7000Y-8175D01*
X7000Y-8183D01*
X6705Y-7888D01*
X6705Y-6011D01*
X8442Y-4274D01*
X9913Y-4475D01*
X10166Y-4546D01*
X10125Y-4587D01*
X10125Y-5125D01*
X10562Y-5125D01*
X10625Y-5062D01*
X10625Y-4824D01*
X10624Y-4725D01*
X10601Y-4667D01*
X15680Y-6085D01*
X15713Y-6099D01*
X18088Y-6547D01*
X18094Y-6547D01*
X18108Y-6552D01*
X18824Y-6641D01*
X21260Y-6945D01*
X19946Y-6945D01*
X19916Y-6914D01*
X19759Y-6850D01*
X19590Y-6849D01*
X19434Y-6914D01*
X19314Y-7033D01*
X19250Y-7190D01*
X19249Y-7359D01*
X19263Y-7392D01*
X19209Y-7414D01*
X19089Y-7533D01*
X19025Y-7690D01*
X19024Y-7850D01*
X18890Y-7849D01*
X18824Y-7877D01*
X18734Y-7914D01*
X18651Y-7997D01*
X18393Y-7425D01*
X18385Y-7414D01*
X18381Y-7401D01*
X18348Y-7362D01*
X18319Y-7321D01*
X18307Y-7313D01*
X18298Y-7303D01*
X17655Y-6791D01*
X17645Y-6786D01*
X17634Y-6775D01*
X17578Y-6752D01*
X17540Y-6732D01*
X17530Y-6731D01*
X17515Y-6725D01*
X16290Y-6476D01*
X16205Y-6476D01*
X16185Y-6474D01*
X16174Y-6476D01*
X16162Y-6476D01*
X16156Y-6478D01*
X11802Y-7005D01*
X11744Y-6947D01*
X11652Y-6908D01*
X11553Y-6908D01*
X11002Y-6908D01*
X10910Y-6946D01*
X10839Y-7017D01*
X10801Y-7108D01*
X10801Y-7208D01*
X10801Y-7680D01*
X10813Y-7709D01*
X10801Y-7738D01*
X10801Y-7838D01*
X10801Y-8310D01*
X10813Y-8339D01*
X10801Y-8368D01*
X10801Y-8468D01*
X10801Y-8940D01*
X10839Y-9032D01*
X10909Y-9102D01*
X11001Y-9141D01*
X11101Y-9141D01*
X11652Y-9141D01*
X11744Y-9103D01*
X11790Y-9056D01*
X15826Y-9652D01*
X15793Y-9656D01*
X15623Y-9679D01*
X15453Y-9705D01*
X15284Y-9736D01*
X15116Y-9770D01*
X14948Y-9809D01*
X14781Y-9852D01*
X14615Y-9899D01*
X14450Y-9950D01*
X14286Y-10005D01*
X14123Y-10064D01*
X13961Y-10127D01*
X13801Y-10195D01*
X13641Y-10266D01*
X13484Y-10342D01*
X13328Y-10422D01*
X13173Y-10505D01*
X13020Y-10593D01*
X12868Y-10685D01*
X12719Y-10781D01*
X12572Y-10881D01*
X12426Y-10985D01*
X12282Y-11094D01*
X12141Y-11206D01*
X12002Y-11322D01*
X11865Y-11443D01*
X11731Y-11567D01*
X11599Y-11696D01*
X11346Y-11963D01*
X11109Y-12239D01*
X10888Y-12524D01*
X10684Y-12817D01*
X10625Y-12911D01*
X10625Y-6625D01*
X10625Y-5924D01*
X10624Y-5825D01*
X10586Y-5733D01*
X10578Y-5725D01*
X10586Y-5716D01*
X10624Y-5624D01*
X10625Y-5525D01*
X10625Y-5287D01*
X10562Y-5225D01*
X10125Y-5225D01*
X10125Y-5687D01*
X10125Y-5762D01*
X10125Y-6225D01*
X10562Y-6225D01*
X10625Y-6162D01*
X10625Y-5924D01*
X10625Y-6625D01*
X10625Y-6387D01*
X10562Y-6325D01*
X10125Y-6325D01*
X10125Y-6862D01*
X10187Y-6925D01*
X10424Y-6925D01*
X10516Y-6887D01*
X10586Y-6816D01*
X10624Y-6724D01*
X10625Y-6625D01*
X10625Y-12911D01*
X10496Y-13118D01*
X10324Y-13425D01*
X10275Y-13525D01*
X10275Y-10125D01*
X10275Y-9424D01*
X10274Y-9325D01*
X10236Y-9233D01*
X10166Y-9162D01*
X10074Y-9124D01*
X10025Y-9124D01*
X10025Y-6862D01*
X10025Y-6325D01*
X10025Y-6225D01*
X10025Y-5762D01*
X10025Y-5687D01*
X10025Y-5225D01*
X10025Y-5125D01*
X10025Y-4587D01*
X9962Y-4525D01*
X9725Y-4524D01*
X9633Y-4562D01*
X9563Y-4633D01*
X9525Y-4725D01*
X9524Y-4824D01*
X9525Y-5062D01*
X9587Y-5125D01*
X10025Y-5125D01*
X10025Y-5225D01*
X9587Y-5225D01*
X9525Y-5287D01*
X9524Y-5525D01*
X9525Y-5624D01*
X9563Y-5716D01*
X9571Y-5725D01*
X9563Y-5733D01*
X9525Y-5825D01*
X9524Y-5924D01*
X9525Y-6162D01*
X9587Y-6225D01*
X10025Y-6225D01*
X10025Y-6325D01*
X9587Y-6325D01*
X9525Y-6387D01*
X9524Y-6625D01*
X9525Y-6724D01*
X9563Y-6816D01*
X9633Y-6887D01*
X9725Y-6925D01*
X9962Y-6925D01*
X10025Y-6862D01*
X10025Y-9124D01*
X9837Y-9125D01*
X9775Y-9187D01*
X9775Y-9725D01*
X10212Y-9725D01*
X10275Y-9662D01*
X10275Y-9424D01*
X10275Y-10125D01*
X10275Y-9887D01*
X10212Y-9825D01*
X9775Y-9825D01*
X9775Y-10362D01*
X9837Y-10425D01*
X10074Y-10425D01*
X10166Y-10387D01*
X10236Y-10316D01*
X10274Y-10224D01*
X10275Y-10125D01*
X10275Y-13525D01*
X10168Y-13739D01*
X10030Y-14059D01*
X9907Y-14384D01*
X9801Y-14713D01*
X9711Y-15046D01*
X9675Y-15213D01*
X9675Y-10362D01*
X9675Y-9825D01*
X9237Y-9825D01*
X9175Y-9887D01*
X9174Y-10125D01*
X9175Y-10224D01*
X9213Y-10316D01*
X9283Y-10387D01*
X9375Y-10425D01*
X9612Y-10425D01*
X9675Y-10362D01*
X9675Y-15213D01*
X9637Y-15383D01*
X9580Y-15722D01*
X9539Y-16062D01*
X9515Y-16404D01*
X9506Y-16747D01*
X9515Y-17090D01*
X9539Y-17432D01*
X9580Y-17773D01*
X9637Y-18111D01*
X9711Y-18448D01*
X9801Y-18781D01*
X9907Y-19110D01*
X10030Y-19435D01*
X10168Y-19755D01*
X10324Y-20069D01*
X10496Y-20377D01*
X10684Y-20678D01*
X10888Y-20971D01*
X11109Y-21256D01*
X11346Y-21532D01*
X11599Y-21798D01*
X11865Y-22051D01*
X12141Y-22288D01*
X12426Y-22509D01*
X12719Y-22713D01*
X13020Y-22901D01*
X13328Y-23073D01*
X13642Y-23229D01*
X13962Y-23367D01*
X14287Y-23490D01*
X14616Y-23596D01*
X14949Y-23686D01*
X15285Y-23759D01*
X15624Y-23817D01*
X15965Y-23858D01*
X16307Y-23882D01*
X16650Y-23890D01*
X16993Y-23882D01*
X17334Y-23858D01*
X17675Y-23817D01*
X18014Y-23759D01*
X18351Y-23686D01*
X18684Y-23596D01*
X19013Y-23490D01*
X19338Y-23367D01*
X19658Y-23229D01*
X19972Y-23073D01*
X20279Y-22901D01*
X20580Y-22713D01*
X20815Y-22550D01*
X20815Y-24665D01*
X20767Y-24684D01*
X20697Y-24755D01*
X20658Y-24847D01*
X20658Y-24946D01*
X20658Y-25497D01*
X20696Y-25589D01*
X20767Y-25660D01*
X20858Y-25698D01*
X20958Y-25698D01*
X21430Y-25698D01*
X21459Y-25686D01*
X21488Y-25698D01*
X21588Y-25698D01*
X22060Y-25698D01*
X22089Y-25686D01*
X22118Y-25698D01*
X22218Y-25698D01*
X22690Y-25698D01*
X22782Y-25660D01*
X22852Y-25590D01*
X22891Y-25498D01*
X22891Y-25398D01*
X22891Y-24847D01*
X22853Y-24755D01*
X22782Y-24685D01*
X22734Y-24665D01*
X22734Y-22731D01*
X23793Y-21673D01*
X31071Y-14395D01*
X31071Y-14395D01*
G37*
G54D24*
X31071Y-14395D02*
X29517Y-18093D01*
X29512Y-18098D01*
X29507Y-18115D01*
X29504Y-18122D01*
X29502Y-18133D01*
X29477Y-18222D01*
X29275Y-20679D01*
X29275Y-20574D01*
X29275Y-19875D01*
X29237Y-19783D01*
X29166Y-19713D01*
X29074Y-19675D01*
X28975Y-19674D01*
X28737Y-19675D01*
X28675Y-19737D01*
X28675Y-20175D01*
X29212Y-20175D01*
X29275Y-20112D01*
X29275Y-19875D01*
X29275Y-20574D01*
X29275Y-20337D01*
X29212Y-20275D01*
X28675Y-20275D01*
X28675Y-20712D01*
X28737Y-20775D01*
X28975Y-20775D01*
X29074Y-20774D01*
X29166Y-20736D01*
X29237Y-20666D01*
X29275Y-20574D01*
X29275Y-20679D01*
X29241Y-21093D01*
X29237Y-21083D01*
X29166Y-21013D01*
X29074Y-20975D01*
X28975Y-20974D01*
X28575Y-20974D01*
X28575Y-20712D01*
X28575Y-20275D01*
X28575Y-20175D01*
X28575Y-19737D01*
X28512Y-19675D01*
X28274Y-19674D01*
X28175Y-19675D01*
X28083Y-19713D01*
X28050Y-19746D01*
X28016Y-19713D01*
X27924Y-19675D01*
X27825Y-19674D01*
X27587Y-19675D01*
X27525Y-19737D01*
X27525Y-20175D01*
X28037Y-20175D01*
X28062Y-20175D01*
X28575Y-20175D01*
X28575Y-20275D01*
X28062Y-20275D01*
X28037Y-20275D01*
X27525Y-20275D01*
X27525Y-20712D01*
X27587Y-20775D01*
X27825Y-20775D01*
X27924Y-20774D01*
X28016Y-20736D01*
X28050Y-20703D01*
X28083Y-20736D01*
X28175Y-20774D01*
X28274Y-20775D01*
X28512Y-20775D01*
X28575Y-20712D01*
X28575Y-20974D01*
X28175Y-20974D01*
X28083Y-21012D01*
X28050Y-21046D01*
X28016Y-21013D01*
X27924Y-20975D01*
X27825Y-20974D01*
X27425Y-20974D01*
X27425Y-20712D01*
X27425Y-20275D01*
X27425Y-20175D01*
X27425Y-19737D01*
X27362Y-19675D01*
X27124Y-19674D01*
X27025Y-19675D01*
X26933Y-19713D01*
X26900Y-19746D01*
X26866Y-19713D01*
X26774Y-19675D01*
X26675Y-19674D01*
X26437Y-19675D01*
X26375Y-19737D01*
X26375Y-20175D01*
X26887Y-20175D01*
X26912Y-20175D01*
X27425Y-20175D01*
X27425Y-20275D01*
X26912Y-20275D01*
X26887Y-20275D01*
X26375Y-20275D01*
X26375Y-20712D01*
X26437Y-20775D01*
X26675Y-20775D01*
X26774Y-20774D01*
X26866Y-20736D01*
X26900Y-20703D01*
X26933Y-20736D01*
X27025Y-20774D01*
X27124Y-20775D01*
X27362Y-20775D01*
X27425Y-20712D01*
X27425Y-20974D01*
X27025Y-20974D01*
X26933Y-21012D01*
X26900Y-21046D01*
X26866Y-21013D01*
X26774Y-20975D01*
X26675Y-20974D01*
X26275Y-20974D01*
X26275Y-20712D01*
X26275Y-20275D01*
X26275Y-20175D01*
X26275Y-19737D01*
X26212Y-19675D01*
X25974Y-19674D01*
X25875Y-19675D01*
X25783Y-19713D01*
X25712Y-19783D01*
X25674Y-19875D01*
X25675Y-20112D01*
X25737Y-20175D01*
X26275Y-20175D01*
X26275Y-20275D01*
X25737Y-20275D01*
X25675Y-20337D01*
X25674Y-20574D01*
X25712Y-20666D01*
X25783Y-20736D01*
X25875Y-20774D01*
X25974Y-20775D01*
X26212Y-20775D01*
X26275Y-20712D01*
X26275Y-20974D01*
X25875Y-20974D01*
X25783Y-21012D01*
X25713Y-21083D01*
X25675Y-21175D01*
X25674Y-21274D01*
X25674Y-21874D01*
X25712Y-21966D01*
X25783Y-22036D01*
X25875Y-22074D01*
X25974Y-22075D01*
X26208Y-22075D01*
X26424Y-22291D01*
X26424Y-22312D01*
X26362Y-22250D01*
X26325Y-22249D01*
X26233Y-22287D01*
X26163Y-22358D01*
X26125Y-22450D01*
X26124Y-22549D01*
X26125Y-22612D01*
X26187Y-22675D01*
X26425Y-22675D01*
X26425Y-22667D01*
X26525Y-22667D01*
X26525Y-22675D01*
X26532Y-22675D01*
X26532Y-22775D01*
X26525Y-22775D01*
X26525Y-23137D01*
X26587Y-23200D01*
X26624Y-23200D01*
X26716Y-23162D01*
X26724Y-23153D01*
X26733Y-23161D01*
X26825Y-23199D01*
X26924Y-23200D01*
X27124Y-23200D01*
X27216Y-23162D01*
X27224Y-23153D01*
X27233Y-23161D01*
X27325Y-23199D01*
X27424Y-23200D01*
X27624Y-23200D01*
X27716Y-23162D01*
X27724Y-23153D01*
X27733Y-23161D01*
X27825Y-23199D01*
X27924Y-23200D01*
X28124Y-23200D01*
X28216Y-23162D01*
X28224Y-23153D01*
X28233Y-23161D01*
X28325Y-23199D01*
X28424Y-23200D01*
X28624Y-23200D01*
X28657Y-23186D01*
X28670Y-23251D01*
X28699Y-23295D01*
X26425Y-23295D01*
X26425Y-23137D01*
X26425Y-22775D01*
X26187Y-22775D01*
X26125Y-22837D01*
X26124Y-22900D01*
X26125Y-22999D01*
X26163Y-23091D01*
X26233Y-23162D01*
X26325Y-23200D01*
X26362Y-23200D01*
X26425Y-23137D01*
X26425Y-23295D01*
X26298Y-23320D01*
X26191Y-23391D01*
X23793Y-25789D01*
X23513Y-26070D01*
X17591Y-26070D01*
X17591Y-24912D01*
X17448Y-24566D01*
X17184Y-24302D01*
X16838Y-24158D01*
X16464Y-24158D01*
X16118Y-24301D01*
X15854Y-24565D01*
X15710Y-24911D01*
X15710Y-25285D01*
X15853Y-25631D01*
X16117Y-25895D01*
X16463Y-26039D01*
X16837Y-26039D01*
X17183Y-25896D01*
X17447Y-25632D01*
X17591Y-25286D01*
X17591Y-24912D01*
X17591Y-26070D01*
X15950Y-26070D01*
X15823Y-26095D01*
X15716Y-26166D01*
X15525Y-26358D01*
X15329Y-26162D01*
X15391Y-26137D01*
X15461Y-26066D01*
X15499Y-25974D01*
X15500Y-25875D01*
X15500Y-25525D01*
X15462Y-25433D01*
X15403Y-25375D01*
X15462Y-25316D01*
X15500Y-25224D01*
X15500Y-24775D01*
X15462Y-24683D01*
X15391Y-24613D01*
X15299Y-24575D01*
X15200Y-24574D01*
X15087Y-24575D01*
X15025Y-24637D01*
X15025Y-24950D01*
X15437Y-24950D01*
X15500Y-24887D01*
X15500Y-24775D01*
X15500Y-25224D01*
X15500Y-25112D01*
X15437Y-25050D01*
X15025Y-25050D01*
X15025Y-25057D01*
X14925Y-25057D01*
X14925Y-25050D01*
X14925Y-24950D01*
X14925Y-24637D01*
X14862Y-24575D01*
X14749Y-24574D01*
X14650Y-24575D01*
X14558Y-24613D01*
X14487Y-24683D01*
X14449Y-24775D01*
X14450Y-24887D01*
X14512Y-24950D01*
X14925Y-24950D01*
X14925Y-25050D01*
X14512Y-25050D01*
X14450Y-25112D01*
X14449Y-25224D01*
X14487Y-25316D01*
X14546Y-25375D01*
X14488Y-25433D01*
X14450Y-25525D01*
X14449Y-25624D01*
X14449Y-25974D01*
X14487Y-26066D01*
X14558Y-26136D01*
X14645Y-26172D01*
X14645Y-26200D01*
X14645Y-26275D01*
X14670Y-26401D01*
X14703Y-26450D01*
X14641Y-26491D01*
X14355Y-26778D01*
X14355Y-24575D01*
X14329Y-24448D01*
X14329Y-24448D01*
X14258Y-24341D01*
X12858Y-22941D01*
X12751Y-22870D01*
X12625Y-22845D01*
X12498Y-22845D01*
X12449Y-22825D01*
X12350Y-22824D01*
X12291Y-22824D01*
X11873Y-22406D01*
X11308Y-21841D01*
X11308Y-21819D01*
X11270Y-21728D01*
X11200Y-21657D01*
X10952Y-21410D01*
X10860Y-21372D01*
X10778Y-21371D01*
X10777Y-21289D01*
X10739Y-21197D01*
X10660Y-21118D01*
X10572Y-21118D01*
X10501Y-21188D01*
X10501Y-21047D01*
X10501Y-20959D01*
X10422Y-20879D01*
X10330Y-20841D01*
X10231Y-20841D01*
X10139Y-20879D01*
X10068Y-20949D01*
X9988Y-21029D01*
X9988Y-21118D01*
X10209Y-21339D01*
X10501Y-21047D01*
X10501Y-21188D01*
X10280Y-21409D01*
X10286Y-21415D01*
X10215Y-21486D01*
X10209Y-21480D01*
X10204Y-21486D01*
X10133Y-21415D01*
X10139Y-21409D01*
X9918Y-21188D01*
X9829Y-21188D01*
X9749Y-21268D01*
X9692Y-21325D01*
X8358Y-19991D01*
X7605Y-19238D01*
X7605Y-11375D01*
X7613Y-11334D01*
X7669Y-11358D01*
X7768Y-11358D01*
X7860Y-11320D01*
X7931Y-11250D01*
X8011Y-11170D01*
X8011Y-11081D01*
X7790Y-10860D01*
X7784Y-10866D01*
X7713Y-10795D01*
X7719Y-10790D01*
X7713Y-10784D01*
X7784Y-10713D01*
X7790Y-10719D01*
X7795Y-10713D01*
X7866Y-10784D01*
X7860Y-10790D01*
X8081Y-11011D01*
X8170Y-11011D01*
X8250Y-10931D01*
X8320Y-10860D01*
X8358Y-10768D01*
X8358Y-10669D01*
X8320Y-10577D01*
X8240Y-10498D01*
X8152Y-10498D01*
X8196Y-10454D01*
X8167Y-10425D01*
X8174Y-10425D01*
X8774Y-10425D01*
X8866Y-10387D01*
X8936Y-10316D01*
X8974Y-10224D01*
X8975Y-10125D01*
X8975Y-9522D01*
X9040Y-9549D01*
X9174Y-9550D01*
X9175Y-9662D01*
X9237Y-9725D01*
X9675Y-9725D01*
X9675Y-9187D01*
X9612Y-9125D01*
X9550Y-9124D01*
X9550Y-9092D01*
X9610Y-9032D01*
X9648Y-8941D01*
X9648Y-8841D01*
X9648Y-8369D01*
X9636Y-8340D01*
X9648Y-8311D01*
X9648Y-8211D01*
X9648Y-7739D01*
X9636Y-7710D01*
X9648Y-7681D01*
X9648Y-7581D01*
X9648Y-7109D01*
X9610Y-7017D01*
X9540Y-6947D01*
X9448Y-6908D01*
X9348Y-6908D01*
X9163Y-6908D01*
X9216Y-6887D01*
X9286Y-6816D01*
X9324Y-6724D01*
X9325Y-6625D01*
X9325Y-5825D01*
X9287Y-5733D01*
X9278Y-5725D01*
X9286Y-5716D01*
X9324Y-5624D01*
X9325Y-5525D01*
X9325Y-4725D01*
X9287Y-4633D01*
X9216Y-4563D01*
X9124Y-4525D01*
X9025Y-4524D01*
X8425Y-4524D01*
X8333Y-4562D01*
X8263Y-4633D01*
X8225Y-4725D01*
X8224Y-4824D01*
X8224Y-4919D01*
X8191Y-4941D01*
X8191Y-4941D01*
X8191Y-4941D01*
X7791Y-5341D01*
X7720Y-5448D01*
X7695Y-5575D01*
X7695Y-5974D01*
X7650Y-5974D01*
X7587Y-5975D01*
X7525Y-6037D01*
X7525Y-6275D01*
X7532Y-6275D01*
X7532Y-6375D01*
X7525Y-6375D01*
X7525Y-6382D01*
X7425Y-6382D01*
X7425Y-6375D01*
X7425Y-6275D01*
X7425Y-6037D01*
X7362Y-5975D01*
X7299Y-5974D01*
X7200Y-5975D01*
X7108Y-6013D01*
X7037Y-6083D01*
X6999Y-6175D01*
X7000Y-6212D01*
X7062Y-6275D01*
X7425Y-6275D01*
X7425Y-6375D01*
X7062Y-6375D01*
X7000Y-6437D01*
X6999Y-6474D01*
X7037Y-6566D01*
X7046Y-6574D01*
X7038Y-6583D01*
X7000Y-6675D01*
X6999Y-6774D01*
X6999Y-6974D01*
X7037Y-7066D01*
X7046Y-7074D01*
X7038Y-7083D01*
X7000Y-7175D01*
X6999Y-7274D01*
X6999Y-7474D01*
X7037Y-7566D01*
X7046Y-7574D01*
X7038Y-7583D01*
X7000Y-7675D01*
X6999Y-7774D01*
X6999Y-7974D01*
X7037Y-8066D01*
X7046Y-8074D01*
X7038Y-8083D01*
X7000Y-8175D01*
X7000Y-8183D01*
X6705Y-7888D01*
X6705Y-6011D01*
X8442Y-4274D01*
X9913Y-4475D01*
X10166Y-4546D01*
X10125Y-4587D01*
X10125Y-5125D01*
X10562Y-5125D01*
X10625Y-5062D01*
X10625Y-4824D01*
X10624Y-4725D01*
X10601Y-4667D01*
X15680Y-6085D01*
X15713Y-6099D01*
X18088Y-6547D01*
X18094Y-6547D01*
X18108Y-6552D01*
X18824Y-6641D01*
X21260Y-6945D01*
X19946Y-6945D01*
X19916Y-6914D01*
X19759Y-6850D01*
X19590Y-6849D01*
X19434Y-6914D01*
X19314Y-7033D01*
X19250Y-7190D01*
X19249Y-7359D01*
X19263Y-7392D01*
X19209Y-7414D01*
X19089Y-7533D01*
X19025Y-7690D01*
X19024Y-7850D01*
X18890Y-7849D01*
X18824Y-7877D01*
X18734Y-7914D01*
X18651Y-7997D01*
X18393Y-7425D01*
X18385Y-7414D01*
X18381Y-7401D01*
X18348Y-7362D01*
X18319Y-7321D01*
X18307Y-7313D01*
X18298Y-7303D01*
X17655Y-6791D01*
X17645Y-6786D01*
X17634Y-6775D01*
X17578Y-6752D01*
X17540Y-6732D01*
X17530Y-6731D01*
X17515Y-6725D01*
X16290Y-6476D01*
X16205Y-6476D01*
X16185Y-6474D01*
X16174Y-6476D01*
X16162Y-6476D01*
X16156Y-6478D01*
X11802Y-7005D01*
X11744Y-6947D01*
X11652Y-6908D01*
X11553Y-6908D01*
X11002Y-6908D01*
X10910Y-6946D01*
X10839Y-7017D01*
X10801Y-7108D01*
X10801Y-7208D01*
X10801Y-7680D01*
X10813Y-7709D01*
X10801Y-7738D01*
X10801Y-7838D01*
X10801Y-8310D01*
X10813Y-8339D01*
X10801Y-8368D01*
X10801Y-8468D01*
X10801Y-8940D01*
X10839Y-9032D01*
X10909Y-9102D01*
X11001Y-9141D01*
X11101Y-9141D01*
X11652Y-9141D01*
X11744Y-9103D01*
X11790Y-9056D01*
X15826Y-9652D01*
X15793Y-9656D01*
X15623Y-9679D01*
X15453Y-9705D01*
X15284Y-9736D01*
X15116Y-9770D01*
X14948Y-9809D01*
X14781Y-9852D01*
X14615Y-9899D01*
X14450Y-9950D01*
X14286Y-10005D01*
X14123Y-10064D01*
X13961Y-10127D01*
X13801Y-10195D01*
X13641Y-10266D01*
X13484Y-10342D01*
X13328Y-10422D01*
X13173Y-10505D01*
X13020Y-10593D01*
X12868Y-10685D01*
X12719Y-10781D01*
X12572Y-10881D01*
X12426Y-10985D01*
X12282Y-11094D01*
X12141Y-11206D01*
X12002Y-11322D01*
X11865Y-11443D01*
X11731Y-11567D01*
X11599Y-11696D01*
X11346Y-11963D01*
X11109Y-12239D01*
X10888Y-12524D01*
X10684Y-12817D01*
X10625Y-12911D01*
X10625Y-6625D01*
X10625Y-5924D01*
X10624Y-5825D01*
X10586Y-5733D01*
X10578Y-5725D01*
X10586Y-5716D01*
X10624Y-5624D01*
X10625Y-5525D01*
X10625Y-5287D01*
X10562Y-5225D01*
X10125Y-5225D01*
X10125Y-5687D01*
X10125Y-5762D01*
X10125Y-6225D01*
X10562Y-6225D01*
X10625Y-6162D01*
X10625Y-5924D01*
X10625Y-6625D01*
X10625Y-6387D01*
X10562Y-6325D01*
X10125Y-6325D01*
X10125Y-6862D01*
X10187Y-6925D01*
X10424Y-6925D01*
X10516Y-6887D01*
X10586Y-6816D01*
X10624Y-6724D01*
X10625Y-6625D01*
X10625Y-12911D01*
X10496Y-13118D01*
X10324Y-13425D01*
X10275Y-13525D01*
X10275Y-10125D01*
X10275Y-9424D01*
X10274Y-9325D01*
X10236Y-9233D01*
X10166Y-9162D01*
X10074Y-9124D01*
X10025Y-9124D01*
X10025Y-6862D01*
X10025Y-6325D01*
X10025Y-6225D01*
X10025Y-5762D01*
X10025Y-5687D01*
X10025Y-5225D01*
X10025Y-5125D01*
X10025Y-4587D01*
X9962Y-4525D01*
X9725Y-4524D01*
X9633Y-4562D01*
X9563Y-4633D01*
X9525Y-4725D01*
X9524Y-4824D01*
X9525Y-5062D01*
X9587Y-5125D01*
X10025Y-5125D01*
X10025Y-5225D01*
X9587Y-5225D01*
X9525Y-5287D01*
X9524Y-5525D01*
X9525Y-5624D01*
X9563Y-5716D01*
X9571Y-5725D01*
X9563Y-5733D01*
X9525Y-5825D01*
X9524Y-5924D01*
X9525Y-6162D01*
X9587Y-6225D01*
X10025Y-6225D01*
X10025Y-6325D01*
X9587Y-6325D01*
X9525Y-6387D01*
X9524Y-6625D01*
X9525Y-6724D01*
X9563Y-6816D01*
X9633Y-6887D01*
X9725Y-6925D01*
X9962Y-6925D01*
X10025Y-6862D01*
X10025Y-9124D01*
X9837Y-9125D01*
X9775Y-9187D01*
X9775Y-9725D01*
X10212Y-9725D01*
X10275Y-9662D01*
X10275Y-9424D01*
X10275Y-10125D01*
X10275Y-9887D01*
X10212Y-9825D01*
X9775Y-9825D01*
X9775Y-10362D01*
X9837Y-10425D01*
X10074Y-10425D01*
X10166Y-10387D01*
X10236Y-10316D01*
X10274Y-10224D01*
X10275Y-10125D01*
X10275Y-13525D01*
X10168Y-13739D01*
X10030Y-14059D01*
X9907Y-14384D01*
X9801Y-14713D01*
X9711Y-15046D01*
X9675Y-15213D01*
X9675Y-10362D01*
X9675Y-9825D01*
X9237Y-9825D01*
X9175Y-9887D01*
X9174Y-10125D01*
X9175Y-10224D01*
X9213Y-10316D01*
X9283Y-10387D01*
X9375Y-10425D01*
X9612Y-10425D01*
X9675Y-10362D01*
X9675Y-15213D01*
X9637Y-15383D01*
X9580Y-15722D01*
X9539Y-16062D01*
X9515Y-16404D01*
X9506Y-16747D01*
X9515Y-17090D01*
X9539Y-17432D01*
X9580Y-17773D01*
X9637Y-18111D01*
X9711Y-18448D01*
X9801Y-18781D01*
X9907Y-19110D01*
X10030Y-19435D01*
X10168Y-19755D01*
X10324Y-20069D01*
X10496Y-20377D01*
X10684Y-20678D01*
X10888Y-20971D01*
X11109Y-21256D01*
X11346Y-21532D01*
X11599Y-21798D01*
X11865Y-22051D01*
X12141Y-22288D01*
X12426Y-22509D01*
X12719Y-22713D01*
X13020Y-22901D01*
X13328Y-23073D01*
X13642Y-23229D01*
X13962Y-23367D01*
X14287Y-23490D01*
X14616Y-23596D01*
X14949Y-23686D01*
X15285Y-23759D01*
X15624Y-23817D01*
X15965Y-23858D01*
X16307Y-23882D01*
X16650Y-23890D01*
X16993Y-23882D01*
X17334Y-23858D01*
X17675Y-23817D01*
X18014Y-23759D01*
X18351Y-23686D01*
X18684Y-23596D01*
X19013Y-23490D01*
X19338Y-23367D01*
X19658Y-23229D01*
X19972Y-23073D01*
X20279Y-22901D01*
X20580Y-22713D01*
X20815Y-22550D01*
X20815Y-24665D01*
X20767Y-24684D01*
X20697Y-24755D01*
X20658Y-24847D01*
X20658Y-24946D01*
X20658Y-25497D01*
X20696Y-25589D01*
X20767Y-25660D01*
X20858Y-25698D01*
X20958Y-25698D01*
X21430Y-25698D01*
X21459Y-25686D01*
X21488Y-25698D01*
X21588Y-25698D01*
X22060Y-25698D01*
X22089Y-25686D01*
X22118Y-25698D01*
X22218Y-25698D01*
X22690Y-25698D01*
X22782Y-25660D01*
X22852Y-25590D01*
X22891Y-25498D01*
X22891Y-25398D01*
X22891Y-24847D01*
X22853Y-24755D01*
X22782Y-24685D01*
X22734Y-24665D01*
X22734Y-22731D01*
X23793Y-21673D01*
X31071Y-14395D01*
G54D10*
G36*
X32086Y-8328D02*
X31455Y-12603D01*
X31455Y-11925D01*
X31454Y-11924D01*
X31455Y-11924D01*
X31450Y-11899D01*
X31429Y-11798D01*
X31429Y-11798D01*
X31358Y-11691D01*
X31358Y-11691D01*
X30678Y-11011D01*
X30602Y-10961D01*
X30602Y-10959D01*
X30565Y-10867D01*
X30494Y-10797D01*
X30402Y-10758D01*
X30303Y-10758D01*
X30275Y-10758D01*
X30275Y-9875D01*
X30275Y-9174D01*
X30274Y-9075D01*
X30236Y-8983D01*
X30178Y-8925D01*
X30236Y-8866D01*
X30274Y-8774D01*
X30275Y-8675D01*
X30275Y-7974D01*
X30274Y-7875D01*
X30236Y-7783D01*
X30203Y-7750D01*
X30236Y-7716D01*
X30274Y-7624D01*
X30275Y-7525D01*
X30275Y-7287D01*
X30212Y-7225D01*
X29775Y-7225D01*
X29775Y-7737D01*
X29775Y-7762D01*
X29775Y-8275D01*
X30212Y-8275D01*
X30275Y-8212D01*
X30275Y-7974D01*
X30275Y-8675D01*
X30275Y-8437D01*
X30212Y-8375D01*
X29775Y-8375D01*
X29775Y-8912D01*
X29787Y-8925D01*
X29775Y-8937D01*
X29775Y-9475D01*
X30212Y-9475D01*
X30275Y-9412D01*
X30275Y-9174D01*
X30275Y-9875D01*
X30275Y-9637D01*
X30212Y-9575D01*
X29775Y-9575D01*
X29775Y-10112D01*
X29837Y-10175D01*
X30074Y-10175D01*
X30166Y-10137D01*
X30236Y-10066D01*
X30274Y-9974D01*
X30275Y-9875D01*
X30275Y-10758D01*
X29752Y-10758D01*
X29660Y-10796D01*
X29589Y-10867D01*
X29551Y-10958D01*
X29551Y-11058D01*
X29551Y-11530D01*
X29563Y-11559D01*
X29551Y-11588D01*
X29551Y-11688D01*
X29551Y-12160D01*
X29563Y-12189D01*
X29551Y-12218D01*
X29551Y-12318D01*
X29551Y-12790D01*
X29589Y-12882D01*
X29659Y-12952D01*
X29747Y-12989D01*
X29747Y-13435D01*
X23793Y-19389D01*
X22802Y-20380D01*
X22804Y-20377D01*
X22976Y-20069D01*
X23131Y-19755D01*
X23270Y-19435D01*
X23393Y-19110D01*
X23499Y-18781D01*
X23589Y-18448D01*
X23662Y-18111D01*
X23720Y-17773D01*
X23761Y-17432D01*
X23785Y-17090D01*
X23793Y-16747D01*
X23785Y-16404D01*
X23761Y-16062D01*
X23720Y-15722D01*
X23662Y-15383D01*
X23589Y-15047D01*
X23499Y-14713D01*
X23393Y-14384D01*
X23270Y-14059D01*
X23131Y-13739D01*
X22976Y-13425D01*
X22804Y-13118D01*
X22616Y-12817D01*
X22412Y-12524D01*
X22191Y-12239D01*
X21954Y-11963D01*
X21701Y-11696D01*
X21583Y-11582D01*
X22455Y-12057D01*
X22458Y-12059D01*
X22462Y-12061D01*
X22467Y-12063D01*
X22495Y-12072D01*
X22579Y-12101D01*
X27347Y-12763D01*
X27347Y-12790D01*
X27384Y-12882D01*
X27455Y-12952D01*
X27547Y-12991D01*
X27646Y-12991D01*
X28197Y-12991D01*
X28289Y-12953D01*
X28360Y-12882D01*
X28398Y-12791D01*
X28398Y-12691D01*
X28398Y-12219D01*
X28386Y-12190D01*
X28398Y-12161D01*
X28398Y-12061D01*
X28398Y-11589D01*
X28386Y-11560D01*
X28398Y-11531D01*
X28398Y-11431D01*
X28398Y-11055D01*
X28675Y-11055D01*
X28801Y-11029D01*
X28801Y-11029D01*
X28908Y-10958D01*
X29308Y-10558D01*
X29308Y-10558D01*
X29308Y-10558D01*
X29379Y-10451D01*
X29379Y-10451D01*
X29404Y-10325D01*
X29405Y-10325D01*
X29405Y-10175D01*
X29612Y-10175D01*
X29675Y-10112D01*
X29675Y-9575D01*
X29667Y-9575D01*
X29667Y-9475D01*
X29675Y-9475D01*
X29675Y-8937D01*
X29662Y-8925D01*
X29675Y-8912D01*
X29675Y-8375D01*
X29667Y-8375D01*
X29667Y-8275D01*
X29675Y-8275D01*
X29675Y-7762D01*
X29675Y-7737D01*
X29675Y-7225D01*
X29667Y-7225D01*
X29667Y-7125D01*
X29675Y-7125D01*
X29675Y-7117D01*
X29775Y-7117D01*
X29775Y-7125D01*
X30212Y-7125D01*
X30275Y-7062D01*
X30275Y-6841D01*
X30999Y-7566D01*
X30916Y-8013D01*
X30936Y-8110D01*
X30992Y-8192D01*
X31076Y-8247D01*
X31173Y-8265D01*
X31714Y-8366D01*
X31811Y-8346D01*
X31893Y-8290D01*
X31948Y-8207D01*
X31965Y-8116D01*
X32029Y-8272D01*
X32086Y-8328D01*
X32086Y-8328D01*
G37*
G54D24*
X32086Y-8328D02*
X31455Y-12603D01*
X31455Y-11925D01*
X31454Y-11924D01*
X31455Y-11924D01*
X31450Y-11899D01*
X31429Y-11798D01*
X31429Y-11798D01*
X31358Y-11691D01*
X31358Y-11691D01*
X30678Y-11011D01*
X30602Y-10961D01*
X30602Y-10959D01*
X30565Y-10867D01*
X30494Y-10797D01*
X30402Y-10758D01*
X30303Y-10758D01*
X30275Y-10758D01*
X30275Y-9875D01*
X30275Y-9174D01*
X30274Y-9075D01*
X30236Y-8983D01*
X30178Y-8925D01*
X30236Y-8866D01*
X30274Y-8774D01*
X30275Y-8675D01*
X30275Y-7974D01*
X30274Y-7875D01*
X30236Y-7783D01*
X30203Y-7750D01*
X30236Y-7716D01*
X30274Y-7624D01*
X30275Y-7525D01*
X30275Y-7287D01*
X30212Y-7225D01*
X29775Y-7225D01*
X29775Y-7737D01*
X29775Y-7762D01*
X29775Y-8275D01*
X30212Y-8275D01*
X30275Y-8212D01*
X30275Y-7974D01*
X30275Y-8675D01*
X30275Y-8437D01*
X30212Y-8375D01*
X29775Y-8375D01*
X29775Y-8912D01*
X29787Y-8925D01*
X29775Y-8937D01*
X29775Y-9475D01*
X30212Y-9475D01*
X30275Y-9412D01*
X30275Y-9174D01*
X30275Y-9875D01*
X30275Y-9637D01*
X30212Y-9575D01*
X29775Y-9575D01*
X29775Y-10112D01*
X29837Y-10175D01*
X30074Y-10175D01*
X30166Y-10137D01*
X30236Y-10066D01*
X30274Y-9974D01*
X30275Y-9875D01*
X30275Y-10758D01*
X29752Y-10758D01*
X29660Y-10796D01*
X29589Y-10867D01*
X29551Y-10958D01*
X29551Y-11058D01*
X29551Y-11530D01*
X29563Y-11559D01*
X29551Y-11588D01*
X29551Y-11688D01*
X29551Y-12160D01*
X29563Y-12189D01*
X29551Y-12218D01*
X29551Y-12318D01*
X29551Y-12790D01*
X29589Y-12882D01*
X29659Y-12952D01*
X29747Y-12989D01*
X29747Y-13435D01*
X23793Y-19389D01*
X22802Y-20380D01*
X22804Y-20377D01*
X22976Y-20069D01*
X23131Y-19755D01*
X23270Y-19435D01*
X23393Y-19110D01*
X23499Y-18781D01*
X23589Y-18448D01*
X23662Y-18111D01*
X23720Y-17773D01*
X23761Y-17432D01*
X23785Y-17090D01*
X23793Y-16747D01*
X23785Y-16404D01*
X23761Y-16062D01*
X23720Y-15722D01*
X23662Y-15383D01*
X23589Y-15047D01*
X23499Y-14713D01*
X23393Y-14384D01*
X23270Y-14059D01*
X23131Y-13739D01*
X22976Y-13425D01*
X22804Y-13118D01*
X22616Y-12817D01*
X22412Y-12524D01*
X22191Y-12239D01*
X21954Y-11963D01*
X21701Y-11696D01*
X21583Y-11582D01*
X22455Y-12057D01*
X22458Y-12059D01*
X22462Y-12061D01*
X22467Y-12063D01*
X22495Y-12072D01*
X22579Y-12101D01*
X27347Y-12763D01*
X27347Y-12790D01*
X27384Y-12882D01*
X27455Y-12952D01*
X27547Y-12991D01*
X27646Y-12991D01*
X28197Y-12991D01*
X28289Y-12953D01*
X28360Y-12882D01*
X28398Y-12791D01*
X28398Y-12691D01*
X28398Y-12219D01*
X28386Y-12190D01*
X28398Y-12161D01*
X28398Y-12061D01*
X28398Y-11589D01*
X28386Y-11560D01*
X28398Y-11531D01*
X28398Y-11431D01*
X28398Y-11055D01*
X28675Y-11055D01*
X28801Y-11029D01*
X28801Y-11029D01*
X28908Y-10958D01*
X29308Y-10558D01*
X29308Y-10558D01*
X29308Y-10558D01*
X29379Y-10451D01*
X29379Y-10451D01*
X29404Y-10325D01*
X29405Y-10325D01*
X29405Y-10175D01*
X29612Y-10175D01*
X29675Y-10112D01*
X29675Y-9575D01*
X29667Y-9575D01*
X29667Y-9475D01*
X29675Y-9475D01*
X29675Y-8937D01*
X29662Y-8925D01*
X29675Y-8912D01*
X29675Y-8375D01*
X29667Y-8375D01*
X29667Y-8275D01*
X29675Y-8275D01*
X29675Y-7762D01*
X29675Y-7737D01*
X29675Y-7225D01*
X29667Y-7225D01*
X29667Y-7125D01*
X29675Y-7125D01*
X29675Y-7117D01*
X29775Y-7117D01*
X29775Y-7125D01*
X30212Y-7125D01*
X30275Y-7062D01*
X30275Y-6841D01*
X30999Y-7566D01*
X30916Y-8013D01*
X30936Y-8110D01*
X30992Y-8192D01*
X31076Y-8247D01*
X31173Y-8265D01*
X31714Y-8366D01*
X31811Y-8346D01*
X31893Y-8290D01*
X31948Y-8207D01*
X31965Y-8116D01*
X32029Y-8272D01*
X32086Y-8328D01*
G54D10*
G36*
X35889Y-7281D02*
X35160Y-10181D01*
X34975Y-10135D01*
X34975Y-8307D01*
X34943Y-8159D01*
X34857Y-8118D01*
X34800Y-8157D01*
X34800Y-8036D01*
X34793Y-7940D01*
X34612Y-7835D01*
X34405Y-7808D01*
X34257Y-7840D01*
X34216Y-7926D01*
X34453Y-8273D01*
X34800Y-8036D01*
X34800Y-8157D01*
X34510Y-8355D01*
X34747Y-8702D01*
X34843Y-8695D01*
X34947Y-8514D01*
X34975Y-8307D01*
X34975Y-10135D01*
X34665Y-10057D01*
X34665Y-8759D01*
X34427Y-8412D01*
X34081Y-8649D01*
X34088Y-8745D01*
X34268Y-8849D01*
X34475Y-8877D01*
X34624Y-8845D01*
X34665Y-8759D01*
X34665Y-10057D01*
X34296Y-9964D01*
X34099Y-9914D01*
X34044Y-10111D01*
X33211Y-13428D01*
X33160Y-13625D01*
X33362Y-13676D01*
X35289Y-14160D01*
X34553Y-17074D01*
X33748Y-16871D01*
X33748Y-14773D01*
X33704Y-14474D01*
X33598Y-14382D01*
X33546Y-14413D01*
X33546Y-14296D01*
X33516Y-14159D01*
X33244Y-13965D01*
X32919Y-13889D01*
X32620Y-13932D01*
X32528Y-14039D01*
X32908Y-14677D01*
X33546Y-14296D01*
X33546Y-14413D01*
X32959Y-14763D01*
X33340Y-15401D01*
X33477Y-15371D01*
X33672Y-15099D01*
X33748Y-14773D01*
X33748Y-16871D01*
X33692Y-16857D01*
X33490Y-16802D01*
X33440Y-17004D01*
X33254Y-17743D01*
X33254Y-15452D01*
X32874Y-14814D01*
X32235Y-15194D01*
X32266Y-15331D01*
X32538Y-15526D01*
X32863Y-15602D01*
X33162Y-15558D01*
X33254Y-15452D01*
X33254Y-17743D01*
X33249Y-17763D01*
X33249Y-16487D01*
X33121Y-16178D01*
X32885Y-15942D01*
X32576Y-15813D01*
X32242Y-15813D01*
X31933Y-15941D01*
X31696Y-16177D01*
X31568Y-16486D01*
X31567Y-16820D01*
X31695Y-17129D01*
X31931Y-17366D01*
X32240Y-17494D01*
X32575Y-17494D01*
X32884Y-17367D01*
X33120Y-17130D01*
X33248Y-16822D01*
X33249Y-16487D01*
X33249Y-17763D01*
X32657Y-20116D01*
X32497Y-20076D01*
X32497Y-17612D01*
X32296Y-17561D01*
X31837Y-17447D01*
X31636Y-17397D01*
X31586Y-17598D01*
X31252Y-18921D01*
X31202Y-19122D01*
X31403Y-19172D01*
X31861Y-19290D01*
X32063Y-19341D01*
X32113Y-19139D01*
X32447Y-17813D01*
X32497Y-17612D01*
X32497Y-20076D01*
X31796Y-19902D01*
X31595Y-19847D01*
X31544Y-20049D01*
X30711Y-23362D01*
X30660Y-23563D01*
X30858Y-23613D01*
X32785Y-24097D01*
X32053Y-27008D01*
X31188Y-26791D01*
X30987Y-26740D01*
X30936Y-26941D01*
X30135Y-30135D01*
X30000Y-30169D01*
X30000Y-26574D01*
X30000Y-26462D01*
X29937Y-26400D01*
X29525Y-26400D01*
X29525Y-26712D01*
X29587Y-26775D01*
X29700Y-26775D01*
X29799Y-26774D01*
X29891Y-26736D01*
X29962Y-26666D01*
X30000Y-26574D01*
X30000Y-30169D01*
X29425Y-30313D01*
X29425Y-26712D01*
X29425Y-26400D01*
X29012Y-26400D01*
X28950Y-26462D01*
X28949Y-26574D01*
X28987Y-26666D01*
X29058Y-26736D01*
X29150Y-26774D01*
X29249Y-26775D01*
X29362Y-26775D01*
X29425Y-26712D01*
X29425Y-30313D01*
X27143Y-30886D01*
X26926Y-30029D01*
X26875Y-29822D01*
X26677Y-29878D01*
X23793Y-30602D01*
X23361Y-30711D01*
X23165Y-30761D01*
X23211Y-30962D01*
X23698Y-32886D01*
X23009Y-33060D01*
X23009Y-30748D01*
X22920Y-30425D01*
X22740Y-30183D01*
X22603Y-30153D01*
X22517Y-30297D01*
X22517Y-30101D01*
X22425Y-29995D01*
X22093Y-29953D01*
X21771Y-30041D01*
X21528Y-30222D01*
X21498Y-30359D01*
X22136Y-30740D01*
X22517Y-30101D01*
X22517Y-30297D01*
X22222Y-30791D01*
X22860Y-31171D01*
X22967Y-31079D01*
X23009Y-30748D01*
X23009Y-33060D01*
X22809Y-33110D01*
X22809Y-31257D01*
X22171Y-30877D01*
X22085Y-31021D01*
X22085Y-30825D01*
X21447Y-30445D01*
X21341Y-30537D01*
X21299Y-30869D01*
X21387Y-31191D01*
X21568Y-31433D01*
X21705Y-31464D01*
X22085Y-30825D01*
X22085Y-31021D01*
X21791Y-31515D01*
X21882Y-31621D01*
X22214Y-31663D01*
X22537Y-31575D01*
X22779Y-31394D01*
X22809Y-31257D01*
X22809Y-33110D01*
X21086Y-33543D01*
X21086Y-31124D01*
X20958Y-30815D01*
X20722Y-30579D01*
X20413Y-30451D01*
X20079Y-30450D01*
X19770Y-30578D01*
X19533Y-30814D01*
X19405Y-31123D01*
X19405Y-31457D01*
X19532Y-31766D01*
X19769Y-32003D01*
X20077Y-32131D01*
X20412Y-32132D01*
X20721Y-32004D01*
X20957Y-31768D01*
X21086Y-31459D01*
X21086Y-31124D01*
X21086Y-33543D01*
X20785Y-33619D01*
X20568Y-32754D01*
X20518Y-32556D01*
X20317Y-32607D01*
X19337Y-32853D01*
X19337Y-32063D01*
X19287Y-31862D01*
X19172Y-31403D01*
X19122Y-31202D01*
X18921Y-31252D01*
X17594Y-31586D01*
X17393Y-31636D01*
X17443Y-31838D01*
X17561Y-32296D01*
X17612Y-32497D01*
X17813Y-32447D01*
X19136Y-32113D01*
X19337Y-32063D01*
X19337Y-32853D01*
X17212Y-33386D01*
X16992Y-32528D01*
X16942Y-32327D01*
X16740Y-32378D01*
X13428Y-33211D01*
X13227Y-33261D01*
X13277Y-33466D01*
X13761Y-35386D01*
X10848Y-36119D01*
X10634Y-35257D01*
X10579Y-35056D01*
X10382Y-35107D01*
X8877Y-35486D01*
X8877Y-34417D01*
X8828Y-34214D01*
X8745Y-34088D01*
X8649Y-34081D01*
X8412Y-34427D01*
X8759Y-34665D01*
X8845Y-34624D01*
X8877Y-34417D01*
X8877Y-35486D01*
X8702Y-35530D01*
X8702Y-34747D01*
X8355Y-34510D01*
X8273Y-34630D01*
X8273Y-34453D01*
X7926Y-34216D01*
X7840Y-34257D01*
X7808Y-34463D01*
X7857Y-34666D01*
X7940Y-34793D01*
X8036Y-34800D01*
X8273Y-34453D01*
X8273Y-34630D01*
X8118Y-34857D01*
X8159Y-34943D01*
X8365Y-34975D01*
X8568Y-34926D01*
X8695Y-34843D01*
X8702Y-34747D01*
X8702Y-35530D01*
X7281Y-35889D01*
X5943Y-29083D01*
X6814Y-28913D01*
X7025Y-28876D01*
X6978Y-28669D01*
X6270Y-25059D01*
X6234Y-24853D01*
X6027Y-24894D01*
X5582Y-24982D01*
X5582Y-18653D01*
X5541Y-18447D01*
X5256Y-17003D01*
X5219Y-16796D01*
X5013Y-16842D01*
X4551Y-16936D01*
X4349Y-16977D01*
X4391Y-17179D01*
X4675Y-18619D01*
X4712Y-18821D01*
X4918Y-18784D01*
X5380Y-18694D01*
X5582Y-18653D01*
X5582Y-24982D01*
X4083Y-25277D01*
X3453Y-22070D01*
X4324Y-21902D01*
X4526Y-21861D01*
X4485Y-21659D01*
X3110Y-14636D01*
X3980Y-14465D01*
X4182Y-14428D01*
X4145Y-14225D01*
X3433Y-10614D01*
X3397Y-10408D01*
X3376Y-10413D01*
X3376Y-2469D01*
X2962Y-1865D01*
X2963Y-1863D01*
X2900Y-1799D01*
X2900Y-1774D01*
X2480Y-1161D01*
X2345Y-1200D01*
X2168Y-1483D01*
X2112Y-1813D01*
X2175Y-2109D01*
X2287Y-2194D01*
X2900Y-1774D01*
X2900Y-1799D01*
X2893Y-1793D01*
X2553Y-2133D01*
X2343Y-2276D01*
X2358Y-2328D01*
X2357Y-2328D01*
X2328Y-2357D01*
X2328Y-2358D01*
X2276Y-2343D01*
X2194Y-2464D01*
X2194Y-2287D01*
X2109Y-2175D01*
X1780Y-2112D01*
X1453Y-2180D01*
X1200Y-2345D01*
X1161Y-2480D01*
X1774Y-2900D01*
X2194Y-2287D01*
X2194Y-2464D01*
X2133Y-2553D01*
X1793Y-2893D01*
X1863Y-2963D01*
X1865Y-2962D01*
X2469Y-3376D01*
X2581Y-3291D01*
X2644Y-2962D01*
X2576Y-2635D01*
X2464Y-2462D01*
X2665Y-2588D01*
X2995Y-2644D01*
X3291Y-2581D01*
X3376Y-2469D01*
X3376Y-10413D01*
X3190Y-10450D01*
X2990Y-10489D01*
X2990Y-4738D01*
X2862Y-4428D01*
X2626Y-4192D01*
X2413Y-4103D01*
X2413Y-3458D01*
X1800Y-3039D01*
X1717Y-3159D01*
X1717Y-2982D01*
X1104Y-2562D01*
X993Y-2647D01*
X930Y-2976D01*
X998Y-3303D01*
X1163Y-3556D01*
X1298Y-3595D01*
X1717Y-2982D01*
X1717Y-3159D01*
X1380Y-3652D01*
X1465Y-3763D01*
X1794Y-3826D01*
X2121Y-3758D01*
X2374Y-3593D01*
X2413Y-3458D01*
X2413Y-4103D01*
X2317Y-4064D01*
X1983Y-4063D01*
X1674Y-4191D01*
X1437Y-4427D01*
X1309Y-4736D01*
X1308Y-5070D01*
X1436Y-5379D01*
X1672Y-5616D01*
X1981Y-5744D01*
X2316Y-5745D01*
X2625Y-5617D01*
X2861Y-5381D01*
X2989Y-5072D01*
X2990Y-4738D01*
X2990Y-10489D01*
X1247Y-10832D01*
X617Y-7629D01*
X1491Y-7457D01*
X1693Y-7416D01*
X1652Y-7211D01*
X295Y-295D01*
X7009Y-1615D01*
X6839Y-2482D01*
X6798Y-2687D01*
X6999Y-2728D01*
X10614Y-3433D01*
X10821Y-3479D01*
X10854Y-3271D01*
X11236Y-1325D01*
X14444Y-1958D01*
X14273Y-2826D01*
X14232Y-3031D01*
X14434Y-3072D01*
X21457Y-4448D01*
X21283Y-5319D01*
X21242Y-5525D01*
X21448Y-5562D01*
X25058Y-6270D01*
X25259Y-6311D01*
X25305Y-6110D01*
X25684Y-4162D01*
X28888Y-4792D01*
X28717Y-5663D01*
X28676Y-5865D01*
X28881Y-5905D01*
X29845Y-6095D01*
X29325Y-6095D01*
X29198Y-6120D01*
X29091Y-6191D01*
X29091Y-6191D01*
X28841Y-6441D01*
X28783Y-6528D01*
X28774Y-6525D01*
X28675Y-6524D01*
X28075Y-6524D01*
X27983Y-6562D01*
X27913Y-6633D01*
X27875Y-6725D01*
X27874Y-6824D01*
X27874Y-6956D01*
X27799Y-6925D01*
X27700Y-6924D01*
X27637Y-6925D01*
X27575Y-6987D01*
X27575Y-7225D01*
X27582Y-7225D01*
X27582Y-7325D01*
X27575Y-7325D01*
X27575Y-7332D01*
X27475Y-7332D01*
X27475Y-7325D01*
X27467Y-7325D01*
X27467Y-7225D01*
X27475Y-7225D01*
X27475Y-6987D01*
X27412Y-6925D01*
X27349Y-6924D01*
X27250Y-6925D01*
X27158Y-6963D01*
X27087Y-7033D01*
X27053Y-7117D01*
X27050Y-7099D01*
X27051Y-7076D01*
X27038Y-7040D01*
X27029Y-6998D01*
X27015Y-6977D01*
X27007Y-6955D01*
X26982Y-6927D01*
X26958Y-6891D01*
X26936Y-6877D01*
X26921Y-6860D01*
X26346Y-6434D01*
X26319Y-6421D01*
X26285Y-6398D01*
X26251Y-6390D01*
X26229Y-6379D01*
X26200Y-6378D01*
X26160Y-6369D01*
X23810Y-6295D01*
X23808Y-6295D01*
X18824Y-5488D01*
X18680Y-5464D01*
X18697Y-5380D01*
X18787Y-4914D01*
X18824Y-4710D01*
X18623Y-4668D01*
X17175Y-4387D01*
X16970Y-4351D01*
X16929Y-4551D01*
X16839Y-5017D01*
X16813Y-5162D01*
X16614Y-5130D01*
X16614Y-5130D01*
X11355Y-3661D01*
X11346Y-3661D01*
X11322Y-3652D01*
X8210Y-3120D01*
X8182Y-3120D01*
X8154Y-3115D01*
X8118Y-3122D01*
X8081Y-3123D01*
X8055Y-3134D01*
X8028Y-3140D01*
X7997Y-3160D01*
X7963Y-3176D01*
X7944Y-3196D01*
X7921Y-3211D01*
X5705Y-5428D01*
X5705Y-4096D01*
X5735Y-4066D01*
X5799Y-3909D01*
X5800Y-3740D01*
X5745Y-3607D01*
X5745Y-1983D01*
X5617Y-1674D01*
X5381Y-1437D01*
X5072Y-1309D01*
X4738Y-1308D01*
X4428Y-1436D01*
X4192Y-1672D01*
X4064Y-1981D01*
X4063Y-2316D01*
X4191Y-2625D01*
X4427Y-2861D01*
X4736Y-2989D01*
X5070Y-2990D01*
X5379Y-2862D01*
X5616Y-2626D01*
X5744Y-2317D01*
X5745Y-1983D01*
X5745Y-3607D01*
X5735Y-3584D01*
X5616Y-3464D01*
X5459Y-3400D01*
X5290Y-3399D01*
X5134Y-3464D01*
X5014Y-3583D01*
X4950Y-3740D01*
X4949Y-3909D01*
X5014Y-4065D01*
X5045Y-4095D01*
X5045Y-4157D01*
X5035Y-4134D01*
X4916Y-4014D01*
X4759Y-3950D01*
X4590Y-3949D01*
X4434Y-4014D01*
X4314Y-4133D01*
X4250Y-4290D01*
X4249Y-4459D01*
X4314Y-4615D01*
X4395Y-4696D01*
X4395Y-5257D01*
X4385Y-5234D01*
X4266Y-5114D01*
X4109Y-5050D01*
X3940Y-5049D01*
X3826Y-5097D01*
X3826Y-1761D01*
X3763Y-1465D01*
X3652Y-1380D01*
X3595Y-1419D01*
X3595Y-1298D01*
X3556Y-1163D01*
X3273Y-986D01*
X2943Y-930D01*
X2647Y-993D01*
X2562Y-1104D01*
X2982Y-1717D01*
X3595Y-1298D01*
X3595Y-1419D01*
X3039Y-1800D01*
X3458Y-2413D01*
X3593Y-2374D01*
X3770Y-2091D01*
X3826Y-1761D01*
X3826Y-5097D01*
X3784Y-5114D01*
X3664Y-5233D01*
X3600Y-5390D01*
X3599Y-5559D01*
X3664Y-5715D01*
X3695Y-5745D01*
X3695Y-6625D01*
X3720Y-6751D01*
X3791Y-6858D01*
X4491Y-7558D01*
X4491Y-7558D01*
X4598Y-7629D01*
X4598Y-7629D01*
X4699Y-7650D01*
X4724Y-7655D01*
X4724Y-7654D01*
X4725Y-7655D01*
X4908Y-7655D01*
X4900Y-7675D01*
X4899Y-7774D01*
X4899Y-7974D01*
X4913Y-8007D01*
X4848Y-8020D01*
X4741Y-8091D01*
X4191Y-8641D01*
X4120Y-8748D01*
X4095Y-8875D01*
X4095Y-9725D01*
X4120Y-9851D01*
X4191Y-9958D01*
X6045Y-11811D01*
X6045Y-20225D01*
X6070Y-20351D01*
X6141Y-20458D01*
X9008Y-23324D01*
X8475Y-23324D01*
X8383Y-23362D01*
X8313Y-23433D01*
X8275Y-23525D01*
X8274Y-23624D01*
X8274Y-24424D01*
X8312Y-24516D01*
X8371Y-24575D01*
X8313Y-24633D01*
X8275Y-24725D01*
X8274Y-24824D01*
X8274Y-25624D01*
X8312Y-25716D01*
X8371Y-25775D01*
X8313Y-25833D01*
X8275Y-25925D01*
X8274Y-26024D01*
X8274Y-26824D01*
X8312Y-26916D01*
X8383Y-26986D01*
X8475Y-27024D01*
X8574Y-27025D01*
X9174Y-27025D01*
X9266Y-26987D01*
X9336Y-26916D01*
X9374Y-26824D01*
X9375Y-26725D01*
X9375Y-26291D01*
X9602Y-26064D01*
X9662Y-26125D01*
X10025Y-26125D01*
X10025Y-26117D01*
X10125Y-26117D01*
X10125Y-26125D01*
X10487Y-26125D01*
X10550Y-26062D01*
X10550Y-26025D01*
X10512Y-25933D01*
X10503Y-25925D01*
X10511Y-25916D01*
X10549Y-25824D01*
X10550Y-25725D01*
X10550Y-25525D01*
X10512Y-25433D01*
X10503Y-25425D01*
X10511Y-25416D01*
X10549Y-25324D01*
X10550Y-25225D01*
X10550Y-25025D01*
X10512Y-24933D01*
X10503Y-24925D01*
X10511Y-24916D01*
X10549Y-24824D01*
X10550Y-24725D01*
X10550Y-24583D01*
X10590Y-24599D01*
X10633Y-24599D01*
X10879Y-24846D01*
X10834Y-24864D01*
X10714Y-24983D01*
X10650Y-25140D01*
X10649Y-25309D01*
X10714Y-25465D01*
X10833Y-25585D01*
X10990Y-25649D01*
X11033Y-25649D01*
X11166Y-25782D01*
X11114Y-25833D01*
X11050Y-25990D01*
X11049Y-26159D01*
X11114Y-26315D01*
X11233Y-26435D01*
X11390Y-26499D01*
X11550Y-26500D01*
X11575Y-26505D01*
X11851Y-26505D01*
X11900Y-26524D01*
X11999Y-26525D01*
X12449Y-26525D01*
X12495Y-26506D01*
X12495Y-26975D01*
X12520Y-27101D01*
X12591Y-27208D01*
X12841Y-27458D01*
X12841Y-27458D01*
X12886Y-27488D01*
X12886Y-27488D01*
X12850Y-27575D01*
X12849Y-27674D01*
X12849Y-27833D01*
X12425Y-27408D01*
X12425Y-27075D01*
X12387Y-26983D01*
X12316Y-26913D01*
X12224Y-26875D01*
X12125Y-26874D01*
X11525Y-26874D01*
X11433Y-26912D01*
X11363Y-26983D01*
X11325Y-27075D01*
X11324Y-27174D01*
X11324Y-27974D01*
X11362Y-28066D01*
X11421Y-28125D01*
X11363Y-28183D01*
X11325Y-28275D01*
X11324Y-28374D01*
X11324Y-29174D01*
X11362Y-29266D01*
X11421Y-29325D01*
X11363Y-29383D01*
X11325Y-29475D01*
X11324Y-29574D01*
X11324Y-30374D01*
X11362Y-30466D01*
X11433Y-30536D01*
X11525Y-30574D01*
X11624Y-30575D01*
X12224Y-30575D01*
X12316Y-30537D01*
X12386Y-30466D01*
X12424Y-30374D01*
X12425Y-30275D01*
X12425Y-29991D01*
X12856Y-29560D01*
X12849Y-29575D01*
X12850Y-29612D01*
X12912Y-29675D01*
X13275Y-29675D01*
X13275Y-29667D01*
X13375Y-29667D01*
X13375Y-29675D01*
X13382Y-29675D01*
X13382Y-29775D01*
X13375Y-29775D01*
X13375Y-29782D01*
X13275Y-29782D01*
X13275Y-29775D01*
X12912Y-29775D01*
X12850Y-29837D01*
X12849Y-29874D01*
X12887Y-29966D01*
X12958Y-30036D01*
X13050Y-30074D01*
X13149Y-30075D01*
X13158Y-30075D01*
X12071Y-31162D01*
X11125Y-31162D01*
X11125Y-30275D01*
X11125Y-29574D01*
X11124Y-29475D01*
X11086Y-29383D01*
X11028Y-29325D01*
X11086Y-29266D01*
X11124Y-29174D01*
X11125Y-29075D01*
X11125Y-28374D01*
X11124Y-28275D01*
X11086Y-28183D01*
X11028Y-28125D01*
X11086Y-28066D01*
X11124Y-27974D01*
X11125Y-27875D01*
X11125Y-27174D01*
X11124Y-27075D01*
X11086Y-26983D01*
X11016Y-26912D01*
X10924Y-26874D01*
X10687Y-26875D01*
X10625Y-26937D01*
X10625Y-27475D01*
X11062Y-27475D01*
X11125Y-27412D01*
X11125Y-27174D01*
X11125Y-27875D01*
X11125Y-27637D01*
X11062Y-27575D01*
X10625Y-27575D01*
X10625Y-28112D01*
X10637Y-28125D01*
X10625Y-28137D01*
X10625Y-28675D01*
X11062Y-28675D01*
X11125Y-28612D01*
X11125Y-28374D01*
X11125Y-29075D01*
X11125Y-28837D01*
X11062Y-28775D01*
X10625Y-28775D01*
X10625Y-29312D01*
X10637Y-29325D01*
X10625Y-29337D01*
X10625Y-29875D01*
X11062Y-29875D01*
X11125Y-29812D01*
X11125Y-29574D01*
X11125Y-30275D01*
X11125Y-30037D01*
X11062Y-29975D01*
X10625Y-29975D01*
X10625Y-30512D01*
X10687Y-30575D01*
X10924Y-30575D01*
X11016Y-30537D01*
X11086Y-30466D01*
X11124Y-30374D01*
X11125Y-30275D01*
X11125Y-31162D01*
X10550Y-31162D01*
X10550Y-26324D01*
X10550Y-26287D01*
X10487Y-26225D01*
X10125Y-26225D01*
X10125Y-26462D01*
X10187Y-26525D01*
X10250Y-26525D01*
X10349Y-26524D01*
X10441Y-26486D01*
X10512Y-26416D01*
X10550Y-26324D01*
X10550Y-31162D01*
X10525Y-31162D01*
X10525Y-30512D01*
X10525Y-29975D01*
X10525Y-29875D01*
X10525Y-29337D01*
X10512Y-29325D01*
X10525Y-29312D01*
X10525Y-28775D01*
X10525Y-28675D01*
X10525Y-28137D01*
X10512Y-28125D01*
X10525Y-28112D01*
X10525Y-27575D01*
X10525Y-27475D01*
X10525Y-26937D01*
X10462Y-26875D01*
X10225Y-26874D01*
X10133Y-26912D01*
X10063Y-26983D01*
X10025Y-27075D01*
X10025Y-27125D01*
X10025Y-26462D01*
X10025Y-26225D01*
X9662Y-26225D01*
X9600Y-26287D01*
X9599Y-26324D01*
X9637Y-26416D01*
X9708Y-26486D01*
X9800Y-26524D01*
X9899Y-26525D01*
X9962Y-26525D01*
X10025Y-26462D01*
X10025Y-27125D01*
X10024Y-27174D01*
X10025Y-27412D01*
X10087Y-27475D01*
X10525Y-27475D01*
X10525Y-27575D01*
X10087Y-27575D01*
X10025Y-27637D01*
X10024Y-27875D01*
X10025Y-27974D01*
X10063Y-28066D01*
X10121Y-28125D01*
X10063Y-28183D01*
X10025Y-28275D01*
X10024Y-28374D01*
X10025Y-28612D01*
X10087Y-28675D01*
X10525Y-28675D01*
X10525Y-28775D01*
X10087Y-28775D01*
X10025Y-28837D01*
X10024Y-29075D01*
X10025Y-29174D01*
X10063Y-29266D01*
X10121Y-29325D01*
X10063Y-29383D01*
X10025Y-29475D01*
X10024Y-29574D01*
X10025Y-29812D01*
X10087Y-29875D01*
X10525Y-29875D01*
X10525Y-29975D01*
X10087Y-29975D01*
X10025Y-30037D01*
X10024Y-30275D01*
X10025Y-30374D01*
X10063Y-30466D01*
X10133Y-30537D01*
X10225Y-30575D01*
X10462Y-30575D01*
X10525Y-30512D01*
X10525Y-31162D01*
X8263Y-31162D01*
X8247Y-31076D01*
X8193Y-30993D01*
X8111Y-30936D01*
X8075Y-30929D01*
X8075Y-26725D01*
X8075Y-26024D01*
X8074Y-25925D01*
X8036Y-25833D01*
X7978Y-25775D01*
X8036Y-25716D01*
X8074Y-25624D01*
X8075Y-25525D01*
X8075Y-24824D01*
X8074Y-24725D01*
X8036Y-24633D01*
X7978Y-24575D01*
X8036Y-24516D01*
X8074Y-24424D01*
X8075Y-24325D01*
X8075Y-23624D01*
X8074Y-23525D01*
X8036Y-23433D01*
X7966Y-23362D01*
X7874Y-23324D01*
X7637Y-23325D01*
X7575Y-23387D01*
X7575Y-23925D01*
X8012Y-23925D01*
X8075Y-23862D01*
X8075Y-23624D01*
X8075Y-24325D01*
X8075Y-24087D01*
X8012Y-24025D01*
X7575Y-24025D01*
X7575Y-24562D01*
X7587Y-24575D01*
X7575Y-24587D01*
X7575Y-25125D01*
X8012Y-25125D01*
X8075Y-25062D01*
X8075Y-24824D01*
X8075Y-25525D01*
X8075Y-25287D01*
X8012Y-25225D01*
X7575Y-25225D01*
X7575Y-25762D01*
X7587Y-25775D01*
X7575Y-25787D01*
X7575Y-26325D01*
X8012Y-26325D01*
X8075Y-26262D01*
X8075Y-26024D01*
X8075Y-26725D01*
X8075Y-26487D01*
X8012Y-26425D01*
X7575Y-26425D01*
X7575Y-26962D01*
X7637Y-27025D01*
X7874Y-27025D01*
X7966Y-26987D01*
X8036Y-26916D01*
X8074Y-26824D01*
X8075Y-26725D01*
X8075Y-30929D01*
X8013Y-30916D01*
X7916Y-30934D01*
X7475Y-31017D01*
X7475Y-26962D01*
X7475Y-26425D01*
X7475Y-26325D01*
X7475Y-25787D01*
X7462Y-25775D01*
X7475Y-25762D01*
X7475Y-25225D01*
X7475Y-25125D01*
X7475Y-24587D01*
X7462Y-24575D01*
X7475Y-24562D01*
X7475Y-24025D01*
X7475Y-23925D01*
X7475Y-23387D01*
X7412Y-23325D01*
X7175Y-23324D01*
X7083Y-23362D01*
X7013Y-23433D01*
X6975Y-23525D01*
X6974Y-23624D01*
X6975Y-23862D01*
X7037Y-23925D01*
X7475Y-23925D01*
X7475Y-24025D01*
X7037Y-24025D01*
X6975Y-24087D01*
X6974Y-24325D01*
X6975Y-24424D01*
X7013Y-24516D01*
X7071Y-24575D01*
X7013Y-24633D01*
X6975Y-24725D01*
X6974Y-24824D01*
X6975Y-25062D01*
X7037Y-25125D01*
X7475Y-25125D01*
X7475Y-25225D01*
X7037Y-25225D01*
X6975Y-25287D01*
X6974Y-25525D01*
X6975Y-25624D01*
X7013Y-25716D01*
X7071Y-25775D01*
X7013Y-25833D01*
X6975Y-25925D01*
X6974Y-26024D01*
X6975Y-26262D01*
X7037Y-26325D01*
X7475Y-26325D01*
X7475Y-26425D01*
X7037Y-26425D01*
X6975Y-26487D01*
X6974Y-26725D01*
X6975Y-26824D01*
X7013Y-26916D01*
X7083Y-26987D01*
X7175Y-27025D01*
X7412Y-27025D01*
X7475Y-26962D01*
X7475Y-31017D01*
X7375Y-31035D01*
X7292Y-31089D01*
X7235Y-31171D01*
X7215Y-31269D01*
X7233Y-31367D01*
X7334Y-31907D01*
X7388Y-31990D01*
X7470Y-32047D01*
X7568Y-32067D01*
X7656Y-32051D01*
X7530Y-32177D01*
X7450Y-32370D01*
X7449Y-32578D01*
X7529Y-32772D01*
X7677Y-32919D01*
X7870Y-32999D01*
X7892Y-32999D01*
X7861Y-33012D01*
X7714Y-33160D01*
X7634Y-33353D01*
X7633Y-33561D01*
X7713Y-33754D01*
X7861Y-33902D01*
X8054Y-33982D01*
X8075Y-33982D01*
X7990Y-34038D01*
X7983Y-34134D01*
X8329Y-34371D01*
X8567Y-34024D01*
X8526Y-33937D01*
X8413Y-33920D01*
X8455Y-33903D01*
X8571Y-33787D01*
X11342Y-33787D01*
X11468Y-33762D01*
X11468Y-33762D01*
X11575Y-33691D01*
X15108Y-30158D01*
X15164Y-30074D01*
X15164Y-30074D01*
X15249Y-30075D01*
X15699Y-30075D01*
X15748Y-30055D01*
X17625Y-30055D01*
X17751Y-30029D01*
X17751Y-30029D01*
X17858Y-29958D01*
X18711Y-29105D01*
X21525Y-29105D01*
X21651Y-29079D01*
X21651Y-29079D01*
X21758Y-29008D01*
X22638Y-28128D01*
X22709Y-28021D01*
X22709Y-28021D01*
X22734Y-27895D01*
X22734Y-27884D01*
X22782Y-27865D01*
X22852Y-27794D01*
X22891Y-27702D01*
X22891Y-27603D01*
X22891Y-27052D01*
X22853Y-26960D01*
X22782Y-26889D01*
X22691Y-26851D01*
X22591Y-26851D01*
X22119Y-26851D01*
X22090Y-26863D01*
X22061Y-26851D01*
X21961Y-26851D01*
X21489Y-26851D01*
X21460Y-26863D01*
X21431Y-26851D01*
X21331Y-26851D01*
X20859Y-26851D01*
X20767Y-26889D01*
X20697Y-26959D01*
X20660Y-27047D01*
X18722Y-27047D01*
X18596Y-27072D01*
X18489Y-27144D01*
X17238Y-28395D01*
X15891Y-28395D01*
X15899Y-28374D01*
X15900Y-28275D01*
X15900Y-28075D01*
X15862Y-27983D01*
X15853Y-27975D01*
X15861Y-27966D01*
X15899Y-27874D01*
X15900Y-27775D01*
X15900Y-27575D01*
X15862Y-27483D01*
X15853Y-27475D01*
X15861Y-27466D01*
X15899Y-27374D01*
X15900Y-27275D01*
X15900Y-27075D01*
X15862Y-26983D01*
X15853Y-26975D01*
X15861Y-26966D01*
X15870Y-26946D01*
X16086Y-26730D01*
X23650Y-26730D01*
X23776Y-26704D01*
X23776Y-26704D01*
X23793Y-26693D01*
X23793Y-26693D01*
X23883Y-26633D01*
X26561Y-23955D01*
X28050Y-23955D01*
X28049Y-24109D01*
X28114Y-24265D01*
X28145Y-24295D01*
X28145Y-24358D01*
X28124Y-24350D01*
X28025Y-24349D01*
X27825Y-24349D01*
X27733Y-24387D01*
X27725Y-24396D01*
X27716Y-24388D01*
X27624Y-24350D01*
X27525Y-24349D01*
X27325Y-24349D01*
X27233Y-24387D01*
X27225Y-24396D01*
X27216Y-24388D01*
X27124Y-24350D01*
X27025Y-24349D01*
X26825Y-24349D01*
X26733Y-24387D01*
X26725Y-24396D01*
X26716Y-24388D01*
X26624Y-24350D01*
X26525Y-24349D01*
X26325Y-24349D01*
X26233Y-24387D01*
X26163Y-24458D01*
X26125Y-24550D01*
X26124Y-24649D01*
X26124Y-24958D01*
X25141Y-25941D01*
X25070Y-26048D01*
X25045Y-26175D01*
X25045Y-28475D01*
X25045Y-28525D01*
X25070Y-28651D01*
X25141Y-28758D01*
X25499Y-29116D01*
X25499Y-29159D01*
X25564Y-29315D01*
X25683Y-29435D01*
X25840Y-29499D01*
X26009Y-29500D01*
X26165Y-29435D01*
X26285Y-29316D01*
X26349Y-29159D01*
X26350Y-28990D01*
X26285Y-28834D01*
X26166Y-28714D01*
X26009Y-28650D01*
X25966Y-28650D01*
X25749Y-28433D01*
X25790Y-28449D01*
X25959Y-28450D01*
X26115Y-28385D01*
X26235Y-28266D01*
X26299Y-28109D01*
X26300Y-27940D01*
X26235Y-27784D01*
X26205Y-27754D01*
X26205Y-27342D01*
X26214Y-27365D01*
X26333Y-27485D01*
X26490Y-27549D01*
X26659Y-27550D01*
X26815Y-27485D01*
X26935Y-27366D01*
X26999Y-27209D01*
X27000Y-27040D01*
X26935Y-26884D01*
X26905Y-26854D01*
X26905Y-26511D01*
X27708Y-25708D01*
X27779Y-25601D01*
X27779Y-25601D01*
X27805Y-25475D01*
X27805Y-25291D01*
X27825Y-25299D01*
X27924Y-25300D01*
X28124Y-25300D01*
X28216Y-25262D01*
X28224Y-25253D01*
X28233Y-25261D01*
X28325Y-25299D01*
X28424Y-25300D01*
X28624Y-25300D01*
X28716Y-25262D01*
X28724Y-25253D01*
X28733Y-25261D01*
X28825Y-25299D01*
X28924Y-25300D01*
X28981Y-25300D01*
X28950Y-25375D01*
X28949Y-25474D01*
X28949Y-25824D01*
X28987Y-25916D01*
X29046Y-25975D01*
X28987Y-26033D01*
X28949Y-26125D01*
X28950Y-26237D01*
X29012Y-26300D01*
X29425Y-26300D01*
X29425Y-26292D01*
X29525Y-26292D01*
X29525Y-26300D01*
X29937Y-26300D01*
X30000Y-26237D01*
X30000Y-26125D01*
X29962Y-26033D01*
X29903Y-25974D01*
X29961Y-25916D01*
X29999Y-25824D01*
X30000Y-25725D01*
X30000Y-25375D01*
X29962Y-25283D01*
X29891Y-25213D01*
X29805Y-25177D01*
X29805Y-25148D01*
X29824Y-25099D01*
X29825Y-25000D01*
X29825Y-24691D01*
X30016Y-24500D01*
X30059Y-24500D01*
X30215Y-24435D01*
X30335Y-24316D01*
X30399Y-24159D01*
X30400Y-23990D01*
X30335Y-23834D01*
X30216Y-23714D01*
X30059Y-23650D01*
X29896Y-23649D01*
X29958Y-23608D01*
X30158Y-23408D01*
X30229Y-23301D01*
X30229Y-23301D01*
X30255Y-23175D01*
X30255Y-22743D01*
X30749Y-18404D01*
X32132Y-15064D01*
X32184Y-15108D01*
X32810Y-14735D01*
X32815Y-14740D01*
X32885Y-14669D01*
X32642Y-14426D01*
X32479Y-14151D01*
X33693Y-8629D01*
X33754Y-8604D01*
X33902Y-8456D01*
X33916Y-8423D01*
X33937Y-8526D01*
X34024Y-8567D01*
X34371Y-8329D01*
X34134Y-7983D01*
X34038Y-7990D01*
X33982Y-8085D01*
X33983Y-8054D01*
X33903Y-7861D01*
X33755Y-7714D01*
X33562Y-7634D01*
X33353Y-7633D01*
X33160Y-7713D01*
X33013Y-7861D01*
X33000Y-7892D01*
X33000Y-7871D01*
X32920Y-7678D01*
X32772Y-7530D01*
X32579Y-7450D01*
X32371Y-7449D01*
X32178Y-7529D01*
X32051Y-7655D01*
X32067Y-7568D01*
X32047Y-7471D01*
X31991Y-7389D01*
X31908Y-7334D01*
X31810Y-7316D01*
X31653Y-7287D01*
X30612Y-6245D01*
X35889Y-7281D01*
X35889Y-7281D01*
G37*
G54D24*
X35889Y-7281D02*
X35160Y-10181D01*
X34975Y-10135D01*
X34975Y-8307D01*
X34943Y-8159D01*
X34857Y-8118D01*
X34800Y-8157D01*
X34800Y-8036D01*
X34793Y-7940D01*
X34612Y-7835D01*
X34405Y-7808D01*
X34257Y-7840D01*
X34216Y-7926D01*
X34453Y-8273D01*
X34800Y-8036D01*
X34800Y-8157D01*
X34510Y-8355D01*
X34747Y-8702D01*
X34843Y-8695D01*
X34947Y-8514D01*
X34975Y-8307D01*
X34975Y-10135D01*
X34665Y-10057D01*
X34665Y-8759D01*
X34427Y-8412D01*
X34081Y-8649D01*
X34088Y-8745D01*
X34268Y-8849D01*
X34475Y-8877D01*
X34624Y-8845D01*
X34665Y-8759D01*
X34665Y-10057D01*
X34296Y-9964D01*
X34099Y-9914D01*
X34044Y-10111D01*
X33211Y-13428D01*
X33160Y-13625D01*
X33362Y-13676D01*
X35289Y-14160D01*
X34553Y-17074D01*
X33748Y-16871D01*
X33748Y-14773D01*
X33704Y-14474D01*
X33598Y-14382D01*
X33546Y-14413D01*
X33546Y-14296D01*
X33516Y-14159D01*
X33244Y-13965D01*
X32919Y-13889D01*
X32620Y-13932D01*
X32528Y-14039D01*
X32908Y-14677D01*
X33546Y-14296D01*
X33546Y-14413D01*
X32959Y-14763D01*
X33340Y-15401D01*
X33477Y-15371D01*
X33672Y-15099D01*
X33748Y-14773D01*
X33748Y-16871D01*
X33692Y-16857D01*
X33490Y-16802D01*
X33440Y-17004D01*
X33254Y-17743D01*
X33254Y-15452D01*
X32874Y-14814D01*
X32235Y-15194D01*
X32266Y-15331D01*
X32538Y-15526D01*
X32863Y-15602D01*
X33162Y-15558D01*
X33254Y-15452D01*
X33254Y-17743D01*
X33249Y-17763D01*
X33249Y-16487D01*
X33121Y-16178D01*
X32885Y-15942D01*
X32576Y-15813D01*
X32242Y-15813D01*
X31933Y-15941D01*
X31696Y-16177D01*
X31568Y-16486D01*
X31567Y-16820D01*
X31695Y-17129D01*
X31931Y-17366D01*
X32240Y-17494D01*
X32575Y-17494D01*
X32884Y-17367D01*
X33120Y-17130D01*
X33248Y-16822D01*
X33249Y-16487D01*
X33249Y-17763D01*
X32657Y-20116D01*
X32497Y-20076D01*
X32497Y-17612D01*
X32296Y-17561D01*
X31837Y-17447D01*
X31636Y-17397D01*
X31586Y-17598D01*
X31252Y-18921D01*
X31202Y-19122D01*
X31403Y-19172D01*
X31861Y-19290D01*
X32063Y-19341D01*
X32113Y-19139D01*
X32447Y-17813D01*
X32497Y-17612D01*
X32497Y-20076D01*
X31796Y-19902D01*
X31595Y-19847D01*
X31544Y-20049D01*
X30711Y-23362D01*
X30660Y-23563D01*
X30858Y-23613D01*
X32785Y-24097D01*
X32053Y-27008D01*
X31188Y-26791D01*
X30987Y-26740D01*
X30936Y-26941D01*
X30135Y-30135D01*
X30000Y-30169D01*
X30000Y-26574D01*
X30000Y-26462D01*
X29937Y-26400D01*
X29525Y-26400D01*
X29525Y-26712D01*
X29587Y-26775D01*
X29700Y-26775D01*
X29799Y-26774D01*
X29891Y-26736D01*
X29962Y-26666D01*
X30000Y-26574D01*
X30000Y-30169D01*
X29425Y-30313D01*
X29425Y-26712D01*
X29425Y-26400D01*
X29012Y-26400D01*
X28950Y-26462D01*
X28949Y-26574D01*
X28987Y-26666D01*
X29058Y-26736D01*
X29150Y-26774D01*
X29249Y-26775D01*
X29362Y-26775D01*
X29425Y-26712D01*
X29425Y-30313D01*
X27143Y-30886D01*
X26926Y-30029D01*
X26875Y-29822D01*
X26677Y-29878D01*
X23793Y-30602D01*
X23361Y-30711D01*
X23165Y-30761D01*
X23211Y-30962D01*
X23698Y-32886D01*
X23009Y-33060D01*
X23009Y-30748D01*
X22920Y-30425D01*
X22740Y-30183D01*
X22603Y-30153D01*
X22517Y-30297D01*
X22517Y-30101D01*
X22425Y-29995D01*
X22093Y-29953D01*
X21771Y-30041D01*
X21528Y-30222D01*
X21498Y-30359D01*
X22136Y-30740D01*
X22517Y-30101D01*
X22517Y-30297D01*
X22222Y-30791D01*
X22860Y-31171D01*
X22967Y-31079D01*
X23009Y-30748D01*
X23009Y-33060D01*
X22809Y-33110D01*
X22809Y-31257D01*
X22171Y-30877D01*
X22085Y-31021D01*
X22085Y-30825D01*
X21447Y-30445D01*
X21341Y-30537D01*
X21299Y-30869D01*
X21387Y-31191D01*
X21568Y-31433D01*
X21705Y-31464D01*
X22085Y-30825D01*
X22085Y-31021D01*
X21791Y-31515D01*
X21882Y-31621D01*
X22214Y-31663D01*
X22537Y-31575D01*
X22779Y-31394D01*
X22809Y-31257D01*
X22809Y-33110D01*
X21086Y-33543D01*
X21086Y-31124D01*
X20958Y-30815D01*
X20722Y-30579D01*
X20413Y-30451D01*
X20079Y-30450D01*
X19770Y-30578D01*
X19533Y-30814D01*
X19405Y-31123D01*
X19405Y-31457D01*
X19532Y-31766D01*
X19769Y-32003D01*
X20077Y-32131D01*
X20412Y-32132D01*
X20721Y-32004D01*
X20957Y-31768D01*
X21086Y-31459D01*
X21086Y-31124D01*
X21086Y-33543D01*
X20785Y-33619D01*
X20568Y-32754D01*
X20518Y-32556D01*
X20317Y-32607D01*
X19337Y-32853D01*
X19337Y-32063D01*
X19287Y-31862D01*
X19172Y-31403D01*
X19122Y-31202D01*
X18921Y-31252D01*
X17594Y-31586D01*
X17393Y-31636D01*
X17443Y-31838D01*
X17561Y-32296D01*
X17612Y-32497D01*
X17813Y-32447D01*
X19136Y-32113D01*
X19337Y-32063D01*
X19337Y-32853D01*
X17212Y-33386D01*
X16992Y-32528D01*
X16942Y-32327D01*
X16740Y-32378D01*
X13428Y-33211D01*
X13227Y-33261D01*
X13277Y-33466D01*
X13761Y-35386D01*
X10848Y-36119D01*
X10634Y-35257D01*
X10579Y-35056D01*
X10382Y-35107D01*
X8877Y-35486D01*
X8877Y-34417D01*
X8828Y-34214D01*
X8745Y-34088D01*
X8649Y-34081D01*
X8412Y-34427D01*
X8759Y-34665D01*
X8845Y-34624D01*
X8877Y-34417D01*
X8877Y-35486D01*
X8702Y-35530D01*
X8702Y-34747D01*
X8355Y-34510D01*
X8273Y-34630D01*
X8273Y-34453D01*
X7926Y-34216D01*
X7840Y-34257D01*
X7808Y-34463D01*
X7857Y-34666D01*
X7940Y-34793D01*
X8036Y-34800D01*
X8273Y-34453D01*
X8273Y-34630D01*
X8118Y-34857D01*
X8159Y-34943D01*
X8365Y-34975D01*
X8568Y-34926D01*
X8695Y-34843D01*
X8702Y-34747D01*
X8702Y-35530D01*
X7281Y-35889D01*
X5943Y-29083D01*
X6814Y-28913D01*
X7025Y-28876D01*
X6978Y-28669D01*
X6270Y-25059D01*
X6234Y-24853D01*
X6027Y-24894D01*
X5582Y-24982D01*
X5582Y-18653D01*
X5541Y-18447D01*
X5256Y-17003D01*
X5219Y-16796D01*
X5013Y-16842D01*
X4551Y-16936D01*
X4349Y-16977D01*
X4391Y-17179D01*
X4675Y-18619D01*
X4712Y-18821D01*
X4918Y-18784D01*
X5380Y-18694D01*
X5582Y-18653D01*
X5582Y-24982D01*
X4083Y-25277D01*
X3453Y-22070D01*
X4324Y-21902D01*
X4526Y-21861D01*
X4485Y-21659D01*
X3110Y-14636D01*
X3980Y-14465D01*
X4182Y-14428D01*
X4145Y-14225D01*
X3433Y-10614D01*
X3397Y-10408D01*
X3376Y-10413D01*
X3376Y-2469D01*
X2962Y-1865D01*
X2963Y-1863D01*
X2900Y-1799D01*
X2900Y-1774D01*
X2480Y-1161D01*
X2345Y-1200D01*
X2168Y-1483D01*
X2112Y-1813D01*
X2175Y-2109D01*
X2287Y-2194D01*
X2900Y-1774D01*
X2900Y-1799D01*
X2893Y-1793D01*
X2553Y-2133D01*
X2343Y-2276D01*
X2358Y-2328D01*
X2357Y-2328D01*
X2328Y-2357D01*
X2328Y-2358D01*
X2276Y-2343D01*
X2194Y-2464D01*
X2194Y-2287D01*
X2109Y-2175D01*
X1780Y-2112D01*
X1453Y-2180D01*
X1200Y-2345D01*
X1161Y-2480D01*
X1774Y-2900D01*
X2194Y-2287D01*
X2194Y-2464D01*
X2133Y-2553D01*
X1793Y-2893D01*
X1863Y-2963D01*
X1865Y-2962D01*
X2469Y-3376D01*
X2581Y-3291D01*
X2644Y-2962D01*
X2576Y-2635D01*
X2464Y-2462D01*
X2665Y-2588D01*
X2995Y-2644D01*
X3291Y-2581D01*
X3376Y-2469D01*
X3376Y-10413D01*
X3190Y-10450D01*
X2990Y-10489D01*
X2990Y-4738D01*
X2862Y-4428D01*
X2626Y-4192D01*
X2413Y-4103D01*
X2413Y-3458D01*
X1800Y-3039D01*
X1717Y-3159D01*
X1717Y-2982D01*
X1104Y-2562D01*
X993Y-2647D01*
X930Y-2976D01*
X998Y-3303D01*
X1163Y-3556D01*
X1298Y-3595D01*
X1717Y-2982D01*
X1717Y-3159D01*
X1380Y-3652D01*
X1465Y-3763D01*
X1794Y-3826D01*
X2121Y-3758D01*
X2374Y-3593D01*
X2413Y-3458D01*
X2413Y-4103D01*
X2317Y-4064D01*
X1983Y-4063D01*
X1674Y-4191D01*
X1437Y-4427D01*
X1309Y-4736D01*
X1308Y-5070D01*
X1436Y-5379D01*
X1672Y-5616D01*
X1981Y-5744D01*
X2316Y-5745D01*
X2625Y-5617D01*
X2861Y-5381D01*
X2989Y-5072D01*
X2990Y-4738D01*
X2990Y-10489D01*
X1247Y-10832D01*
X617Y-7629D01*
X1491Y-7457D01*
X1693Y-7416D01*
X1652Y-7211D01*
X295Y-295D01*
X7009Y-1615D01*
X6839Y-2482D01*
X6798Y-2687D01*
X6999Y-2728D01*
X10614Y-3433D01*
X10821Y-3479D01*
X10854Y-3271D01*
X11236Y-1325D01*
X14444Y-1958D01*
X14273Y-2826D01*
X14232Y-3031D01*
X14434Y-3072D01*
X21457Y-4448D01*
X21283Y-5319D01*
X21242Y-5525D01*
X21448Y-5562D01*
X25058Y-6270D01*
X25259Y-6311D01*
X25305Y-6110D01*
X25684Y-4162D01*
X28888Y-4792D01*
X28717Y-5663D01*
X28676Y-5865D01*
X28881Y-5905D01*
X29845Y-6095D01*
X29325Y-6095D01*
X29198Y-6120D01*
X29091Y-6191D01*
X29091Y-6191D01*
X28841Y-6441D01*
X28783Y-6528D01*
X28774Y-6525D01*
X28675Y-6524D01*
X28075Y-6524D01*
X27983Y-6562D01*
X27913Y-6633D01*
X27875Y-6725D01*
X27874Y-6824D01*
X27874Y-6956D01*
X27799Y-6925D01*
X27700Y-6924D01*
X27637Y-6925D01*
X27575Y-6987D01*
X27575Y-7225D01*
X27582Y-7225D01*
X27582Y-7325D01*
X27575Y-7325D01*
X27575Y-7332D01*
X27475Y-7332D01*
X27475Y-7325D01*
X27467Y-7325D01*
X27467Y-7225D01*
X27475Y-7225D01*
X27475Y-6987D01*
X27412Y-6925D01*
X27349Y-6924D01*
X27250Y-6925D01*
X27158Y-6963D01*
X27087Y-7033D01*
X27053Y-7117D01*
X27050Y-7099D01*
X27051Y-7076D01*
X27038Y-7040D01*
X27029Y-6998D01*
X27015Y-6977D01*
X27007Y-6955D01*
X26982Y-6927D01*
X26958Y-6891D01*
X26936Y-6877D01*
X26921Y-6860D01*
X26346Y-6434D01*
X26319Y-6421D01*
X26285Y-6398D01*
X26251Y-6390D01*
X26229Y-6379D01*
X26200Y-6378D01*
X26160Y-6369D01*
X23810Y-6295D01*
X23808Y-6295D01*
X18824Y-5488D01*
X18680Y-5464D01*
X18697Y-5380D01*
X18787Y-4914D01*
X18824Y-4710D01*
X18623Y-4668D01*
X17175Y-4387D01*
X16970Y-4351D01*
X16929Y-4551D01*
X16839Y-5017D01*
X16813Y-5162D01*
X16614Y-5130D01*
X16614Y-5130D01*
X11355Y-3661D01*
X11346Y-3661D01*
X11322Y-3652D01*
X8210Y-3120D01*
X8182Y-3120D01*
X8154Y-3115D01*
X8118Y-3122D01*
X8081Y-3123D01*
X8055Y-3134D01*
X8028Y-3140D01*
X7997Y-3160D01*
X7963Y-3176D01*
X7944Y-3196D01*
X7921Y-3211D01*
X5705Y-5428D01*
X5705Y-4096D01*
X5735Y-4066D01*
X5799Y-3909D01*
X5800Y-3740D01*
X5745Y-3607D01*
X5745Y-1983D01*
X5617Y-1674D01*
X5381Y-1437D01*
X5072Y-1309D01*
X4738Y-1308D01*
X4428Y-1436D01*
X4192Y-1672D01*
X4064Y-1981D01*
X4063Y-2316D01*
X4191Y-2625D01*
X4427Y-2861D01*
X4736Y-2989D01*
X5070Y-2990D01*
X5379Y-2862D01*
X5616Y-2626D01*
X5744Y-2317D01*
X5745Y-1983D01*
X5745Y-3607D01*
X5735Y-3584D01*
X5616Y-3464D01*
X5459Y-3400D01*
X5290Y-3399D01*
X5134Y-3464D01*
X5014Y-3583D01*
X4950Y-3740D01*
X4949Y-3909D01*
X5014Y-4065D01*
X5045Y-4095D01*
X5045Y-4157D01*
X5035Y-4134D01*
X4916Y-4014D01*
X4759Y-3950D01*
X4590Y-3949D01*
X4434Y-4014D01*
X4314Y-4133D01*
X4250Y-4290D01*
X4249Y-4459D01*
X4314Y-4615D01*
X4395Y-4696D01*
X4395Y-5257D01*
X4385Y-5234D01*
X4266Y-5114D01*
X4109Y-5050D01*
X3940Y-5049D01*
X3826Y-5097D01*
X3826Y-1761D01*
X3763Y-1465D01*
X3652Y-1380D01*
X3595Y-1419D01*
X3595Y-1298D01*
X3556Y-1163D01*
X3273Y-986D01*
X2943Y-930D01*
X2647Y-993D01*
X2562Y-1104D01*
X2982Y-1717D01*
X3595Y-1298D01*
X3595Y-1419D01*
X3039Y-1800D01*
X3458Y-2413D01*
X3593Y-2374D01*
X3770Y-2091D01*
X3826Y-1761D01*
X3826Y-5097D01*
X3784Y-5114D01*
X3664Y-5233D01*
X3600Y-5390D01*
X3599Y-5559D01*
X3664Y-5715D01*
X3695Y-5745D01*
X3695Y-6625D01*
X3720Y-6751D01*
X3791Y-6858D01*
X4491Y-7558D01*
X4491Y-7558D01*
X4598Y-7629D01*
X4598Y-7629D01*
X4699Y-7650D01*
X4724Y-7655D01*
X4724Y-7654D01*
X4725Y-7655D01*
X4908Y-7655D01*
X4900Y-7675D01*
X4899Y-7774D01*
X4899Y-7974D01*
X4913Y-8007D01*
X4848Y-8020D01*
X4741Y-8091D01*
X4191Y-8641D01*
X4120Y-8748D01*
X4095Y-8875D01*
X4095Y-9725D01*
X4120Y-9851D01*
X4191Y-9958D01*
X6045Y-11811D01*
X6045Y-20225D01*
X6070Y-20351D01*
X6141Y-20458D01*
X9008Y-23324D01*
X8475Y-23324D01*
X8383Y-23362D01*
X8313Y-23433D01*
X8275Y-23525D01*
X8274Y-23624D01*
X8274Y-24424D01*
X8312Y-24516D01*
X8371Y-24575D01*
X8313Y-24633D01*
X8275Y-24725D01*
X8274Y-24824D01*
X8274Y-25624D01*
X8312Y-25716D01*
X8371Y-25775D01*
X8313Y-25833D01*
X8275Y-25925D01*
X8274Y-26024D01*
X8274Y-26824D01*
X8312Y-26916D01*
X8383Y-26986D01*
X8475Y-27024D01*
X8574Y-27025D01*
X9174Y-27025D01*
X9266Y-26987D01*
X9336Y-26916D01*
X9374Y-26824D01*
X9375Y-26725D01*
X9375Y-26291D01*
X9602Y-26064D01*
X9662Y-26125D01*
X10025Y-26125D01*
X10025Y-26117D01*
X10125Y-26117D01*
X10125Y-26125D01*
X10487Y-26125D01*
X10550Y-26062D01*
X10550Y-26025D01*
X10512Y-25933D01*
X10503Y-25925D01*
X10511Y-25916D01*
X10549Y-25824D01*
X10550Y-25725D01*
X10550Y-25525D01*
X10512Y-25433D01*
X10503Y-25425D01*
X10511Y-25416D01*
X10549Y-25324D01*
X10550Y-25225D01*
X10550Y-25025D01*
X10512Y-24933D01*
X10503Y-24925D01*
X10511Y-24916D01*
X10549Y-24824D01*
X10550Y-24725D01*
X10550Y-24583D01*
X10590Y-24599D01*
X10633Y-24599D01*
X10879Y-24846D01*
X10834Y-24864D01*
X10714Y-24983D01*
X10650Y-25140D01*
X10649Y-25309D01*
X10714Y-25465D01*
X10833Y-25585D01*
X10990Y-25649D01*
X11033Y-25649D01*
X11166Y-25782D01*
X11114Y-25833D01*
X11050Y-25990D01*
X11049Y-26159D01*
X11114Y-26315D01*
X11233Y-26435D01*
X11390Y-26499D01*
X11550Y-26500D01*
X11575Y-26505D01*
X11851Y-26505D01*
X11900Y-26524D01*
X11999Y-26525D01*
X12449Y-26525D01*
X12495Y-26506D01*
X12495Y-26975D01*
X12520Y-27101D01*
X12591Y-27208D01*
X12841Y-27458D01*
X12841Y-27458D01*
X12886Y-27488D01*
X12886Y-27488D01*
X12850Y-27575D01*
X12849Y-27674D01*
X12849Y-27833D01*
X12425Y-27408D01*
X12425Y-27075D01*
X12387Y-26983D01*
X12316Y-26913D01*
X12224Y-26875D01*
X12125Y-26874D01*
X11525Y-26874D01*
X11433Y-26912D01*
X11363Y-26983D01*
X11325Y-27075D01*
X11324Y-27174D01*
X11324Y-27974D01*
X11362Y-28066D01*
X11421Y-28125D01*
X11363Y-28183D01*
X11325Y-28275D01*
X11324Y-28374D01*
X11324Y-29174D01*
X11362Y-29266D01*
X11421Y-29325D01*
X11363Y-29383D01*
X11325Y-29475D01*
X11324Y-29574D01*
X11324Y-30374D01*
X11362Y-30466D01*
X11433Y-30536D01*
X11525Y-30574D01*
X11624Y-30575D01*
X12224Y-30575D01*
X12316Y-30537D01*
X12386Y-30466D01*
X12424Y-30374D01*
X12425Y-30275D01*
X12425Y-29991D01*
X12856Y-29560D01*
X12849Y-29575D01*
X12850Y-29612D01*
X12912Y-29675D01*
X13275Y-29675D01*
X13275Y-29667D01*
X13375Y-29667D01*
X13375Y-29675D01*
X13382Y-29675D01*
X13382Y-29775D01*
X13375Y-29775D01*
X13375Y-29782D01*
X13275Y-29782D01*
X13275Y-29775D01*
X12912Y-29775D01*
X12850Y-29837D01*
X12849Y-29874D01*
X12887Y-29966D01*
X12958Y-30036D01*
X13050Y-30074D01*
X13149Y-30075D01*
X13158Y-30075D01*
X12071Y-31162D01*
X11125Y-31162D01*
X11125Y-30275D01*
X11125Y-29574D01*
X11124Y-29475D01*
X11086Y-29383D01*
X11028Y-29325D01*
X11086Y-29266D01*
X11124Y-29174D01*
X11125Y-29075D01*
X11125Y-28374D01*
X11124Y-28275D01*
X11086Y-28183D01*
X11028Y-28125D01*
X11086Y-28066D01*
X11124Y-27974D01*
X11125Y-27875D01*
X11125Y-27174D01*
X11124Y-27075D01*
X11086Y-26983D01*
X11016Y-26912D01*
X10924Y-26874D01*
X10687Y-26875D01*
X10625Y-26937D01*
X10625Y-27475D01*
X11062Y-27475D01*
X11125Y-27412D01*
X11125Y-27174D01*
X11125Y-27875D01*
X11125Y-27637D01*
X11062Y-27575D01*
X10625Y-27575D01*
X10625Y-28112D01*
X10637Y-28125D01*
X10625Y-28137D01*
X10625Y-28675D01*
X11062Y-28675D01*
X11125Y-28612D01*
X11125Y-28374D01*
X11125Y-29075D01*
X11125Y-28837D01*
X11062Y-28775D01*
X10625Y-28775D01*
X10625Y-29312D01*
X10637Y-29325D01*
X10625Y-29337D01*
X10625Y-29875D01*
X11062Y-29875D01*
X11125Y-29812D01*
X11125Y-29574D01*
X11125Y-30275D01*
X11125Y-30037D01*
X11062Y-29975D01*
X10625Y-29975D01*
X10625Y-30512D01*
X10687Y-30575D01*
X10924Y-30575D01*
X11016Y-30537D01*
X11086Y-30466D01*
X11124Y-30374D01*
X11125Y-30275D01*
X11125Y-31162D01*
X10550Y-31162D01*
X10550Y-26324D01*
X10550Y-26287D01*
X10487Y-26225D01*
X10125Y-26225D01*
X10125Y-26462D01*
X10187Y-26525D01*
X10250Y-26525D01*
X10349Y-26524D01*
X10441Y-26486D01*
X10512Y-26416D01*
X10550Y-26324D01*
X10550Y-31162D01*
X10525Y-31162D01*
X10525Y-30512D01*
X10525Y-29975D01*
X10525Y-29875D01*
X10525Y-29337D01*
X10512Y-29325D01*
X10525Y-29312D01*
X10525Y-28775D01*
X10525Y-28675D01*
X10525Y-28137D01*
X10512Y-28125D01*
X10525Y-28112D01*
X10525Y-27575D01*
X10525Y-27475D01*
X10525Y-26937D01*
X10462Y-26875D01*
X10225Y-26874D01*
X10133Y-26912D01*
X10063Y-26983D01*
X10025Y-27075D01*
X10025Y-27125D01*
X10025Y-26462D01*
X10025Y-26225D01*
X9662Y-26225D01*
X9600Y-26287D01*
X9599Y-26324D01*
X9637Y-26416D01*
X9708Y-26486D01*
X9800Y-26524D01*
X9899Y-26525D01*
X9962Y-26525D01*
X10025Y-26462D01*
X10025Y-27125D01*
X10024Y-27174D01*
X10025Y-27412D01*
X10087Y-27475D01*
X10525Y-27475D01*
X10525Y-27575D01*
X10087Y-27575D01*
X10025Y-27637D01*
X10024Y-27875D01*
X10025Y-27974D01*
X10063Y-28066D01*
X10121Y-28125D01*
X10063Y-28183D01*
X10025Y-28275D01*
X10024Y-28374D01*
X10025Y-28612D01*
X10087Y-28675D01*
X10525Y-28675D01*
X10525Y-28775D01*
X10087Y-28775D01*
X10025Y-28837D01*
X10024Y-29075D01*
X10025Y-29174D01*
X10063Y-29266D01*
X10121Y-29325D01*
X10063Y-29383D01*
X10025Y-29475D01*
X10024Y-29574D01*
X10025Y-29812D01*
X10087Y-29875D01*
X10525Y-29875D01*
X10525Y-29975D01*
X10087Y-29975D01*
X10025Y-30037D01*
X10024Y-30275D01*
X10025Y-30374D01*
X10063Y-30466D01*
X10133Y-30537D01*
X10225Y-30575D01*
X10462Y-30575D01*
X10525Y-30512D01*
X10525Y-31162D01*
X8263Y-31162D01*
X8247Y-31076D01*
X8193Y-30993D01*
X8111Y-30936D01*
X8075Y-30929D01*
X8075Y-26725D01*
X8075Y-26024D01*
X8074Y-25925D01*
X8036Y-25833D01*
X7978Y-25775D01*
X8036Y-25716D01*
X8074Y-25624D01*
X8075Y-25525D01*
X8075Y-24824D01*
X8074Y-24725D01*
X8036Y-24633D01*
X7978Y-24575D01*
X8036Y-24516D01*
X8074Y-24424D01*
X8075Y-24325D01*
X8075Y-23624D01*
X8074Y-23525D01*
X8036Y-23433D01*
X7966Y-23362D01*
X7874Y-23324D01*
X7637Y-23325D01*
X7575Y-23387D01*
X7575Y-23925D01*
X8012Y-23925D01*
X8075Y-23862D01*
X8075Y-23624D01*
X8075Y-24325D01*
X8075Y-24087D01*
X8012Y-24025D01*
X7575Y-24025D01*
X7575Y-24562D01*
X7587Y-24575D01*
X7575Y-24587D01*
X7575Y-25125D01*
X8012Y-25125D01*
X8075Y-25062D01*
X8075Y-24824D01*
X8075Y-25525D01*
X8075Y-25287D01*
X8012Y-25225D01*
X7575Y-25225D01*
X7575Y-25762D01*
X7587Y-25775D01*
X7575Y-25787D01*
X7575Y-26325D01*
X8012Y-26325D01*
X8075Y-26262D01*
X8075Y-26024D01*
X8075Y-26725D01*
X8075Y-26487D01*
X8012Y-26425D01*
X7575Y-26425D01*
X7575Y-26962D01*
X7637Y-27025D01*
X7874Y-27025D01*
X7966Y-26987D01*
X8036Y-26916D01*
X8074Y-26824D01*
X8075Y-26725D01*
X8075Y-30929D01*
X8013Y-30916D01*
X7916Y-30934D01*
X7475Y-31017D01*
X7475Y-26962D01*
X7475Y-26425D01*
X7475Y-26325D01*
X7475Y-25787D01*
X7462Y-25775D01*
X7475Y-25762D01*
X7475Y-25225D01*
X7475Y-25125D01*
X7475Y-24587D01*
X7462Y-24575D01*
X7475Y-24562D01*
X7475Y-24025D01*
X7475Y-23925D01*
X7475Y-23387D01*
X7412Y-23325D01*
X7175Y-23324D01*
X7083Y-23362D01*
X7013Y-23433D01*
X6975Y-23525D01*
X6974Y-23624D01*
X6975Y-23862D01*
X7037Y-23925D01*
X7475Y-23925D01*
X7475Y-24025D01*
X7037Y-24025D01*
X6975Y-24087D01*
X6974Y-24325D01*
X6975Y-24424D01*
X7013Y-24516D01*
X7071Y-24575D01*
X7013Y-24633D01*
X6975Y-24725D01*
X6974Y-24824D01*
X6975Y-25062D01*
X7037Y-25125D01*
X7475Y-25125D01*
X7475Y-25225D01*
X7037Y-25225D01*
X6975Y-25287D01*
X6974Y-25525D01*
X6975Y-25624D01*
X7013Y-25716D01*
X7071Y-25775D01*
X7013Y-25833D01*
X6975Y-25925D01*
X6974Y-26024D01*
X6975Y-26262D01*
X7037Y-26325D01*
X7475Y-26325D01*
X7475Y-26425D01*
X7037Y-26425D01*
X6975Y-26487D01*
X6974Y-26725D01*
X6975Y-26824D01*
X7013Y-26916D01*
X7083Y-26987D01*
X7175Y-27025D01*
X7412Y-27025D01*
X7475Y-26962D01*
X7475Y-31017D01*
X7375Y-31035D01*
X7292Y-31089D01*
X7235Y-31171D01*
X7215Y-31269D01*
X7233Y-31367D01*
X7334Y-31907D01*
X7388Y-31990D01*
X7470Y-32047D01*
X7568Y-32067D01*
X7656Y-32051D01*
X7530Y-32177D01*
X7450Y-32370D01*
X7449Y-32578D01*
X7529Y-32772D01*
X7677Y-32919D01*
X7870Y-32999D01*
X7892Y-32999D01*
X7861Y-33012D01*
X7714Y-33160D01*
X7634Y-33353D01*
X7633Y-33561D01*
X7713Y-33754D01*
X7861Y-33902D01*
X8054Y-33982D01*
X8075Y-33982D01*
X7990Y-34038D01*
X7983Y-34134D01*
X8329Y-34371D01*
X8567Y-34024D01*
X8526Y-33937D01*
X8413Y-33920D01*
X8455Y-33903D01*
X8571Y-33787D01*
X11342Y-33787D01*
X11468Y-33762D01*
X11468Y-33762D01*
X11575Y-33691D01*
X15108Y-30158D01*
X15164Y-30074D01*
X15164Y-30074D01*
X15249Y-30075D01*
X15699Y-30075D01*
X15748Y-30055D01*
X17625Y-30055D01*
X17751Y-30029D01*
X17751Y-30029D01*
X17858Y-29958D01*
X18711Y-29105D01*
X21525Y-29105D01*
X21651Y-29079D01*
X21651Y-29079D01*
X21758Y-29008D01*
X22638Y-28128D01*
X22709Y-28021D01*
X22709Y-28021D01*
X22734Y-27895D01*
X22734Y-27884D01*
X22782Y-27865D01*
X22852Y-27794D01*
X22891Y-27702D01*
X22891Y-27603D01*
X22891Y-27052D01*
X22853Y-26960D01*
X22782Y-26889D01*
X22691Y-26851D01*
X22591Y-26851D01*
X22119Y-26851D01*
X22090Y-26863D01*
X22061Y-26851D01*
X21961Y-26851D01*
X21489Y-26851D01*
X21460Y-26863D01*
X21431Y-26851D01*
X21331Y-26851D01*
X20859Y-26851D01*
X20767Y-26889D01*
X20697Y-26959D01*
X20660Y-27047D01*
X18722Y-27047D01*
X18596Y-27072D01*
X18489Y-27144D01*
X17238Y-28395D01*
X15891Y-28395D01*
X15899Y-28374D01*
X15900Y-28275D01*
X15900Y-28075D01*
X15862Y-27983D01*
X15853Y-27975D01*
X15861Y-27966D01*
X15899Y-27874D01*
X15900Y-27775D01*
X15900Y-27575D01*
X15862Y-27483D01*
X15853Y-27475D01*
X15861Y-27466D01*
X15899Y-27374D01*
X15900Y-27275D01*
X15900Y-27075D01*
X15862Y-26983D01*
X15853Y-26975D01*
X15861Y-26966D01*
X15870Y-26946D01*
X16086Y-26730D01*
X23650Y-26730D01*
X23776Y-26704D01*
X23776Y-26704D01*
X23793Y-26693D01*
X23793Y-26693D01*
X23883Y-26633D01*
X26561Y-23955D01*
X28050Y-23955D01*
X28049Y-24109D01*
X28114Y-24265D01*
X28145Y-24295D01*
X28145Y-24358D01*
X28124Y-24350D01*
X28025Y-24349D01*
X27825Y-24349D01*
X27733Y-24387D01*
X27725Y-24396D01*
X27716Y-24388D01*
X27624Y-24350D01*
X27525Y-24349D01*
X27325Y-24349D01*
X27233Y-24387D01*
X27225Y-24396D01*
X27216Y-24388D01*
X27124Y-24350D01*
X27025Y-24349D01*
X26825Y-24349D01*
X26733Y-24387D01*
X26725Y-24396D01*
X26716Y-24388D01*
X26624Y-24350D01*
X26525Y-24349D01*
X26325Y-24349D01*
X26233Y-24387D01*
X26163Y-24458D01*
X26125Y-24550D01*
X26124Y-24649D01*
X26124Y-24958D01*
X25141Y-25941D01*
X25070Y-26048D01*
X25045Y-26175D01*
X25045Y-28475D01*
X25045Y-28525D01*
X25070Y-28651D01*
X25141Y-28758D01*
X25499Y-29116D01*
X25499Y-29159D01*
X25564Y-29315D01*
X25683Y-29435D01*
X25840Y-29499D01*
X26009Y-29500D01*
X26165Y-29435D01*
X26285Y-29316D01*
X26349Y-29159D01*
X26350Y-28990D01*
X26285Y-28834D01*
X26166Y-28714D01*
X26009Y-28650D01*
X25966Y-28650D01*
X25749Y-28433D01*
X25790Y-28449D01*
X25959Y-28450D01*
X26115Y-28385D01*
X26235Y-28266D01*
X26299Y-28109D01*
X26300Y-27940D01*
X26235Y-27784D01*
X26205Y-27754D01*
X26205Y-27342D01*
X26214Y-27365D01*
X26333Y-27485D01*
X26490Y-27549D01*
X26659Y-27550D01*
X26815Y-27485D01*
X26935Y-27366D01*
X26999Y-27209D01*
X27000Y-27040D01*
X26935Y-26884D01*
X26905Y-26854D01*
X26905Y-26511D01*
X27708Y-25708D01*
X27779Y-25601D01*
X27779Y-25601D01*
X27805Y-25475D01*
X27805Y-25291D01*
X27825Y-25299D01*
X27924Y-25300D01*
X28124Y-25300D01*
X28216Y-25262D01*
X28224Y-25253D01*
X28233Y-25261D01*
X28325Y-25299D01*
X28424Y-25300D01*
X28624Y-25300D01*
X28716Y-25262D01*
X28724Y-25253D01*
X28733Y-25261D01*
X28825Y-25299D01*
X28924Y-25300D01*
X28981Y-25300D01*
X28950Y-25375D01*
X28949Y-25474D01*
X28949Y-25824D01*
X28987Y-25916D01*
X29046Y-25975D01*
X28987Y-26033D01*
X28949Y-26125D01*
X28950Y-26237D01*
X29012Y-26300D01*
X29425Y-26300D01*
X29425Y-26292D01*
X29525Y-26292D01*
X29525Y-26300D01*
X29937Y-26300D01*
X30000Y-26237D01*
X30000Y-26125D01*
X29962Y-26033D01*
X29903Y-25974D01*
X29961Y-25916D01*
X29999Y-25824D01*
X30000Y-25725D01*
X30000Y-25375D01*
X29962Y-25283D01*
X29891Y-25213D01*
X29805Y-25177D01*
X29805Y-25148D01*
X29824Y-25099D01*
X29825Y-25000D01*
X29825Y-24691D01*
X30016Y-24500D01*
X30059Y-24500D01*
X30215Y-24435D01*
X30335Y-24316D01*
X30399Y-24159D01*
X30400Y-23990D01*
X30335Y-23834D01*
X30216Y-23714D01*
X30059Y-23650D01*
X29896Y-23649D01*
X29958Y-23608D01*
X30158Y-23408D01*
X30229Y-23301D01*
X30229Y-23301D01*
X30255Y-23175D01*
X30255Y-22743D01*
X30749Y-18404D01*
X32132Y-15064D01*
X32184Y-15108D01*
X32810Y-14735D01*
X32815Y-14740D01*
X32885Y-14669D01*
X32642Y-14426D01*
X32479Y-14151D01*
X33693Y-8629D01*
X33754Y-8604D01*
X33902Y-8456D01*
X33916Y-8423D01*
X33937Y-8526D01*
X34024Y-8567D01*
X34371Y-8329D01*
X34134Y-7983D01*
X34038Y-7990D01*
X33982Y-8085D01*
X33983Y-8054D01*
X33903Y-7861D01*
X33755Y-7714D01*
X33562Y-7634D01*
X33353Y-7633D01*
X33160Y-7713D01*
X33013Y-7861D01*
X33000Y-7892D01*
X33000Y-7871D01*
X32920Y-7678D01*
X32772Y-7530D01*
X32579Y-7450D01*
X32371Y-7449D01*
X32178Y-7529D01*
X32051Y-7655D01*
X32067Y-7568D01*
X32047Y-7471D01*
X31991Y-7389D01*
X31908Y-7334D01*
X31810Y-7316D01*
X31653Y-7287D01*
X30612Y-6245D01*
X35889Y-7281D01*
M02*
