G04 (created by PCBNEW (22-Jun-2014 BZR 4027)-stable) date Thu 17 Jul 2014 04:04:50 PM CEST*
%MOIN*%
G04 Gerber Fmt 3.4, Leading zero omitted, Abs format*
%FSLAX34Y34*%
G01*
G70*
G90*
G04 APERTURE LIST*
%ADD10C,0.00590551*%
%ADD11C,0.11811*%
%ADD12C,0.055*%
%ADD13R,0.0551181X0.0472441*%
%ADD14R,0.0472441X0.0551181*%
%ADD15R,0.144X0.08*%
%ADD16R,0.04X0.08*%
%ADD17C,0.1381*%
%ADD18C,0.035*%
%ADD19C,0.016*%
%ADD20C,0.01*%
G04 APERTURE END LIST*
G54D10*
G54D11*
X2149Y-4904D03*
X1787Y-2969D03*
X4904Y-2149D03*
X2969Y-1787D03*
X20245Y-31291D03*
X22154Y-30808D03*
X32408Y-16654D03*
X32891Y-14745D03*
G54D10*
G36*
X31171Y-8010D02*
X31272Y-7470D01*
X31812Y-7571D01*
X31711Y-8111D01*
X31171Y-8010D01*
X31171Y-8010D01*
G37*
G54D12*
X32475Y-7975D03*
X33457Y-8158D03*
X34440Y-8342D03*
G54D10*
G36*
X7470Y-31272D02*
X8010Y-31171D01*
X8111Y-31711D01*
X7571Y-31812D01*
X7470Y-31272D01*
X7470Y-31272D01*
G37*
G54D12*
X7975Y-32475D03*
X8158Y-33457D03*
X8342Y-34440D03*
G54D13*
X24372Y-28475D03*
X24372Y-27845D03*
X24372Y-29104D03*
X26577Y-28475D03*
X26577Y-29104D03*
X26577Y-27845D03*
G54D10*
G36*
X30616Y-18667D02*
X30226Y-19057D01*
X29892Y-18723D01*
X30282Y-18333D01*
X30616Y-18667D01*
X30616Y-18667D01*
G37*
G36*
X31061Y-19113D02*
X30672Y-19502D01*
X30338Y-19168D01*
X30727Y-18779D01*
X31061Y-19113D01*
X31061Y-19113D01*
G37*
G36*
X30170Y-18222D02*
X29781Y-18611D01*
X29447Y-18277D01*
X29836Y-17888D01*
X30170Y-18222D01*
X30170Y-18222D01*
G37*
G36*
X29057Y-20226D02*
X28667Y-20616D01*
X28333Y-20282D01*
X28723Y-19892D01*
X29057Y-20226D01*
X29057Y-20226D01*
G37*
G36*
X28611Y-19781D02*
X28222Y-20170D01*
X27888Y-19836D01*
X28277Y-19447D01*
X28611Y-19781D01*
X28611Y-19781D01*
G37*
G36*
X29502Y-20672D02*
X29113Y-21061D01*
X28779Y-20727D01*
X29168Y-20338D01*
X29502Y-20672D01*
X29502Y-20672D01*
G37*
G36*
X24266Y-21467D02*
X23876Y-21857D01*
X23542Y-21523D01*
X23932Y-21133D01*
X24266Y-21467D01*
X24266Y-21467D01*
G37*
G36*
X24711Y-21913D02*
X24322Y-22302D01*
X23988Y-21968D01*
X24377Y-21579D01*
X24711Y-21913D01*
X24711Y-21913D01*
G37*
G36*
X23820Y-21022D02*
X23431Y-21411D01*
X23097Y-21077D01*
X23486Y-20688D01*
X23820Y-21022D01*
X23820Y-21022D01*
G37*
G36*
X22707Y-23026D02*
X22317Y-23416D01*
X21983Y-23082D01*
X22373Y-22692D01*
X22707Y-23026D01*
X22707Y-23026D01*
G37*
G36*
X22261Y-22581D02*
X21872Y-22970D01*
X21538Y-22636D01*
X21927Y-22247D01*
X22261Y-22581D01*
X22261Y-22581D01*
G37*
G36*
X23152Y-23472D02*
X22763Y-23861D01*
X22429Y-23527D01*
X22818Y-23138D01*
X23152Y-23472D01*
X23152Y-23472D01*
G37*
G54D13*
X6227Y-4175D03*
X6227Y-4804D03*
X6227Y-3545D03*
X4022Y-4175D03*
X4022Y-3545D03*
X4022Y-4804D03*
X32877Y-9725D03*
X32877Y-10354D03*
X32877Y-9095D03*
X30672Y-9725D03*
X30672Y-9095D03*
X30672Y-10354D03*
X24877Y-11425D03*
X24877Y-12054D03*
X24877Y-10795D03*
X22672Y-11425D03*
X22672Y-10795D03*
X22672Y-12054D03*
G54D14*
X7625Y-25177D03*
X6995Y-25177D03*
X8254Y-25177D03*
X7625Y-22972D03*
X8254Y-22972D03*
X6995Y-22972D03*
G54D13*
X13677Y-31825D03*
X13677Y-32454D03*
X13677Y-31195D03*
X11472Y-31825D03*
X11472Y-31195D03*
X11472Y-32454D03*
X19127Y-27675D03*
X19127Y-28304D03*
X19127Y-27045D03*
X16922Y-27675D03*
X16922Y-27045D03*
X16922Y-28304D03*
X20327Y-6625D03*
X20327Y-7254D03*
X20327Y-5995D03*
X18122Y-6625D03*
X18122Y-5995D03*
X18122Y-7254D03*
X4072Y-12275D03*
X4072Y-11645D03*
X4072Y-12904D03*
X6277Y-12275D03*
X6277Y-12904D03*
X6277Y-11645D03*
G54D14*
X11375Y-9977D03*
X10745Y-9977D03*
X12004Y-9977D03*
X11375Y-7772D03*
X12004Y-7772D03*
X10745Y-7772D03*
G54D15*
X30125Y-14925D03*
G54D16*
X30125Y-12325D03*
X31025Y-12325D03*
X29225Y-12325D03*
G54D17*
X16651Y-8396D03*
X25003Y-16747D03*
X16651Y-25099D03*
X8299Y-16747D03*
G54D18*
X28075Y-10275D03*
X28975Y-24275D03*
X28475Y-24025D03*
X26775Y-10125D03*
X29975Y-24075D03*
X5900Y-14375D03*
X23975Y-8975D03*
X27275Y-6975D03*
X27475Y-19175D03*
X29225Y-11275D03*
X25925Y-29075D03*
X26575Y-27125D03*
X25875Y-28025D03*
X19675Y-7275D03*
X18975Y-8275D03*
X19450Y-7775D03*
X4025Y-5475D03*
X4675Y-4375D03*
X5375Y-3825D03*
X11475Y-26075D03*
X10675Y-24175D03*
X11075Y-25225D03*
X9125Y-9125D03*
G54D19*
X28525Y-10725D02*
X28075Y-10275D01*
X28525Y-18525D02*
X28525Y-10725D01*
X30325Y-20325D02*
X28525Y-18525D01*
X30300Y-21200D02*
X30325Y-20325D01*
X28975Y-24275D02*
X30300Y-21200D01*
X29900Y-20975D02*
X28475Y-24025D01*
X29925Y-20475D02*
X29900Y-20975D01*
X28125Y-18675D02*
X29925Y-20475D01*
X28125Y-11475D02*
X28125Y-18675D01*
X26775Y-10125D02*
X28125Y-11475D01*
X30125Y-12325D02*
X30125Y-12575D01*
X30125Y-12575D02*
X28925Y-13775D01*
X28925Y-13775D02*
X28925Y-18375D01*
X28925Y-18375D02*
X30725Y-20175D01*
X30725Y-20175D02*
X30675Y-21425D01*
X30675Y-21425D02*
X29975Y-24075D01*
X31492Y-7791D02*
X31492Y-10507D01*
X30125Y-11875D02*
X30125Y-12325D01*
X31492Y-10507D02*
X30125Y-11875D01*
X8299Y-16747D02*
X8272Y-16747D01*
X8272Y-16747D02*
X5900Y-14375D01*
X26025Y-6925D02*
X27225Y-6925D01*
X23975Y-8975D02*
X26025Y-6925D01*
X27225Y-6925D02*
X27275Y-6975D01*
X25003Y-16747D02*
X25022Y-16747D01*
X27450Y-19175D02*
X27475Y-19175D01*
X25022Y-16747D02*
X27450Y-19175D01*
X29225Y-11275D02*
X29225Y-12325D01*
X26577Y-29104D02*
X25954Y-29104D01*
X25954Y-29104D02*
X25925Y-29075D01*
X26577Y-27845D02*
X26577Y-27127D01*
X26577Y-27127D02*
X26575Y-27125D01*
X26577Y-28475D02*
X26325Y-28475D01*
X26325Y-28475D02*
X25875Y-28025D01*
X24372Y-27845D02*
X24175Y-27675D01*
X22675Y-23975D02*
X22640Y-23699D01*
X24175Y-27675D02*
X22675Y-23975D01*
X21750Y-22809D02*
X21740Y-22809D01*
X23404Y-29104D02*
X24372Y-29104D01*
X23375Y-29075D02*
X23404Y-29104D01*
X21175Y-23375D02*
X23375Y-29075D01*
X21740Y-22809D02*
X21175Y-23375D01*
X22195Y-23254D02*
X21875Y-23575D01*
X24075Y-28475D02*
X24372Y-28475D01*
X23775Y-28475D02*
X24075Y-28475D01*
X21875Y-23575D02*
X23775Y-28475D01*
X28250Y-19809D02*
X23575Y-20975D01*
X23575Y-20975D02*
X23309Y-21250D01*
X23904Y-21495D02*
X23904Y-21445D01*
X28346Y-20461D02*
X28695Y-20254D01*
X24175Y-21375D02*
X28346Y-20461D01*
X23904Y-21445D02*
X24175Y-21375D01*
X23975Y-21475D02*
X23754Y-21695D01*
X24349Y-21940D02*
X28775Y-20925D01*
X28775Y-20925D02*
X29140Y-20699D01*
X24475Y-21875D02*
X24349Y-21940D01*
X18122Y-5995D02*
X18395Y-5995D01*
X18395Y-5995D02*
X19675Y-7275D01*
X19654Y-7295D02*
X19675Y-7275D01*
X18122Y-7254D02*
X18954Y-8254D01*
X18954Y-8254D02*
X18975Y-8275D01*
X18122Y-6625D02*
X18300Y-6625D01*
X18300Y-6625D02*
X19450Y-7775D01*
X22672Y-11425D02*
X22500Y-11425D01*
X20700Y-6625D02*
X20327Y-6625D01*
X20995Y-6875D02*
X20700Y-6625D01*
X22150Y-11075D02*
X20995Y-6875D01*
X22500Y-11425D02*
X22150Y-11075D01*
X20327Y-5995D02*
X21500Y-6350D01*
X22651Y-10424D02*
X22672Y-10795D01*
X21500Y-6350D02*
X22651Y-10424D01*
X20327Y-7254D02*
X21588Y-11411D01*
X22229Y-12054D02*
X22672Y-12054D01*
X21588Y-11411D02*
X22229Y-12054D01*
X30672Y-9095D02*
X30345Y-9095D01*
X24877Y-8622D02*
X24877Y-10795D01*
X25775Y-7725D02*
X24877Y-8622D01*
X28975Y-7725D02*
X25775Y-7725D01*
X30345Y-9095D02*
X28975Y-7725D01*
X30672Y-9725D02*
X30125Y-9725D01*
X25225Y-11425D02*
X24877Y-11425D01*
X25625Y-11025D02*
X25225Y-11425D01*
X25625Y-8675D02*
X25625Y-11025D01*
X26075Y-8225D02*
X25625Y-8675D01*
X28625Y-8225D02*
X26075Y-8225D01*
X30125Y-9725D02*
X28625Y-8225D01*
X24877Y-12054D02*
X25445Y-12054D01*
X29754Y-10354D02*
X30672Y-10354D01*
X28025Y-8625D02*
X29754Y-10354D01*
X26625Y-8625D02*
X28025Y-8625D01*
X26225Y-9025D02*
X26625Y-8625D01*
X26225Y-11275D02*
X26225Y-9025D01*
X25445Y-12054D02*
X26225Y-11275D01*
X6227Y-3545D02*
X8320Y-3545D01*
X12004Y-7229D02*
X12004Y-7772D01*
X8320Y-3545D02*
X12004Y-7229D01*
X4022Y-4804D02*
X4022Y-5472D01*
X4022Y-5472D02*
X4025Y-5475D01*
X4022Y-4175D02*
X4475Y-4175D01*
X4475Y-4175D02*
X4675Y-4375D01*
X4022Y-3545D02*
X5095Y-3545D01*
X5095Y-3545D02*
X5375Y-3825D01*
X6227Y-4175D02*
X8150Y-4175D01*
X11375Y-7400D02*
X11375Y-7772D01*
X8150Y-4175D02*
X11375Y-7400D01*
X6227Y-4804D02*
X8054Y-4804D01*
X10745Y-7495D02*
X10745Y-7772D01*
X8054Y-4804D02*
X10745Y-7495D01*
X6277Y-12904D02*
X7025Y-12901D01*
X12004Y-10595D02*
X12004Y-9977D01*
X7025Y-12901D02*
X12004Y-10595D01*
X6277Y-12275D02*
X6800Y-12275D01*
X11375Y-10350D02*
X11375Y-9977D01*
X6800Y-12275D02*
X11375Y-10350D01*
X10745Y-9977D02*
X10745Y-9977D01*
X6650Y-11648D02*
X6277Y-11645D01*
X10745Y-9977D02*
X6650Y-11648D01*
X8254Y-22972D02*
X10822Y-22972D01*
X11475Y-23625D02*
X11475Y-26075D01*
X10822Y-22972D02*
X11475Y-23625D01*
X6995Y-22972D02*
X6995Y-23295D01*
X7875Y-24175D02*
X10675Y-24175D01*
X6995Y-23295D02*
X7875Y-24175D01*
X7625Y-23225D02*
X8125Y-23725D01*
X8125Y-23725D02*
X10775Y-23725D01*
X10775Y-23725D02*
X11075Y-24025D01*
X11075Y-24025D02*
X11075Y-25225D01*
X7625Y-22972D02*
X7625Y-23225D01*
X6995Y-25177D02*
X7350Y-28375D01*
X11154Y-32454D02*
X11472Y-32454D01*
X7350Y-28375D02*
X11154Y-32454D01*
X8254Y-25177D02*
X8600Y-28325D01*
X11095Y-31195D02*
X11472Y-31195D01*
X8600Y-28325D02*
X11095Y-31195D01*
X7625Y-25177D02*
X7925Y-28275D01*
X11100Y-31825D02*
X11472Y-31825D01*
X7925Y-28275D02*
X11100Y-31825D01*
X13677Y-31195D02*
X13677Y-31195D01*
X16375Y-27050D02*
X16922Y-27045D01*
X13677Y-31195D02*
X16375Y-27050D01*
X13677Y-31825D02*
X14025Y-31825D01*
X16575Y-27675D02*
X16922Y-27675D01*
X14325Y-31525D02*
X16575Y-27675D01*
X14325Y-31525D02*
X14325Y-31525D01*
X14025Y-31825D02*
X14325Y-31525D01*
X13677Y-32454D02*
X14195Y-32454D01*
X14652Y-32076D02*
X16922Y-28304D01*
X14652Y-32076D02*
X14652Y-32076D01*
X14195Y-32454D02*
X14652Y-32076D01*
X32532Y-16521D02*
X31771Y-16521D01*
X31771Y-16521D02*
X31550Y-16300D01*
X20289Y-31247D02*
X20289Y-30183D01*
X20289Y-30183D02*
X20647Y-29825D01*
X4710Y-2113D02*
X4236Y-2113D01*
X2113Y-4236D02*
X2113Y-4710D01*
X4236Y-2113D02*
X2113Y-4236D01*
X2113Y-4710D02*
X2348Y-4710D01*
X4072Y-6434D02*
X4072Y-11645D01*
X2348Y-4710D02*
X4072Y-6434D01*
X16651Y-25099D02*
X13649Y-25099D01*
X4325Y-14325D02*
X4072Y-12904D01*
X13649Y-25099D02*
X4325Y-14325D01*
X4072Y-11645D02*
X4072Y-12275D01*
X4072Y-12275D02*
X4072Y-12904D01*
X9125Y-9125D02*
X15922Y-9125D01*
X15922Y-9125D02*
X16651Y-8396D01*
X19127Y-27045D02*
X18597Y-27045D01*
X18597Y-27045D02*
X16651Y-25099D01*
X19127Y-27045D02*
X19127Y-27675D01*
X19127Y-27675D02*
X19127Y-28304D01*
X19127Y-28304D02*
X20647Y-29825D01*
X20647Y-29825D02*
X24775Y-29825D01*
X24775Y-29825D02*
X25325Y-29275D01*
X25325Y-29275D02*
X25325Y-27325D01*
X25325Y-27325D02*
X26575Y-26075D01*
X26575Y-26075D02*
X27640Y-26075D01*
X27640Y-26075D02*
X29175Y-26075D01*
X29175Y-26075D02*
X30300Y-24425D01*
X30300Y-24425D02*
X31475Y-19750D01*
X31475Y-19750D02*
X30254Y-18695D01*
X30254Y-18695D02*
X29809Y-18250D01*
X9125Y-9125D02*
X4072Y-11645D01*
X4072Y-11645D02*
X4085Y-11632D01*
X4085Y-11632D02*
X4072Y-11645D01*
X30699Y-19140D02*
X30254Y-18695D01*
X30254Y-18695D02*
X29809Y-18250D01*
X29809Y-18250D02*
X29809Y-18040D01*
X29809Y-18040D02*
X31550Y-16300D01*
X31550Y-16300D02*
X31575Y-16275D01*
X31575Y-16275D02*
X31575Y-12875D01*
X31575Y-12875D02*
X31025Y-12325D01*
X32877Y-9095D02*
X32877Y-9725D01*
X32877Y-9725D02*
X32877Y-10354D01*
X32877Y-10354D02*
X32877Y-10472D01*
X32877Y-10472D02*
X31025Y-12325D01*
G54D10*
G36*
X35889Y-7281D02*
X35160Y-10181D01*
X34965Y-10132D01*
X34965Y-8238D01*
X34886Y-8045D01*
X34738Y-7898D01*
X34545Y-7817D01*
X34336Y-7817D01*
X34143Y-7897D01*
X33996Y-8045D01*
X33983Y-8076D01*
X33983Y-8054D01*
X33903Y-7861D01*
X33755Y-7714D01*
X33562Y-7634D01*
X33353Y-7633D01*
X33160Y-7713D01*
X33013Y-7861D01*
X33000Y-7892D01*
X33000Y-7871D01*
X32920Y-7678D01*
X32772Y-7530D01*
X32579Y-7450D01*
X32371Y-7449D01*
X32178Y-7529D01*
X32051Y-7655D01*
X32067Y-7568D01*
X32047Y-7471D01*
X31991Y-7389D01*
X31908Y-7334D01*
X31810Y-7316D01*
X31269Y-7215D01*
X31172Y-7235D01*
X31090Y-7291D01*
X31035Y-7375D01*
X31017Y-7472D01*
X30916Y-8013D01*
X30936Y-8110D01*
X30992Y-8192D01*
X31076Y-8247D01*
X31162Y-8263D01*
X31162Y-8721D01*
X31160Y-8717D01*
X31090Y-8647D01*
X30998Y-8608D01*
X30898Y-8608D01*
X30347Y-8608D01*
X30331Y-8615D01*
X29208Y-7491D01*
X29101Y-7420D01*
X28975Y-7395D01*
X27371Y-7395D01*
X27515Y-7335D01*
X27635Y-7216D01*
X27699Y-7059D01*
X27700Y-6890D01*
X27635Y-6734D01*
X27516Y-6614D01*
X27359Y-6550D01*
X27190Y-6549D01*
X27081Y-6595D01*
X26025Y-6595D01*
X25898Y-6620D01*
X25791Y-6691D01*
X23933Y-8549D01*
X23890Y-8549D01*
X23734Y-8614D01*
X23614Y-8733D01*
X23550Y-8890D01*
X23549Y-9059D01*
X23614Y-9215D01*
X23733Y-9335D01*
X23890Y-9399D01*
X24059Y-9400D01*
X24215Y-9335D01*
X24335Y-9216D01*
X24399Y-9059D01*
X24399Y-9016D01*
X24547Y-8869D01*
X24547Y-10310D01*
X24460Y-10346D01*
X24389Y-10417D01*
X24351Y-10508D01*
X24351Y-10608D01*
X24351Y-11080D01*
X24363Y-11109D01*
X24351Y-11138D01*
X24351Y-11238D01*
X24351Y-11710D01*
X24363Y-11739D01*
X24351Y-11768D01*
X24351Y-11868D01*
X24351Y-12340D01*
X24389Y-12432D01*
X24459Y-12502D01*
X24551Y-12541D01*
X24651Y-12541D01*
X25202Y-12541D01*
X25294Y-12503D01*
X25364Y-12432D01*
X25384Y-12384D01*
X25445Y-12384D01*
X25571Y-12359D01*
X25571Y-12359D01*
X25678Y-12288D01*
X26458Y-11508D01*
X26529Y-11401D01*
X26529Y-11401D01*
X26555Y-11275D01*
X26555Y-10493D01*
X26690Y-10549D01*
X26733Y-10549D01*
X27795Y-11611D01*
X27795Y-18675D01*
X27820Y-18801D01*
X27891Y-18908D01*
X28194Y-19211D01*
X28136Y-19235D01*
X28066Y-19305D01*
X27900Y-19471D01*
X27900Y-19090D01*
X27835Y-18934D01*
X27716Y-18814D01*
X27559Y-18750D01*
X27491Y-18750D01*
X25865Y-17123D01*
X25943Y-16934D01*
X25943Y-16560D01*
X25800Y-16214D01*
X25536Y-15950D01*
X25190Y-15806D01*
X24816Y-15806D01*
X24470Y-15949D01*
X24206Y-16213D01*
X24062Y-16559D01*
X24062Y-16933D01*
X24205Y-17279D01*
X24469Y-17543D01*
X24815Y-17687D01*
X25189Y-17687D01*
X25406Y-17597D01*
X27049Y-19241D01*
X27049Y-19259D01*
X27114Y-19415D01*
X27233Y-19535D01*
X27390Y-19599D01*
X27559Y-19600D01*
X27715Y-19535D01*
X27835Y-19416D01*
X27899Y-19259D01*
X27900Y-19090D01*
X27900Y-19471D01*
X27786Y-19584D01*
X23793Y-20580D01*
X23793Y-16747D01*
X23785Y-16404D01*
X23761Y-16062D01*
X23720Y-15722D01*
X23662Y-15383D01*
X23589Y-15047D01*
X23499Y-14713D01*
X23393Y-14384D01*
X23270Y-14059D01*
X23131Y-13739D01*
X22976Y-13425D01*
X22804Y-13118D01*
X22616Y-12817D01*
X22424Y-12541D01*
X22446Y-12541D01*
X22997Y-12541D01*
X23089Y-12503D01*
X23160Y-12432D01*
X23198Y-12341D01*
X23198Y-12241D01*
X23198Y-11769D01*
X23186Y-11740D01*
X23198Y-11711D01*
X23198Y-11611D01*
X23198Y-11139D01*
X23186Y-11110D01*
X23198Y-11081D01*
X23198Y-10981D01*
X23198Y-10509D01*
X23160Y-10417D01*
X23090Y-10347D01*
X22998Y-10308D01*
X22963Y-10308D01*
X21817Y-6260D01*
X21802Y-6230D01*
X21791Y-6193D01*
X21770Y-6168D01*
X21758Y-6145D01*
X21734Y-6124D01*
X21709Y-6093D01*
X21680Y-6078D01*
X21660Y-6061D01*
X21631Y-6052D01*
X21595Y-6033D01*
X20852Y-5809D01*
X20852Y-5709D01*
X20815Y-5617D01*
X20744Y-5547D01*
X20652Y-5508D01*
X20553Y-5508D01*
X20002Y-5508D01*
X19910Y-5546D01*
X19839Y-5617D01*
X19801Y-5708D01*
X19801Y-5808D01*
X19801Y-6280D01*
X19813Y-6309D01*
X19801Y-6338D01*
X19801Y-6438D01*
X19801Y-6867D01*
X19759Y-6850D01*
X19716Y-6850D01*
X18824Y-5957D01*
X18648Y-5781D01*
X18648Y-5709D01*
X18610Y-5617D01*
X18556Y-5563D01*
X18656Y-5581D01*
X18697Y-5380D01*
X18787Y-4914D01*
X18824Y-4710D01*
X18623Y-4668D01*
X17175Y-4387D01*
X16970Y-4351D01*
X16929Y-4551D01*
X16839Y-5017D01*
X16802Y-5222D01*
X17003Y-5263D01*
X18265Y-5508D01*
X17797Y-5508D01*
X17705Y-5546D01*
X17635Y-5617D01*
X17597Y-5708D01*
X17597Y-5808D01*
X17597Y-6280D01*
X17609Y-6309D01*
X17597Y-6338D01*
X17597Y-6438D01*
X17597Y-6910D01*
X17609Y-6939D01*
X17597Y-6968D01*
X17597Y-7068D01*
X17597Y-7540D01*
X17634Y-7632D01*
X17705Y-7702D01*
X17797Y-7741D01*
X17896Y-7741D01*
X18098Y-7741D01*
X18549Y-8283D01*
X18549Y-8359D01*
X18614Y-8515D01*
X18733Y-8635D01*
X18824Y-8672D01*
X18890Y-8699D01*
X19059Y-8700D01*
X19215Y-8635D01*
X19335Y-8516D01*
X19399Y-8359D01*
X19400Y-8199D01*
X19534Y-8200D01*
X19690Y-8135D01*
X19810Y-8016D01*
X19874Y-7859D01*
X19875Y-7690D01*
X19861Y-7657D01*
X19863Y-7656D01*
X19909Y-7702D01*
X20001Y-7741D01*
X20101Y-7741D01*
X20130Y-7741D01*
X21191Y-11233D01*
X21158Y-11206D01*
X21017Y-11094D01*
X20873Y-10985D01*
X20727Y-10881D01*
X20580Y-10781D01*
X20431Y-10685D01*
X20279Y-10593D01*
X20126Y-10505D01*
X19971Y-10422D01*
X19815Y-10342D01*
X19657Y-10266D01*
X19498Y-10195D01*
X19337Y-10127D01*
X19175Y-10064D01*
X19012Y-10005D01*
X18848Y-9950D01*
X18824Y-9942D01*
X18682Y-9899D01*
X18516Y-9852D01*
X18349Y-9809D01*
X18181Y-9770D01*
X18013Y-9736D01*
X17843Y-9705D01*
X17674Y-9679D01*
X17503Y-9656D01*
X17333Y-9638D01*
X17162Y-9623D01*
X16991Y-9613D01*
X16819Y-9607D01*
X16648Y-9605D01*
X16477Y-9607D01*
X16306Y-9613D01*
X16134Y-9623D01*
X15963Y-9638D01*
X15793Y-9656D01*
X15623Y-9679D01*
X15453Y-9705D01*
X15284Y-9736D01*
X15116Y-9770D01*
X14948Y-9809D01*
X14781Y-9852D01*
X14615Y-9899D01*
X14450Y-9950D01*
X14286Y-10005D01*
X14123Y-10064D01*
X13961Y-10127D01*
X13801Y-10195D01*
X13641Y-10266D01*
X13484Y-10342D01*
X13328Y-10422D01*
X13173Y-10505D01*
X13020Y-10593D01*
X12868Y-10685D01*
X12719Y-10781D01*
X12572Y-10881D01*
X12491Y-10939D01*
X12491Y-10203D01*
X12491Y-9652D01*
X12491Y-7998D01*
X12491Y-7447D01*
X12453Y-7355D01*
X12382Y-7285D01*
X12334Y-7265D01*
X12334Y-7229D01*
X12334Y-7229D01*
X12334Y-7229D01*
X12329Y-7204D01*
X12309Y-7103D01*
X12309Y-7103D01*
X12238Y-6996D01*
X12238Y-6996D01*
X8553Y-3311D01*
X8446Y-3240D01*
X8320Y-3215D01*
X6734Y-3215D01*
X6715Y-3167D01*
X6644Y-3097D01*
X6552Y-3058D01*
X6453Y-3058D01*
X5902Y-3058D01*
X5810Y-3096D01*
X5761Y-3145D01*
X5761Y-2123D01*
X5698Y-1827D01*
X5586Y-1742D01*
X5530Y-1781D01*
X5530Y-1660D01*
X5491Y-1525D01*
X5208Y-1348D01*
X4878Y-1292D01*
X4582Y-1355D01*
X4497Y-1467D01*
X4917Y-2080D01*
X5530Y-1660D01*
X5530Y-1781D01*
X4973Y-2162D01*
X5393Y-2775D01*
X5528Y-2736D01*
X5705Y-2453D01*
X5761Y-2123D01*
X5761Y-3145D01*
X5739Y-3167D01*
X5701Y-3258D01*
X5701Y-3358D01*
X5701Y-3550D01*
X5616Y-3464D01*
X5459Y-3400D01*
X5416Y-3400D01*
X5328Y-3311D01*
X5311Y-3300D01*
X5311Y-2832D01*
X4891Y-2219D01*
X4834Y-2257D01*
X4834Y-2136D01*
X4415Y-1523D01*
X4280Y-1562D01*
X4103Y-1845D01*
X4047Y-2175D01*
X4110Y-2471D01*
X4221Y-2556D01*
X4834Y-2136D01*
X4834Y-2257D01*
X4278Y-2638D01*
X4317Y-2773D01*
X4600Y-2950D01*
X4930Y-3006D01*
X5226Y-2943D01*
X5311Y-2832D01*
X5311Y-3300D01*
X5221Y-3240D01*
X5095Y-3215D01*
X4529Y-3215D01*
X4510Y-3167D01*
X4440Y-3097D01*
X4348Y-3058D01*
X4248Y-3058D01*
X3810Y-3058D01*
X3810Y-1620D01*
X3682Y-1311D01*
X3446Y-1075D01*
X3137Y-947D01*
X2803Y-946D01*
X2494Y-1074D01*
X2257Y-1310D01*
X2129Y-1619D01*
X2128Y-1953D01*
X2252Y-2252D01*
X1955Y-2129D01*
X1620Y-2128D01*
X1311Y-2256D01*
X1075Y-2492D01*
X947Y-2801D01*
X946Y-3136D01*
X1074Y-3445D01*
X1310Y-3681D01*
X1619Y-3809D01*
X1953Y-3810D01*
X2262Y-3682D01*
X2499Y-3446D01*
X2627Y-3137D01*
X2628Y-2803D01*
X2504Y-2504D01*
X2801Y-2627D01*
X3136Y-2628D01*
X3445Y-2500D01*
X3681Y-2264D01*
X3809Y-1955D01*
X3810Y-1620D01*
X3810Y-3058D01*
X3697Y-3058D01*
X3605Y-3096D01*
X3535Y-3167D01*
X3497Y-3258D01*
X3497Y-3358D01*
X3497Y-3830D01*
X3509Y-3859D01*
X3497Y-3888D01*
X3497Y-3988D01*
X3497Y-4460D01*
X3509Y-4489D01*
X3497Y-4518D01*
X3497Y-4618D01*
X3497Y-5090D01*
X3534Y-5182D01*
X3605Y-5252D01*
X3649Y-5271D01*
X3600Y-5390D01*
X3599Y-5559D01*
X3664Y-5715D01*
X3783Y-5835D01*
X3940Y-5899D01*
X4109Y-5900D01*
X4265Y-5835D01*
X4385Y-5716D01*
X4449Y-5559D01*
X4450Y-5390D01*
X4399Y-5269D01*
X4439Y-5253D01*
X4510Y-5182D01*
X4548Y-5091D01*
X4548Y-4991D01*
X4548Y-4782D01*
X4590Y-4799D01*
X4759Y-4800D01*
X4915Y-4735D01*
X5035Y-4616D01*
X5099Y-4459D01*
X5100Y-4290D01*
X5035Y-4134D01*
X4916Y-4014D01*
X4759Y-3950D01*
X4716Y-3950D01*
X4708Y-3941D01*
X4608Y-3875D01*
X4949Y-3875D01*
X4949Y-3909D01*
X5014Y-4065D01*
X5133Y-4185D01*
X5290Y-4249D01*
X5459Y-4250D01*
X5615Y-4185D01*
X5701Y-4099D01*
X5701Y-4460D01*
X5713Y-4489D01*
X5701Y-4518D01*
X5701Y-4618D01*
X5701Y-5090D01*
X5739Y-5182D01*
X5809Y-5252D01*
X5901Y-5291D01*
X6001Y-5291D01*
X6552Y-5291D01*
X6644Y-5253D01*
X6714Y-5182D01*
X6734Y-5134D01*
X7918Y-5134D01*
X10258Y-7475D01*
X10258Y-7546D01*
X10258Y-8097D01*
X10296Y-8189D01*
X10367Y-8260D01*
X10458Y-8298D01*
X10558Y-8298D01*
X11030Y-8298D01*
X11059Y-8286D01*
X11088Y-8298D01*
X11188Y-8298D01*
X11660Y-8298D01*
X11689Y-8286D01*
X11718Y-8298D01*
X11818Y-8298D01*
X12290Y-8298D01*
X12382Y-8260D01*
X12452Y-8190D01*
X12491Y-8098D01*
X12491Y-7998D01*
X12491Y-9652D01*
X12453Y-9560D01*
X12382Y-9489D01*
X12291Y-9451D01*
X12191Y-9451D01*
X11719Y-9451D01*
X11690Y-9463D01*
X11661Y-9451D01*
X11561Y-9451D01*
X11089Y-9451D01*
X11060Y-9463D01*
X11031Y-9451D01*
X10931Y-9451D01*
X10459Y-9451D01*
X10367Y-9489D01*
X10297Y-9559D01*
X10258Y-9651D01*
X10258Y-9751D01*
X10258Y-9819D01*
X6748Y-11251D01*
X6694Y-11197D01*
X6602Y-11158D01*
X6503Y-11158D01*
X5952Y-11158D01*
X5860Y-11196D01*
X5789Y-11267D01*
X5751Y-11358D01*
X5751Y-11458D01*
X5751Y-11930D01*
X5763Y-11959D01*
X5751Y-11988D01*
X5751Y-12088D01*
X5751Y-12560D01*
X5763Y-12589D01*
X5751Y-12618D01*
X5751Y-12718D01*
X5751Y-13190D01*
X5789Y-13282D01*
X5859Y-13352D01*
X5951Y-13391D01*
X6051Y-13391D01*
X6602Y-13391D01*
X6694Y-13353D01*
X6764Y-13282D01*
X6785Y-13232D01*
X7027Y-13231D01*
X7032Y-13229D01*
X7039Y-13231D01*
X7105Y-13214D01*
X7153Y-13205D01*
X7157Y-13202D01*
X7164Y-13200D01*
X12113Y-10903D01*
X12131Y-10899D01*
X12238Y-10828D01*
X12309Y-10721D01*
X12334Y-10595D01*
X12334Y-10484D01*
X12382Y-10465D01*
X12452Y-10394D01*
X12491Y-10302D01*
X12491Y-10203D01*
X12491Y-10939D01*
X12426Y-10985D01*
X12282Y-11094D01*
X12141Y-11206D01*
X12002Y-11322D01*
X11865Y-11443D01*
X11731Y-11567D01*
X11599Y-11696D01*
X11346Y-11963D01*
X11109Y-12239D01*
X10888Y-12524D01*
X10684Y-12817D01*
X10496Y-13118D01*
X10324Y-13425D01*
X10168Y-13739D01*
X10030Y-14059D01*
X9907Y-14384D01*
X9801Y-14713D01*
X9711Y-15046D01*
X9637Y-15383D01*
X9580Y-15722D01*
X9539Y-16062D01*
X9515Y-16404D01*
X9506Y-16747D01*
X9515Y-17090D01*
X9539Y-17432D01*
X9580Y-17773D01*
X9637Y-18111D01*
X9711Y-18448D01*
X9801Y-18781D01*
X9907Y-19110D01*
X10030Y-19435D01*
X10168Y-19755D01*
X10324Y-20069D01*
X10496Y-20377D01*
X10684Y-20678D01*
X10888Y-20971D01*
X11109Y-21256D01*
X11346Y-21532D01*
X11599Y-21798D01*
X11865Y-22051D01*
X12141Y-22288D01*
X12426Y-22509D01*
X12719Y-22713D01*
X13020Y-22901D01*
X13328Y-23073D01*
X13642Y-23229D01*
X13962Y-23367D01*
X14287Y-23490D01*
X14616Y-23596D01*
X14949Y-23686D01*
X15285Y-23759D01*
X15624Y-23817D01*
X15965Y-23858D01*
X16307Y-23882D01*
X16650Y-23890D01*
X16993Y-23882D01*
X17334Y-23858D01*
X17675Y-23817D01*
X18014Y-23759D01*
X18351Y-23686D01*
X18684Y-23596D01*
X19013Y-23490D01*
X19338Y-23367D01*
X19658Y-23229D01*
X19972Y-23073D01*
X20279Y-22901D01*
X20580Y-22713D01*
X20873Y-22509D01*
X21158Y-22288D01*
X21434Y-22051D01*
X21701Y-21798D01*
X21954Y-21532D01*
X22191Y-21256D01*
X22412Y-20971D01*
X22616Y-20678D01*
X22804Y-20377D01*
X22976Y-20069D01*
X23131Y-19755D01*
X23270Y-19435D01*
X23393Y-19110D01*
X23499Y-18781D01*
X23589Y-18448D01*
X23662Y-18111D01*
X23720Y-17773D01*
X23761Y-17432D01*
X23785Y-17090D01*
X23793Y-16747D01*
X23793Y-20580D01*
X23744Y-20592D01*
X23628Y-20476D01*
X23536Y-20438D01*
X23437Y-20438D01*
X23345Y-20476D01*
X23275Y-20546D01*
X22885Y-20936D01*
X22847Y-21027D01*
X22847Y-21127D01*
X22885Y-21219D01*
X22955Y-21289D01*
X22995Y-21329D01*
X23006Y-21381D01*
X23079Y-21487D01*
X23188Y-21557D01*
X23230Y-21564D01*
X23289Y-21623D01*
X23318Y-21635D01*
X23330Y-21664D01*
X23400Y-21735D01*
X23440Y-21774D01*
X23449Y-21821D01*
X23521Y-21928D01*
X23628Y-22000D01*
X23675Y-22009D01*
X23734Y-22069D01*
X23764Y-22081D01*
X23775Y-22110D01*
X23793Y-22127D01*
X23846Y-22180D01*
X24180Y-22514D01*
X24272Y-22552D01*
X24371Y-22552D01*
X24463Y-22514D01*
X24533Y-22444D01*
X24802Y-22175D01*
X28849Y-21249D01*
X28916Y-21218D01*
X28971Y-21273D01*
X29063Y-21311D01*
X29162Y-21311D01*
X29254Y-21273D01*
X29324Y-21203D01*
X29515Y-21013D01*
X28289Y-23641D01*
X28234Y-23664D01*
X28114Y-23783D01*
X28050Y-23940D01*
X28049Y-24109D01*
X28114Y-24265D01*
X28233Y-24385D01*
X28390Y-24449D01*
X28559Y-24450D01*
X28583Y-24440D01*
X28614Y-24515D01*
X28733Y-24635D01*
X28890Y-24699D01*
X29059Y-24700D01*
X29215Y-24635D01*
X29335Y-24516D01*
X29399Y-24359D01*
X29400Y-24190D01*
X29385Y-24155D01*
X29972Y-22793D01*
X29726Y-23722D01*
X29614Y-23833D01*
X29550Y-23990D01*
X29549Y-24159D01*
X29614Y-24315D01*
X29733Y-24435D01*
X29890Y-24499D01*
X30059Y-24500D01*
X30215Y-24435D01*
X30335Y-24316D01*
X30399Y-24159D01*
X30400Y-23990D01*
X30362Y-23900D01*
X30994Y-21509D01*
X30996Y-21472D01*
X31004Y-21438D01*
X31054Y-20188D01*
X31053Y-20181D01*
X31055Y-20175D01*
X31044Y-20123D01*
X31034Y-20061D01*
X31031Y-20054D01*
X31029Y-20048D01*
X31000Y-20004D01*
X30967Y-19951D01*
X30961Y-19946D01*
X30958Y-19941D01*
X30755Y-19738D01*
X30813Y-19714D01*
X30883Y-19644D01*
X30964Y-19564D01*
X30964Y-19475D01*
X30699Y-19211D01*
X30694Y-19217D01*
X30623Y-19146D01*
X30629Y-19140D01*
X30518Y-19030D01*
X30364Y-18876D01*
X30254Y-18766D01*
X30248Y-18771D01*
X30178Y-18701D01*
X30183Y-18695D01*
X30073Y-18585D01*
X29919Y-18431D01*
X29809Y-18320D01*
X29803Y-18326D01*
X29732Y-18255D01*
X29738Y-18250D01*
X29474Y-17985D01*
X29385Y-17985D01*
X29305Y-18066D01*
X29255Y-18116D01*
X29255Y-15528D01*
X29263Y-15536D01*
X29355Y-15574D01*
X29454Y-15575D01*
X30894Y-15575D01*
X30986Y-15537D01*
X31056Y-15466D01*
X31094Y-15374D01*
X31095Y-15275D01*
X31095Y-14475D01*
X31057Y-14383D01*
X30986Y-14313D01*
X30894Y-14275D01*
X30795Y-14274D01*
X29355Y-14274D01*
X29263Y-14312D01*
X29255Y-14321D01*
X29255Y-13911D01*
X30191Y-12975D01*
X30374Y-12975D01*
X30466Y-12937D01*
X30536Y-12866D01*
X30574Y-12774D01*
X30575Y-12724D01*
X30575Y-12774D01*
X30613Y-12866D01*
X30683Y-12937D01*
X30775Y-12975D01*
X30912Y-12975D01*
X30975Y-12912D01*
X30975Y-12375D01*
X30967Y-12375D01*
X30967Y-12275D01*
X30975Y-12275D01*
X30975Y-11737D01*
X30912Y-11675D01*
X30791Y-11674D01*
X31725Y-10741D01*
X31725Y-10741D01*
X31725Y-10741D01*
X31796Y-10634D01*
X31796Y-10634D01*
X31822Y-10507D01*
X31822Y-10507D01*
X31822Y-8339D01*
X31893Y-8290D01*
X31948Y-8207D01*
X31965Y-8116D01*
X32029Y-8272D01*
X32177Y-8419D01*
X32370Y-8499D01*
X32578Y-8500D01*
X32772Y-8420D01*
X32919Y-8272D01*
X32932Y-8241D01*
X32932Y-8262D01*
X33012Y-8455D01*
X33160Y-8603D01*
X33172Y-8608D01*
X33103Y-8608D01*
X32989Y-8608D01*
X32927Y-8671D01*
X32927Y-9045D01*
X33340Y-9045D01*
X33402Y-8982D01*
X33402Y-8809D01*
X33365Y-8717D01*
X33316Y-8668D01*
X33353Y-8683D01*
X33561Y-8684D01*
X33754Y-8604D01*
X33902Y-8456D01*
X33915Y-8425D01*
X33915Y-8446D01*
X33995Y-8639D01*
X34143Y-8787D01*
X34335Y-8867D01*
X34544Y-8867D01*
X34737Y-8788D01*
X34885Y-8640D01*
X34965Y-8447D01*
X34965Y-8238D01*
X34965Y-10132D01*
X34296Y-9964D01*
X34099Y-9914D01*
X34044Y-10111D01*
X33402Y-12664D01*
X33402Y-10640D01*
X33402Y-10069D01*
X33390Y-10039D01*
X33402Y-10010D01*
X33402Y-9439D01*
X33390Y-9410D01*
X33402Y-9380D01*
X33402Y-9207D01*
X33340Y-9145D01*
X32927Y-9145D01*
X32927Y-9301D01*
X32927Y-9518D01*
X32927Y-9675D01*
X33340Y-9675D01*
X33402Y-9612D01*
X33402Y-9439D01*
X33402Y-10010D01*
X33402Y-9837D01*
X33340Y-9775D01*
X32927Y-9775D01*
X32927Y-9931D01*
X32927Y-10148D01*
X32927Y-10304D01*
X33340Y-10304D01*
X33402Y-10242D01*
X33402Y-10069D01*
X33402Y-10640D01*
X33402Y-10467D01*
X33340Y-10404D01*
X32927Y-10404D01*
X32927Y-10778D01*
X32989Y-10841D01*
X33103Y-10841D01*
X33202Y-10841D01*
X33294Y-10802D01*
X33365Y-10732D01*
X33402Y-10640D01*
X33402Y-12664D01*
X33211Y-13428D01*
X33160Y-13625D01*
X33362Y-13676D01*
X35289Y-14160D01*
X34553Y-17074D01*
X33732Y-16867D01*
X33732Y-14579D01*
X33604Y-14270D01*
X33368Y-14033D01*
X33059Y-13905D01*
X32827Y-13905D01*
X32827Y-10778D01*
X32827Y-10404D01*
X32827Y-10304D01*
X32827Y-10148D01*
X32827Y-9931D01*
X32827Y-9775D01*
X32827Y-9675D01*
X32827Y-9518D01*
X32827Y-9301D01*
X32827Y-9145D01*
X32827Y-9045D01*
X32827Y-8671D01*
X32764Y-8608D01*
X32651Y-8608D01*
X32551Y-8608D01*
X32459Y-8647D01*
X32389Y-8717D01*
X32351Y-8809D01*
X32351Y-8982D01*
X32414Y-9045D01*
X32827Y-9045D01*
X32827Y-9145D01*
X32414Y-9145D01*
X32351Y-9207D01*
X32351Y-9380D01*
X32363Y-9410D01*
X32351Y-9439D01*
X32351Y-9612D01*
X32414Y-9675D01*
X32827Y-9675D01*
X32827Y-9775D01*
X32414Y-9775D01*
X32351Y-9837D01*
X32351Y-10010D01*
X32363Y-10039D01*
X32351Y-10069D01*
X32351Y-10242D01*
X32414Y-10304D01*
X32827Y-10304D01*
X32827Y-10404D01*
X32414Y-10404D01*
X32351Y-10467D01*
X32351Y-10640D01*
X32389Y-10732D01*
X32459Y-10802D01*
X32551Y-10841D01*
X32651Y-10841D01*
X32764Y-10841D01*
X32827Y-10778D01*
X32827Y-13905D01*
X32724Y-13905D01*
X32415Y-14032D01*
X32179Y-14269D01*
X32051Y-14577D01*
X32050Y-14912D01*
X32178Y-15221D01*
X32414Y-15457D01*
X32723Y-15586D01*
X33057Y-15586D01*
X33366Y-15458D01*
X33603Y-15222D01*
X33731Y-14913D01*
X33732Y-14579D01*
X33732Y-16867D01*
X33692Y-16857D01*
X33490Y-16802D01*
X33440Y-17004D01*
X33265Y-17700D01*
X33265Y-16681D01*
X33221Y-16382D01*
X33115Y-16291D01*
X33064Y-16321D01*
X33064Y-16205D01*
X33033Y-16068D01*
X32761Y-15873D01*
X32436Y-15797D01*
X32137Y-15841D01*
X32045Y-15947D01*
X32425Y-16585D01*
X33064Y-16205D01*
X33064Y-16321D01*
X32477Y-16671D01*
X32857Y-17309D01*
X32994Y-17279D01*
X33189Y-17007D01*
X33265Y-16681D01*
X33265Y-17700D01*
X32771Y-19662D01*
X32771Y-17360D01*
X32391Y-16722D01*
X32340Y-16753D01*
X32340Y-16636D01*
X31959Y-15998D01*
X31822Y-16028D01*
X31627Y-16300D01*
X31551Y-16626D01*
X31595Y-16925D01*
X31701Y-17017D01*
X32340Y-16636D01*
X32340Y-16753D01*
X31753Y-17103D01*
X31783Y-17240D01*
X32055Y-17434D01*
X32380Y-17510D01*
X32679Y-17467D01*
X32771Y-17360D01*
X32771Y-19662D01*
X32657Y-20116D01*
X32497Y-20076D01*
X32497Y-17612D01*
X32296Y-17561D01*
X31837Y-17447D01*
X31636Y-17397D01*
X31586Y-17598D01*
X31475Y-18039D01*
X31475Y-12675D01*
X31475Y-11974D01*
X31474Y-11875D01*
X31436Y-11783D01*
X31366Y-11712D01*
X31274Y-11674D01*
X31137Y-11675D01*
X31075Y-11737D01*
X31075Y-12275D01*
X31412Y-12275D01*
X31475Y-12212D01*
X31475Y-11974D01*
X31475Y-12675D01*
X31475Y-12437D01*
X31412Y-12375D01*
X31075Y-12375D01*
X31075Y-12912D01*
X31137Y-12975D01*
X31274Y-12975D01*
X31366Y-12937D01*
X31436Y-12866D01*
X31474Y-12774D01*
X31475Y-12675D01*
X31475Y-18039D01*
X31252Y-18921D01*
X31246Y-18944D01*
X31151Y-18848D01*
X31062Y-18848D01*
X30992Y-18919D01*
X30992Y-18778D01*
X30992Y-18689D01*
X30869Y-18567D01*
X30840Y-18555D01*
X30828Y-18525D01*
X30705Y-18403D01*
X30617Y-18403D01*
X30546Y-18474D01*
X30546Y-18332D01*
X30546Y-18244D01*
X30424Y-18121D01*
X30394Y-18109D01*
X30382Y-18080D01*
X30260Y-17957D01*
X30171Y-17957D01*
X30101Y-18028D01*
X30101Y-17887D01*
X30101Y-17798D01*
X29978Y-17676D01*
X29886Y-17638D01*
X29787Y-17638D01*
X29695Y-17676D01*
X29625Y-17746D01*
X29544Y-17826D01*
X29544Y-17915D01*
X29809Y-18179D01*
X30101Y-17887D01*
X30101Y-18028D01*
X29879Y-18250D01*
X29990Y-18360D01*
X30144Y-18514D01*
X30254Y-18624D01*
X30546Y-18332D01*
X30546Y-18474D01*
X30325Y-18695D01*
X30435Y-18805D01*
X30589Y-18959D01*
X30699Y-19070D01*
X30992Y-18778D01*
X30992Y-18919D01*
X30770Y-19140D01*
X31034Y-19405D01*
X31123Y-19405D01*
X31203Y-19324D01*
X31273Y-19254D01*
X31311Y-19162D01*
X31311Y-19149D01*
X31403Y-19172D01*
X31861Y-19290D01*
X32063Y-19341D01*
X32113Y-19139D01*
X32447Y-17813D01*
X32497Y-17612D01*
X32497Y-20076D01*
X31796Y-19902D01*
X31595Y-19847D01*
X31544Y-20049D01*
X30711Y-23362D01*
X30660Y-23563D01*
X30858Y-23613D01*
X32785Y-24097D01*
X32053Y-27008D01*
X31188Y-26791D01*
X30987Y-26740D01*
X30936Y-26941D01*
X30135Y-30135D01*
X27143Y-30886D01*
X27102Y-30727D01*
X27102Y-29291D01*
X27102Y-28819D01*
X27090Y-28790D01*
X27102Y-28761D01*
X27102Y-28661D01*
X27102Y-28189D01*
X27090Y-28160D01*
X27102Y-28131D01*
X27102Y-28031D01*
X27102Y-27559D01*
X27065Y-27467D01*
X26994Y-27397D01*
X26930Y-27370D01*
X26935Y-27366D01*
X26999Y-27209D01*
X27000Y-27040D01*
X26935Y-26884D01*
X26816Y-26764D01*
X26659Y-26700D01*
X26490Y-26699D01*
X26334Y-26764D01*
X26214Y-26883D01*
X26150Y-27040D01*
X26149Y-27209D01*
X26214Y-27365D01*
X26220Y-27371D01*
X26160Y-27396D01*
X26089Y-27467D01*
X26051Y-27558D01*
X26051Y-27638D01*
X25959Y-27600D01*
X25790Y-27599D01*
X25634Y-27664D01*
X25514Y-27783D01*
X25450Y-27940D01*
X25449Y-28109D01*
X25514Y-28265D01*
X25633Y-28385D01*
X25790Y-28449D01*
X25833Y-28449D01*
X26050Y-28666D01*
X26009Y-28650D01*
X25840Y-28649D01*
X25684Y-28714D01*
X25564Y-28833D01*
X25500Y-28990D01*
X25499Y-29159D01*
X25564Y-29315D01*
X25683Y-29435D01*
X25840Y-29499D01*
X26009Y-29500D01*
X26084Y-29469D01*
X26089Y-29482D01*
X26159Y-29552D01*
X26251Y-29591D01*
X26351Y-29591D01*
X26902Y-29591D01*
X26994Y-29553D01*
X27064Y-29482D01*
X27102Y-29391D01*
X27102Y-29291D01*
X27102Y-30727D01*
X26926Y-30029D01*
X26875Y-29822D01*
X26677Y-29878D01*
X24898Y-30325D01*
X24898Y-29291D01*
X24898Y-28819D01*
X24886Y-28790D01*
X24898Y-28761D01*
X24898Y-28661D01*
X24898Y-28189D01*
X24886Y-28160D01*
X24898Y-28131D01*
X24898Y-28031D01*
X24898Y-27559D01*
X24860Y-27467D01*
X24790Y-27397D01*
X24698Y-27358D01*
X24598Y-27358D01*
X24405Y-27358D01*
X23793Y-25852D01*
X23023Y-23955D01*
X23364Y-23613D01*
X23402Y-23522D01*
X23402Y-23422D01*
X23364Y-23330D01*
X23294Y-23260D01*
X22960Y-22926D01*
X22931Y-22914D01*
X22919Y-22885D01*
X22849Y-22814D01*
X22515Y-22480D01*
X22485Y-22468D01*
X22474Y-22439D01*
X22403Y-22369D01*
X22069Y-22035D01*
X21977Y-21997D01*
X21878Y-21997D01*
X21786Y-22035D01*
X21716Y-22105D01*
X21326Y-22495D01*
X21288Y-22586D01*
X21288Y-22686D01*
X21319Y-22763D01*
X20941Y-23141D01*
X20908Y-23191D01*
X20873Y-23241D01*
X20872Y-23245D01*
X20870Y-23248D01*
X20858Y-23307D01*
X20845Y-23366D01*
X20845Y-23370D01*
X20845Y-23375D01*
X20856Y-23434D01*
X20867Y-23493D01*
X23066Y-29193D01*
X23069Y-29198D01*
X23070Y-29201D01*
X23092Y-29234D01*
X23135Y-29302D01*
X23140Y-29305D01*
X23141Y-29308D01*
X23171Y-29338D01*
X23278Y-29409D01*
X23278Y-29409D01*
X23404Y-29434D01*
X23793Y-29434D01*
X23865Y-29434D01*
X23884Y-29482D01*
X23955Y-29552D01*
X24047Y-29591D01*
X24146Y-29591D01*
X24697Y-29591D01*
X24789Y-29553D01*
X24860Y-29482D01*
X24898Y-29391D01*
X24898Y-29291D01*
X24898Y-30325D01*
X23793Y-30602D01*
X23361Y-30711D01*
X23165Y-30761D01*
X23211Y-30962D01*
X23698Y-32886D01*
X22994Y-33063D01*
X22994Y-30642D01*
X22867Y-30333D01*
X22630Y-30096D01*
X22322Y-29968D01*
X21987Y-29967D01*
X21678Y-30095D01*
X21442Y-30331D01*
X21313Y-30640D01*
X21313Y-30975D01*
X21441Y-31284D01*
X21677Y-31520D01*
X21986Y-31648D01*
X22320Y-31649D01*
X22629Y-31521D01*
X22866Y-31285D01*
X22994Y-30976D01*
X22994Y-30642D01*
X22994Y-33063D01*
X21100Y-33539D01*
X21100Y-31230D01*
X21012Y-30908D01*
X20831Y-30666D01*
X20694Y-30635D01*
X20608Y-30780D01*
X20608Y-30584D01*
X20517Y-30478D01*
X20185Y-30436D01*
X19862Y-30524D01*
X19652Y-30681D01*
X19652Y-28590D01*
X19652Y-28019D01*
X19640Y-27989D01*
X19652Y-27960D01*
X19652Y-27389D01*
X19640Y-27360D01*
X19652Y-27330D01*
X19652Y-26759D01*
X19615Y-26667D01*
X19544Y-26597D01*
X19452Y-26558D01*
X19353Y-26558D01*
X19239Y-26558D01*
X19177Y-26621D01*
X19177Y-26995D01*
X19590Y-26995D01*
X19652Y-26932D01*
X19652Y-26759D01*
X19652Y-27330D01*
X19652Y-27157D01*
X19590Y-27095D01*
X19177Y-27095D01*
X19177Y-27251D01*
X19177Y-27468D01*
X19177Y-27625D01*
X19590Y-27625D01*
X19652Y-27562D01*
X19652Y-27389D01*
X19652Y-27960D01*
X19652Y-27787D01*
X19590Y-27725D01*
X19177Y-27725D01*
X19177Y-27881D01*
X19177Y-28098D01*
X19177Y-28254D01*
X19590Y-28254D01*
X19652Y-28192D01*
X19652Y-28019D01*
X19652Y-28590D01*
X19652Y-28417D01*
X19590Y-28354D01*
X19177Y-28354D01*
X19177Y-28728D01*
X19239Y-28791D01*
X19353Y-28791D01*
X19452Y-28791D01*
X19544Y-28752D01*
X19615Y-28682D01*
X19652Y-28590D01*
X19652Y-30681D01*
X19620Y-30705D01*
X19590Y-30842D01*
X20228Y-31222D01*
X20608Y-30584D01*
X20608Y-30780D01*
X20314Y-31274D01*
X20952Y-31654D01*
X21058Y-31562D01*
X21100Y-31230D01*
X21100Y-33539D01*
X20901Y-33589D01*
X20901Y-31740D01*
X20263Y-31359D01*
X20177Y-31504D01*
X20177Y-31308D01*
X19539Y-30928D01*
X19432Y-31020D01*
X19390Y-31351D01*
X19479Y-31674D01*
X19659Y-31916D01*
X19796Y-31946D01*
X20177Y-31308D01*
X20177Y-31504D01*
X19882Y-31998D01*
X19974Y-32104D01*
X20306Y-32146D01*
X20628Y-32058D01*
X20871Y-31877D01*
X20901Y-31740D01*
X20901Y-33589D01*
X20785Y-33619D01*
X20568Y-32754D01*
X20518Y-32556D01*
X20317Y-32607D01*
X19337Y-32853D01*
X19337Y-32063D01*
X19287Y-31862D01*
X19172Y-31403D01*
X19122Y-31202D01*
X19077Y-31213D01*
X19077Y-28728D01*
X19077Y-28354D01*
X19077Y-28254D01*
X19077Y-28098D01*
X19077Y-27881D01*
X19077Y-27725D01*
X19077Y-27625D01*
X19077Y-27468D01*
X19077Y-27251D01*
X19077Y-27095D01*
X19077Y-26995D01*
X19077Y-26621D01*
X19014Y-26558D01*
X18901Y-26558D01*
X18801Y-26558D01*
X18709Y-26597D01*
X18639Y-26667D01*
X18601Y-26759D01*
X18601Y-26932D01*
X18664Y-26995D01*
X19077Y-26995D01*
X19077Y-27095D01*
X18664Y-27095D01*
X18601Y-27157D01*
X18601Y-27330D01*
X18613Y-27360D01*
X18601Y-27389D01*
X18601Y-27562D01*
X18664Y-27625D01*
X19077Y-27625D01*
X19077Y-27725D01*
X18664Y-27725D01*
X18601Y-27787D01*
X18601Y-27960D01*
X18613Y-27989D01*
X18601Y-28019D01*
X18601Y-28192D01*
X18664Y-28254D01*
X19077Y-28254D01*
X19077Y-28354D01*
X18664Y-28354D01*
X18601Y-28417D01*
X18601Y-28590D01*
X18639Y-28682D01*
X18709Y-28752D01*
X18801Y-28791D01*
X18901Y-28791D01*
X19014Y-28791D01*
X19077Y-28728D01*
X19077Y-31213D01*
X18921Y-31252D01*
X17594Y-31586D01*
X17448Y-31622D01*
X17448Y-28491D01*
X17448Y-28019D01*
X17436Y-27990D01*
X17448Y-27961D01*
X17448Y-27861D01*
X17448Y-27389D01*
X17436Y-27360D01*
X17448Y-27331D01*
X17448Y-27231D01*
X17448Y-26759D01*
X17410Y-26667D01*
X17340Y-26597D01*
X17248Y-26558D01*
X17148Y-26558D01*
X16597Y-26558D01*
X16505Y-26596D01*
X16435Y-26667D01*
X16413Y-26719D01*
X16372Y-26720D01*
X16329Y-26728D01*
X16310Y-26729D01*
X16292Y-26736D01*
X16246Y-26746D01*
X16205Y-26773D01*
X16191Y-26779D01*
X16181Y-26790D01*
X16139Y-26818D01*
X16111Y-26862D01*
X16101Y-26871D01*
X13600Y-30708D01*
X13352Y-30708D01*
X13260Y-30746D01*
X13189Y-30817D01*
X13151Y-30908D01*
X13151Y-31008D01*
X13151Y-31480D01*
X13163Y-31509D01*
X13151Y-31538D01*
X13151Y-31638D01*
X13151Y-32110D01*
X13163Y-32139D01*
X13151Y-32168D01*
X13151Y-32268D01*
X13151Y-32740D01*
X13189Y-32832D01*
X13259Y-32902D01*
X13351Y-32941D01*
X13451Y-32941D01*
X14002Y-32941D01*
X14094Y-32903D01*
X14164Y-32832D01*
X14184Y-32784D01*
X14195Y-32784D01*
X14243Y-32775D01*
X14292Y-32770D01*
X14305Y-32762D01*
X14321Y-32759D01*
X14362Y-32732D01*
X14405Y-32709D01*
X14862Y-32330D01*
X14873Y-32318D01*
X14885Y-32309D01*
X14908Y-32276D01*
X14935Y-32246D01*
X17011Y-28791D01*
X17247Y-28791D01*
X17339Y-28753D01*
X17410Y-28682D01*
X17448Y-28591D01*
X17448Y-28491D01*
X17448Y-31622D01*
X17393Y-31636D01*
X17443Y-31838D01*
X17561Y-32296D01*
X17612Y-32497D01*
X17813Y-32447D01*
X19136Y-32113D01*
X19337Y-32063D01*
X19337Y-32853D01*
X17212Y-33386D01*
X16992Y-32528D01*
X16942Y-32327D01*
X16740Y-32378D01*
X13428Y-33211D01*
X13227Y-33261D01*
X13277Y-33466D01*
X13761Y-35386D01*
X11998Y-35829D01*
X11998Y-32641D01*
X11998Y-32169D01*
X11986Y-32140D01*
X11998Y-32111D01*
X11998Y-32011D01*
X11998Y-31539D01*
X11986Y-31510D01*
X11998Y-31481D01*
X11998Y-31381D01*
X11998Y-30909D01*
X11960Y-30817D01*
X11900Y-30757D01*
X11900Y-25990D01*
X11835Y-25834D01*
X11805Y-25804D01*
X11805Y-23625D01*
X11804Y-23624D01*
X11805Y-23624D01*
X11800Y-23599D01*
X11779Y-23498D01*
X11779Y-23498D01*
X11708Y-23391D01*
X11708Y-23391D01*
X11055Y-22739D01*
X10948Y-22667D01*
X10822Y-22642D01*
X9239Y-22642D01*
X9239Y-16560D01*
X9096Y-16214D01*
X8832Y-15950D01*
X8486Y-15806D01*
X8112Y-15806D01*
X7890Y-15898D01*
X6325Y-14333D01*
X6325Y-14290D01*
X6260Y-14134D01*
X6141Y-14014D01*
X5984Y-13950D01*
X5815Y-13949D01*
X5659Y-14014D01*
X5539Y-14133D01*
X5475Y-14290D01*
X5474Y-14459D01*
X5539Y-14615D01*
X5658Y-14735D01*
X5815Y-14799D01*
X5858Y-14799D01*
X7434Y-16376D01*
X7358Y-16559D01*
X7358Y-16933D01*
X7501Y-17279D01*
X7765Y-17543D01*
X8111Y-17687D01*
X8485Y-17687D01*
X8831Y-17544D01*
X9095Y-17280D01*
X9239Y-16934D01*
X9239Y-16560D01*
X9239Y-22642D01*
X8739Y-22642D01*
X8703Y-22555D01*
X8632Y-22485D01*
X8541Y-22447D01*
X8441Y-22447D01*
X7969Y-22447D01*
X7940Y-22459D01*
X7911Y-22447D01*
X7811Y-22447D01*
X7339Y-22447D01*
X7310Y-22459D01*
X7281Y-22447D01*
X7181Y-22447D01*
X6709Y-22447D01*
X6617Y-22484D01*
X6547Y-22555D01*
X6508Y-22647D01*
X6508Y-22746D01*
X6508Y-23297D01*
X6546Y-23389D01*
X6617Y-23460D01*
X6708Y-23498D01*
X6741Y-23498D01*
X6741Y-23498D01*
X6761Y-23528D01*
X7641Y-24408D01*
X7748Y-24479D01*
X7748Y-24479D01*
X7875Y-24505D01*
X10403Y-24505D01*
X10433Y-24535D01*
X10590Y-24599D01*
X10745Y-24600D01*
X10745Y-24953D01*
X10714Y-24983D01*
X10650Y-25140D01*
X10649Y-25309D01*
X10714Y-25465D01*
X10833Y-25585D01*
X10990Y-25649D01*
X11145Y-25650D01*
X11145Y-25803D01*
X11114Y-25833D01*
X11050Y-25990D01*
X11049Y-26159D01*
X11114Y-26315D01*
X11233Y-26435D01*
X11390Y-26499D01*
X11559Y-26500D01*
X11715Y-26435D01*
X11835Y-26316D01*
X11899Y-26159D01*
X11900Y-25990D01*
X11900Y-30757D01*
X11890Y-30747D01*
X11798Y-30708D01*
X11698Y-30708D01*
X11147Y-30708D01*
X11119Y-30720D01*
X8919Y-28189D01*
X8639Y-25657D01*
X8702Y-25594D01*
X8741Y-25502D01*
X8741Y-25403D01*
X8741Y-24852D01*
X8703Y-24760D01*
X8632Y-24689D01*
X8541Y-24651D01*
X8441Y-24651D01*
X7969Y-24651D01*
X7940Y-24663D01*
X7911Y-24651D01*
X7811Y-24651D01*
X7339Y-24651D01*
X7310Y-24663D01*
X7281Y-24651D01*
X7181Y-24651D01*
X6709Y-24651D01*
X6617Y-24689D01*
X6547Y-24759D01*
X6508Y-24851D01*
X6508Y-24951D01*
X6508Y-25502D01*
X6546Y-25594D01*
X6617Y-25664D01*
X6708Y-25702D01*
X6721Y-25702D01*
X7020Y-28411D01*
X7036Y-28462D01*
X7040Y-28490D01*
X7049Y-28504D01*
X7058Y-28534D01*
X7092Y-28574D01*
X7108Y-28600D01*
X10913Y-32680D01*
X10918Y-32683D01*
X10921Y-32688D01*
X10947Y-32705D01*
X10947Y-32740D01*
X10984Y-32832D01*
X11055Y-32902D01*
X11147Y-32941D01*
X11246Y-32941D01*
X11797Y-32941D01*
X11889Y-32903D01*
X11960Y-32832D01*
X11998Y-32741D01*
X11998Y-32641D01*
X11998Y-35829D01*
X10848Y-36119D01*
X10634Y-35257D01*
X10579Y-35056D01*
X10382Y-35107D01*
X8867Y-35489D01*
X8867Y-34336D01*
X8788Y-34143D01*
X8640Y-33996D01*
X8447Y-33915D01*
X8425Y-33915D01*
X8455Y-33903D01*
X8603Y-33755D01*
X8683Y-33562D01*
X8684Y-33353D01*
X8604Y-33160D01*
X8456Y-33013D01*
X8263Y-32933D01*
X8241Y-32933D01*
X8272Y-32920D01*
X8419Y-32772D01*
X8499Y-32579D01*
X8500Y-32371D01*
X8420Y-32178D01*
X8272Y-32030D01*
X8116Y-31965D01*
X8206Y-31948D01*
X8289Y-31894D01*
X8346Y-31812D01*
X8366Y-31714D01*
X8348Y-31617D01*
X8247Y-31076D01*
X8193Y-30993D01*
X8111Y-30936D01*
X8013Y-30916D01*
X7916Y-30934D01*
X7375Y-31035D01*
X7292Y-31089D01*
X7235Y-31171D01*
X7215Y-31269D01*
X7233Y-31367D01*
X7334Y-31907D01*
X7388Y-31990D01*
X7470Y-32047D01*
X7568Y-32067D01*
X7656Y-32051D01*
X7530Y-32177D01*
X7450Y-32370D01*
X7449Y-32578D01*
X7529Y-32772D01*
X7677Y-32919D01*
X7870Y-32999D01*
X7892Y-32999D01*
X7861Y-33012D01*
X7714Y-33160D01*
X7634Y-33353D01*
X7633Y-33561D01*
X7713Y-33754D01*
X7861Y-33902D01*
X8054Y-33982D01*
X8076Y-33982D01*
X8045Y-33995D01*
X7898Y-34143D01*
X7817Y-34335D01*
X7817Y-34544D01*
X7897Y-34737D01*
X8045Y-34885D01*
X8238Y-34965D01*
X8446Y-34965D01*
X8639Y-34886D01*
X8787Y-34738D01*
X8867Y-34545D01*
X8867Y-34336D01*
X8867Y-35489D01*
X7281Y-35889D01*
X5943Y-29083D01*
X6814Y-28913D01*
X7025Y-28876D01*
X6978Y-28669D01*
X6270Y-25059D01*
X6234Y-24853D01*
X6027Y-24894D01*
X5582Y-24982D01*
X5582Y-18653D01*
X5541Y-18447D01*
X5256Y-17003D01*
X5219Y-16796D01*
X5013Y-16842D01*
X4598Y-16926D01*
X4598Y-13190D01*
X4598Y-12619D01*
X4586Y-12589D01*
X4598Y-12560D01*
X4598Y-11989D01*
X4586Y-11960D01*
X4598Y-11930D01*
X4598Y-11359D01*
X4560Y-11267D01*
X4490Y-11197D01*
X4398Y-11158D01*
X4298Y-11158D01*
X4185Y-11158D01*
X4122Y-11221D01*
X4122Y-11595D01*
X4535Y-11595D01*
X4598Y-11532D01*
X4598Y-11359D01*
X4598Y-11930D01*
X4598Y-11757D01*
X4535Y-11695D01*
X4122Y-11695D01*
X4122Y-11851D01*
X4122Y-12068D01*
X4122Y-12225D01*
X4535Y-12225D01*
X4598Y-12162D01*
X4598Y-11989D01*
X4598Y-12560D01*
X4598Y-12387D01*
X4535Y-12325D01*
X4122Y-12325D01*
X4122Y-12481D01*
X4122Y-12698D01*
X4122Y-12854D01*
X4535Y-12854D01*
X4598Y-12792D01*
X4598Y-12619D01*
X4598Y-13190D01*
X4598Y-13017D01*
X4535Y-12954D01*
X4122Y-12954D01*
X4122Y-13328D01*
X4185Y-13391D01*
X4298Y-13391D01*
X4398Y-13391D01*
X4490Y-13352D01*
X4560Y-13282D01*
X4598Y-13190D01*
X4598Y-16926D01*
X4551Y-16936D01*
X4349Y-16977D01*
X4391Y-17179D01*
X4675Y-18619D01*
X4712Y-18821D01*
X4918Y-18784D01*
X5380Y-18694D01*
X5582Y-18653D01*
X5582Y-24982D01*
X4083Y-25277D01*
X3453Y-22070D01*
X4324Y-21902D01*
X4526Y-21861D01*
X4485Y-21659D01*
X3110Y-14636D01*
X3980Y-14465D01*
X4182Y-14428D01*
X4145Y-14225D01*
X3977Y-13373D01*
X4022Y-13328D01*
X4022Y-12954D01*
X4014Y-12954D01*
X4014Y-12854D01*
X4022Y-12854D01*
X4022Y-12698D01*
X4022Y-12481D01*
X4022Y-12325D01*
X4014Y-12325D01*
X4014Y-12225D01*
X4022Y-12225D01*
X4022Y-12068D01*
X4022Y-11851D01*
X4022Y-11695D01*
X4014Y-11695D01*
X4014Y-11595D01*
X4022Y-11595D01*
X4022Y-11221D01*
X3960Y-11158D01*
X3846Y-11158D01*
X3747Y-11158D01*
X3655Y-11197D01*
X3584Y-11267D01*
X3569Y-11304D01*
X3433Y-10614D01*
X3397Y-10408D01*
X3190Y-10450D01*
X3006Y-10486D01*
X3006Y-4897D01*
X2938Y-4570D01*
X2773Y-4317D01*
X2638Y-4278D01*
X2556Y-4398D01*
X2556Y-4221D01*
X2471Y-4110D01*
X2142Y-4047D01*
X1815Y-4115D01*
X1562Y-4280D01*
X1523Y-4415D01*
X2136Y-4834D01*
X2556Y-4221D01*
X2556Y-4398D01*
X2219Y-4891D01*
X2832Y-5311D01*
X2943Y-5226D01*
X3006Y-4897D01*
X3006Y-10486D01*
X2775Y-10532D01*
X2775Y-5393D01*
X2162Y-4973D01*
X2080Y-5094D01*
X2080Y-4917D01*
X1467Y-4497D01*
X1355Y-4582D01*
X1292Y-4911D01*
X1360Y-5238D01*
X1525Y-5491D01*
X1660Y-5530D01*
X2080Y-4917D01*
X2080Y-5094D01*
X1742Y-5586D01*
X1827Y-5698D01*
X2156Y-5761D01*
X2483Y-5693D01*
X2736Y-5528D01*
X2775Y-5393D01*
X2775Y-10532D01*
X1247Y-10832D01*
X617Y-7629D01*
X1491Y-7457D01*
X1693Y-7416D01*
X1652Y-7211D01*
X295Y-295D01*
X7009Y-1615D01*
X6839Y-2482D01*
X6798Y-2687D01*
X6999Y-2728D01*
X10614Y-3433D01*
X10821Y-3479D01*
X10854Y-3271D01*
X11236Y-1325D01*
X14444Y-1958D01*
X14273Y-2826D01*
X14232Y-3031D01*
X14434Y-3072D01*
X21457Y-4448D01*
X21283Y-5319D01*
X21242Y-5525D01*
X21448Y-5562D01*
X25058Y-6270D01*
X25259Y-6311D01*
X25305Y-6110D01*
X25684Y-4162D01*
X28888Y-4792D01*
X28717Y-5663D01*
X28676Y-5865D01*
X28881Y-5905D01*
X35889Y-7281D01*
X35889Y-7281D01*
G37*
G54D20*
X35889Y-7281D02*
X35160Y-10181D01*
X34965Y-10132D01*
X34965Y-8238D01*
X34886Y-8045D01*
X34738Y-7898D01*
X34545Y-7817D01*
X34336Y-7817D01*
X34143Y-7897D01*
X33996Y-8045D01*
X33983Y-8076D01*
X33983Y-8054D01*
X33903Y-7861D01*
X33755Y-7714D01*
X33562Y-7634D01*
X33353Y-7633D01*
X33160Y-7713D01*
X33013Y-7861D01*
X33000Y-7892D01*
X33000Y-7871D01*
X32920Y-7678D01*
X32772Y-7530D01*
X32579Y-7450D01*
X32371Y-7449D01*
X32178Y-7529D01*
X32051Y-7655D01*
X32067Y-7568D01*
X32047Y-7471D01*
X31991Y-7389D01*
X31908Y-7334D01*
X31810Y-7316D01*
X31269Y-7215D01*
X31172Y-7235D01*
X31090Y-7291D01*
X31035Y-7375D01*
X31017Y-7472D01*
X30916Y-8013D01*
X30936Y-8110D01*
X30992Y-8192D01*
X31076Y-8247D01*
X31162Y-8263D01*
X31162Y-8721D01*
X31160Y-8717D01*
X31090Y-8647D01*
X30998Y-8608D01*
X30898Y-8608D01*
X30347Y-8608D01*
X30331Y-8615D01*
X29208Y-7491D01*
X29101Y-7420D01*
X28975Y-7395D01*
X27371Y-7395D01*
X27515Y-7335D01*
X27635Y-7216D01*
X27699Y-7059D01*
X27700Y-6890D01*
X27635Y-6734D01*
X27516Y-6614D01*
X27359Y-6550D01*
X27190Y-6549D01*
X27081Y-6595D01*
X26025Y-6595D01*
X25898Y-6620D01*
X25791Y-6691D01*
X23933Y-8549D01*
X23890Y-8549D01*
X23734Y-8614D01*
X23614Y-8733D01*
X23550Y-8890D01*
X23549Y-9059D01*
X23614Y-9215D01*
X23733Y-9335D01*
X23890Y-9399D01*
X24059Y-9400D01*
X24215Y-9335D01*
X24335Y-9216D01*
X24399Y-9059D01*
X24399Y-9016D01*
X24547Y-8869D01*
X24547Y-10310D01*
X24460Y-10346D01*
X24389Y-10417D01*
X24351Y-10508D01*
X24351Y-10608D01*
X24351Y-11080D01*
X24363Y-11109D01*
X24351Y-11138D01*
X24351Y-11238D01*
X24351Y-11710D01*
X24363Y-11739D01*
X24351Y-11768D01*
X24351Y-11868D01*
X24351Y-12340D01*
X24389Y-12432D01*
X24459Y-12502D01*
X24551Y-12541D01*
X24651Y-12541D01*
X25202Y-12541D01*
X25294Y-12503D01*
X25364Y-12432D01*
X25384Y-12384D01*
X25445Y-12384D01*
X25571Y-12359D01*
X25571Y-12359D01*
X25678Y-12288D01*
X26458Y-11508D01*
X26529Y-11401D01*
X26529Y-11401D01*
X26555Y-11275D01*
X26555Y-10493D01*
X26690Y-10549D01*
X26733Y-10549D01*
X27795Y-11611D01*
X27795Y-18675D01*
X27820Y-18801D01*
X27891Y-18908D01*
X28194Y-19211D01*
X28136Y-19235D01*
X28066Y-19305D01*
X27900Y-19471D01*
X27900Y-19090D01*
X27835Y-18934D01*
X27716Y-18814D01*
X27559Y-18750D01*
X27491Y-18750D01*
X25865Y-17123D01*
X25943Y-16934D01*
X25943Y-16560D01*
X25800Y-16214D01*
X25536Y-15950D01*
X25190Y-15806D01*
X24816Y-15806D01*
X24470Y-15949D01*
X24206Y-16213D01*
X24062Y-16559D01*
X24062Y-16933D01*
X24205Y-17279D01*
X24469Y-17543D01*
X24815Y-17687D01*
X25189Y-17687D01*
X25406Y-17597D01*
X27049Y-19241D01*
X27049Y-19259D01*
X27114Y-19415D01*
X27233Y-19535D01*
X27390Y-19599D01*
X27559Y-19600D01*
X27715Y-19535D01*
X27835Y-19416D01*
X27899Y-19259D01*
X27900Y-19090D01*
X27900Y-19471D01*
X27786Y-19584D01*
X23793Y-20580D01*
X23793Y-16747D01*
X23785Y-16404D01*
X23761Y-16062D01*
X23720Y-15722D01*
X23662Y-15383D01*
X23589Y-15047D01*
X23499Y-14713D01*
X23393Y-14384D01*
X23270Y-14059D01*
X23131Y-13739D01*
X22976Y-13425D01*
X22804Y-13118D01*
X22616Y-12817D01*
X22424Y-12541D01*
X22446Y-12541D01*
X22997Y-12541D01*
X23089Y-12503D01*
X23160Y-12432D01*
X23198Y-12341D01*
X23198Y-12241D01*
X23198Y-11769D01*
X23186Y-11740D01*
X23198Y-11711D01*
X23198Y-11611D01*
X23198Y-11139D01*
X23186Y-11110D01*
X23198Y-11081D01*
X23198Y-10981D01*
X23198Y-10509D01*
X23160Y-10417D01*
X23090Y-10347D01*
X22998Y-10308D01*
X22963Y-10308D01*
X21817Y-6260D01*
X21802Y-6230D01*
X21791Y-6193D01*
X21770Y-6168D01*
X21758Y-6145D01*
X21734Y-6124D01*
X21709Y-6093D01*
X21680Y-6078D01*
X21660Y-6061D01*
X21631Y-6052D01*
X21595Y-6033D01*
X20852Y-5809D01*
X20852Y-5709D01*
X20815Y-5617D01*
X20744Y-5547D01*
X20652Y-5508D01*
X20553Y-5508D01*
X20002Y-5508D01*
X19910Y-5546D01*
X19839Y-5617D01*
X19801Y-5708D01*
X19801Y-5808D01*
X19801Y-6280D01*
X19813Y-6309D01*
X19801Y-6338D01*
X19801Y-6438D01*
X19801Y-6867D01*
X19759Y-6850D01*
X19716Y-6850D01*
X18824Y-5957D01*
X18648Y-5781D01*
X18648Y-5709D01*
X18610Y-5617D01*
X18556Y-5563D01*
X18656Y-5581D01*
X18697Y-5380D01*
X18787Y-4914D01*
X18824Y-4710D01*
X18623Y-4668D01*
X17175Y-4387D01*
X16970Y-4351D01*
X16929Y-4551D01*
X16839Y-5017D01*
X16802Y-5222D01*
X17003Y-5263D01*
X18265Y-5508D01*
X17797Y-5508D01*
X17705Y-5546D01*
X17635Y-5617D01*
X17597Y-5708D01*
X17597Y-5808D01*
X17597Y-6280D01*
X17609Y-6309D01*
X17597Y-6338D01*
X17597Y-6438D01*
X17597Y-6910D01*
X17609Y-6939D01*
X17597Y-6968D01*
X17597Y-7068D01*
X17597Y-7540D01*
X17634Y-7632D01*
X17705Y-7702D01*
X17797Y-7741D01*
X17896Y-7741D01*
X18098Y-7741D01*
X18549Y-8283D01*
X18549Y-8359D01*
X18614Y-8515D01*
X18733Y-8635D01*
X18824Y-8672D01*
X18890Y-8699D01*
X19059Y-8700D01*
X19215Y-8635D01*
X19335Y-8516D01*
X19399Y-8359D01*
X19400Y-8199D01*
X19534Y-8200D01*
X19690Y-8135D01*
X19810Y-8016D01*
X19874Y-7859D01*
X19875Y-7690D01*
X19861Y-7657D01*
X19863Y-7656D01*
X19909Y-7702D01*
X20001Y-7741D01*
X20101Y-7741D01*
X20130Y-7741D01*
X21191Y-11233D01*
X21158Y-11206D01*
X21017Y-11094D01*
X20873Y-10985D01*
X20727Y-10881D01*
X20580Y-10781D01*
X20431Y-10685D01*
X20279Y-10593D01*
X20126Y-10505D01*
X19971Y-10422D01*
X19815Y-10342D01*
X19657Y-10266D01*
X19498Y-10195D01*
X19337Y-10127D01*
X19175Y-10064D01*
X19012Y-10005D01*
X18848Y-9950D01*
X18824Y-9942D01*
X18682Y-9899D01*
X18516Y-9852D01*
X18349Y-9809D01*
X18181Y-9770D01*
X18013Y-9736D01*
X17843Y-9705D01*
X17674Y-9679D01*
X17503Y-9656D01*
X17333Y-9638D01*
X17162Y-9623D01*
X16991Y-9613D01*
X16819Y-9607D01*
X16648Y-9605D01*
X16477Y-9607D01*
X16306Y-9613D01*
X16134Y-9623D01*
X15963Y-9638D01*
X15793Y-9656D01*
X15623Y-9679D01*
X15453Y-9705D01*
X15284Y-9736D01*
X15116Y-9770D01*
X14948Y-9809D01*
X14781Y-9852D01*
X14615Y-9899D01*
X14450Y-9950D01*
X14286Y-10005D01*
X14123Y-10064D01*
X13961Y-10127D01*
X13801Y-10195D01*
X13641Y-10266D01*
X13484Y-10342D01*
X13328Y-10422D01*
X13173Y-10505D01*
X13020Y-10593D01*
X12868Y-10685D01*
X12719Y-10781D01*
X12572Y-10881D01*
X12491Y-10939D01*
X12491Y-10203D01*
X12491Y-9652D01*
X12491Y-7998D01*
X12491Y-7447D01*
X12453Y-7355D01*
X12382Y-7285D01*
X12334Y-7265D01*
X12334Y-7229D01*
X12334Y-7229D01*
X12334Y-7229D01*
X12329Y-7204D01*
X12309Y-7103D01*
X12309Y-7103D01*
X12238Y-6996D01*
X12238Y-6996D01*
X8553Y-3311D01*
X8446Y-3240D01*
X8320Y-3215D01*
X6734Y-3215D01*
X6715Y-3167D01*
X6644Y-3097D01*
X6552Y-3058D01*
X6453Y-3058D01*
X5902Y-3058D01*
X5810Y-3096D01*
X5761Y-3145D01*
X5761Y-2123D01*
X5698Y-1827D01*
X5586Y-1742D01*
X5530Y-1781D01*
X5530Y-1660D01*
X5491Y-1525D01*
X5208Y-1348D01*
X4878Y-1292D01*
X4582Y-1355D01*
X4497Y-1467D01*
X4917Y-2080D01*
X5530Y-1660D01*
X5530Y-1781D01*
X4973Y-2162D01*
X5393Y-2775D01*
X5528Y-2736D01*
X5705Y-2453D01*
X5761Y-2123D01*
X5761Y-3145D01*
X5739Y-3167D01*
X5701Y-3258D01*
X5701Y-3358D01*
X5701Y-3550D01*
X5616Y-3464D01*
X5459Y-3400D01*
X5416Y-3400D01*
X5328Y-3311D01*
X5311Y-3300D01*
X5311Y-2832D01*
X4891Y-2219D01*
X4834Y-2257D01*
X4834Y-2136D01*
X4415Y-1523D01*
X4280Y-1562D01*
X4103Y-1845D01*
X4047Y-2175D01*
X4110Y-2471D01*
X4221Y-2556D01*
X4834Y-2136D01*
X4834Y-2257D01*
X4278Y-2638D01*
X4317Y-2773D01*
X4600Y-2950D01*
X4930Y-3006D01*
X5226Y-2943D01*
X5311Y-2832D01*
X5311Y-3300D01*
X5221Y-3240D01*
X5095Y-3215D01*
X4529Y-3215D01*
X4510Y-3167D01*
X4440Y-3097D01*
X4348Y-3058D01*
X4248Y-3058D01*
X3810Y-3058D01*
X3810Y-1620D01*
X3682Y-1311D01*
X3446Y-1075D01*
X3137Y-947D01*
X2803Y-946D01*
X2494Y-1074D01*
X2257Y-1310D01*
X2129Y-1619D01*
X2128Y-1953D01*
X2252Y-2252D01*
X1955Y-2129D01*
X1620Y-2128D01*
X1311Y-2256D01*
X1075Y-2492D01*
X947Y-2801D01*
X946Y-3136D01*
X1074Y-3445D01*
X1310Y-3681D01*
X1619Y-3809D01*
X1953Y-3810D01*
X2262Y-3682D01*
X2499Y-3446D01*
X2627Y-3137D01*
X2628Y-2803D01*
X2504Y-2504D01*
X2801Y-2627D01*
X3136Y-2628D01*
X3445Y-2500D01*
X3681Y-2264D01*
X3809Y-1955D01*
X3810Y-1620D01*
X3810Y-3058D01*
X3697Y-3058D01*
X3605Y-3096D01*
X3535Y-3167D01*
X3497Y-3258D01*
X3497Y-3358D01*
X3497Y-3830D01*
X3509Y-3859D01*
X3497Y-3888D01*
X3497Y-3988D01*
X3497Y-4460D01*
X3509Y-4489D01*
X3497Y-4518D01*
X3497Y-4618D01*
X3497Y-5090D01*
X3534Y-5182D01*
X3605Y-5252D01*
X3649Y-5271D01*
X3600Y-5390D01*
X3599Y-5559D01*
X3664Y-5715D01*
X3783Y-5835D01*
X3940Y-5899D01*
X4109Y-5900D01*
X4265Y-5835D01*
X4385Y-5716D01*
X4449Y-5559D01*
X4450Y-5390D01*
X4399Y-5269D01*
X4439Y-5253D01*
X4510Y-5182D01*
X4548Y-5091D01*
X4548Y-4991D01*
X4548Y-4782D01*
X4590Y-4799D01*
X4759Y-4800D01*
X4915Y-4735D01*
X5035Y-4616D01*
X5099Y-4459D01*
X5100Y-4290D01*
X5035Y-4134D01*
X4916Y-4014D01*
X4759Y-3950D01*
X4716Y-3950D01*
X4708Y-3941D01*
X4608Y-3875D01*
X4949Y-3875D01*
X4949Y-3909D01*
X5014Y-4065D01*
X5133Y-4185D01*
X5290Y-4249D01*
X5459Y-4250D01*
X5615Y-4185D01*
X5701Y-4099D01*
X5701Y-4460D01*
X5713Y-4489D01*
X5701Y-4518D01*
X5701Y-4618D01*
X5701Y-5090D01*
X5739Y-5182D01*
X5809Y-5252D01*
X5901Y-5291D01*
X6001Y-5291D01*
X6552Y-5291D01*
X6644Y-5253D01*
X6714Y-5182D01*
X6734Y-5134D01*
X7918Y-5134D01*
X10258Y-7475D01*
X10258Y-7546D01*
X10258Y-8097D01*
X10296Y-8189D01*
X10367Y-8260D01*
X10458Y-8298D01*
X10558Y-8298D01*
X11030Y-8298D01*
X11059Y-8286D01*
X11088Y-8298D01*
X11188Y-8298D01*
X11660Y-8298D01*
X11689Y-8286D01*
X11718Y-8298D01*
X11818Y-8298D01*
X12290Y-8298D01*
X12382Y-8260D01*
X12452Y-8190D01*
X12491Y-8098D01*
X12491Y-7998D01*
X12491Y-9652D01*
X12453Y-9560D01*
X12382Y-9489D01*
X12291Y-9451D01*
X12191Y-9451D01*
X11719Y-9451D01*
X11690Y-9463D01*
X11661Y-9451D01*
X11561Y-9451D01*
X11089Y-9451D01*
X11060Y-9463D01*
X11031Y-9451D01*
X10931Y-9451D01*
X10459Y-9451D01*
X10367Y-9489D01*
X10297Y-9559D01*
X10258Y-9651D01*
X10258Y-9751D01*
X10258Y-9819D01*
X6748Y-11251D01*
X6694Y-11197D01*
X6602Y-11158D01*
X6503Y-11158D01*
X5952Y-11158D01*
X5860Y-11196D01*
X5789Y-11267D01*
X5751Y-11358D01*
X5751Y-11458D01*
X5751Y-11930D01*
X5763Y-11959D01*
X5751Y-11988D01*
X5751Y-12088D01*
X5751Y-12560D01*
X5763Y-12589D01*
X5751Y-12618D01*
X5751Y-12718D01*
X5751Y-13190D01*
X5789Y-13282D01*
X5859Y-13352D01*
X5951Y-13391D01*
X6051Y-13391D01*
X6602Y-13391D01*
X6694Y-13353D01*
X6764Y-13282D01*
X6785Y-13232D01*
X7027Y-13231D01*
X7032Y-13229D01*
X7039Y-13231D01*
X7105Y-13214D01*
X7153Y-13205D01*
X7157Y-13202D01*
X7164Y-13200D01*
X12113Y-10903D01*
X12131Y-10899D01*
X12238Y-10828D01*
X12309Y-10721D01*
X12334Y-10595D01*
X12334Y-10484D01*
X12382Y-10465D01*
X12452Y-10394D01*
X12491Y-10302D01*
X12491Y-10203D01*
X12491Y-10939D01*
X12426Y-10985D01*
X12282Y-11094D01*
X12141Y-11206D01*
X12002Y-11322D01*
X11865Y-11443D01*
X11731Y-11567D01*
X11599Y-11696D01*
X11346Y-11963D01*
X11109Y-12239D01*
X10888Y-12524D01*
X10684Y-12817D01*
X10496Y-13118D01*
X10324Y-13425D01*
X10168Y-13739D01*
X10030Y-14059D01*
X9907Y-14384D01*
X9801Y-14713D01*
X9711Y-15046D01*
X9637Y-15383D01*
X9580Y-15722D01*
X9539Y-16062D01*
X9515Y-16404D01*
X9506Y-16747D01*
X9515Y-17090D01*
X9539Y-17432D01*
X9580Y-17773D01*
X9637Y-18111D01*
X9711Y-18448D01*
X9801Y-18781D01*
X9907Y-19110D01*
X10030Y-19435D01*
X10168Y-19755D01*
X10324Y-20069D01*
X10496Y-20377D01*
X10684Y-20678D01*
X10888Y-20971D01*
X11109Y-21256D01*
X11346Y-21532D01*
X11599Y-21798D01*
X11865Y-22051D01*
X12141Y-22288D01*
X12426Y-22509D01*
X12719Y-22713D01*
X13020Y-22901D01*
X13328Y-23073D01*
X13642Y-23229D01*
X13962Y-23367D01*
X14287Y-23490D01*
X14616Y-23596D01*
X14949Y-23686D01*
X15285Y-23759D01*
X15624Y-23817D01*
X15965Y-23858D01*
X16307Y-23882D01*
X16650Y-23890D01*
X16993Y-23882D01*
X17334Y-23858D01*
X17675Y-23817D01*
X18014Y-23759D01*
X18351Y-23686D01*
X18684Y-23596D01*
X19013Y-23490D01*
X19338Y-23367D01*
X19658Y-23229D01*
X19972Y-23073D01*
X20279Y-22901D01*
X20580Y-22713D01*
X20873Y-22509D01*
X21158Y-22288D01*
X21434Y-22051D01*
X21701Y-21798D01*
X21954Y-21532D01*
X22191Y-21256D01*
X22412Y-20971D01*
X22616Y-20678D01*
X22804Y-20377D01*
X22976Y-20069D01*
X23131Y-19755D01*
X23270Y-19435D01*
X23393Y-19110D01*
X23499Y-18781D01*
X23589Y-18448D01*
X23662Y-18111D01*
X23720Y-17773D01*
X23761Y-17432D01*
X23785Y-17090D01*
X23793Y-16747D01*
X23793Y-20580D01*
X23744Y-20592D01*
X23628Y-20476D01*
X23536Y-20438D01*
X23437Y-20438D01*
X23345Y-20476D01*
X23275Y-20546D01*
X22885Y-20936D01*
X22847Y-21027D01*
X22847Y-21127D01*
X22885Y-21219D01*
X22955Y-21289D01*
X22995Y-21329D01*
X23006Y-21381D01*
X23079Y-21487D01*
X23188Y-21557D01*
X23230Y-21564D01*
X23289Y-21623D01*
X23318Y-21635D01*
X23330Y-21664D01*
X23400Y-21735D01*
X23440Y-21774D01*
X23449Y-21821D01*
X23521Y-21928D01*
X23628Y-22000D01*
X23675Y-22009D01*
X23734Y-22069D01*
X23764Y-22081D01*
X23775Y-22110D01*
X23793Y-22127D01*
X23846Y-22180D01*
X24180Y-22514D01*
X24272Y-22552D01*
X24371Y-22552D01*
X24463Y-22514D01*
X24533Y-22444D01*
X24802Y-22175D01*
X28849Y-21249D01*
X28916Y-21218D01*
X28971Y-21273D01*
X29063Y-21311D01*
X29162Y-21311D01*
X29254Y-21273D01*
X29324Y-21203D01*
X29515Y-21013D01*
X28289Y-23641D01*
X28234Y-23664D01*
X28114Y-23783D01*
X28050Y-23940D01*
X28049Y-24109D01*
X28114Y-24265D01*
X28233Y-24385D01*
X28390Y-24449D01*
X28559Y-24450D01*
X28583Y-24440D01*
X28614Y-24515D01*
X28733Y-24635D01*
X28890Y-24699D01*
X29059Y-24700D01*
X29215Y-24635D01*
X29335Y-24516D01*
X29399Y-24359D01*
X29400Y-24190D01*
X29385Y-24155D01*
X29972Y-22793D01*
X29726Y-23722D01*
X29614Y-23833D01*
X29550Y-23990D01*
X29549Y-24159D01*
X29614Y-24315D01*
X29733Y-24435D01*
X29890Y-24499D01*
X30059Y-24500D01*
X30215Y-24435D01*
X30335Y-24316D01*
X30399Y-24159D01*
X30400Y-23990D01*
X30362Y-23900D01*
X30994Y-21509D01*
X30996Y-21472D01*
X31004Y-21438D01*
X31054Y-20188D01*
X31053Y-20181D01*
X31055Y-20175D01*
X31044Y-20123D01*
X31034Y-20061D01*
X31031Y-20054D01*
X31029Y-20048D01*
X31000Y-20004D01*
X30967Y-19951D01*
X30961Y-19946D01*
X30958Y-19941D01*
X30755Y-19738D01*
X30813Y-19714D01*
X30883Y-19644D01*
X30964Y-19564D01*
X30964Y-19475D01*
X30699Y-19211D01*
X30694Y-19217D01*
X30623Y-19146D01*
X30629Y-19140D01*
X30518Y-19030D01*
X30364Y-18876D01*
X30254Y-18766D01*
X30248Y-18771D01*
X30178Y-18701D01*
X30183Y-18695D01*
X30073Y-18585D01*
X29919Y-18431D01*
X29809Y-18320D01*
X29803Y-18326D01*
X29732Y-18255D01*
X29738Y-18250D01*
X29474Y-17985D01*
X29385Y-17985D01*
X29305Y-18066D01*
X29255Y-18116D01*
X29255Y-15528D01*
X29263Y-15536D01*
X29355Y-15574D01*
X29454Y-15575D01*
X30894Y-15575D01*
X30986Y-15537D01*
X31056Y-15466D01*
X31094Y-15374D01*
X31095Y-15275D01*
X31095Y-14475D01*
X31057Y-14383D01*
X30986Y-14313D01*
X30894Y-14275D01*
X30795Y-14274D01*
X29355Y-14274D01*
X29263Y-14312D01*
X29255Y-14321D01*
X29255Y-13911D01*
X30191Y-12975D01*
X30374Y-12975D01*
X30466Y-12937D01*
X30536Y-12866D01*
X30574Y-12774D01*
X30575Y-12724D01*
X30575Y-12774D01*
X30613Y-12866D01*
X30683Y-12937D01*
X30775Y-12975D01*
X30912Y-12975D01*
X30975Y-12912D01*
X30975Y-12375D01*
X30967Y-12375D01*
X30967Y-12275D01*
X30975Y-12275D01*
X30975Y-11737D01*
X30912Y-11675D01*
X30791Y-11674D01*
X31725Y-10741D01*
X31725Y-10741D01*
X31725Y-10741D01*
X31796Y-10634D01*
X31796Y-10634D01*
X31822Y-10507D01*
X31822Y-10507D01*
X31822Y-8339D01*
X31893Y-8290D01*
X31948Y-8207D01*
X31965Y-8116D01*
X32029Y-8272D01*
X32177Y-8419D01*
X32370Y-8499D01*
X32578Y-8500D01*
X32772Y-8420D01*
X32919Y-8272D01*
X32932Y-8241D01*
X32932Y-8262D01*
X33012Y-8455D01*
X33160Y-8603D01*
X33172Y-8608D01*
X33103Y-8608D01*
X32989Y-8608D01*
X32927Y-8671D01*
X32927Y-9045D01*
X33340Y-9045D01*
X33402Y-8982D01*
X33402Y-8809D01*
X33365Y-8717D01*
X33316Y-8668D01*
X33353Y-8683D01*
X33561Y-8684D01*
X33754Y-8604D01*
X33902Y-8456D01*
X33915Y-8425D01*
X33915Y-8446D01*
X33995Y-8639D01*
X34143Y-8787D01*
X34335Y-8867D01*
X34544Y-8867D01*
X34737Y-8788D01*
X34885Y-8640D01*
X34965Y-8447D01*
X34965Y-8238D01*
X34965Y-10132D01*
X34296Y-9964D01*
X34099Y-9914D01*
X34044Y-10111D01*
X33402Y-12664D01*
X33402Y-10640D01*
X33402Y-10069D01*
X33390Y-10039D01*
X33402Y-10010D01*
X33402Y-9439D01*
X33390Y-9410D01*
X33402Y-9380D01*
X33402Y-9207D01*
X33340Y-9145D01*
X32927Y-9145D01*
X32927Y-9301D01*
X32927Y-9518D01*
X32927Y-9675D01*
X33340Y-9675D01*
X33402Y-9612D01*
X33402Y-9439D01*
X33402Y-10010D01*
X33402Y-9837D01*
X33340Y-9775D01*
X32927Y-9775D01*
X32927Y-9931D01*
X32927Y-10148D01*
X32927Y-10304D01*
X33340Y-10304D01*
X33402Y-10242D01*
X33402Y-10069D01*
X33402Y-10640D01*
X33402Y-10467D01*
X33340Y-10404D01*
X32927Y-10404D01*
X32927Y-10778D01*
X32989Y-10841D01*
X33103Y-10841D01*
X33202Y-10841D01*
X33294Y-10802D01*
X33365Y-10732D01*
X33402Y-10640D01*
X33402Y-12664D01*
X33211Y-13428D01*
X33160Y-13625D01*
X33362Y-13676D01*
X35289Y-14160D01*
X34553Y-17074D01*
X33732Y-16867D01*
X33732Y-14579D01*
X33604Y-14270D01*
X33368Y-14033D01*
X33059Y-13905D01*
X32827Y-13905D01*
X32827Y-10778D01*
X32827Y-10404D01*
X32827Y-10304D01*
X32827Y-10148D01*
X32827Y-9931D01*
X32827Y-9775D01*
X32827Y-9675D01*
X32827Y-9518D01*
X32827Y-9301D01*
X32827Y-9145D01*
X32827Y-9045D01*
X32827Y-8671D01*
X32764Y-8608D01*
X32651Y-8608D01*
X32551Y-8608D01*
X32459Y-8647D01*
X32389Y-8717D01*
X32351Y-8809D01*
X32351Y-8982D01*
X32414Y-9045D01*
X32827Y-9045D01*
X32827Y-9145D01*
X32414Y-9145D01*
X32351Y-9207D01*
X32351Y-9380D01*
X32363Y-9410D01*
X32351Y-9439D01*
X32351Y-9612D01*
X32414Y-9675D01*
X32827Y-9675D01*
X32827Y-9775D01*
X32414Y-9775D01*
X32351Y-9837D01*
X32351Y-10010D01*
X32363Y-10039D01*
X32351Y-10069D01*
X32351Y-10242D01*
X32414Y-10304D01*
X32827Y-10304D01*
X32827Y-10404D01*
X32414Y-10404D01*
X32351Y-10467D01*
X32351Y-10640D01*
X32389Y-10732D01*
X32459Y-10802D01*
X32551Y-10841D01*
X32651Y-10841D01*
X32764Y-10841D01*
X32827Y-10778D01*
X32827Y-13905D01*
X32724Y-13905D01*
X32415Y-14032D01*
X32179Y-14269D01*
X32051Y-14577D01*
X32050Y-14912D01*
X32178Y-15221D01*
X32414Y-15457D01*
X32723Y-15586D01*
X33057Y-15586D01*
X33366Y-15458D01*
X33603Y-15222D01*
X33731Y-14913D01*
X33732Y-14579D01*
X33732Y-16867D01*
X33692Y-16857D01*
X33490Y-16802D01*
X33440Y-17004D01*
X33265Y-17700D01*
X33265Y-16681D01*
X33221Y-16382D01*
X33115Y-16291D01*
X33064Y-16321D01*
X33064Y-16205D01*
X33033Y-16068D01*
X32761Y-15873D01*
X32436Y-15797D01*
X32137Y-15841D01*
X32045Y-15947D01*
X32425Y-16585D01*
X33064Y-16205D01*
X33064Y-16321D01*
X32477Y-16671D01*
X32857Y-17309D01*
X32994Y-17279D01*
X33189Y-17007D01*
X33265Y-16681D01*
X33265Y-17700D01*
X32771Y-19662D01*
X32771Y-17360D01*
X32391Y-16722D01*
X32340Y-16753D01*
X32340Y-16636D01*
X31959Y-15998D01*
X31822Y-16028D01*
X31627Y-16300D01*
X31551Y-16626D01*
X31595Y-16925D01*
X31701Y-17017D01*
X32340Y-16636D01*
X32340Y-16753D01*
X31753Y-17103D01*
X31783Y-17240D01*
X32055Y-17434D01*
X32380Y-17510D01*
X32679Y-17467D01*
X32771Y-17360D01*
X32771Y-19662D01*
X32657Y-20116D01*
X32497Y-20076D01*
X32497Y-17612D01*
X32296Y-17561D01*
X31837Y-17447D01*
X31636Y-17397D01*
X31586Y-17598D01*
X31475Y-18039D01*
X31475Y-12675D01*
X31475Y-11974D01*
X31474Y-11875D01*
X31436Y-11783D01*
X31366Y-11712D01*
X31274Y-11674D01*
X31137Y-11675D01*
X31075Y-11737D01*
X31075Y-12275D01*
X31412Y-12275D01*
X31475Y-12212D01*
X31475Y-11974D01*
X31475Y-12675D01*
X31475Y-12437D01*
X31412Y-12375D01*
X31075Y-12375D01*
X31075Y-12912D01*
X31137Y-12975D01*
X31274Y-12975D01*
X31366Y-12937D01*
X31436Y-12866D01*
X31474Y-12774D01*
X31475Y-12675D01*
X31475Y-18039D01*
X31252Y-18921D01*
X31246Y-18944D01*
X31151Y-18848D01*
X31062Y-18848D01*
X30992Y-18919D01*
X30992Y-18778D01*
X30992Y-18689D01*
X30869Y-18567D01*
X30840Y-18555D01*
X30828Y-18525D01*
X30705Y-18403D01*
X30617Y-18403D01*
X30546Y-18474D01*
X30546Y-18332D01*
X30546Y-18244D01*
X30424Y-18121D01*
X30394Y-18109D01*
X30382Y-18080D01*
X30260Y-17957D01*
X30171Y-17957D01*
X30101Y-18028D01*
X30101Y-17887D01*
X30101Y-17798D01*
X29978Y-17676D01*
X29886Y-17638D01*
X29787Y-17638D01*
X29695Y-17676D01*
X29625Y-17746D01*
X29544Y-17826D01*
X29544Y-17915D01*
X29809Y-18179D01*
X30101Y-17887D01*
X30101Y-18028D01*
X29879Y-18250D01*
X29990Y-18360D01*
X30144Y-18514D01*
X30254Y-18624D01*
X30546Y-18332D01*
X30546Y-18474D01*
X30325Y-18695D01*
X30435Y-18805D01*
X30589Y-18959D01*
X30699Y-19070D01*
X30992Y-18778D01*
X30992Y-18919D01*
X30770Y-19140D01*
X31034Y-19405D01*
X31123Y-19405D01*
X31203Y-19324D01*
X31273Y-19254D01*
X31311Y-19162D01*
X31311Y-19149D01*
X31403Y-19172D01*
X31861Y-19290D01*
X32063Y-19341D01*
X32113Y-19139D01*
X32447Y-17813D01*
X32497Y-17612D01*
X32497Y-20076D01*
X31796Y-19902D01*
X31595Y-19847D01*
X31544Y-20049D01*
X30711Y-23362D01*
X30660Y-23563D01*
X30858Y-23613D01*
X32785Y-24097D01*
X32053Y-27008D01*
X31188Y-26791D01*
X30987Y-26740D01*
X30936Y-26941D01*
X30135Y-30135D01*
X27143Y-30886D01*
X27102Y-30727D01*
X27102Y-29291D01*
X27102Y-28819D01*
X27090Y-28790D01*
X27102Y-28761D01*
X27102Y-28661D01*
X27102Y-28189D01*
X27090Y-28160D01*
X27102Y-28131D01*
X27102Y-28031D01*
X27102Y-27559D01*
X27065Y-27467D01*
X26994Y-27397D01*
X26930Y-27370D01*
X26935Y-27366D01*
X26999Y-27209D01*
X27000Y-27040D01*
X26935Y-26884D01*
X26816Y-26764D01*
X26659Y-26700D01*
X26490Y-26699D01*
X26334Y-26764D01*
X26214Y-26883D01*
X26150Y-27040D01*
X26149Y-27209D01*
X26214Y-27365D01*
X26220Y-27371D01*
X26160Y-27396D01*
X26089Y-27467D01*
X26051Y-27558D01*
X26051Y-27638D01*
X25959Y-27600D01*
X25790Y-27599D01*
X25634Y-27664D01*
X25514Y-27783D01*
X25450Y-27940D01*
X25449Y-28109D01*
X25514Y-28265D01*
X25633Y-28385D01*
X25790Y-28449D01*
X25833Y-28449D01*
X26050Y-28666D01*
X26009Y-28650D01*
X25840Y-28649D01*
X25684Y-28714D01*
X25564Y-28833D01*
X25500Y-28990D01*
X25499Y-29159D01*
X25564Y-29315D01*
X25683Y-29435D01*
X25840Y-29499D01*
X26009Y-29500D01*
X26084Y-29469D01*
X26089Y-29482D01*
X26159Y-29552D01*
X26251Y-29591D01*
X26351Y-29591D01*
X26902Y-29591D01*
X26994Y-29553D01*
X27064Y-29482D01*
X27102Y-29391D01*
X27102Y-29291D01*
X27102Y-30727D01*
X26926Y-30029D01*
X26875Y-29822D01*
X26677Y-29878D01*
X24898Y-30325D01*
X24898Y-29291D01*
X24898Y-28819D01*
X24886Y-28790D01*
X24898Y-28761D01*
X24898Y-28661D01*
X24898Y-28189D01*
X24886Y-28160D01*
X24898Y-28131D01*
X24898Y-28031D01*
X24898Y-27559D01*
X24860Y-27467D01*
X24790Y-27397D01*
X24698Y-27358D01*
X24598Y-27358D01*
X24405Y-27358D01*
X23793Y-25852D01*
X23023Y-23955D01*
X23364Y-23613D01*
X23402Y-23522D01*
X23402Y-23422D01*
X23364Y-23330D01*
X23294Y-23260D01*
X22960Y-22926D01*
X22931Y-22914D01*
X22919Y-22885D01*
X22849Y-22814D01*
X22515Y-22480D01*
X22485Y-22468D01*
X22474Y-22439D01*
X22403Y-22369D01*
X22069Y-22035D01*
X21977Y-21997D01*
X21878Y-21997D01*
X21786Y-22035D01*
X21716Y-22105D01*
X21326Y-22495D01*
X21288Y-22586D01*
X21288Y-22686D01*
X21319Y-22763D01*
X20941Y-23141D01*
X20908Y-23191D01*
X20873Y-23241D01*
X20872Y-23245D01*
X20870Y-23248D01*
X20858Y-23307D01*
X20845Y-23366D01*
X20845Y-23370D01*
X20845Y-23375D01*
X20856Y-23434D01*
X20867Y-23493D01*
X23066Y-29193D01*
X23069Y-29198D01*
X23070Y-29201D01*
X23092Y-29234D01*
X23135Y-29302D01*
X23140Y-29305D01*
X23141Y-29308D01*
X23171Y-29338D01*
X23278Y-29409D01*
X23278Y-29409D01*
X23404Y-29434D01*
X23793Y-29434D01*
X23865Y-29434D01*
X23884Y-29482D01*
X23955Y-29552D01*
X24047Y-29591D01*
X24146Y-29591D01*
X24697Y-29591D01*
X24789Y-29553D01*
X24860Y-29482D01*
X24898Y-29391D01*
X24898Y-29291D01*
X24898Y-30325D01*
X23793Y-30602D01*
X23361Y-30711D01*
X23165Y-30761D01*
X23211Y-30962D01*
X23698Y-32886D01*
X22994Y-33063D01*
X22994Y-30642D01*
X22867Y-30333D01*
X22630Y-30096D01*
X22322Y-29968D01*
X21987Y-29967D01*
X21678Y-30095D01*
X21442Y-30331D01*
X21313Y-30640D01*
X21313Y-30975D01*
X21441Y-31284D01*
X21677Y-31520D01*
X21986Y-31648D01*
X22320Y-31649D01*
X22629Y-31521D01*
X22866Y-31285D01*
X22994Y-30976D01*
X22994Y-30642D01*
X22994Y-33063D01*
X21100Y-33539D01*
X21100Y-31230D01*
X21012Y-30908D01*
X20831Y-30666D01*
X20694Y-30635D01*
X20608Y-30780D01*
X20608Y-30584D01*
X20517Y-30478D01*
X20185Y-30436D01*
X19862Y-30524D01*
X19652Y-30681D01*
X19652Y-28590D01*
X19652Y-28019D01*
X19640Y-27989D01*
X19652Y-27960D01*
X19652Y-27389D01*
X19640Y-27360D01*
X19652Y-27330D01*
X19652Y-26759D01*
X19615Y-26667D01*
X19544Y-26597D01*
X19452Y-26558D01*
X19353Y-26558D01*
X19239Y-26558D01*
X19177Y-26621D01*
X19177Y-26995D01*
X19590Y-26995D01*
X19652Y-26932D01*
X19652Y-26759D01*
X19652Y-27330D01*
X19652Y-27157D01*
X19590Y-27095D01*
X19177Y-27095D01*
X19177Y-27251D01*
X19177Y-27468D01*
X19177Y-27625D01*
X19590Y-27625D01*
X19652Y-27562D01*
X19652Y-27389D01*
X19652Y-27960D01*
X19652Y-27787D01*
X19590Y-27725D01*
X19177Y-27725D01*
X19177Y-27881D01*
X19177Y-28098D01*
X19177Y-28254D01*
X19590Y-28254D01*
X19652Y-28192D01*
X19652Y-28019D01*
X19652Y-28590D01*
X19652Y-28417D01*
X19590Y-28354D01*
X19177Y-28354D01*
X19177Y-28728D01*
X19239Y-28791D01*
X19353Y-28791D01*
X19452Y-28791D01*
X19544Y-28752D01*
X19615Y-28682D01*
X19652Y-28590D01*
X19652Y-30681D01*
X19620Y-30705D01*
X19590Y-30842D01*
X20228Y-31222D01*
X20608Y-30584D01*
X20608Y-30780D01*
X20314Y-31274D01*
X20952Y-31654D01*
X21058Y-31562D01*
X21100Y-31230D01*
X21100Y-33539D01*
X20901Y-33589D01*
X20901Y-31740D01*
X20263Y-31359D01*
X20177Y-31504D01*
X20177Y-31308D01*
X19539Y-30928D01*
X19432Y-31020D01*
X19390Y-31351D01*
X19479Y-31674D01*
X19659Y-31916D01*
X19796Y-31946D01*
X20177Y-31308D01*
X20177Y-31504D01*
X19882Y-31998D01*
X19974Y-32104D01*
X20306Y-32146D01*
X20628Y-32058D01*
X20871Y-31877D01*
X20901Y-31740D01*
X20901Y-33589D01*
X20785Y-33619D01*
X20568Y-32754D01*
X20518Y-32556D01*
X20317Y-32607D01*
X19337Y-32853D01*
X19337Y-32063D01*
X19287Y-31862D01*
X19172Y-31403D01*
X19122Y-31202D01*
X19077Y-31213D01*
X19077Y-28728D01*
X19077Y-28354D01*
X19077Y-28254D01*
X19077Y-28098D01*
X19077Y-27881D01*
X19077Y-27725D01*
X19077Y-27625D01*
X19077Y-27468D01*
X19077Y-27251D01*
X19077Y-27095D01*
X19077Y-26995D01*
X19077Y-26621D01*
X19014Y-26558D01*
X18901Y-26558D01*
X18801Y-26558D01*
X18709Y-26597D01*
X18639Y-26667D01*
X18601Y-26759D01*
X18601Y-26932D01*
X18664Y-26995D01*
X19077Y-26995D01*
X19077Y-27095D01*
X18664Y-27095D01*
X18601Y-27157D01*
X18601Y-27330D01*
X18613Y-27360D01*
X18601Y-27389D01*
X18601Y-27562D01*
X18664Y-27625D01*
X19077Y-27625D01*
X19077Y-27725D01*
X18664Y-27725D01*
X18601Y-27787D01*
X18601Y-27960D01*
X18613Y-27989D01*
X18601Y-28019D01*
X18601Y-28192D01*
X18664Y-28254D01*
X19077Y-28254D01*
X19077Y-28354D01*
X18664Y-28354D01*
X18601Y-28417D01*
X18601Y-28590D01*
X18639Y-28682D01*
X18709Y-28752D01*
X18801Y-28791D01*
X18901Y-28791D01*
X19014Y-28791D01*
X19077Y-28728D01*
X19077Y-31213D01*
X18921Y-31252D01*
X17594Y-31586D01*
X17448Y-31622D01*
X17448Y-28491D01*
X17448Y-28019D01*
X17436Y-27990D01*
X17448Y-27961D01*
X17448Y-27861D01*
X17448Y-27389D01*
X17436Y-27360D01*
X17448Y-27331D01*
X17448Y-27231D01*
X17448Y-26759D01*
X17410Y-26667D01*
X17340Y-26597D01*
X17248Y-26558D01*
X17148Y-26558D01*
X16597Y-26558D01*
X16505Y-26596D01*
X16435Y-26667D01*
X16413Y-26719D01*
X16372Y-26720D01*
X16329Y-26728D01*
X16310Y-26729D01*
X16292Y-26736D01*
X16246Y-26746D01*
X16205Y-26773D01*
X16191Y-26779D01*
X16181Y-26790D01*
X16139Y-26818D01*
X16111Y-26862D01*
X16101Y-26871D01*
X13600Y-30708D01*
X13352Y-30708D01*
X13260Y-30746D01*
X13189Y-30817D01*
X13151Y-30908D01*
X13151Y-31008D01*
X13151Y-31480D01*
X13163Y-31509D01*
X13151Y-31538D01*
X13151Y-31638D01*
X13151Y-32110D01*
X13163Y-32139D01*
X13151Y-32168D01*
X13151Y-32268D01*
X13151Y-32740D01*
X13189Y-32832D01*
X13259Y-32902D01*
X13351Y-32941D01*
X13451Y-32941D01*
X14002Y-32941D01*
X14094Y-32903D01*
X14164Y-32832D01*
X14184Y-32784D01*
X14195Y-32784D01*
X14243Y-32775D01*
X14292Y-32770D01*
X14305Y-32762D01*
X14321Y-32759D01*
X14362Y-32732D01*
X14405Y-32709D01*
X14862Y-32330D01*
X14873Y-32318D01*
X14885Y-32309D01*
X14908Y-32276D01*
X14935Y-32246D01*
X17011Y-28791D01*
X17247Y-28791D01*
X17339Y-28753D01*
X17410Y-28682D01*
X17448Y-28591D01*
X17448Y-28491D01*
X17448Y-31622D01*
X17393Y-31636D01*
X17443Y-31838D01*
X17561Y-32296D01*
X17612Y-32497D01*
X17813Y-32447D01*
X19136Y-32113D01*
X19337Y-32063D01*
X19337Y-32853D01*
X17212Y-33386D01*
X16992Y-32528D01*
X16942Y-32327D01*
X16740Y-32378D01*
X13428Y-33211D01*
X13227Y-33261D01*
X13277Y-33466D01*
X13761Y-35386D01*
X11998Y-35829D01*
X11998Y-32641D01*
X11998Y-32169D01*
X11986Y-32140D01*
X11998Y-32111D01*
X11998Y-32011D01*
X11998Y-31539D01*
X11986Y-31510D01*
X11998Y-31481D01*
X11998Y-31381D01*
X11998Y-30909D01*
X11960Y-30817D01*
X11900Y-30757D01*
X11900Y-25990D01*
X11835Y-25834D01*
X11805Y-25804D01*
X11805Y-23625D01*
X11804Y-23624D01*
X11805Y-23624D01*
X11800Y-23599D01*
X11779Y-23498D01*
X11779Y-23498D01*
X11708Y-23391D01*
X11708Y-23391D01*
X11055Y-22739D01*
X10948Y-22667D01*
X10822Y-22642D01*
X9239Y-22642D01*
X9239Y-16560D01*
X9096Y-16214D01*
X8832Y-15950D01*
X8486Y-15806D01*
X8112Y-15806D01*
X7890Y-15898D01*
X6325Y-14333D01*
X6325Y-14290D01*
X6260Y-14134D01*
X6141Y-14014D01*
X5984Y-13950D01*
X5815Y-13949D01*
X5659Y-14014D01*
X5539Y-14133D01*
X5475Y-14290D01*
X5474Y-14459D01*
X5539Y-14615D01*
X5658Y-14735D01*
X5815Y-14799D01*
X5858Y-14799D01*
X7434Y-16376D01*
X7358Y-16559D01*
X7358Y-16933D01*
X7501Y-17279D01*
X7765Y-17543D01*
X8111Y-17687D01*
X8485Y-17687D01*
X8831Y-17544D01*
X9095Y-17280D01*
X9239Y-16934D01*
X9239Y-16560D01*
X9239Y-22642D01*
X8739Y-22642D01*
X8703Y-22555D01*
X8632Y-22485D01*
X8541Y-22447D01*
X8441Y-22447D01*
X7969Y-22447D01*
X7940Y-22459D01*
X7911Y-22447D01*
X7811Y-22447D01*
X7339Y-22447D01*
X7310Y-22459D01*
X7281Y-22447D01*
X7181Y-22447D01*
X6709Y-22447D01*
X6617Y-22484D01*
X6547Y-22555D01*
X6508Y-22647D01*
X6508Y-22746D01*
X6508Y-23297D01*
X6546Y-23389D01*
X6617Y-23460D01*
X6708Y-23498D01*
X6741Y-23498D01*
X6741Y-23498D01*
X6761Y-23528D01*
X7641Y-24408D01*
X7748Y-24479D01*
X7748Y-24479D01*
X7875Y-24505D01*
X10403Y-24505D01*
X10433Y-24535D01*
X10590Y-24599D01*
X10745Y-24600D01*
X10745Y-24953D01*
X10714Y-24983D01*
X10650Y-25140D01*
X10649Y-25309D01*
X10714Y-25465D01*
X10833Y-25585D01*
X10990Y-25649D01*
X11145Y-25650D01*
X11145Y-25803D01*
X11114Y-25833D01*
X11050Y-25990D01*
X11049Y-26159D01*
X11114Y-26315D01*
X11233Y-26435D01*
X11390Y-26499D01*
X11559Y-26500D01*
X11715Y-26435D01*
X11835Y-26316D01*
X11899Y-26159D01*
X11900Y-25990D01*
X11900Y-30757D01*
X11890Y-30747D01*
X11798Y-30708D01*
X11698Y-30708D01*
X11147Y-30708D01*
X11119Y-30720D01*
X8919Y-28189D01*
X8639Y-25657D01*
X8702Y-25594D01*
X8741Y-25502D01*
X8741Y-25403D01*
X8741Y-24852D01*
X8703Y-24760D01*
X8632Y-24689D01*
X8541Y-24651D01*
X8441Y-24651D01*
X7969Y-24651D01*
X7940Y-24663D01*
X7911Y-24651D01*
X7811Y-24651D01*
X7339Y-24651D01*
X7310Y-24663D01*
X7281Y-24651D01*
X7181Y-24651D01*
X6709Y-24651D01*
X6617Y-24689D01*
X6547Y-24759D01*
X6508Y-24851D01*
X6508Y-24951D01*
X6508Y-25502D01*
X6546Y-25594D01*
X6617Y-25664D01*
X6708Y-25702D01*
X6721Y-25702D01*
X7020Y-28411D01*
X7036Y-28462D01*
X7040Y-28490D01*
X7049Y-28504D01*
X7058Y-28534D01*
X7092Y-28574D01*
X7108Y-28600D01*
X10913Y-32680D01*
X10918Y-32683D01*
X10921Y-32688D01*
X10947Y-32705D01*
X10947Y-32740D01*
X10984Y-32832D01*
X11055Y-32902D01*
X11147Y-32941D01*
X11246Y-32941D01*
X11797Y-32941D01*
X11889Y-32903D01*
X11960Y-32832D01*
X11998Y-32741D01*
X11998Y-32641D01*
X11998Y-35829D01*
X10848Y-36119D01*
X10634Y-35257D01*
X10579Y-35056D01*
X10382Y-35107D01*
X8867Y-35489D01*
X8867Y-34336D01*
X8788Y-34143D01*
X8640Y-33996D01*
X8447Y-33915D01*
X8425Y-33915D01*
X8455Y-33903D01*
X8603Y-33755D01*
X8683Y-33562D01*
X8684Y-33353D01*
X8604Y-33160D01*
X8456Y-33013D01*
X8263Y-32933D01*
X8241Y-32933D01*
X8272Y-32920D01*
X8419Y-32772D01*
X8499Y-32579D01*
X8500Y-32371D01*
X8420Y-32178D01*
X8272Y-32030D01*
X8116Y-31965D01*
X8206Y-31948D01*
X8289Y-31894D01*
X8346Y-31812D01*
X8366Y-31714D01*
X8348Y-31617D01*
X8247Y-31076D01*
X8193Y-30993D01*
X8111Y-30936D01*
X8013Y-30916D01*
X7916Y-30934D01*
X7375Y-31035D01*
X7292Y-31089D01*
X7235Y-31171D01*
X7215Y-31269D01*
X7233Y-31367D01*
X7334Y-31907D01*
X7388Y-31990D01*
X7470Y-32047D01*
X7568Y-32067D01*
X7656Y-32051D01*
X7530Y-32177D01*
X7450Y-32370D01*
X7449Y-32578D01*
X7529Y-32772D01*
X7677Y-32919D01*
X7870Y-32999D01*
X7892Y-32999D01*
X7861Y-33012D01*
X7714Y-33160D01*
X7634Y-33353D01*
X7633Y-33561D01*
X7713Y-33754D01*
X7861Y-33902D01*
X8054Y-33982D01*
X8076Y-33982D01*
X8045Y-33995D01*
X7898Y-34143D01*
X7817Y-34335D01*
X7817Y-34544D01*
X7897Y-34737D01*
X8045Y-34885D01*
X8238Y-34965D01*
X8446Y-34965D01*
X8639Y-34886D01*
X8787Y-34738D01*
X8867Y-34545D01*
X8867Y-34336D01*
X8867Y-35489D01*
X7281Y-35889D01*
X5943Y-29083D01*
X6814Y-28913D01*
X7025Y-28876D01*
X6978Y-28669D01*
X6270Y-25059D01*
X6234Y-24853D01*
X6027Y-24894D01*
X5582Y-24982D01*
X5582Y-18653D01*
X5541Y-18447D01*
X5256Y-17003D01*
X5219Y-16796D01*
X5013Y-16842D01*
X4598Y-16926D01*
X4598Y-13190D01*
X4598Y-12619D01*
X4586Y-12589D01*
X4598Y-12560D01*
X4598Y-11989D01*
X4586Y-11960D01*
X4598Y-11930D01*
X4598Y-11359D01*
X4560Y-11267D01*
X4490Y-11197D01*
X4398Y-11158D01*
X4298Y-11158D01*
X4185Y-11158D01*
X4122Y-11221D01*
X4122Y-11595D01*
X4535Y-11595D01*
X4598Y-11532D01*
X4598Y-11359D01*
X4598Y-11930D01*
X4598Y-11757D01*
X4535Y-11695D01*
X4122Y-11695D01*
X4122Y-11851D01*
X4122Y-12068D01*
X4122Y-12225D01*
X4535Y-12225D01*
X4598Y-12162D01*
X4598Y-11989D01*
X4598Y-12560D01*
X4598Y-12387D01*
X4535Y-12325D01*
X4122Y-12325D01*
X4122Y-12481D01*
X4122Y-12698D01*
X4122Y-12854D01*
X4535Y-12854D01*
X4598Y-12792D01*
X4598Y-12619D01*
X4598Y-13190D01*
X4598Y-13017D01*
X4535Y-12954D01*
X4122Y-12954D01*
X4122Y-13328D01*
X4185Y-13391D01*
X4298Y-13391D01*
X4398Y-13391D01*
X4490Y-13352D01*
X4560Y-13282D01*
X4598Y-13190D01*
X4598Y-16926D01*
X4551Y-16936D01*
X4349Y-16977D01*
X4391Y-17179D01*
X4675Y-18619D01*
X4712Y-18821D01*
X4918Y-18784D01*
X5380Y-18694D01*
X5582Y-18653D01*
X5582Y-24982D01*
X4083Y-25277D01*
X3453Y-22070D01*
X4324Y-21902D01*
X4526Y-21861D01*
X4485Y-21659D01*
X3110Y-14636D01*
X3980Y-14465D01*
X4182Y-14428D01*
X4145Y-14225D01*
X3977Y-13373D01*
X4022Y-13328D01*
X4022Y-12954D01*
X4014Y-12954D01*
X4014Y-12854D01*
X4022Y-12854D01*
X4022Y-12698D01*
X4022Y-12481D01*
X4022Y-12325D01*
X4014Y-12325D01*
X4014Y-12225D01*
X4022Y-12225D01*
X4022Y-12068D01*
X4022Y-11851D01*
X4022Y-11695D01*
X4014Y-11695D01*
X4014Y-11595D01*
X4022Y-11595D01*
X4022Y-11221D01*
X3960Y-11158D01*
X3846Y-11158D01*
X3747Y-11158D01*
X3655Y-11197D01*
X3584Y-11267D01*
X3569Y-11304D01*
X3433Y-10614D01*
X3397Y-10408D01*
X3190Y-10450D01*
X3006Y-10486D01*
X3006Y-4897D01*
X2938Y-4570D01*
X2773Y-4317D01*
X2638Y-4278D01*
X2556Y-4398D01*
X2556Y-4221D01*
X2471Y-4110D01*
X2142Y-4047D01*
X1815Y-4115D01*
X1562Y-4280D01*
X1523Y-4415D01*
X2136Y-4834D01*
X2556Y-4221D01*
X2556Y-4398D01*
X2219Y-4891D01*
X2832Y-5311D01*
X2943Y-5226D01*
X3006Y-4897D01*
X3006Y-10486D01*
X2775Y-10532D01*
X2775Y-5393D01*
X2162Y-4973D01*
X2080Y-5094D01*
X2080Y-4917D01*
X1467Y-4497D01*
X1355Y-4582D01*
X1292Y-4911D01*
X1360Y-5238D01*
X1525Y-5491D01*
X1660Y-5530D01*
X2080Y-4917D01*
X2080Y-5094D01*
X1742Y-5586D01*
X1827Y-5698D01*
X2156Y-5761D01*
X2483Y-5693D01*
X2736Y-5528D01*
X2775Y-5393D01*
X2775Y-10532D01*
X1247Y-10832D01*
X617Y-7629D01*
X1491Y-7457D01*
X1693Y-7416D01*
X1652Y-7211D01*
X295Y-295D01*
X7009Y-1615D01*
X6839Y-2482D01*
X6798Y-2687D01*
X6999Y-2728D01*
X10614Y-3433D01*
X10821Y-3479D01*
X10854Y-3271D01*
X11236Y-1325D01*
X14444Y-1958D01*
X14273Y-2826D01*
X14232Y-3031D01*
X14434Y-3072D01*
X21457Y-4448D01*
X21283Y-5319D01*
X21242Y-5525D01*
X21448Y-5562D01*
X25058Y-6270D01*
X25259Y-6311D01*
X25305Y-6110D01*
X25684Y-4162D01*
X28888Y-4792D01*
X28717Y-5663D01*
X28676Y-5865D01*
X28881Y-5905D01*
X35889Y-7281D01*
M02*
