M48
INCH,TZ
T1C0.025
T2C0.032
T3C0.040
T4C0.118
%
G90
G05
T1
X3550Y-5000
X4200Y-3900
X4900Y-3350
X5475Y-16250
X8650Y-8650
X10200Y-23700
X10600Y-24750
X11000Y-25600
X19100Y-5500
X19100Y-6150
X19100Y-6800
X23500Y-8100
X25400Y-27550
X25450Y-28600
X26100Y-26650
X26300Y-9650
X26500Y-6050
X27000Y-18700
X27600Y-9800
X28000Y-23550
X28500Y-23800
X28750Y-10800
X29500Y-23600
T2
X7316Y-31017
X7500Y-32000
X7684Y-32983
X31017Y-7316
X32000Y-7500
X32983Y-7684
T3
X1575Y-3150
X3150Y-1575
X27165Y-28740
X28740Y-27165
T4
X7824Y-16272
X16176Y-7921
X16176Y-24624
X24528Y-16272
T0
M30
