G04 (created by PCBNEW (22-Jun-2014 BZR 4027)-stable) date Thu 17 Jul 2014 04:04:50 PM CEST*
%MOIN*%
G04 Gerber Fmt 3.4, Leading zero omitted, Abs format*
%FSLAX34Y34*%
G01*
G70*
G90*
G04 APERTURE LIST*
%ADD10C,0.00590551*%
%ADD11C,0.01*%
G04 APERTURE END LIST*
G54D10*
G54D11*
X31Y-31D02*
X1447Y-7253D01*
X1447Y-7253D02*
X374Y-7465D01*
X374Y-7465D02*
X1083Y-11076D01*
X1083Y-11076D02*
X3232Y-10652D01*
X3232Y-10652D02*
X3340Y-11194D01*
X3340Y-11194D02*
X2982Y-11267D01*
X2982Y-11267D02*
X3478Y-13794D01*
X3478Y-13794D02*
X3836Y-13722D01*
X3836Y-13722D02*
X3940Y-14263D01*
X3940Y-14263D02*
X2867Y-14475D01*
X2867Y-14475D02*
X4284Y-21697D01*
X4284Y-21697D02*
X3211Y-21909D01*
X3211Y-21909D02*
X3919Y-25520D01*
X3919Y-25520D02*
X6069Y-25100D01*
X6069Y-25100D02*
X6176Y-25642D01*
X6176Y-25642D02*
X5819Y-25711D01*
X5819Y-25711D02*
X6312Y-28239D01*
X6312Y-28239D02*
X6673Y-28169D01*
X6673Y-28169D02*
X6777Y-28711D01*
X6777Y-28711D02*
X5704Y-28919D01*
X5704Y-28919D02*
X7121Y-36142D01*
X7121Y-36142D02*
X10433Y-35308D01*
X10433Y-35308D02*
X10701Y-36371D01*
X10701Y-36371D02*
X14013Y-35538D01*
X14013Y-35538D02*
X13478Y-33413D01*
X13478Y-33413D02*
X13975Y-33288D01*
X13975Y-33288D02*
X14065Y-33642D01*
X14065Y-33642D02*
X16381Y-33058D01*
X16381Y-33058D02*
X16294Y-32704D01*
X16294Y-32704D02*
X16791Y-32579D01*
X16791Y-32579D02*
X17058Y-33642D01*
X17058Y-33642D02*
X20371Y-32808D01*
X20371Y-32808D02*
X20638Y-33871D01*
X20638Y-33871D02*
X23947Y-33034D01*
X23947Y-33034D02*
X23413Y-30909D01*
X23413Y-30909D02*
X23909Y-30784D01*
X23909Y-30784D02*
X23999Y-31138D01*
X23999Y-31138D02*
X26319Y-30555D01*
X26319Y-30555D02*
X26228Y-30201D01*
X26228Y-30201D02*
X26725Y-30076D01*
X26725Y-30076D02*
X26992Y-31138D01*
X26992Y-31138D02*
X30305Y-30305D01*
X30305Y-30305D02*
X31138Y-26992D01*
X31138Y-26992D02*
X32201Y-27260D01*
X32201Y-27260D02*
X33034Y-23947D01*
X33034Y-23947D02*
X30909Y-23413D01*
X30909Y-23413D02*
X31038Y-22916D01*
X31038Y-22916D02*
X31392Y-23006D01*
X31392Y-23006D02*
X31975Y-20687D01*
X31975Y-20687D02*
X31621Y-20600D01*
X31621Y-20600D02*
X31746Y-20100D01*
X31746Y-20100D02*
X32808Y-20371D01*
X32808Y-20371D02*
X33642Y-17058D01*
X33642Y-17058D02*
X34704Y-17326D01*
X34704Y-17326D02*
X35538Y-14013D01*
X35538Y-14013D02*
X33413Y-13478D01*
X33413Y-13478D02*
X33538Y-12982D01*
X33538Y-12982D02*
X33892Y-13069D01*
X33892Y-13069D02*
X34475Y-10753D01*
X34475Y-10753D02*
X34121Y-10663D01*
X34121Y-10663D02*
X34246Y-10166D01*
X34246Y-10166D02*
X35308Y-10433D01*
X35308Y-10433D02*
X36142Y-7121D01*
X36142Y-7121D02*
X28919Y-5704D01*
X28919Y-5704D02*
X29131Y-4628D01*
X29131Y-4628D02*
X25520Y-3919D01*
X25520Y-3919D02*
X25100Y-6069D01*
X25100Y-6069D02*
X24558Y-5961D01*
X24558Y-5961D02*
X24628Y-5603D01*
X24628Y-5603D02*
X22100Y-5107D01*
X22100Y-5107D02*
X22027Y-5468D01*
X22027Y-5468D02*
X21485Y-5360D01*
X21485Y-5360D02*
X21697Y-4284D01*
X21697Y-4284D02*
X14475Y-2867D01*
X14475Y-2867D02*
X14687Y-1791D01*
X14687Y-1791D02*
X11076Y-1083D01*
X11076Y-1083D02*
X10652Y-3232D01*
X10652Y-3232D02*
X10110Y-3128D01*
X10110Y-3128D02*
X10183Y-2767D01*
X10183Y-2767D02*
X7656Y-2270D01*
X7656Y-2270D02*
X7583Y-2631D01*
X7583Y-2631D02*
X7041Y-2524D01*
X7041Y-2524D02*
X7253Y-1447D01*
X7253Y-1447D02*
X31Y-31D01*
X31Y-31D02*
X31Y-31D01*
X17135Y-4593D02*
X18583Y-4874D01*
X18583Y-4874D02*
X18492Y-5340D01*
X18492Y-5340D02*
X17044Y-5058D01*
X17044Y-5058D02*
X17135Y-4593D01*
X17135Y-4593D02*
X17135Y-4593D01*
X16649Y-9812D02*
X16815Y-9814D01*
X16815Y-9814D02*
X16981Y-9820D01*
X16981Y-9820D02*
X17148Y-9830D01*
X17148Y-9830D02*
X17314Y-9844D01*
X17314Y-9844D02*
X17479Y-9861D01*
X17479Y-9861D02*
X17645Y-9883D01*
X17645Y-9883D02*
X17809Y-9909D01*
X17809Y-9909D02*
X17974Y-9939D01*
X17974Y-9939D02*
X18137Y-9972D01*
X18137Y-9972D02*
X18300Y-10010D01*
X18300Y-10010D02*
X18463Y-10052D01*
X18463Y-10052D02*
X18624Y-10097D01*
X18624Y-10097D02*
X18784Y-10147D01*
X18784Y-10147D02*
X18944Y-10200D01*
X18944Y-10200D02*
X19102Y-10258D01*
X19102Y-10258D02*
X19259Y-10319D01*
X19259Y-10319D02*
X19415Y-10385D01*
X19415Y-10385D02*
X19570Y-10454D01*
X19570Y-10454D02*
X19723Y-10528D01*
X19723Y-10528D02*
X19875Y-10605D01*
X19875Y-10605D02*
X20025Y-10686D01*
X20025Y-10686D02*
X20174Y-10772D01*
X20174Y-10772D02*
X20321Y-10861D01*
X20321Y-10861D02*
X20466Y-10954D01*
X20466Y-10954D02*
X20610Y-11051D01*
X20610Y-11051D02*
X20751Y-11152D01*
X20751Y-11152D02*
X20891Y-11258D01*
X20891Y-11258D02*
X21028Y-11367D01*
X21028Y-11367D02*
X21163Y-11480D01*
X21163Y-11480D02*
X21296Y-11597D01*
X21296Y-11597D02*
X21427Y-11718D01*
X21427Y-11718D02*
X21555Y-11843D01*
X21555Y-11843D02*
X21801Y-12102D01*
X21801Y-12102D02*
X22031Y-12370D01*
X22031Y-12370D02*
X22246Y-12647D01*
X22246Y-12647D02*
X22444Y-12931D01*
X22444Y-12931D02*
X22627Y-13224D01*
X22627Y-13224D02*
X22793Y-13522D01*
X22793Y-13522D02*
X22944Y-13827D01*
X22944Y-13827D02*
X23079Y-14138D01*
X23079Y-14138D02*
X23198Y-14453D01*
X23198Y-14453D02*
X23302Y-14773D01*
X23302Y-14773D02*
X23389Y-15097D01*
X23389Y-15097D02*
X23460Y-15423D01*
X23460Y-15423D02*
X23516Y-15752D01*
X23516Y-15752D02*
X23556Y-16083D01*
X23556Y-16083D02*
X23579Y-16415D01*
X23579Y-16415D02*
X23587Y-16748D01*
X23587Y-16748D02*
X23579Y-17080D01*
X23579Y-17080D02*
X23556Y-17412D01*
X23556Y-17412D02*
X23516Y-17743D01*
X23516Y-17743D02*
X23460Y-18072D01*
X23460Y-18072D02*
X23389Y-18399D01*
X23389Y-18399D02*
X23302Y-18722D01*
X23302Y-18722D02*
X23198Y-19042D01*
X23198Y-19042D02*
X23079Y-19357D01*
X23079Y-19357D02*
X22944Y-19668D01*
X22944Y-19668D02*
X22793Y-19973D01*
X22793Y-19973D02*
X22627Y-20272D01*
X22627Y-20272D02*
X22444Y-20564D01*
X22444Y-20564D02*
X22246Y-20848D01*
X22246Y-20848D02*
X22031Y-21125D01*
X22031Y-21125D02*
X21801Y-21393D01*
X21801Y-21393D02*
X21555Y-21652D01*
X21555Y-21652D02*
X21296Y-21898D01*
X21296Y-21898D02*
X21028Y-22128D01*
X21028Y-22128D02*
X20751Y-22343D01*
X20751Y-22343D02*
X20466Y-22541D01*
X20466Y-22541D02*
X20174Y-22724D01*
X20174Y-22724D02*
X19876Y-22891D01*
X19876Y-22891D02*
X19571Y-23042D01*
X19571Y-23042D02*
X19260Y-23176D01*
X19260Y-23176D02*
X18945Y-23296D01*
X18945Y-23296D02*
X18625Y-23399D01*
X18625Y-23399D02*
X18301Y-23486D01*
X18301Y-23486D02*
X17975Y-23558D01*
X17975Y-23558D02*
X17646Y-23613D01*
X17646Y-23613D02*
X17315Y-23653D01*
X17315Y-23653D02*
X16983Y-23677D01*
X16983Y-23677D02*
X16650Y-23685D01*
X16650Y-23685D02*
X16318Y-23677D01*
X16318Y-23677D02*
X15986Y-23653D01*
X15986Y-23653D02*
X15655Y-23613D01*
X15655Y-23613D02*
X15326Y-23558D01*
X15326Y-23558D02*
X14999Y-23486D01*
X14999Y-23486D02*
X14676Y-23399D01*
X14676Y-23399D02*
X14356Y-23296D01*
X14356Y-23296D02*
X14041Y-23176D01*
X14041Y-23176D02*
X13730Y-23042D01*
X13730Y-23042D02*
X13425Y-22891D01*
X13425Y-22891D02*
X13126Y-22724D01*
X13126Y-22724D02*
X12834Y-22541D01*
X12834Y-22541D02*
X12550Y-22343D01*
X12550Y-22343D02*
X12273Y-22128D01*
X12273Y-22128D02*
X12005Y-21898D01*
X12005Y-21898D02*
X11746Y-21652D01*
X11746Y-21652D02*
X11500Y-21393D01*
X11500Y-21393D02*
X11269Y-21125D01*
X11269Y-21125D02*
X11055Y-20848D01*
X11055Y-20848D02*
X10857Y-20564D01*
X10857Y-20564D02*
X10674Y-20272D01*
X10674Y-20272D02*
X10507Y-19973D01*
X10507Y-19973D02*
X10356Y-19668D01*
X10356Y-19668D02*
X10221Y-19357D01*
X10221Y-19357D02*
X10102Y-19042D01*
X10102Y-19042D02*
X9999Y-18722D01*
X9999Y-18722D02*
X9912Y-18399D01*
X9912Y-18399D02*
X9840Y-18072D01*
X9840Y-18072D02*
X9785Y-17743D01*
X9785Y-17743D02*
X9745Y-17412D01*
X9745Y-17412D02*
X9721Y-17080D01*
X9721Y-17080D02*
X9713Y-16748D01*
X9713Y-16748D02*
X9721Y-16415D01*
X9721Y-16415D02*
X9745Y-16083D01*
X9745Y-16083D02*
X9785Y-15752D01*
X9785Y-15752D02*
X9840Y-15423D01*
X9840Y-15423D02*
X9912Y-15097D01*
X9912Y-15097D02*
X9999Y-14773D01*
X9999Y-14773D02*
X10102Y-14453D01*
X10102Y-14453D02*
X10221Y-14138D01*
X10221Y-14138D02*
X10356Y-13827D01*
X10356Y-13827D02*
X10507Y-13522D01*
X10507Y-13522D02*
X10674Y-13224D01*
X10674Y-13224D02*
X10857Y-12931D01*
X10857Y-12931D02*
X11055Y-12647D01*
X11055Y-12647D02*
X11269Y-12370D01*
X11269Y-12370D02*
X11500Y-12102D01*
X11500Y-12102D02*
X11746Y-11843D01*
X11746Y-11843D02*
X11874Y-11718D01*
X11874Y-11718D02*
X12005Y-11597D01*
X12005Y-11597D02*
X12138Y-11480D01*
X12138Y-11480D02*
X12273Y-11367D01*
X12273Y-11367D02*
X12410Y-11258D01*
X12410Y-11258D02*
X12549Y-11152D01*
X12549Y-11152D02*
X12691Y-11051D01*
X12691Y-11051D02*
X12834Y-10954D01*
X12834Y-10954D02*
X12979Y-10861D01*
X12979Y-10861D02*
X13126Y-10772D01*
X13126Y-10772D02*
X13274Y-10686D01*
X13274Y-10686D02*
X13424Y-10605D01*
X13424Y-10605D02*
X13576Y-10528D01*
X13576Y-10528D02*
X13729Y-10454D01*
X13729Y-10454D02*
X13884Y-10385D01*
X13884Y-10385D02*
X14040Y-10319D01*
X14040Y-10319D02*
X14197Y-10258D01*
X14197Y-10258D02*
X14355Y-10200D01*
X14355Y-10200D02*
X14514Y-10147D01*
X14514Y-10147D02*
X14674Y-10097D01*
X14674Y-10097D02*
X14836Y-10052D01*
X14836Y-10052D02*
X14998Y-10010D01*
X14998Y-10010D02*
X15161Y-9972D01*
X15161Y-9972D02*
X15324Y-9939D01*
X15324Y-9939D02*
X15488Y-9909D01*
X15488Y-9909D02*
X15653Y-9883D01*
X15653Y-9883D02*
X15818Y-9861D01*
X15818Y-9861D02*
X15984Y-9844D01*
X15984Y-9844D02*
X16150Y-9830D01*
X16150Y-9830D02*
X16316Y-9820D01*
X16316Y-9820D02*
X16482Y-9814D01*
X16482Y-9814D02*
X16649Y-9812D01*
X16649Y-9812D02*
X16649Y-9812D01*
X5055Y-17044D02*
X5340Y-18489D01*
X5340Y-18489D02*
X4878Y-18579D01*
X4878Y-18579D02*
X4593Y-17138D01*
X4593Y-17138D02*
X5055Y-17044D01*
X5055Y-17044D02*
X5055Y-17044D01*
X31788Y-17649D02*
X32246Y-17763D01*
X32246Y-17763D02*
X31913Y-19090D01*
X31913Y-19090D02*
X31454Y-18972D01*
X31454Y-18972D02*
X31788Y-17649D01*
X31788Y-17649D02*
X31788Y-17649D01*
X18972Y-31454D02*
X19086Y-31913D01*
X19086Y-31913D02*
X17763Y-32246D01*
X17763Y-32246D02*
X17645Y-31788D01*
X17645Y-31788D02*
X18972Y-31454D01*
X18972Y-31454D02*
X18972Y-31454D01*
M02*
